<svg xmlns="http://www.w3.org/2000/svg" width="400" height="417" viewBox="0 0 400 417">
  <g id="Grupo_152230" data-name="Grupo 152230" transform="translate(-1020 -5836)">
    <g id="Grupo_152210" data-name="Grupo 152210" transform="translate(0 110)">
      <g id="Grupo_152209" data-name="Grupo 152209" transform="translate(760.133 2853)">
        <path id="Trazado_119475" data-name="Trazado 119475" d="M80.245,237.454l-14.732,8.283V88.075l14.732-8.283Z" transform="translate(373.324 3037.291)" fill="#e8e8e8"/>
        <path id="Trazado_119476" data-name="Trazado 119476" d="M60.783,240.008l7.413,4.279V86.625l-7.413-4.279Z" transform="translate(367.392 3038.74)" fill="#bcbcbc"/>
        <path id="Trazado_119477" data-name="Trazado 119477" d="M82.929,81.336l-7.366-4.262L60.784,85.339,68.2,89.619Z" transform="translate(369.3 2976.866)" fill="#fff"/>
        <path id="Trazado_119478" data-name="Trazado 119478" d="M97.569,227.846l-14.734,8.283V78.467l14.734-8.283Z" transform="translate(391.69 3031.838)" fill="#e8e8e8"/>
        <path id="Trazado_119479" data-name="Trazado 119479" d="M78.107,230.4l7.413,4.279V77.017l-7.413-4.279Z" transform="translate(385.498 3033.287)" fill="#a3a3a3"/>
        <path id="Trazado_119480" data-name="Trazado 119480" d="M100.252,71.727l-7.366-4.262L78.107,75.731l7.411,4.279Z" transform="translate(387.95 2965.788)" fill="#fff"/>
        <path id="Trazado_119481" data-name="Trazado 119481" d="M107.5,88.692,67.509,111.768v4.623L107.5,93.314Z" transform="translate(379.512 2993.25)" fill="#bcbcbc"/>
        <path id="Trazado_119482" data-name="Trazado 119482" d="M68.4,103.953l-2.469-1.492v4.623l2.469,1.492Z" transform="translate(372.137 3004.785)" fill="#a3a3a3"/>
        <path id="Trazado_119483" data-name="Trazado 119483" d="M108.4,89.232l-2.469-1.492L65.934,110.816l2.469,1.492Z" transform="translate(378.189 2991.483)" fill="#fff"/>
        <path id="Trazado_119484" data-name="Trazado 119484" d="M107.5,161.31,67.509,184.386v4.623L107.5,165.932Z" transform="translate(379.512 3083.559)" fill="#bcbcbc"/>
        <path id="Trazado_119485" data-name="Trazado 119485" d="M68.4,176.571l-2.469-1.492V179.7l2.469,1.492Z" transform="translate(372.137 3091.374)" fill="#a3a3a3"/>
        <path id="Trazado_119486" data-name="Trazado 119486" d="M108.4,161.85l-2.469-1.492L65.934,183.434l2.469,1.492Z" transform="translate(378.189 3083.018)" fill="#fff"/>
        <path id="Trazado_119487" data-name="Trazado 119487" d="M68.2,105.269c0,.807.491,1.179,1.1.829a2.628,2.628,0,0,0,1.1-2.1c0-.807-.491-1.179-1.1-.829a2.625,2.625,0,0,0-1.1,2.1" transform="translate(374.446 3004.848)" fill="#fff"/>
        <path id="Trazado_119488" data-name="Trazado 119488" d="M91.039,92.087c0,.807.491,1.179,1.1.829a2.628,2.628,0,0,0,1.1-2.1c0-.807-.491-1.179-1.1-.829a2.625,2.625,0,0,0-1.1,2.1" transform="translate(398.084 2989.9)" fill="#fff"/>
        <path id="Trazado_119489" data-name="Trazado 119489" d="M68.2,177.945c0,.807.491,1.179,1.1.829a2.628,2.628,0,0,0,1.1-2.1c0-.807-.491-1.179-1.1-.829a2.625,2.625,0,0,0-1.1,2.1" transform="translate(374.446 3091.736)" fill="#fff"/>
        <path id="Trazado_119490" data-name="Trazado 119490" d="M91.039,164.765c0,.807.491,1.179,1.1.829a2.628,2.628,0,0,0,1.1-2.1c0-.807-.491-1.179-1.1-.831a2.631,2.631,0,0,0-1.1,2.1" transform="translate(398.084 3084.255)" fill="#fff"/>
        <path id="Trazado_119491" data-name="Trazado 119491" d="M101.233,150.375c-6.719-14.393-23.51-48.614-23.678-48.958l1.127-.552c.169.343,16.964,34.576,23.686,48.979Z" transform="translate(387.831 3013.336)" fill="#3a3a3a"/>
        <rect id="Rect치ngulo_33911" data-name="Rect치ngulo 33911" width="1.254" height="55.334" transform="matrix(0.92, -0.391, 0.391, 0.92, 472.596, 3110.438)" fill="#3a3a3a"/>
        <path id="Trazado_119492" data-name="Trazado 119492" d="M81.536,104.5a2.375,2.375,0,0,1-.629-.082,12.676,12.676,0,0,1-1.8-.549l1.687-.959a.767.767,0,0,0,.469.3,2.535,2.535,0,0,0,1.842-.536c2.079-1.282.839-4.885-.219-6.81-.962-1.748-2.43-2.513-2.721-2.392a.759.759,0,0,0-.041.287v2.05l-1.254.724V93.761a1.372,1.372,0,0,1,.988-1.5c1.19-.3,3.047,1.039,4.127,3,1.582,2.873,2.472,6.821-.219,8.482a4.341,4.341,0,0,1-2.226.754" transform="translate(386.166 2994.273)" fill="#9b8e83"/>
        <path id="Trazado_119493" data-name="Trazado 119493" d="M81.169,104.727a2.376,2.376,0,0,1-.629-.082,2.005,2.005,0,0,1-1.227-.911l1.105-.593a.809.809,0,0,0,.475.3,2.534,2.534,0,0,0,1.842-.536c2.079-1.284.84-4.885-.219-6.81-.962-1.748-2.43-2.514-2.721-2.392a.76.76,0,0,0-.041.287v2.022l-1.254.724V93.991a1.37,1.37,0,0,1,.988-1.5c1.19-.306,3.047,1.039,4.127,3,1.582,2.873,2.472,6.821-.221,8.482a4.332,4.332,0,0,1-2.224.754" transform="translate(385.783 2994.539)" fill="#e8e8e8"/>
        <path id="Trazado_119494" data-name="Trazado 119494" d="M78.25,106.421a2.375,2.375,0,0,1-.629-.082,12.6,12.6,0,0,1-1.8-.549l1.687-.959a.767.767,0,0,0,.469.3,2.535,2.535,0,0,0,1.842-.536c2.079-1.282.839-4.885-.219-6.81-.962-1.748-2.43-2.513-2.721-2.392a.758.758,0,0,0-.041.287v2.05l-1.254.724V95.685a1.372,1.372,0,0,1,.988-1.5c1.19-.306,3.047,1.039,4.127,3,1.582,2.873,2.472,6.821-.219,8.482a4.341,4.341,0,0,1-2.226.754" transform="translate(382.737 2996.491)" fill="#9b8e83"/>
        <path id="Trazado_119495" data-name="Trazado 119495" d="M77.883,106.651a2.376,2.376,0,0,1-.629-.082,2.011,2.011,0,0,1-1.227-.909l1.105-.594a.809.809,0,0,0,.475.3,2.535,2.535,0,0,0,1.842-.536c2.079-1.282.84-4.885-.219-6.81-.962-1.748-2.43-2.513-2.721-2.392a.759.759,0,0,0-.041.287v2.022l-1.254.724V95.915a1.372,1.372,0,0,1,.988-1.5c1.19-.306,3.047,1.039,4.127,3,1.582,2.873,2.472,6.821-.221,8.482a4.331,4.331,0,0,1-2.224.754" transform="translate(382.354 2996.756)" fill="#e8e8e8"/>
        <path id="Trazado_119496" data-name="Trazado 119496" d="M105.857,122.242c-3.541-1.861-10.995-5.856-11.747-6.6,0,0-.665-3.09-1.234-5.5s-2.337-2.942-3.844-3.685-2.408.234-1.872,1.822a11.218,11.218,0,0,0,1.727,2.88c.436.792.972,2.394.765,2.262s-2.323-1-2.775-.569.382,1.168,1.138,1.555.892,2.13,2.213,3.215A11.05,11.05,0,0,0,93,119.247a26.666,26.666,0,0,0,10.225,9.39s6.178-4.533,2.637-6.394" transform="translate(396.875 3012.738)" fill="#3a3a3a"/>
        <path id="Trazado_119497" data-name="Trazado 119497" d="M94.648,120.318l-4.623-3.9s1.019-3.344,3.505-4.251c1.632-.6,7.074,3.505,7.074,3.505Z" transform="translate(398.532 3016.253)" fill="#af3838"/>
        <path id="Trazado_119498" data-name="Trazado 119498" d="M98.867,123.107c-3.529-.73-7.405-1.706-8.595-1.952C87.415,117.4,81.5,114.4,80,112.733c-.616-1.124-.919-3.19-1.682-4.838s-1.387-.575-1.45.665.193,2.364-.6,2.2-2.372-1.655-5.244-1.521-4.181,3.228-1.024,5.054a63.682,63.682,0,0,0,8.4,3.822,90.966,90.966,0,0,1,7.618,8.2c1.116,1.659,1.873,1.133,3.27,1.579S96.1,130.174,98.1,130s.765-6.894.765-6.894" transform="translate(378.699 3013.87)" fill="#3a3a3a"/>
        <path id="Trazado_119499" data-name="Trazado 119499" d="M100.16,112.633s6.984-5.977,11.009.922c3.123,5.35,1.406,10.562-1.992,12.961s-9.017-13.882-9.017-13.882" transform="translate(409.618 3016.032)" fill="#af3838"/>
        <path id="Trazado_119500" data-name="Trazado 119500" d="M101.223,170.459c1.98-4.656,1.917-13.577,1.312-16.4-3.469-.66-7.774-.933-10.393.4.251,3.014.008,3.466.122,5.628a65.287,65.287,0,0,1,.064,6.872c-2.209-2.447-6.316-1.525-6.9,1.5-.144.751.564,4.168,1.2,4.731,3.391,3,5.9,1.925,7.526,1.839a5.511,5.511,0,0,0,6.48,1.027c.715-.447,1.115-4.775.585-5.595" transform="translate(394.93 3079.133)" fill="#3a3a3a"/>
        <path id="Trazado_119501" data-name="Trazado 119501" d="M81.059,155.843a63.645,63.645,0,0,0-2.449,7.416c-1.834-1.386-3.419-3.16-5.543-2.665-2.231.519-2.925,2.179-3.036,4.01a10.526,10.526,0,0,0,2.5,3.917,26.255,26.255,0,0,0,5.62,3.9c1.187,1.372,3.035,2.751,4.834,2.45,1.851-.309,2.872-.745,2.98-2.646.177-3.171,1.044-4.154,2.684-9.144,1.384-4.209-6.5-9.617-7.595-7.242" transform="translate(378.729 3080.126)" fill="#3a3a3a"/>
        <path id="Trazado_119502" data-name="Trazado 119502" d="M118.043,132.4a20.348,20.348,0,0,1,1.533,9.967,8.464,8.464,0,0,1-6.162,7.131,49.069,49.069,0,0,1-6.933,5.054,61.418,61.418,0,0,1-6.958,3.355s1.168.567.538,2.182a9.977,9.977,0,0,1,2.013,6.2c.135,5.345-.941,12.923-2.29,16.154-.415,1-2.673.672-4.791.033a6.306,6.306,0,0,1-4.1-3.53c-.77-2.342-1.193-18.529-2.124-20.847-1.242-3.1-1.378-4.369,1.779-7.169,1.71-1.514,12.326-9.793,12.326-9.793Z" transform="translate(400.551 3067.151)" fill="#efb000"/>
        <path id="Trazado_119503" data-name="Trazado 119503" d="M99.784,143.031s4.245,3.464,9.125.953c3.946-2.03,4.4-4.855,4.4-4.855s1.035,4.168-4.906,7.1a10.633,10.633,0,0,1-9.6.069Z" transform="translate(408.589 3047.186)" fill="#3a3a3a"/>
        <path id="Trazado_119504" data-name="Trazado 119504" d="M101.506,132.4s-5.345,2.243-9.589,4.336a36.592,36.592,0,0,0-9.525,7.415c-1.18,1.2-3.485,2.478-3.485,5.918a97.909,97.909,0,0,1-1.574,14.519c-.781,4.866-1.829,11.645-1.829,11.645s-.273,6.634,8.2,6.855c2-.627,4.822-12.178,5.414-14.726,1.163-5.01,2.213-9.913.71-11.774,1.648-1.245-.188-2.431-.188-2.431s3.615-.948,7.129-1.632,7.634-.5,10.266-2.043c1.944,1.227,7.623.6,10.376-3.884,3.453-5.621,2.673-9.4,1.836-9.426s-17.743-4.772-17.743-4.772" transform="translate(389.395 3067.151)" fill="#fcd308"/>
        <path id="Trazado_119505" data-name="Trazado 119505" d="M97.308,117.329l3.033,4.77c2.5-.061,5.076-2.146,6.869-4.366-.605-.925-2.963-3.54-2.878-4.485,1.657-2.132,1.019-4.595-.511-7.5-1.6-3.044-5.847-4.416-9.05-3.243a4.207,4.207,0,0,0-3.267,3.152c-.561,2.663.2,8.1,2.022,9.931,1.267,1.276,2.132,1.814,3.781,1.742" transform="translate(400.915 3007.355)" fill="#ffc9b6"/>
        <path id="Trazado_119506" data-name="Trazado 119506" d="M107.942,108.367a5.961,5.961,0,0,0-1.851-5.8c-2.013-1.864-6.189-3.408-8.8-1.9a1.323,1.323,0,0,0-.031-.237,1.638,1.638,0,0,0-2.213-.854,4.132,4.132,0,0,0-1.781,1.289A1.956,1.956,0,0,0,92,100.478c-1.564.118-2.825,3.058-.058,5.344-1.306,2.041,1.13,4.546,4.093,4.8-.589,1.332-.163,2.3.643,3.563,1.259,1.974,4.676,3.721,6.944,3.4,2.568-.368,4.441-3.1,5.131-5.723a3.862,3.862,0,0,0-.81-3.494" transform="translate(400.364 3003.872)" fill="#3a3a3a"/>
        <path id="Trazado_119507" data-name="Trazado 119507" d="M93.211,107a1.28,1.28,0,0,1,2.215.061c1.185,1.506-1.616,3.913-1.616,3.913Z" transform="translate(400.388 3008.923)" fill="#ffc9b6"/>
        <path id="Trazado_119508" data-name="Trazado 119508" d="M110.855,111.13c-2.908.265-2.881.785-9.514,3.118a51.148,51.148,0,0,0-6.2,2.306c-3.044,1.695-3.544,3.453-3.783,5.291-.348,2.682-.419,4.859.025,10.456.564,7.125,2.751,9.456,2.751,9.456s-1.089,1.381-1.963,2.264c-.709.718.528,1.555,1.713,2.913,2.477,2.833,10.114,9.072,21.2,1.795a6.252,6.252,0,0,0,3.024-4.9c1.107-6.926.039-13.207.055-17.794.027-6.919-4.751-15.133-7.3-14.9" transform="translate(403.046 3023.533)" fill="#c64e4e"/>
        <path id="Trazado_119509" data-name="Trazado 119509" d="M107,117.567s-1.881-1.456-5.316-.19a16.11,16.11,0,0,0-4.8,2.483s-6.618-1.627-8.3-1.883c-3.38-3.649-7.208-5.786-10.332-7.747a13.437,13.437,0,0,0-4.565,6.056c2.38,3.4,7.449,8.156,10.094,10.471,4.438,2.34,18.828,6.913,20.5,6.168,8.28-3.682,4.413-12.55,2.712-15.359" transform="translate(385.613 3017.559)" fill="#af3838"/>
        <path id="Trazado_119510" data-name="Trazado 119510" d="M95.366,115.32s2.492,1.064,7.386-.622,3.6-3.347,3.6-3.347a11.949,11.949,0,0,0-5.264,1.323c-2.98,1.437-5.719,2.646-5.719,2.646" transform="translate(404.258 3014.513)" fill="#af3838"/>
        <path id="Trazado_119511" data-name="Trazado 119511" d="M90.674,133.229a25.208,25.208,0,0,0,6.8,5.781c5.886,3.268,10.214,2.6,12.2,2.223a10.859,10.859,0,0,0,3.732-1.419l.111-2.221s-8.2,1.629-11.244.788S91.3,132.625,91.3,132.625Z" transform="translate(401.624 3039.923)" fill="#efb000"/>
        <path id="Trazado_119512" data-name="Trazado 119512" d="M92.474,136.539a10.417,10.417,0,0,0,7.459-.038c3.676-1.615,7.216-4.778,7.005-11.015a110.6,110.6,0,0,0,10.359-4.272c.732,3.072.784,5.457,1.713,8.995s.876,6.872-1.1,8.893c-1.37,3.656-6.137,6.769-12.135,6.753a18.732,18.732,0,0,1-11.04-3.522c-3.685-2.311-2.823-1.652-3.06-2.7-.544-2.406.8-3.094.8-3.094" transform="translate(403.677 3030.983)" fill="#fcd308"/>
        <path id="Trazado_119513" data-name="Trazado 119513" d="M94.469,114.528a13.113,13.113,0,0,1,6.593,5.545,38.164,38.164,0,0,1,4.189,11.252l1.832-.98s-1.947-8.405-4.864-12.232-5.639-4.449-5.639-4.449Z" transform="translate(403.603 3020.301)" fill="#fcd308"/>
        <path id="Trazado_119514" data-name="Trazado 119514" d="M102.372,111.458s2.735.492,4.975,6.855a38.569,38.569,0,0,1,2.373,10.406l1.669-.709s-1.053-7.247-2.743-11.183c-1.848-4.306-4.654-5.67-4.654-5.67Z" transform="translate(411.189 3017.359)" fill="#fcd308"/>
        <path id="Trazado_119515" data-name="Trazado 119515" d="M84.935,147.274a5.655,5.655,0,0,1-2.84-.483,3.72,3.72,0,0,1-1.963-2.307s3.775,1.2,4.8,2.79" transform="translate(387.201 3051.737)" fill="#efb000"/>
        <path id="Trazado_119516" data-name="Trazado 119516" d="M85.506,147.549a5.654,5.654,0,0,1-2.621,1.2,3.722,3.722,0,0,1-2.92-.8s3.8-1.13,5.541-.4" transform="translate(387.143 3054.55)" fill="#efb000"/>
        <path id="Trazado_119517" data-name="Trazado 119517" d="M106.282,101.685s-9.51-8.045-15.207-1.242c-4.352,5.2,6.237,12.658,6.237,12.658Z" transform="translate(399.607 3001.252)" fill="#ffbc15"/>
        <path id="Trazado_119518" data-name="Trazado 119518" d="M93.289,101.931a9.308,9.308,0,0,1,12.127-2.9c6.3,3.635,5.021,12.934,1.809,15.552a10.128,10.128,0,0,1-11.181-1.122c-4.074-3.863-4.627-8.778-2.754-11.533" transform="translate(402.259 3001.955)" fill="#ffd140"/>
        <path id="Trazado_119519" data-name="Trazado 119519" d="M92.523,101.651s-.213,4.938,4.9,8.84c4.352,3.32,10.81.873,10.81.873l-1.619,1.823s-5.106,1.626-9.191-.8c-5-2.967-5.867-7.12-4.9-10.736" transform="translate(401.854 3005.103)" fill="#ffa300"/>
        <path id="Trazado_119520" data-name="Trazado 119520" d="M101.266,100.514c4.472,2.055,5.294,7.325,4.154,11.631-7.449,1.276-12.589-4.551-12.188-8.213.389-3.632,5.192-4.725,8.034-3.419" transform="translate(402.285 3003.24)" fill="#ffbc15"/>
        <path id="Trazado_119521" data-name="Trazado 119521" d="M106.981,111.776s.168-6.139-3.4-10.081c-3.629-4.016-7.518-3.275-7.518-3.275s3.439-2.43,8.34,1.5c5.726,4.595,2.576,11.852,2.576,11.852" transform="translate(405.122 3000.945)" fill="#ffbc15"/>
        <path id="Trazado_119522" data-name="Trazado 119522" d="M88.831,134.315s2.159,2.582,4.816,9.247a31.2,31.2,0,0,1,2.006,7.8s2.845,1.066,3.93-1.422c-.594-6.349-8.084-16.811-8.084-16.811a1.935,1.935,0,0,0-2.668,1.184" transform="translate(397.308 3043.047)" fill="#3a3a3a"/>
        <path id="Trazado_119523" data-name="Trazado 119523" d="M92.347,131.429l-1.673,2.478a21.1,21.1,0,0,0,13.447,7.059,18.543,18.543,0,0,0,13.691-3.663l.594-4a14.652,14.652,0,0,1-11.341,4.058c-7.328-.42-14.718-5.933-14.718-5.933" transform="translate(402.658 3038.749)" fill="#3a3a3a"/>
        <path id="Trazado_119524" data-name="Trazado 119524" d="M95.1,108.3s-2.08,3.058-1.677,4.773,2.731.726,2.731.726l1.2-3.924Z" transform="translate(400.814 3011.372)" fill="#3a3a3a"/>
        <path id="Trazado_119525" data-name="Trazado 119525" d="M158.116,60.9,42.925,127.4v-9.026l115.19-66.5Z" transform="translate(365.577 2956.687)" fill="#a3a3a3"/>
        <path id="Trazado_119526" data-name="Trazado 119526" d="M161.764,53.98l-115.19,66.5L36.5,114.667l115.19-66.5Z" transform="translate(358.979 2951.239)" fill="#bcbcbc"/>
        <path id="Trazado_119527" data-name="Trazado 119527" d="M36.5,90.588v9.026l10.076,5.819V96.4Z" transform="translate(342.206 2992.89)" fill="#7f7f7f"/>
        <path id="Trazado_119528" data-name="Trazado 119528" d="M158.116,49.291,42.925,115.8v-9.026l115.19-66.5Z" transform="translate(365.577 2941.315)" fill="#a3a3a3"/>
        <path id="Trazado_119529" data-name="Trazado 119529" d="M161.764,42.371l-115.19,66.5L36.5,103.058l115.19-66.5Z" transform="translate(358.979 2935.996)" fill="#bcbcbc"/>
        <path id="Trazado_119530" data-name="Trazado 119530" d="M36.5,78.979V88l10.076,5.819V84.8Z" transform="translate(342.206 2979.448)" fill="#7f7f7f"/>
        <path id="Trazado_119531" data-name="Trazado 119531" d="M142.966,121.57a.616.616,0,0,1-.314-.085L.313,39.307A.628.628,0,0,1,.942,38.22L143.279,120.4a.628.628,0,0,1-.314,1.171" transform="translate(303.864 2939.595)" fill="#666"/>
        <path id="Trazado_119532" data-name="Trazado 119532" d="M176.6,101.927a.63.63,0,0,1-.314-.083L33.948,19.665a.628.628,0,1,1,.627-1.088l142.337,82.179a.628.628,0,0,1-.314,1.171" transform="translate(360.309 2898.496)" fill="#666"/>
        <path id="Trazado_119533" data-name="Trazado 119533" d="M208.5,83.434a.63.63,0,0,1-.313-.083L65.848,1.171A.627.627,0,1,1,66.475.084L208.812,82.263a.628.628,0,0,1-.314,1.171" transform="translate(413.845 2888)" fill="#666"/>
        <path id="Trazado_119534" data-name="Trazado 119534" d="M43.65,84.945h0a.884.884,0,0,1-.881-.881V69.5a.881.881,0,0,1,1.762,0V84.064a.884.884,0,0,1-.881.881" transform="translate(348.092 2967.674)" fill="#3a3a3a"/>
        <path id="Trazado_119535" data-name="Trazado 119535" d="M52.48,72.574c0,2.064-3.007,3.739-6.715,3.739s-6.717-1.674-6.717-3.739,3.007-3.739,6.717-3.739,6.715,1.674,6.715,3.739" transform="translate(345.156 2966.647)" fill="#4f4f4f"/>
        <path id="Trazado_119536" data-name="Trazado 119536" d="M40.433,68.835,39.087,72.09H52.4l-1.347-3.256Z" transform="translate(345.188 2966.066)" fill="#4f4f4f"/>
        <path id="Trazado_119537" data-name="Trazado 119537" d="M50.766,70.382c0,1.679-2.444,3.04-5.458,3.04s-5.458-1.361-5.458-3.04,2.444-3.04,5.458-3.04,5.458,1.361,5.458,3.04" transform="translate(345.796 2964.751)" fill="#666"/>
        <path id="Trazado_119538" data-name="Trazado 119538" d="M52.48,68.841c0,2.065-3.007,3.739-6.715,3.739s-6.717-1.674-6.717-3.739S42.054,65.1,45.764,65.1s6.715,1.674,6.715,3.739" transform="translate(345.156 2962.382)" fill="#4f4f4f"/>
        <path id="Trazado_119539" data-name="Trazado 119539" d="M40.433,65.1l-1.347,3.254H52.4L51.049,65.1Z" transform="translate(345.188 2961.833)" fill="#4f4f4f"/>
        <path id="Trazado_119540" data-name="Trazado 119540" d="M50.766,66.65c0,1.679-2.444,3.04-5.458,3.04s-5.458-1.361-5.458-3.04,2.444-3.04,5.458-3.04,5.458,1.361,5.458,3.04" transform="translate(345.796 2960.498)" fill="#666"/>
        <path id="Trazado_119541" data-name="Trazado 119541" d="M52.48,64.955c0,2.064-3.007,3.739-6.715,3.739s-6.717-1.674-6.717-3.739,3.007-3.739,6.717-3.739,6.715,1.674,6.715,3.739" transform="translate(345.156 2957.942)" fill="#4f4f4f"/>
        <path id="Trazado_119542" data-name="Trazado 119542" d="M40.433,61.215,39.087,64.47H52.4l-1.347-3.254Z" transform="translate(345.188 2957.425)" fill="#4f4f4f"/>
        <path id="Trazado_119543" data-name="Trazado 119543" d="M50.766,62.763c0,1.679-2.444,3.04-5.458,3.04s-5.458-1.361-5.458-3.04,2.444-3.04,5.458-3.04,5.458,1.361,5.458,3.04" transform="translate(345.796 2956.067)" fill="#666"/>
        <path id="Trazado_119544" data-name="Trazado 119544" d="M76.772,65.633h0a.884.884,0,0,1-.881-.881V50.191a.881.881,0,0,1,1.762,0V64.752a.884.884,0,0,1-.881.881" transform="translate(382.344 2945.252)" fill="#3a3a3a"/>
        <path id="Trazado_119545" data-name="Trazado 119545" d="M85.6,53.262C85.6,55.326,82.594,57,78.885,57s-6.717-1.674-6.717-3.739,3.008-3.739,6.717-3.739S85.6,51.2,85.6,53.262" transform="translate(380.182 2944.582)" fill="#4f4f4f"/>
        <path id="Trazado_119546" data-name="Trazado 119546" d="M73.555,49.523l-1.347,3.254H85.517l-1.347-3.254Z" transform="translate(380.206 2944.164)" fill="#4f4f4f"/>
        <path id="Trazado_119547" data-name="Trazado 119547" d="M83.888,51.07c0,1.679-2.444,3.04-5.458,3.04s-5.458-1.361-5.458-3.04,2.444-3.04,5.458-3.04,5.458,1.361,5.458,3.04" transform="translate(380.649 2942.741)" fill="#666"/>
        <path id="Trazado_119548" data-name="Trazado 119548" d="M85.6,49.529c0,2.064-3.007,3.739-6.715,3.739s-6.717-1.674-6.717-3.739,3.008-3.739,6.717-3.739S85.6,47.464,85.6,49.529" transform="translate(380.182 2940.317)" fill="#4f4f4f"/>
        <path id="Trazado_119549" data-name="Trazado 119549" d="M73.555,45.79l-1.347,3.254H85.517L84.171,45.79Z" transform="translate(380.206 2939.931)" fill="#4f4f4f"/>
        <path id="Trazado_119550" data-name="Trazado 119550" d="M83.888,47.338c0,1.679-2.444,3.04-5.458,3.04s-5.458-1.361-5.458-3.04,2.444-3.04,5.458-3.04,5.458,1.361,5.458,3.04" transform="translate(380.649 2938.488)" fill="#666"/>
        <path id="Trazado_119551" data-name="Trazado 119551" d="M85.6,45.643c0,2.064-3.007,3.739-6.715,3.739s-6.717-1.674-6.717-3.739S75.176,41.9,78.885,41.9,85.6,43.578,85.6,45.643" transform="translate(380.182 2935.877)" fill="#4f4f4f"/>
        <path id="Trazado_119552" data-name="Trazado 119552" d="M73.555,41.9l-1.347,3.256H85.517L84.171,41.9Z" transform="translate(380.206 2935.523)" fill="#4f4f4f"/>
        <path id="Trazado_119553" data-name="Trazado 119553" d="M83.888,43.451c0,1.679-2.444,3.04-5.458,3.04s-5.458-1.361-5.458-3.04,2.444-3.04,5.458-3.04,5.458,1.361,5.458,3.04" transform="translate(380.649 2934.057)" fill="#666"/>
        <path id="Trazado_119554" data-name="Trazado 119554" d="M110.186,46.831h0a.884.884,0,0,1-.881-.881V31.389a.881.881,0,1,1,1.762,0V45.95a.884.884,0,0,1-.881.881" transform="translate(416.898 2923.421)" fill="#3a3a3a"/>
        <path id="Trazado_119555" data-name="Trazado 119555" d="M119.016,34.46c0,2.065-3.007,3.739-6.715,3.739s-6.717-1.674-6.717-3.739,3.008-3.739,6.717-3.739,6.715,1.674,6.715,3.739" transform="translate(415.518 2905.436)" fill="#4f4f4f"/>
        <path id="Trazado_119556" data-name="Trazado 119556" d="M106.969,30.721l-1.347,3.254h13.309l-1.347-3.254Z" transform="translate(415.533 2905.436)" fill="#4f4f4f"/>
        <path id="Trazado_119557" data-name="Trazado 119557" d="M117.3,32.268c0,1.679-2.444,3.04-5.458,3.04s-5.458-1.361-5.458-3.04,2.444-3.04,5.458-3.04,5.458,1.361,5.458,3.04" transform="translate(415.81 2904.589)" fill="#666"/>
        <path id="Trazado_119558" data-name="Trazado 119558" d="M119.016,30.728c0,2.063-3.007,3.739-6.715,3.739s-6.717-1.676-6.717-3.739,3.008-3.74,6.717-3.74,6.715,1.676,6.715,3.74" transform="translate(415.518 2903.317)" fill="#4f4f4f"/>
        <path id="Trazado_119559" data-name="Trazado 119559" d="M106.969,26.988l-1.347,3.254h13.309l-1.347-3.254Z" transform="translate(415.533 2903.318)" fill="#4f4f4f"/>
        <path id="Trazado_119560" data-name="Trazado 119560" d="M117.3,28.536c0,1.679-2.444,3.04-5.458,3.04s-5.458-1.361-5.458-3.04,2.444-3.04,5.458-3.04,5.458,1.361,5.458,3.04" transform="translate(415.81 2902.47)" fill="#666"/>
        <path id="Trazado_119561" data-name="Trazado 119561" d="M119.016,26.841c0,2.064-3.007,3.739-6.715,3.739s-6.717-1.674-6.717-3.739S108.591,23.1,112.3,23.1s6.715,1.674,6.715,3.739" transform="translate(415.518 2901.112)" fill="#4f4f4f"/>
        <path id="Trazado_119562" data-name="Trazado 119562" d="M106.969,23.1l-1.347,3.254h13.309L117.585,23.1Z" transform="translate(415.533 2901.112)" fill="#4f4f4f"/>
        <path id="Trazado_119563" data-name="Trazado 119563" d="M117.3,24.649c0,1.679-2.444,3.04-5.458,3.04s-5.458-1.361-5.458-3.04,2.444-3.04,5.458-3.04,5.458,1.361,5.458,3.04" transform="translate(415.81 2900.264)" fill="#666"/>
      </g>
      <rect id="Rect치ngulo_34420" data-name="Rect치ngulo 34420" width="400" height="417" transform="translate(1020 5726)" fill="none"/>
    </g>
  </g>
</svg>
