<svg xmlns="http://www.w3.org/2000/svg" width="92" height="92" viewBox="0 0 92 92">
  <g id="Grupo_151968" data-name="Grupo 151968" transform="translate(4235.705 8951)">
    <circle id="Elipse_4871" data-name="Elipse 4871" cx="46" cy="46" r="46" transform="translate(-4235.705 -8951)" fill="#2e0877"/>
    <path id="Trazado_120670" data-name="Trazado 120670" d="M-9.152,0V-24.883H-1.5A11.627,11.627,0,0,1,4.375-23.4a10.308,10.308,0,0,1,4.042,4.2,12.967,12.967,0,0,1,1.453,6.2v1.145A13,13,0,0,1,8.442-5.691,10.22,10.22,0,0,1,4.418-1.5,11.715,11.715,0,0,1-1.444,0Zm5.127-20.73V-4.119h2.478a5.568,5.568,0,0,0,4.6-1.965,8.881,8.881,0,0,0,1.624-5.623v-1.316A9.022,9.022,0,0,0,3.1-18.773,5.549,5.549,0,0,0-1.5-20.73Z" transform="translate(-4189.705 -8896)" fill="#fff"/>
  </g>
</svg>
