<svg xmlns="http://www.w3.org/2000/svg" width="657" height="427" viewBox="0 0 657 427">
  <g id="Grupo_152222" data-name="Grupo 152222" transform="translate(-4518 10410)">
    <g id="Grupo_151771" data-name="Grupo 151771" transform="translate(4496)">
      <path id="Trazado_120156" data-name="Trazado 120156" d="M14,0H643a14,14,0,0,1,14,14V413a14,14,0,0,1-14,14H14A14,14,0,0,1,0,413V14A14,14,0,0,1,14,0Z" transform="translate(22 -10410)" fill="#fff"/>
      <path id="Trazado_120158" data-name="Trazado 120158" d="M1,1V327H538V1H1M0,0H539V328H0Z" transform="translate(85 -10359)" fill="#12263f"/>
      <path id="Trazado_120076" data-name="Trazado 120076" d="M290.5-10291.937H85v-1H289.5v-65.815h1Z" fill="#12263f"/>
      <path id="Trazado_120077" data-name="Trazado 120077" d="M157.453-10292.461h-1v-66.292h1Z" fill="#707070"/>
      <path id="Trazado_120078" data-name="Trazado 120078" d="M290-10338.807H156.953v-1H290Z" fill="#12263f"/>
      <path id="Trazado_120079" data-name="Trazado 120079" d="M207.8-10338.807h-50.85v-1H207.8Z" transform="translate(82.197 23)" fill="#12263f"/>
      <path id="Trazado_120080" data-name="Trazado 120080" d="M260.09-10292.586h-1v-66.167h1Z" transform="translate(-20.439)" fill="#12263f"/>
      <path id="Trazado_120169" data-name="Trazado 120169" d="M3.776-3.164H1.939V0H.9V-7.82H3.491a3.064,3.064,0,0,1,2.033.6,2.164,2.164,0,0,1,.712,1.751,2.105,2.105,0,0,1-.395,1.273,2.357,2.357,0,0,1-1.1.811L6.58-.064V0H5.473ZM1.939-4.007H3.523a1.789,1.789,0,0,0,1.222-.4A1.343,1.343,0,0,0,5.2-5.468,1.414,1.414,0,0,0,4.767-6.58a1.833,1.833,0,0,0-1.249-.392H1.939ZM13.7-3.658a4.838,4.838,0,0,1-.387,2.006,2.929,2.929,0,0,1-1.1,1.308A3.015,3.015,0,0,1,10.56.107,2.989,2.989,0,0,1,8.921-.346,3,3,0,0,1,7.812-1.641a4.642,4.642,0,0,1-.406-1.947v-.564A4.78,4.78,0,0,1,7.8-6.145,2.989,2.989,0,0,1,8.908-7.469a2.976,2.976,0,0,1,1.641-.459,3.032,3.032,0,0,1,1.657.454,2.924,2.924,0,0,1,1.1,1.316A4.861,4.861,0,0,1,13.7-4.152Zm-1.026-.5A3.506,3.506,0,0,0,12.112-6.3a1.842,1.842,0,0,0-1.563-.744A1.823,1.823,0,0,0,9.01-6.3a3.434,3.434,0,0,0-.577,2.065v.575A3.511,3.511,0,0,0,9-1.539a1.83,1.83,0,0,0,1.56.771A1.823,1.823,0,0,0,12.106-1.5a3.492,3.492,0,0,0,.564-2.087ZM20.5-6.972H17.988V0H16.962V-6.972H14.454V-7.82H20.5Zm6.666-.849V-2.5a2.494,2.494,0,0,1-.7,1.81A2.8,2.8,0,0,1,24.6.1l-.274.011a2.927,2.927,0,0,1-2.046-.693,2.478,2.478,0,0,1-.773-1.907V-7.82h1.021v5.3a1.789,1.789,0,0,0,.467,1.319,1.8,1.8,0,0,0,1.332.47,1.808,1.808,0,0,0,1.34-.467,1.785,1.785,0,0,0,.465-1.316v-5.3ZM29.831-.843h3.706V0H28.794V-7.82h1.037ZM40.38-3.658a4.838,4.838,0,0,1-.387,2.006A2.929,2.929,0,0,1,38.9-.344a3.015,3.015,0,0,1-1.654.451A2.989,2.989,0,0,1,35.6-.346,3,3,0,0,1,34.5-1.641a4.642,4.642,0,0,1-.406-1.947v-.564a4.78,4.78,0,0,1,.392-1.993,2.989,2.989,0,0,1,1.109-1.324,2.976,2.976,0,0,1,1.641-.459,3.032,3.032,0,0,1,1.657.454,2.924,2.924,0,0,1,1.1,1.316,4.861,4.861,0,0,1,.387,2.006Zm-1.026-.5A3.506,3.506,0,0,0,38.8-6.3a1.842,1.842,0,0,0-1.563-.744,1.823,1.823,0,0,0-1.539.744,3.434,3.434,0,0,0-.577,2.065v.575a3.511,3.511,0,0,0,.567,2.119,1.83,1.83,0,0,0,1.56.771A1.823,1.823,0,0,0,38.79-1.5a3.492,3.492,0,0,0,.564-2.087Z" transform="translate(176 -10313)" fill="#12263f"/>
      <path id="Trazado_120159" data-name="Trazado 120159" d="M1,1V349H573V1H1M0,0H574V350H0Z" transform="translate(60 -10370)" fill="#12263f"/>
      <path id="Trazado_120081" data-name="Trazado 120081" d="M-1167.215-11007h-235v-1h235Z" transform="translate(1462.215 1002.5)"/>
      <path id="Trazado_120082" data-name="Trazado 120082" d="M-806.821-11007h-595.393v-1h595.393Z" transform="translate(1456.028 623.5)"/>
      <path id="Trazado_120083" data-name="Trazado 120083" d="M41.792-10208.192h-1V-10370h1Z" fill="#12263f"/>
      <path id="Trazado_120084" data-name="Trazado 120084" d="M41.792-10208.192h-1V-10370h1Z" transform="translate(0 188.192)" fill="#12263f"/>
      <path id="Trazado_120174" data-name="Trazado 120174" d="M5.774,0H.65V-.714L3.357-3.722a6.431,6.431,0,0,0,.83-1.109,1.851,1.851,0,0,0,.228-.884,1.4,1.4,0,0,0-.371-1,1.3,1.3,0,0,0-.988-.392A1.535,1.535,0,0,0,1.9-6.69a1.611,1.611,0,0,0-.411,1.174H.5a2.307,2.307,0,0,1,.7-1.746,2.579,2.579,0,0,1,1.861-.666,2.478,2.478,0,0,1,1.724.572,1.951,1.951,0,0,1,.634,1.523,4.474,4.474,0,0,1-1.472,2.75L1.848-.811H5.774Zm5.8-5.779a1.816,1.816,0,0,1-.309,1.042,2.1,2.1,0,0,1-.835.714,2.241,2.241,0,0,1,.969.768,1.933,1.933,0,0,1,.357,1.144,2.044,2.044,0,0,1-.685,1.617,2.631,2.631,0,0,1-1.8.6A2.619,2.619,0,0,1,7.458-.5a2.053,2.053,0,0,1-.679-1.614,1.991,1.991,0,0,1,.346-1.144,2.156,2.156,0,0,1,.959-.773,2.05,2.05,0,0,1-.822-.714,1.842,1.842,0,0,1-.3-1.037,2.021,2.021,0,0,1,.634-1.568,2.378,2.378,0,0,1,1.67-.58,2.38,2.38,0,0,1,1.668.58A2.017,2.017,0,0,1,11.569-5.779Zm-.811,3.647A1.441,1.441,0,0,0,10.342-3.2a1.476,1.476,0,0,0-1.088-.414,1.45,1.45,0,0,0-1.077.408,1.458,1.458,0,0,0-.406,1.074,1.388,1.388,0,0,0,.395,1.047,1.515,1.515,0,0,0,1.1.381,1.511,1.511,0,0,0,1.1-.384A1.385,1.385,0,0,0,10.758-2.132ZM9.265-7.111a1.282,1.282,0,0,0-.948.363,1.332,1.332,0,0,0-.363.986,1.325,1.325,0,0,0,.357.964,1.268,1.268,0,0,0,.953.368,1.268,1.268,0,0,0,.953-.368,1.325,1.325,0,0,0,.357-.964,1.326,1.326,0,0,0-.371-.972A1.264,1.264,0,0,0,9.265-7.111Zm8.642,3.776a4.545,4.545,0,0,1-.6,2.594,2.12,2.12,0,0,1-1.864.849,2.136,2.136,0,0,1-1.853-.83A4.313,4.313,0,0,1,12.971-3.2V-4.528a4.443,4.443,0,0,1,.6-2.562,2.137,2.137,0,0,1,1.869-.838,2.156,2.156,0,0,1,1.858.808,4.288,4.288,0,0,1,.612,2.495Zm-.994-1.359a3.641,3.641,0,0,0-.354-1.84,1.22,1.22,0,0,0-1.123-.577,1.2,1.2,0,0,0-1.112.575,3.555,3.555,0,0,0-.36,1.767v1.59a3.7,3.7,0,0,0,.368,1.872,1.218,1.218,0,0,0,1.115.6,1.2,1.2,0,0,0,1.093-.569,3.566,3.566,0,0,0,.373-1.794Z" transform="translate(33 -10192)" fill="#12263f"/>
      <path id="Trazado_120179" data-name="Trazado 120179" d="M5.774,0H.65V-.714L3.357-3.722a6.431,6.431,0,0,0,.83-1.109,1.851,1.851,0,0,0,.228-.884,1.4,1.4,0,0,0-.371-1,1.3,1.3,0,0,0-.988-.392A1.535,1.535,0,0,0,1.9-6.69a1.611,1.611,0,0,0-.411,1.174H.5a2.307,2.307,0,0,1,.7-1.746,2.579,2.579,0,0,1,1.861-.666,2.478,2.478,0,0,1,1.724.572,1.951,1.951,0,0,1,.634,1.523,4.474,4.474,0,0,1-1.472,2.75L1.848-.811H5.774Zm4.318,0h-1V-6.623l-2,.736v-.9L9.937-7.858h.156Zm6.719-3.437a2.431,2.431,0,0,1-.744.6,2.018,2.018,0,0,1-.948.226,2.084,2.084,0,0,1-1.179-.333,2.165,2.165,0,0,1-.776-.937,3.2,3.2,0,0,1-.274-1.335,3.256,3.256,0,0,1,.3-1.413,2.19,2.19,0,0,1,.846-.961,2.412,2.412,0,0,1,1.278-.333,2.184,2.184,0,0,1,1.829.867,3.784,3.784,0,0,1,.669,2.366v.29a5.055,5.055,0,0,1-.9,3.333A3.467,3.467,0,0,1,14.185.005h-.193V-.833H14.2a2.732,2.732,0,0,0,1.891-.642A2.757,2.757,0,0,0,16.812-3.437Zm-1.531,0a1.534,1.534,0,0,0,.921-.306,1.8,1.8,0,0,0,.615-.757v-.4a2.734,2.734,0,0,0-.424-1.59A1.266,1.266,0,0,0,15.318-7.1a1.276,1.276,0,0,0-1.053.5,2.072,2.072,0,0,0-.4,1.324,2.156,2.156,0,0,0,.384,1.319A1.216,1.216,0,0,0,15.281-3.437Z" transform="translate(163 -10009)" fill="#12263f"/>
      <path id="Trazado_120085" data-name="Trazado 120085" d="M85.5-10664.242h-1v-16.086h1Z" transform="translate(-25 667.285)" fill="#12263f"/>
      <path id="Trazado_120086" data-name="Trazado 120086" d="M85.5-10639.369h-1v-40.959h1Z" transform="translate(210 642.412)" fill="#12263f"/>
      <path id="Trazado_120165" data-name="Trazado 120165" d="M2.374-2.691l-.623.65V0H.757V-8.25h.994v4.99L2.283-3.9l1.81-1.912H5.3L3.04-3.384,5.564,0H4.4ZM7.262-5.812l.027.645a2.146,2.146,0,0,1,1.724-.752,1.662,1.662,0,0,1,1.66.935,2.2,2.2,0,0,1,.755-.677,2.229,2.229,0,0,1,1.1-.258q1.912,0,1.944,2.025V0h-.994V-3.835a1.334,1.334,0,0,0-.285-.932,1.254,1.254,0,0,0-.956-.309,1.318,1.318,0,0,0-.918.33,1.34,1.34,0,0,0-.424.889V0h-1V-3.808A1.109,1.109,0,0,0,8.653-5.076a1.329,1.329,0,0,0-1.337.833V0H6.322V-5.812Zm16.35,2.97A3.455,3.455,0,0,1,23-.7a1.956,1.956,0,0,1-1.644.808,2.026,2.026,0,0,1-1.7-.779L19.6,0h-.913V-8.25h.994v3.078a2.014,2.014,0,0,1,1.66-.747,1.968,1.968,0,0,1,1.662.8,3.559,3.559,0,0,1,.6,2.191Zm-.994-.113a2.685,2.685,0,0,0-.392-1.568A1.3,1.3,0,0,0,21.1-5.076a1.459,1.459,0,0,0-1.413.913v2.514a1.5,1.5,0,0,0,1.423.913,1.291,1.291,0,0,0,1.112-.553A2.855,2.855,0,0,0,22.618-2.954Z" transform="translate(433 -10391)" fill="#12263f"/>
      <path id="Trazado_120170" data-name="Trazado 120170" d="M5.672-2.841A3.455,3.455,0,0,1,5.06-.7,1.956,1.956,0,0,1,3.416.107a2.026,2.026,0,0,1-1.7-.779L1.665,0H.752V-8.25h.994v3.078a2.014,2.014,0,0,1,1.66-.747,1.968,1.968,0,0,1,1.662.8,3.559,3.559,0,0,1,.6,2.191Zm-.994-.113a2.685,2.685,0,0,0-.392-1.568,1.3,1.3,0,0,0-1.128-.553,1.459,1.459,0,0,0-1.413.913v2.514a1.5,1.5,0,0,0,1.423.913,1.291,1.291,0,0,0,1.112-.553A2.855,2.855,0,0,0,4.678-2.954ZM14.19-4.372H9.711v-.865H14.19Zm0,2.229H9.711V-3H14.19ZM21.57,0h-1V-6.623l-2,.736v-.9l2.847-1.069h.156ZM28.29-3.437a2.431,2.431,0,0,1-.744.6,2.018,2.018,0,0,1-.948.226,2.084,2.084,0,0,1-1.179-.333,2.165,2.165,0,0,1-.776-.937,3.2,3.2,0,0,1-.274-1.335,3.256,3.256,0,0,1,.3-1.413,2.19,2.19,0,0,1,.846-.961,2.412,2.412,0,0,1,1.278-.333,2.184,2.184,0,0,1,1.829.867,3.784,3.784,0,0,1,.669,2.366v.29a5.055,5.055,0,0,1-.9,3.333A3.467,3.467,0,0,1,25.663.005H25.47V-.833h.209a2.732,2.732,0,0,0,1.891-.642A2.757,2.757,0,0,0,28.29-3.437Zm-1.531,0a1.534,1.534,0,0,0,.921-.306,1.8,1.8,0,0,0,.615-.757v-.4a2.734,2.734,0,0,0-.424-1.59A1.266,1.266,0,0,0,26.8-7.1a1.276,1.276,0,0,0-1.053.5,2.072,2.072,0,0,0-.4,1.324,2.156,2.156,0,0,0,.384,1.319A1.216,1.216,0,0,0,26.759-3.437Zm8.8.1a4.545,4.545,0,0,1-.6,2.594A2.12,2.12,0,0,1,33.1.107a2.136,2.136,0,0,1-1.853-.83A4.313,4.313,0,0,1,30.626-3.2V-4.528a4.443,4.443,0,0,1,.6-2.562,2.137,2.137,0,0,1,1.869-.838,2.156,2.156,0,0,1,1.858.808,4.288,4.288,0,0,1,.612,2.495Zm-.994-1.359a3.641,3.641,0,0,0-.354-1.84,1.22,1.22,0,0,0-1.123-.577,1.2,1.2,0,0,0-1.112.575,3.555,3.555,0,0,0-.36,1.767v1.59a3.7,3.7,0,0,0,.368,1.872A1.218,1.218,0,0,0,33.1-.7,1.2,1.2,0,0,0,34.2-1.273a3.566,3.566,0,0,0,.373-1.794Z" transform="translate(152 -10391)" fill="#12263f"/>
      <path id="Trazado_120173" data-name="Trazado 120173" d="M5,0l5,9H0Z" transform="translate(69 -10389) rotate(90)" fill="#12263f"/>
      <path id="Trazado_120171" data-name="Trazado 120171" d="M5,0l5,9H0Z" transform="translate(85 -10379) rotate(-90)" fill="#12263f"/>
      <path id="Trazado_120172" data-name="Trazado 120172" d="M5.774,0H.65V-.714L3.357-3.722a6.431,6.431,0,0,0,.83-1.109,1.851,1.851,0,0,0,.228-.884,1.4,1.4,0,0,0-.371-1,1.3,1.3,0,0,0-.988-.392A1.535,1.535,0,0,0,1.9-6.69a1.611,1.611,0,0,0-.411,1.174H.5a2.307,2.307,0,0,1,.7-1.746,2.579,2.579,0,0,1,1.861-.666,2.478,2.478,0,0,1,1.724.572,1.951,1.951,0,0,1,.634,1.523,4.474,4.474,0,0,1-1.472,2.75L1.848-.811H5.774ZM11.73-3.335a4.545,4.545,0,0,1-.6,2.594A2.12,2.12,0,0,1,9.271.107a2.136,2.136,0,0,1-1.853-.83A4.313,4.313,0,0,1,6.794-3.2V-4.528a4.443,4.443,0,0,1,.6-2.562A2.137,2.137,0,0,1,9.26-7.928a2.156,2.156,0,0,1,1.858.808,4.288,4.288,0,0,1,.612,2.495Zm-.994-1.359a3.641,3.641,0,0,0-.354-1.84A1.22,1.22,0,0,0,9.26-7.111a1.2,1.2,0,0,0-1.112.575,3.555,3.555,0,0,0-.36,1.767v1.59a3.7,3.7,0,0,0,.368,1.872,1.218,1.218,0,0,0,1.115.6,1.2,1.2,0,0,0,1.093-.569,3.566,3.566,0,0,0,.373-1.794Z" transform="translate(72 -10391)" fill="#12263f"/>
      <path id="Trazado_120166" data-name="Trazado 120166" d="M5,0l5,9H0Z" transform="translate(298 -10379) rotate(-90)" fill="#12263f"/>
      <path id="Trazado_120168" data-name="Trazado 120168" d="M5,0l5,9H0Z" transform="translate(289 -10389) rotate(90)" fill="#12263f"/>
      <path id="Trazado_120167" data-name="Trazado 120167" d="M3.916,0h-1V-6.623l-2,.736v-.9L3.76-7.858h.156ZM11.73-3.335a4.545,4.545,0,0,1-.6,2.594A2.12,2.12,0,0,1,9.271.107a2.136,2.136,0,0,1-1.853-.83A4.313,4.313,0,0,1,6.794-3.2V-4.528a4.443,4.443,0,0,1,.6-2.562A2.137,2.137,0,0,1,9.26-7.928a2.156,2.156,0,0,1,1.858.808,4.288,4.288,0,0,1,.612,2.495Zm-.994-1.359a3.641,3.641,0,0,0-.354-1.84A1.22,1.22,0,0,0,9.26-7.111a1.2,1.2,0,0,0-1.112.575,3.555,3.555,0,0,0-.36,1.767v1.59a3.7,3.7,0,0,0,.368,1.872,1.218,1.218,0,0,0,1.115.6,1.2,1.2,0,0,0,1.093-.569,3.566,3.566,0,0,0,.373-1.794Z" transform="translate(288 -10391)" fill="#12263f"/>
      <path id="Trazado_120160" data-name="Trazado 120160" d="M5,0l5,9H0Z" transform="translate(634 -10379) rotate(-90)" fill="#12263f"/>
      <path id="Trazado_120161" data-name="Trazado 120161" d="M5,0l5,9H0Z" transform="translate(620 -10389) rotate(90)" fill="#12263f"/>
      <path id="Trazado_120178" data-name="Trazado 120178" d="M5,0l5,9H0Z" transform="translate(46.292 -10020) rotate(180)" fill="#12263f"/>
      <path id="Trazado_120175" data-name="Trazado 120175" d="M5,0l5,9H0Z" transform="translate(36.292 -10369)" fill="#12263f"/>
      <path id="Trazado_120087" data-name="Trazado 120087" d="M85.5-10664.242h-1v-16.086h1Z" transform="translate(-10630.785 -10455) rotate(90)" fill="#12263f"/>
      <path id="Trazado_120088" data-name="Trazado 120088" d="M85.5-10664.242h-1v-16.086h1Z" transform="translate(-10630.785 -10105) rotate(90)" fill="#12263f"/>
      <path id="Trazado_120089" data-name="Trazado 120089" d="M85.5-10664.242h-1v-16.086h1Z" transform="translate(-10030.242 -10117) rotate(90)" fill="#12263f"/>
      <path id="Trazado_120177" data-name="Trazado 120177" d="M1.106-3.921l.4-3.9H5.511V-6.9H2.347L2.111-4.77a2.524,2.524,0,0,1,1.305-.338,2.158,2.158,0,0,1,1.7.706,2.768,2.768,0,0,1,.628,1.909,2.672,2.672,0,0,1-.653,1.9,2.379,2.379,0,0,1-1.823.7A2.472,2.472,0,0,1,1.574-.467a2.294,2.294,0,0,1-.747-1.59h.94a1.578,1.578,0,0,0,.478,1.012A1.486,1.486,0,0,0,3.266-.7a1.341,1.341,0,0,0,1.088-.473,1.976,1.976,0,0,0,.395-1.305,1.814,1.814,0,0,0-.427-1.26,1.452,1.452,0,0,0-1.136-.475,1.638,1.638,0,0,0-1.021.285L1.9-3.717Z" transform="translate(651 -10022)" fill="#12263f"/>
      <path id="Trazado_120090" data-name="Trazado 120090" d="M85.5-10664.242h-1v-16.086h1Z" transform="translate(-10030.242 -10105.5) rotate(90)" fill="#12263f"/>
      <path id="Trazado_120091" data-name="Trazado 120091" d="M85.5-10664.242h-1v-16.086h1Z" transform="translate(-16 288.285)" fill="#12263f"/>
      <path id="Trazado_120092" data-name="Trazado 120092" d="M85.5-10664.242h-1v-16.086h1Z" transform="translate(0 288.285)" fill="#12263f"/>
      <path id="Trazado_120093" data-name="Trazado 120093" d="M85.5-10664.242h-1v-16.086h1Z" transform="translate(204 288.285)" fill="#12263f"/>
      <path id="Trazado_120094" data-name="Trazado 120094" d="M85.5-10664.242h-1v-16.086h1Z" transform="translate(215 288.285)" fill="#12263f"/>
      <path id="Trazado_120095" data-name="Trazado 120095" d="M347.5-10013h-1v-10h1Zm0-20h-1v-10h1Zm0-20h-1v-10h1Zm0-20h-1v-10h1Zm0-20h-1v-10h1Zm0-20h-1v-10h1Zm0-20h-1v-10h1Zm0-20h-1v-10h1Zm0-20h-1v-10h1Zm0-20h-1v-10h1Zm0-20h-1v-10h1Zm0-20h-1v-10h1Zm0-20h-1v-10h1Zm0-20h-1v-10h1Zm0-20h-1v-10h1Zm0-20h-1v-10h1Z" transform="translate(-57 -35.753)" fill="#12263f"/>
      <path id="Trazado_120096" data-name="Trazado 120096" d="M347.5-10013h-1v-10h1Zm0-20h-1v-10h1Zm0-20h-1v-10h1Zm0-20h-1v-10h1Zm0-20h-1v-10h1Zm0-20h-1v-10h1Zm0-20h-1v-10h1Zm0-20h-1v-10h1Zm0-20h-1v-10h1Zm0-20h-1v-10h1Zm0-20h-1v-10h1Zm0-20h-1v-10h1Zm0-20h-1v-10h1Zm0-20h-1v-10h1Zm0-20h-1v-10h1Zm0-20h-1v-10h1Z" transform="translate(-51 -35.753)" fill="#12263f"/>
      <path id="Trazado_120162" data-name="Trazado 120162" d="M1.106-3.921l.4-3.9H5.511V-6.9H2.347L2.111-4.77a2.524,2.524,0,0,1,1.305-.338,2.158,2.158,0,0,1,1.7.706,2.768,2.768,0,0,1,.628,1.909,2.672,2.672,0,0,1-.653,1.9,2.379,2.379,0,0,1-1.823.7A2.472,2.472,0,0,1,1.574-.467a2.294,2.294,0,0,1-.747-1.59h.94a1.578,1.578,0,0,0,.478,1.012A1.486,1.486,0,0,0,3.266-.7a1.341,1.341,0,0,0,1.088-.473,1.976,1.976,0,0,0,.395-1.305,1.814,1.814,0,0,0-.427-1.26,1.452,1.452,0,0,0-1.136-.475,1.638,1.638,0,0,0-1.021.285L1.9-3.717Z" transform="translate(623 -10391)" fill="#12263f"/>
      <path id="Trazado_120097" data-name="Trazado 120097" d="M85.5-10655.448h-1v-24.879h1Z" transform="translate(-10022.328 -10454.5) rotate(90)" fill="#12263f"/>
      <path id="Trazado_120098" data-name="Trazado 120098" d="M85.5-10655.448h-1v-24.879h1Z" transform="translate(-10022.328 -10443.5) rotate(90)" fill="#12263f"/>
      <path id="Trazado_120157" data-name="Trazado 120157" d="M1.106-3.921l.4-3.9H5.511V-6.9H2.347L2.111-4.77a2.524,2.524,0,0,1,1.305-.338,2.158,2.158,0,0,1,1.7.706,2.768,2.768,0,0,1,.628,1.909,2.672,2.672,0,0,1-.653,1.9,2.379,2.379,0,0,1-1.823.7A2.472,2.472,0,0,1,1.574-.467a2.294,2.294,0,0,1-.747-1.59h.94a1.578,1.578,0,0,0,.478,1.012A1.486,1.486,0,0,0,3.266-.7a1.341,1.341,0,0,0,1.088-.473,1.976,1.976,0,0,0,.395-1.305,1.814,1.814,0,0,0-.427-1.26,1.452,1.452,0,0,0-1.136-.475,1.638,1.638,0,0,0-1.021.285L1.9-3.717Z" transform="translate(660 -10360)" fill="#12263f"/>
      <path id="Trazado_120163" data-name="Trazado 120163" d="M5,0l5,9H0Z" transform="translate(645 -10358.5)" fill="#12263f"/>
      <path id="Trazado_120099" data-name="Trazado 120099" d="M85.5-10667.678h-1v-12.65h1Z" transform="translate(735 -21023.221) rotate(180)" fill="#12263f"/>
      <path id="Trazado_120164" data-name="Trazado 120164" d="M5,0l5,9H0Z" transform="translate(655.56 -10369.5) rotate(180)" fill="#12263f"/>
      <path id="Trazado_120100" data-name="Trazado 120100" d="M.5,9.966h-1V0h1Z" transform="translate(650.56 -10372.458) rotate(180)" fill="#12263f"/>
      <path id="Trazado_120176" data-name="Trazado 120176" d="M5,0l5,9H0Z" transform="translate(647.5 -10032) rotate(180)" fill="#12263f"/>
      <path id="Trazado_120101" data-name="Trazado 120101" d="M.5,12.65h-1V0h1Z" transform="translate(642.5 -10034.957) rotate(180)" fill="#12263f"/>
      <path id="Trazado_120180" data-name="Trazado 120180" d="M5,0l5,9H0Z" transform="translate(637.5 -10020.5)" fill="#12263f"/>
      <path id="Trazado_120102" data-name="Trazado 120102" d="M.5,12.65h-1V0h1Z" transform="translate(642.5 -10004.893) rotate(180)" fill="#12263f"/>
    </g>
  </g>
</svg>
