<svg xmlns="http://www.w3.org/2000/svg" width="657" height="427" viewBox="0 0 657 427">
  <g id="Grupo_152225" data-name="Grupo 152225" transform="translate(-4518 9768)">
    <g id="Grupo_151774" data-name="Grupo 151774" transform="translate(4496)">
      <g id="Grupo_152224" data-name="Grupo 152224">
        <g id="Grupo_152223" data-name="Grupo 152223">
          <path id="Trazado_120278" data-name="Trazado 120278" d="M14,0H643a14,14,0,0,1,14,14V413a14,14,0,0,1-14,14H14A14,14,0,0,1,0,413V14A14,14,0,0,1,14,0Z" transform="translate(22 -9768)" fill="#fff"/>
        </g>
      </g>
      <path id="Trazado_120249" data-name="Trazado 120249" d="M0,0H554V212H0Z" transform="translate(53 -9676)" fill="#fff"/>
      <path id="Rectángulo_34243_-_Contorno" data-name="Rectángulo 34243 - Contorno" d="M1,1V211H553V1H1M0,0H554V212H0Z" transform="translate(53 -9676)"/>
      <path id="Trazado_120103" data-name="Trazado 120103" d="M238.418-9464h-1v-211.934h1Z" transform="translate(-29)" fill="#12263f"/>
      <path id="Trazado_120104" data-name="Trazado 120104" d="M238.418-9464h-1v-211.934h1Z" transform="translate(231)" fill="#12263f"/>
      <path id="Trazado_120105" data-name="Trazado 120105" d="M633.414-9606.129h-397.5v-1h397.5Z" transform="translate(-27)" fill="#12263f"/>
      <path id="Trazado_120275" data-name="Trazado 120275" d="M1.939-3.062V0H.908V-7.82H3.792A2.9,2.9,0,0,1,5.8-7.165,2.222,2.222,0,0,1,6.531-5.43,2.192,2.192,0,0,1,5.82-3.677a3.027,3.027,0,0,1-2.038.615Zm0-.843H3.792A1.855,1.855,0,0,0,5.06-4.294,1.423,1.423,0,0,0,5.5-5.419a1.47,1.47,0,0,0-.44-1.117,1.738,1.738,0,0,0-1.208-.435H1.939Zm8.776.741H8.878V0H7.842V-7.82h2.589a3.064,3.064,0,0,1,2.033.6,2.164,2.164,0,0,1,.712,1.751,2.105,2.105,0,0,1-.395,1.273,2.357,2.357,0,0,1-1.1.811L13.519-.064V0H12.413ZM8.878-4.007h1.584a1.789,1.789,0,0,0,1.222-.4,1.343,1.343,0,0,0,.454-1.063,1.414,1.414,0,0,0-.432-1.112,1.833,1.833,0,0,0-1.249-.392H8.878Zm10.162.392H15.651V-.843h3.937V0H14.62V-7.82h4.915v.849H15.651v2.514h3.389Zm4.136.129a4.849,4.849,0,0,1-1.931-.937,1.791,1.791,0,0,1-.6-1.372,1.892,1.892,0,0,1,.739-1.528,2.935,2.935,0,0,1,1.92-.6,3.2,3.2,0,0,1,1.437.312,2.362,2.362,0,0,1,.978.859,2.2,2.2,0,0,1,.346,1.2H25.024a1.422,1.422,0,0,0-.451-1.115A1.839,1.839,0,0,0,23.3-7.079a1.881,1.881,0,0,0-1.19.336,1.119,1.119,0,0,0-.427.932A1.007,1.007,0,0,0,22.089-5a3.981,3.981,0,0,0,1.38.6,6.392,6.392,0,0,1,1.525.6,2.315,2.315,0,0,1,.816.771,1.967,1.967,0,0,1,.266,1.037,1.827,1.827,0,0,1-.741,1.523,3.16,3.16,0,0,1-1.982.572A3.676,3.676,0,0,1,21.85-.2a2.531,2.531,0,0,1-1.077-.846,2.064,2.064,0,0,1-.379-1.219h1.037a1.347,1.347,0,0,0,.524,1.12,2.2,2.2,0,0,0,1.4.411A2.027,2.027,0,0,0,24.6-1.069a1.082,1.082,0,0,0,.435-.908,1.062,1.062,0,0,0-.4-.889A4.644,4.644,0,0,0,23.176-3.486Zm8.642-.129H28.429V-.843h3.937V0H27.4V-7.82h4.915v.849H28.429v2.514h3.389ZM39.66,0H38.624L34.687-6.026V0H33.65V-7.82h1.037l3.948,6.053V-7.82H39.66Zm7.079-6.972H44.226V0H43.2V-6.972H40.691V-7.82h6.048Zm5.054,4.931H48.517L47.781,0H46.718L49.7-7.82h.9L53.6,0H52.54ZM48.829-2.89h2.659L50.155-6.547Z" transform="translate(67 -9652)" fill="#12263f"/>
      <path id="Trazado_120265" data-name="Trazado 120265" d="M1.939-3.062V0H.908V-7.82H3.792A2.9,2.9,0,0,1,5.8-7.165,2.222,2.222,0,0,1,6.531-5.43,2.192,2.192,0,0,1,5.82-3.677a3.027,3.027,0,0,1-2.038.615Zm0-.843H3.792A1.855,1.855,0,0,0,5.06-4.294,1.423,1.423,0,0,0,5.5-5.419a1.47,1.47,0,0,0-.44-1.117,1.738,1.738,0,0,0-1.208-.435H1.939Zm8.776.741H8.878V0H7.842V-7.82h2.589a3.064,3.064,0,0,1,2.033.6,2.164,2.164,0,0,1,.712,1.751,2.105,2.105,0,0,1-.395,1.273,2.357,2.357,0,0,1-1.1.811L13.519-.064V0H12.413ZM8.878-4.007h1.584a1.789,1.789,0,0,0,1.222-.4,1.343,1.343,0,0,0,.454-1.063,1.414,1.414,0,0,0-.432-1.112,1.833,1.833,0,0,0-1.249-.392H8.878Zm11.757.349a4.838,4.838,0,0,1-.387,2.006,2.929,2.929,0,0,1-1.1,1.308A3.015,3.015,0,0,1,17.5.107a2.989,2.989,0,0,1-1.638-.454,3,3,0,0,1-1.109-1.294,4.642,4.642,0,0,1-.406-1.947v-.564a4.78,4.78,0,0,1,.392-1.993,2.989,2.989,0,0,1,1.109-1.324,2.976,2.976,0,0,1,1.641-.459,3.032,3.032,0,0,1,1.657.454,2.924,2.924,0,0,1,1.1,1.316,4.861,4.861,0,0,1,.387,2.006Zm-1.026-.5A3.506,3.506,0,0,0,19.051-6.3a1.842,1.842,0,0,0-1.563-.744,1.823,1.823,0,0,0-1.539.744,3.434,3.434,0,0,0-.577,2.065v.575a3.511,3.511,0,0,0,.567,2.119,1.83,1.83,0,0,0,1.56.771A1.823,1.823,0,0,0,19.046-1.5a3.492,3.492,0,0,0,.564-2.087Zm4.727.269L26.377-7.82h1.171l-2.7,4.9V0H23.821V-2.917l-2.7-4.9h1.182Zm8.642.279H29.589V-.843h3.937V0H28.558V-7.82h4.915v.849H29.589v2.514h3.389Zm7.584,1.133a2.877,2.877,0,0,1-.916,1.915A3,3,0,0,1,37.6.107a2.756,2.756,0,0,1-2.221-.994,4,4,0,0,1-.835-2.659V-4.3a4.456,4.456,0,0,1,.389-1.917,2.909,2.909,0,0,1,1.1-1.27,3.073,3.073,0,0,1,1.654-.443,2.826,2.826,0,0,1,2,.7,2.912,2.912,0,0,1,.875,1.926H39.526a2.237,2.237,0,0,0-.583-1.354,1.767,1.767,0,0,0-1.254-.419,1.846,1.846,0,0,0-1.55.73,3.351,3.351,0,0,0-.561,2.079v.757a3.445,3.445,0,0,0,.532,2.025A1.719,1.719,0,0,0,37.6-.736a1.984,1.984,0,0,0,1.319-.389,2.161,2.161,0,0,0,.61-1.356Zm6.655-4.49H44.7V0H43.678V-6.972H41.169V-7.82h6.048Zm7.025,3.314a4.838,4.838,0,0,1-.387,2.006,2.929,2.929,0,0,1-1.1,1.308,3.015,3.015,0,0,1-1.654.451,2.989,2.989,0,0,1-1.638-.454,3,3,0,0,1-1.109-1.294,4.642,4.642,0,0,1-.406-1.947v-.564a4.78,4.78,0,0,1,.392-1.993,2.989,2.989,0,0,1,1.109-1.324A2.976,2.976,0,0,1,51.1-7.928a3.032,3.032,0,0,1,1.657.454,2.924,2.924,0,0,1,1.1,1.316,4.861,4.861,0,0,1,.387,2.006Zm-1.026-.5A3.506,3.506,0,0,0,52.658-6.3,1.842,1.842,0,0,0,51.1-7.042a1.823,1.823,0,0,0-1.539.744,3.434,3.434,0,0,0-.577,2.065v.575a3.511,3.511,0,0,0,.567,2.119,1.83,1.83,0,0,0,1.56.771A1.823,1.823,0,0,0,52.653-1.5a3.492,3.492,0,0,0,.564-2.087Z" transform="translate(222 -9652)" fill="#12263f"/>
      <path id="Trazado_120266" data-name="Trazado 120266" d="M6.66-2.481A2.877,2.877,0,0,1,5.744-.567,3,3,0,0,1,3.7.107,2.756,2.756,0,0,1,1.474-.886,4,4,0,0,1,.639-3.545V-4.3a4.456,4.456,0,0,1,.389-1.917,2.909,2.909,0,0,1,1.1-1.27,3.073,3.073,0,0,1,1.654-.443,2.826,2.826,0,0,1,2,.7A2.912,2.912,0,0,1,6.66-5.307H5.624A2.237,2.237,0,0,0,5.041-6.66a1.767,1.767,0,0,0-1.254-.419,1.846,1.846,0,0,0-1.55.73A3.351,3.351,0,0,0,1.676-4.27v.757a3.445,3.445,0,0,0,.532,2.025A1.719,1.719,0,0,0,3.7-.736a1.984,1.984,0,0,0,1.319-.389,2.161,2.161,0,0,0,.61-1.356Zm7.423-1.176A4.838,4.838,0,0,1,13.7-1.652,2.929,2.929,0,0,1,12.6-.344a3.015,3.015,0,0,1-1.654.451A2.989,2.989,0,0,1,9.308-.346,3,3,0,0,1,8.2-1.641a4.642,4.642,0,0,1-.406-1.947v-.564a4.78,4.78,0,0,1,.392-1.993A2.989,2.989,0,0,1,9.295-7.469a2.976,2.976,0,0,1,1.641-.459,3.032,3.032,0,0,1,1.657.454,2.924,2.924,0,0,1,1.1,1.316,4.861,4.861,0,0,1,.387,2.006Zm-1.026-.5A3.506,3.506,0,0,0,12.5-6.3a1.842,1.842,0,0,0-1.563-.744A1.823,1.823,0,0,0,9.4-6.3a3.434,3.434,0,0,0-.577,2.065v.575a3.511,3.511,0,0,0,.567,2.119,1.83,1.83,0,0,0,1.56.771A1.823,1.823,0,0,0,12.493-1.5a3.492,3.492,0,0,0,.564-2.087ZM21.64,0H20.6L16.667-6.026V0H15.63V-7.82h1.037l3.948,6.053V-7.82H21.64Zm7.079-6.972H26.206V0H25.18V-6.972H22.671V-7.82h6.048ZM30.986,0H29.955V-7.82h1.031Zm6.306-3.615H33.9V-.843h3.937V0H32.871V-7.82h4.915v.849H33.9v2.514h3.389ZM45.133,0H44.1L40.16-6.026V0H39.123V-7.82H40.16l3.948,6.053V-7.82h1.026Zm6.252-3.615H48V-.843h3.937V0H46.965V-7.82h4.915v.849H48v2.514h3.389Z" transform="translate(222 -9583)" fill="#12263f"/>
      <path id="Trazado_120253" data-name="Trazado 120253" d="M6.918,0H5.881V-3.615H1.939V0H.908V-7.82H1.939v3.362H5.881V-7.82H6.918Zm7.847-3.658a4.838,4.838,0,0,1-.387,2.006,2.929,2.929,0,0,1-1.1,1.308,3.015,3.015,0,0,1-1.654.451A2.989,2.989,0,0,1,9.99-.346,3,3,0,0,1,8.881-1.641a4.642,4.642,0,0,1-.406-1.947v-.564a4.78,4.78,0,0,1,.392-1.993A2.989,2.989,0,0,1,9.977-7.469a2.976,2.976,0,0,1,1.641-.459,3.032,3.032,0,0,1,1.657.454,2.924,2.924,0,0,1,1.1,1.316,4.861,4.861,0,0,1,.387,2.006Zm-1.026-.5A3.506,3.506,0,0,0,13.181-6.3a1.842,1.842,0,0,0-1.563-.744,1.823,1.823,0,0,0-1.539.744A3.434,3.434,0,0,0,9.5-4.232v.575a3.511,3.511,0,0,0,.567,2.119,1.83,1.83,0,0,0,1.56.771A1.823,1.823,0,0,0,13.175-1.5a3.492,3.492,0,0,0,.564-2.087ZM19.588-7.82h1.037v5.538a2.294,2.294,0,0,1-.674,1.756,2.516,2.516,0,0,1-1.8.634,2.586,2.586,0,0,1-1.815-.6,2.153,2.153,0,0,1-.65-1.67H16.72a1.434,1.434,0,0,0,.368,1.047,1.425,1.425,0,0,0,1.066.376,1.383,1.383,0,0,0,1.034-.4,1.561,1.561,0,0,0,.4-1.128Zm6.993,5.779H23.305L22.569,0H21.506l2.986-7.82h.9L28.386,0H27.328ZM23.617-2.89h2.659L24.943-6.547ZM32.162,0V-7.82H34.37a3.554,3.554,0,0,1,1.8.451,3.051,3.051,0,0,1,1.211,1.284,4.178,4.178,0,0,1,.432,1.912v.5a4.193,4.193,0,0,1-.427,1.939A3,3,0,0,1,36.172-.457,3.78,3.78,0,0,1,34.327,0Zm1.031-6.972V-.843h1.085a2.362,2.362,0,0,0,1.856-.741A3.061,3.061,0,0,0,36.8-3.7v-.457a3.109,3.109,0,0,0-.626-2.071A2.228,2.228,0,0,0,34.4-6.972ZM43.8-3.615H40.407V-.843h3.937V0H39.375V-7.82H44.29v.849H40.407v2.514H43.8Z" transform="translate(482 -9652)" fill="#12263f"/>
      <path id="Trazado_120256" data-name="Trazado 120256" d="M5.221-3.454H1.939V0H.908V-7.82H5.752v.849H1.939V-4.3H5.221Zm6.188-.161H8.019V-.843h3.937V0H6.988V-7.82H11.9v.849H8.019v2.514h3.389Zm7.584,1.133a2.877,2.877,0,0,1-.916,1.915,3,3,0,0,1-2.049.674,2.756,2.756,0,0,1-2.221-.994,4,4,0,0,1-.835-2.659V-4.3a4.456,4.456,0,0,1,.389-1.917,2.909,2.909,0,0,1,1.1-1.27,3.073,3.073,0,0,1,1.654-.443,2.826,2.826,0,0,1,2,.7,2.912,2.912,0,0,1,.875,1.926H17.956a2.237,2.237,0,0,0-.583-1.354,1.767,1.767,0,0,0-1.254-.419,1.846,1.846,0,0,0-1.55.73,3.351,3.351,0,0,0-.561,2.079v.757a3.445,3.445,0,0,0,.532,2.025,1.719,1.719,0,0,0,1.488.752,1.984,1.984,0,0,0,1.319-.389,2.161,2.161,0,0,0,.61-1.356ZM26.41,0H25.373V-3.615H21.431V0H20.4V-7.82h1.031v3.362h3.942V-7.82H26.41Zm6.247-2.041H29.38L28.644,0H27.581l2.986-7.82h.9L34.461,0H33.4ZM29.691-2.89H32.35L31.018-6.547Z" transform="translate(482 -9589)" fill="#12263f"/>
      <path id="Trazado_120106" data-name="Trazado 120106" d="M373.414-9606.129h-137.5v-1h137.5Z" transform="translate(233 71.629)" fill="#12263f"/>
      <path id="Trazado_120107" data-name="Trazado 120107" d="M634-9712.5H80v-1H634Z" transform="translate(-27)" fill="#12263f"/>
      <path id="Trazado_120108" data-name="Trazado 120108" d="M625-9712.5H80v-1H625Z" transform="translate(-27 293)" fill="#12263f"/>
      <path id="Trazado_120276" data-name="Trazado 120276" d="M5,0l5,9H0Z" transform="translate(53 -9708) rotate(-90)" fill="#12263f"/>
      <path id="Trazado_120250" data-name="Trazado 120250" d="M5,0l5,9H0Z" transform="translate(607 -9718) rotate(90)" fill="#12263f"/>
      <path id="Trazado_120277" data-name="Trazado 120277" d="M5,0l5,9H0Z" transform="translate(53 -9415) rotate(-90)" fill="#12263f"/>
      <path id="Trazado_120269" data-name="Trazado 120269" d="M5,0l5,9H0Z" transform="translate(607 -9425) rotate(90)" fill="#12263f"/>
      <path id="Trazado_120109" data-name="Trazado 120109" d="M647.514-9648.557h-1v-27.377h1Z" transform="translate(-27)"/>
      <path id="Trazado_120110" data-name="Trazado 120110" d="M647.514-9648.557h-1v-27.377h1Z" transform="translate(-27 41.928)"/>
      <path id="Trazado_120251" data-name="Trazado 120251" d="M5,0l5,9H0Z" transform="translate(615.014 -9676)" fill="#12263f"/>
      <path id="Trazado_120254" data-name="Trazado 120254" d="M5,0l5,9H0Z" transform="translate(625.014 -9606.629) rotate(180)" fill="#12263f"/>
      <path id="Trazado_120111" data-name="Trazado 120111" d="M647.514-9648.557h-1v-27.377h1Z" transform="translate(-27 110.928)"/>
      <path id="Trazado_120259" data-name="Trazado 120259" d="M5,0l5,9H0Z" transform="translate(625.014 -9537.629) rotate(180)" fill="#12263f"/>
      <path id="Trazado_120112" data-name="Trazado 120112" d="M647.514-9648.557h-1v-27.377h1Z" transform="translate(-27 69.278)"/>
      <path id="Trazado_120255" data-name="Trazado 120255" d="M5,0l5,9H0Z" transform="translate(615.014 -9606.722)" fill="#12263f"/>
      <path id="Trazado_120113" data-name="Trazado 120113" d="M647.514-9648.557h-1v-27.377h1Z" transform="translate(-27 184.557)"/>
      <path id="Trazado_120263" data-name="Trazado 120263" d="M5,0l5,9H0Z" transform="translate(625.014 -9464) rotate(180)" fill="#12263f"/>
      <path id="Trazado_120114" data-name="Trazado 120114" d="M647.514-9648.557h-1v-27.377h1Z" transform="translate(-27 138.371)"/>
      <path id="Trazado_120260" data-name="Trazado 120260" d="M5,0l5,9H0Z" transform="translate(615.014 -9537.629)" fill="#12263f"/>
      <path id="Trazado_120115" data-name="Trazado 120115" d="M85.5-10665.234h-1v-15.092h1Z" transform="translate(-10052.767 -9760.934) rotate(90)" fill="#12263f"/>
      <path id="Trazado_120116" data-name="Trazado 120116" d="M85.5-10665.234h-1v-15.092h1Z" transform="translate(-10052.767 -9691.722) rotate(90)" fill="#12263f"/>
      <path id="Trazado_120117" data-name="Trazado 120117" d="M85.5-10665.234h-1v-15.092h1Z" transform="translate(-10052.767 -9622.563) rotate(90)" fill="#12263f"/>
      <path id="Trazado_120118" data-name="Trazado 120118" d="M85.5-10665.234h-1v-15.092h1Z" transform="translate(-10052.767 -9549) rotate(90)" fill="#12263f"/>
      <path id="Trazado_120252" data-name="Trazado 120252" d="M5.393-5.779a1.816,1.816,0,0,1-.309,1.042,2.1,2.1,0,0,1-.835.714,2.241,2.241,0,0,1,.969.768,1.933,1.933,0,0,1,.357,1.144A2.044,2.044,0,0,1,4.89-.494a2.631,2.631,0,0,1-1.8.6A2.619,2.619,0,0,1,1.281-.5,2.053,2.053,0,0,1,.6-2.111,1.991,1.991,0,0,1,.948-3.255a2.156,2.156,0,0,1,.959-.773,2.05,2.05,0,0,1-.822-.714,1.842,1.842,0,0,1-.3-1.037,2.021,2.021,0,0,1,.634-1.568,2.378,2.378,0,0,1,1.67-.58,2.38,2.38,0,0,1,1.668.58A2.017,2.017,0,0,1,5.393-5.779ZM4.582-2.132A1.441,1.441,0,0,0,4.165-3.2a1.476,1.476,0,0,0-1.088-.414A1.45,1.45,0,0,0,2-3.207,1.458,1.458,0,0,0,1.6-2.132,1.388,1.388,0,0,0,1.99-1.085a1.515,1.515,0,0,0,1.1.381,1.511,1.511,0,0,0,1.1-.384A1.385,1.385,0,0,0,4.582-2.132ZM3.088-7.111a1.282,1.282,0,0,0-.948.363,1.332,1.332,0,0,0-.363.986,1.325,1.325,0,0,0,.357.964,1.268,1.268,0,0,0,.953.368A1.268,1.268,0,0,0,4.042-4.8,1.325,1.325,0,0,0,4.4-5.763a1.326,1.326,0,0,0-.371-.972A1.264,1.264,0,0,0,3.088-7.111Z" transform="translate(617 -9637)" fill="#12263f"/>
      <path id="Trazado_120257" data-name="Trazado 120257" d="M5.393-5.779a1.816,1.816,0,0,1-.309,1.042,2.1,2.1,0,0,1-.835.714,2.241,2.241,0,0,1,.969.768,1.933,1.933,0,0,1,.357,1.144A2.044,2.044,0,0,1,4.89-.494a2.631,2.631,0,0,1-1.8.6A2.619,2.619,0,0,1,1.281-.5,2.053,2.053,0,0,1,.6-2.111,1.991,1.991,0,0,1,.948-3.255a2.156,2.156,0,0,1,.959-.773,2.05,2.05,0,0,1-.822-.714,1.842,1.842,0,0,1-.3-1.037,2.021,2.021,0,0,1,.634-1.568,2.378,2.378,0,0,1,1.67-.58,2.38,2.38,0,0,1,1.668.58A2.017,2.017,0,0,1,5.393-5.779ZM4.582-2.132A1.441,1.441,0,0,0,4.165-3.2a1.476,1.476,0,0,0-1.088-.414A1.45,1.45,0,0,0,2-3.207,1.458,1.458,0,0,0,1.6-2.132,1.388,1.388,0,0,0,1.99-1.085a1.515,1.515,0,0,0,1.1.381,1.511,1.511,0,0,0,1.1-.384A1.385,1.385,0,0,0,4.582-2.132ZM3.088-7.111a1.282,1.282,0,0,0-.948.363,1.332,1.332,0,0,0-.363.986,1.325,1.325,0,0,0,.357.964,1.268,1.268,0,0,0,.953.368A1.268,1.268,0,0,0,4.042-4.8,1.325,1.325,0,0,0,4.4-5.763a1.326,1.326,0,0,0-.371-.972A1.264,1.264,0,0,0,3.088-7.111Z" transform="translate(617 -9568)" fill="#12263f"/>
      <path id="Trazado_120261" data-name="Trazado 120261" d="M5.393-5.779a1.816,1.816,0,0,1-.309,1.042,2.1,2.1,0,0,1-.835.714,2.241,2.241,0,0,1,.969.768,1.933,1.933,0,0,1,.357,1.144A2.044,2.044,0,0,1,4.89-.494a2.631,2.631,0,0,1-1.8.6A2.619,2.619,0,0,1,1.281-.5,2.053,2.053,0,0,1,.6-2.111,1.991,1.991,0,0,1,.948-3.255a2.156,2.156,0,0,1,.959-.773,2.05,2.05,0,0,1-.822-.714,1.842,1.842,0,0,1-.3-1.037,2.021,2.021,0,0,1,.634-1.568,2.378,2.378,0,0,1,1.67-.58,2.38,2.38,0,0,1,1.668.58A2.017,2.017,0,0,1,5.393-5.779ZM4.582-2.132A1.441,1.441,0,0,0,4.165-3.2a1.476,1.476,0,0,0-1.088-.414A1.45,1.45,0,0,0,2-3.207,1.458,1.458,0,0,0,1.6-2.132,1.388,1.388,0,0,0,1.99-1.085a1.515,1.515,0,0,0,1.1.381,1.511,1.511,0,0,0,1.1-.384A1.385,1.385,0,0,0,4.582-2.132ZM3.088-7.111a1.282,1.282,0,0,0-.948.363,1.332,1.332,0,0,0-.363.986,1.325,1.325,0,0,0,.357.964,1.268,1.268,0,0,0,.953.368A1.268,1.268,0,0,0,4.042-4.8,1.325,1.325,0,0,0,4.4-5.763a1.326,1.326,0,0,0-.371-.972A1.264,1.264,0,0,0,3.088-7.111Z" transform="translate(617 -9499)" fill="#12263f"/>
      <path id="Trazado_120270" data-name="Trazado 120270" d="M5,0l5,9H0Z" transform="translate(209 -9425) rotate(90)" fill="#12263f"/>
      <path id="Trazado_120119" data-name="Trazado 120119" d="M647.514-9648.557h-1v-27.377h1Z" transform="translate(-438.096 242.245)"/>
      <path id="Trazado_120271" data-name="Trazado 120271" d="M5,0l5,9H0Z" transform="translate(209 -9415) rotate(-90)" fill="#12263f"/>
      <path id="Trazado_120272" data-name="Trazado 120272" d="M5,0l5,9H0Z" transform="translate(468.918 -9425) rotate(90)" fill="#12263f"/>
      <path id="Trazado_120120" data-name="Trazado 120120" d="M647.514-9648.557h-1v-27.377h1Z" transform="translate(-178.178 242.245)"/>
      <path id="Trazado_120273" data-name="Trazado 120273" d="M5,0l5,9H0Z" transform="translate(468.918 -9415) rotate(-90)" fill="#12263f"/>
      <path id="Trazado_120121" data-name="Trazado 120121" d="M647.514-9648.557h-1v-27.377h1Z" transform="translate(-41.514 242.245)"/>
      <path id="Trazado_120122" data-name="Trazado 120122" d="M647.514-9648.557h-1v-27.377h1Z" transform="translate(-594.014 242.245)"/>
      <path id="Trazado_120274" data-name="Trazado 120274" d="M4.549-7.826v.843H4.367a2.616,2.616,0,0,0-1.848.688A2.861,2.861,0,0,0,1.724-4.42a2.121,2.121,0,0,1,1.687-.709,2.028,2.028,0,0,1,1.63.72,2.776,2.776,0,0,1,.61,1.858A2.767,2.767,0,0,1,4.992-.618,2.266,2.266,0,0,1,3.228.107,2.232,2.232,0,0,1,1.407-.755a3.417,3.417,0,0,1-.7-2.221v-.381a5.148,5.148,0,0,1,.921-3.3A3.383,3.383,0,0,1,4.372-7.826ZM3.244-4.3A1.585,1.585,0,0,0,2.3-4a1.6,1.6,0,0,0-.6.768v.365a2.565,2.565,0,0,0,.435,1.558,1.3,1.3,0,0,0,1.085.591,1.263,1.263,0,0,0,1.055-.494A2.05,2.05,0,0,0,4.667-2.5a2.051,2.051,0,0,0-.389-1.3A1.248,1.248,0,0,0,3.244-4.3Zm8.486.967a4.545,4.545,0,0,1-.6,2.594A2.12,2.12,0,0,1,9.271.107a2.136,2.136,0,0,1-1.853-.83A4.313,4.313,0,0,1,6.794-3.2V-4.528a4.443,4.443,0,0,1,.6-2.562A2.137,2.137,0,0,1,9.26-7.928a2.156,2.156,0,0,1,1.858.808,4.288,4.288,0,0,1,.612,2.495Zm-.994-1.359a3.641,3.641,0,0,0-.354-1.84A1.22,1.22,0,0,0,9.26-7.111a1.2,1.2,0,0,0-1.112.575,3.555,3.555,0,0,0-.36,1.767v1.59a3.7,3.7,0,0,0,.368,1.872,1.218,1.218,0,0,0,1.115.6,1.2,1.2,0,0,0,1.093-.569,3.566,3.566,0,0,0,.373-1.794Z" transform="translate(117 -9430)" fill="#12263f"/>
      <path id="Trazado_120267" data-name="Trazado 120267" d="M4.458-3.437a2.431,2.431,0,0,1-.744.6,2.018,2.018,0,0,1-.948.226,2.084,2.084,0,0,1-1.179-.333,2.165,2.165,0,0,1-.776-.937A3.2,3.2,0,0,1,.537-5.221a3.256,3.256,0,0,1,.3-1.413,2.19,2.19,0,0,1,.846-.961,2.412,2.412,0,0,1,1.278-.333,2.184,2.184,0,0,1,1.829.867,3.784,3.784,0,0,1,.669,2.366v.29a5.055,5.055,0,0,1-.9,3.333A3.467,3.467,0,0,1,1.832.005H1.638V-.833h.209a2.732,2.732,0,0,0,1.891-.642A2.757,2.757,0,0,0,4.458-3.437Zm-1.531,0a1.534,1.534,0,0,0,.921-.306A1.8,1.8,0,0,0,4.463-4.5v-.4a2.734,2.734,0,0,0-.424-1.59A1.266,1.266,0,0,0,2.965-7.1a1.276,1.276,0,0,0-1.053.5,2.072,2.072,0,0,0-.4,1.324A2.156,2.156,0,0,0,1.9-3.956,1.216,1.216,0,0,0,2.927-3.437Zm8.8.1a4.545,4.545,0,0,1-.6,2.594A2.12,2.12,0,0,1,9.271.107a2.136,2.136,0,0,1-1.853-.83A4.313,4.313,0,0,1,6.794-3.2V-4.528a4.443,4.443,0,0,1,.6-2.562A2.137,2.137,0,0,1,9.26-7.928a2.156,2.156,0,0,1,1.858.808,4.288,4.288,0,0,1,.612,2.495Zm-.994-1.359a3.641,3.641,0,0,0-.354-1.84A1.22,1.22,0,0,0,9.26-7.111a1.2,1.2,0,0,0-1.112.575,3.555,3.555,0,0,0-.36,1.767v1.59a3.7,3.7,0,0,0,.368,1.872,1.218,1.218,0,0,0,1.115.6,1.2,1.2,0,0,0,1.093-.569,3.566,3.566,0,0,0,.373-1.794Z" transform="translate(324 -9430)" fill="#12263f"/>
      <path id="Trazado_120268" data-name="Trazado 120268" d="M4.845-2.626H5.93v.811H4.845V0h-1V-1.815H.285V-2.4l3.5-5.419H4.845Zm-3.432,0H3.846V-6.461l-.118.215ZM11.73-3.335a4.545,4.545,0,0,1-.6,2.594A2.12,2.12,0,0,1,9.271.107a2.136,2.136,0,0,1-1.853-.83A4.313,4.313,0,0,1,6.794-3.2V-4.528a4.443,4.443,0,0,1,.6-2.562A2.137,2.137,0,0,1,9.26-7.928a2.156,2.156,0,0,1,1.858.808,4.288,4.288,0,0,1,.612,2.495Zm-.994-1.359a3.641,3.641,0,0,0-.354-1.84A1.22,1.22,0,0,0,9.26-7.111a1.2,1.2,0,0,0-1.112.575,3.555,3.555,0,0,0-.36,1.767v1.59a3.7,3.7,0,0,0,.368,1.872,1.218,1.218,0,0,0,1.115.6,1.2,1.2,0,0,0,1.093-.569,3.566,3.566,0,0,0,.373-1.794Z" transform="translate(532 -9430)" fill="#12263f"/>
      <path id="Trazado_120262" data-name="Trazado 120262" d="M3.916,0h-1V-6.623l-2,.736v-.9L3.76-7.858h.156Zm6.719-3.437a2.431,2.431,0,0,1-.744.6,2.018,2.018,0,0,1-.948.226,2.084,2.084,0,0,1-1.179-.333,2.165,2.165,0,0,1-.776-.937,3.2,3.2,0,0,1-.274-1.335,3.256,3.256,0,0,1,.3-1.413,2.19,2.19,0,0,1,.846-.961,2.412,2.412,0,0,1,1.278-.333,2.184,2.184,0,0,1,1.829.867,3.784,3.784,0,0,1,.669,2.366v.29a5.055,5.055,0,0,1-.9,3.333A3.467,3.467,0,0,1,8.008.005H7.815V-.833h.209a2.732,2.732,0,0,0,1.891-.642A2.757,2.757,0,0,0,10.635-3.437Zm-1.531,0a1.534,1.534,0,0,0,.921-.306A1.8,1.8,0,0,0,10.64-4.5v-.4a2.734,2.734,0,0,0-.424-1.59A1.266,1.266,0,0,0,9.142-7.1a1.276,1.276,0,0,0-1.053.5,2.072,2.072,0,0,0-.4,1.324,2.156,2.156,0,0,0,.384,1.319A1.216,1.216,0,0,0,9.1-3.437Zm8.8.1a4.545,4.545,0,0,1-.6,2.594,2.12,2.12,0,0,1-1.864.849,2.136,2.136,0,0,1-1.853-.83A4.313,4.313,0,0,1,12.971-3.2V-4.528a4.443,4.443,0,0,1,.6-2.562,2.137,2.137,0,0,1,1.869-.838,2.156,2.156,0,0,1,1.858.808,4.288,4.288,0,0,1,.612,2.495Zm-.994-1.359a3.641,3.641,0,0,0-.354-1.84,1.22,1.22,0,0,0-1.123-.577,1.2,1.2,0,0,0-1.112.575,3.555,3.555,0,0,0-.36,1.767v1.59a3.7,3.7,0,0,0,.368,1.872,1.218,1.218,0,0,0,1.115.6,1.2,1.2,0,0,0,1.093-.569,3.566,3.566,0,0,0,.373-1.794Z" transform="translate(309 -9721)" fill="#12263f"/>
      <path id="Trazado_120123" data-name="Trazado 120123" d="M647.514-9648.557h-1v-27.377h1Z" transform="translate(-594.014 -50.755)"/>
      <path id="Trazado_120124" data-name="Trazado 120124" d="M647.514-9648.557h-1v-27.377h1Z" transform="translate(-40.092 -50.755)"/>
      <path id="Trazado_120125" data-name="Trazado 120125" d="M645.5-9586.5h-1V-9676h1Z" fill="#12263f"/>
      <path id="Trazado_120126" data-name="Trazado 120126" d="M645.5-9588.683h-1V-9676h1Z" transform="translate(0 124.683)" fill="#12263f"/>
      <path id="Trazado_120258" data-name="Trazado 120258" d="M5.774,0H.65V-.714L3.357-3.722a6.431,6.431,0,0,0,.83-1.109,1.851,1.851,0,0,0,.228-.884,1.4,1.4,0,0,0-.371-1,1.3,1.3,0,0,0-.988-.392A1.535,1.535,0,0,0,1.9-6.69a1.611,1.611,0,0,0-.411,1.174H.5a2.307,2.307,0,0,1,.7-1.746,2.579,2.579,0,0,1,1.861-.666,2.478,2.478,0,0,1,1.724.572,1.951,1.951,0,0,1,.634,1.523,4.474,4.474,0,0,1-1.472,2.75L1.848-.811H5.774Zm5.248-2.626h1.085v.811H11.021V0h-1V-1.815H6.461V-2.4l3.5-5.419h1.058Zm-3.432,0h2.433V-6.461L9.9-6.247Z" transform="translate(639 -9567)" fill="#12263f"/>
      <path id="Trazado_120248" data-name="Trazado 120248" d="M5,0l5,9H0Z" transform="translate(640 -9676)" fill="#12263f"/>
      <path id="Trazado_120127" data-name="Trazado 120127" d="M85.5-10665.234h-1v-15.092h1Z" transform="translate(-10027.78 -9760.934) rotate(90)" fill="#12263f"/>
      <path id="Trazado_120264" data-name="Trazado 120264" d="M5,0l5,9H0Z" transform="translate(650 -9464) rotate(180)" fill="#12263f"/>
      <path id="Trazado_120128" data-name="Trazado 120128" d="M85.5-10665.234h-1v-15.092h1Z" transform="translate(-10027.78 -9549) rotate(90)" fill="#12263f"/>
    </g>
  </g>
</svg>
