<svg xmlns="http://www.w3.org/2000/svg" xmlns:xlink="http://www.w3.org/1999/xlink" width="400" height="157.532" viewBox="0 0 400 157.532">
  <defs>
    <clipPath id="clip-path">
      <rect id="Rectángulo_34229" data-name="Rectángulo 34229" width="229.998" height="157.532" fill="none"/>
    </clipPath>
  </defs>
  <g id="Grupo_152214" data-name="Grupo 152214" transform="translate(-390 -2249.468)">
    <rect id="Rectángulo_34230" data-name="Rectángulo 34230" width="400" height="134" transform="translate(390 2273)" fill="#f2f8ff"/>
    <g id="Grupo_151761" data-name="Grupo 151761" transform="translate(433 2249.468)">
      <rect id="Rectángulo_34175" data-name="Rectángulo 34175" width="42.303" height="155.756" transform="translate(187.697 0)" fill="#64b4d7"/>
      <rect id="Rectángulo_34176" data-name="Rectángulo 34176" width="74.689" height="155.756" transform="translate(113.005 0)" fill="#c1e4fa"/>
      <rect id="Rectángulo_34177" data-name="Rectángulo 34177" width="19.858" height="33.491" transform="translate(198.916 115.068)" fill="#848fb7"/>
      <rect id="Rectángulo_34178" data-name="Rectángulo 34178" width="14.953" height="1.454" transform="translate(201.369 118.636)" fill="#464f72"/>
      <rect id="Rectángulo_34179" data-name="Rectángulo 34179" width="14.953" height="1.456" transform="translate(201.369 121.18)" fill="#464f72"/>
      <rect id="Rectángulo_34180" data-name="Rectángulo 34180" width="14.953" height="1.454" transform="translate(201.369 123.786)" fill="#464f72"/>
      <rect id="Rectángulo_34181" data-name="Rectángulo 34181" width="14.953" height="1.46" transform="translate(201.369 126.326)" fill="#464f72"/>
      <rect id="Rectángulo_34182" data-name="Rectángulo 34182" width="14.953" height="1.454" transform="translate(201.369 128.914)" fill="#464f72"/>
      <rect id="Rectángulo_34183" data-name="Rectángulo 34183" width="14.953" height="1.458" transform="translate(201.369 131.456)" fill="#464f72"/>
      <rect id="Rectángulo_34184" data-name="Rectángulo 34184" width="14.953" height="1.454" transform="translate(201.369 134.062)" fill="#464f72"/>
      <rect id="Rectángulo_34185" data-name="Rectángulo 34185" width="14.953" height="1.458" transform="translate(201.369 136.604)" fill="#464f72"/>
      <rect id="Rectángulo_34186" data-name="Rectángulo 34186" width="14.953" height="1.454" transform="translate(201.369 139.699)" fill="#464f72"/>
      <rect id="Rectángulo_34187" data-name="Rectángulo 34187" width="14.953" height="1.454" transform="translate(201.369 142.3)" fill="#464f72"/>
      <rect id="Rectángulo_34188" data-name="Rectángulo 34188" width="14.953" height="1.458" transform="translate(201.369 144.842)" fill="#464f72"/>
      <path id="Trazado_119987" data-name="Trazado 119987" d="M94.168,30.62h20.363L104.35,10.261Z" transform="translate(104.497 11.387)" fill="#6d76a1"/>
      <path id="Trazado_119988" data-name="Trazado 119988" d="M111.524,27.67l-8.211-15.994L95.1,27.67Z" transform="translate(105.534 12.958)" fill="#ffcf03"/>
      <path id="Trazado_119989" data-name="Trazado 119989" d="M100.964,24.445l.156-7.221L99.257,19.74l-.5-6.356-.032,8.283,1.5-2.089Z" transform="translate(109.552 14.852)" fill="#6d76a1"/>
      <rect id="Rectángulo_34189" data-name="Rectángulo 34189" width="57.044" height="23.823" transform="translate(121.4 12.877)" fill="#6d76a1"/>
      <rect id="Rectángulo_34190" data-name="Rectángulo 34190" width="41.329" height="11.913" transform="translate(124.309 15.688)" fill="#464f72"/>
      <rect id="Rectángulo_34191" data-name="Rectángulo 34191" width="57.044" height="6.466" transform="translate(121.4 42.567)" fill="#6d76a1"/>
      <rect id="Rectángulo_34192" data-name="Rectángulo 34192" width="4.272" height="23.707" transform="translate(174.173 56.74)" fill="#6d76a1"/>
      <rect id="Rectángulo_34193" data-name="Rectángulo 34193" width="4.276" height="23.707" transform="translate(166.574 56.74)" fill="#6d76a1"/>
      <rect id="Rectángulo_34194" data-name="Rectángulo 34194" width="4.272" height="23.707" transform="translate(158.975 56.74)" fill="#6d76a1"/>
      <rect id="Rectángulo_34195" data-name="Rectángulo 34195" width="4.274" height="23.707" transform="translate(151.376 56.74)" fill="#6d76a1"/>
      <rect id="Rectángulo_34196" data-name="Rectángulo 34196" width="4.276" height="23.707" transform="translate(144.965 56.74)" fill="#6d76a1"/>
      <rect id="Rectángulo_34197" data-name="Rectángulo 34197" width="4.276" height="23.707" transform="translate(137.368 56.74)" fill="#6d76a1"/>
      <rect id="Rectángulo_34198" data-name="Rectángulo 34198" width="4.272" height="23.707" transform="translate(129.771 56.74)" fill="#6d76a1"/>
      <rect id="Rectángulo_34199" data-name="Rectángulo 34199" width="4.276" height="23.707" transform="translate(122.172 56.74)" fill="#6d76a1"/>
      <rect id="Rectángulo_34200" data-name="Rectángulo 34200" width="0.538" height="47.362" transform="translate(124.039 77.877)" fill="#6d76a1"/>
      <rect id="Rectángulo_34201" data-name="Rectángulo 34201" width="0.54" height="47.362" transform="translate(131.636 77.877)" fill="#6d76a1"/>
      <rect id="Rectángulo_34202" data-name="Rectángulo 34202" width="0.538" height="47.362" transform="translate(139.235 77.877)" fill="#6d76a1"/>
      <rect id="Rectángulo_34203" data-name="Rectángulo 34203" width="0.538" height="47.362" transform="translate(146.836 77.877)" fill="#6d76a1"/>
      <rect id="Rectángulo_34204" data-name="Rectángulo 34204" width="0.538" height="47.362" transform="translate(153.245 77.877)" fill="#6d76a1"/>
      <rect id="Rectángulo_34205" data-name="Rectángulo 34205" width="0.54" height="47.362" transform="translate(160.842 77.877)" fill="#6d76a1"/>
      <rect id="Rectángulo_34206" data-name="Rectángulo 34206" width="0.538" height="47.362" transform="translate(168.441 77.877)" fill="#6d76a1"/>
      <rect id="Rectángulo_34207" data-name="Rectángulo 34207" width="0.538" height="47.362" transform="translate(176.041 77.877)" fill="#6d76a1"/>
      <rect id="Rectángulo_34208" data-name="Rectángulo 34208" width="57.044" height="2.869" transform="translate(121.4 124.731)" fill="#6d76a1"/>
      <g id="Grupo_151760" data-name="Grupo 151760" transform="translate(0 0)">
        <g id="Grupo_151759" data-name="Grupo 151759" clip-path="url(#clip-path)">
          <path id="Trazado_119990" data-name="Trazado 119990" d="M89.7,35.514l-.032-4.156a1.92,1.92,0,0,0-.555-1.348A1.581,1.581,0,0,0,88,29.544h-.011l-7.116.051a2.544,2.544,0,0,1-1.854-.8,2.81,2.81,0,0,1-.764-1.924l-.038-5.156,1.076-.008.038,5.156a1.748,1.748,0,0,0,.468,1.194,1.447,1.447,0,0,0,1.055.466h.011l7.116-.051H88a2.649,2.649,0,0,1,1.871.776,3,3,0,0,1,.873,2.105l.032,4.156Z" transform="translate(86.795 24.083)" fill="#6d76a1"/>
          <path id="Trazado_119991" data-name="Trazado 119991" d="M82.429,35.51l-.03-4.156a1.9,1.9,0,0,0-.513-1.3,1.587,1.587,0,0,0-1.158-.513h-.013l-7.114.049h-.023a2.509,2.509,0,0,1-1.833-.8,2.822,2.822,0,0,1-.764-1.924l-.036-5.156,1.076-.008.036,5.156a1.758,1.758,0,0,0,.468,1.194,1.429,1.429,0,0,0,1.067.466l7.114-.051h.021a2.654,2.654,0,0,1,1.941.848,2.974,2.974,0,0,1,.806,2.034L83.5,35.5Z" transform="translate(78.728 24.078)" fill="#6d76a1"/>
          <path id="Trazado_119992" data-name="Trazado 119992" d="M75.105,35.51l-.03-4.156a1.689,1.689,0,0,0-1.494-1.814h-.008l-6.521.044h-.019a2.273,2.273,0,0,1-1.593-.671,2.911,2.911,0,0,1-.835-2.057L64.563,21.7l1.076-.008.04,5.152a1.85,1.85,0,0,0,.515,1.3,1.2,1.2,0,0,0,.84.365h.011l6.521-.046h.017a2.756,2.756,0,0,1,2.57,2.882l.03,4.156Z" transform="translate(71.645 24.074)" fill="#6d76a1"/>
          <path id="Trazado_119993" data-name="Trazado 119993" d="M67.31,35.521l-.03-4.156a2.31,2.31,0,0,0-.418-1.348,1.071,1.071,0,0,0-.806-.47h-.006l-5.646.04h-.019a1.916,1.916,0,0,1-1.34-.578,3.02,3.02,0,0,1-.833-2.154L58.169,21.7l1.076-.008.042,5.156a2.014,2.014,0,0,0,.515,1.4.868.868,0,0,0,.589.268h0l5.648-.042h.019a2.1,2.1,0,0,1,1.66.9,3.344,3.344,0,0,1,.635,1.987l.03,4.156Z" transform="translate(64.549 24.072)" fill="#6d76a1"/>
          <rect id="Rectángulo_34209" data-name="Rectángulo 34209" width="57.044" height="8.966" transform="translate(121.4 132.184)" fill="#6d76a1"/>
          <rect id="Rectángulo_34210" data-name="Rectángulo 34210" width="4.272" height="6.164" transform="translate(174.173 89.976)" fill="#6d76a1"/>
          <rect id="Rectángulo_34211" data-name="Rectángulo 34211" width="4.276" height="6.164" transform="translate(166.574 107.45)" fill="#6d76a1"/>
          <rect id="Rectángulo_34212" data-name="Rectángulo 34212" width="4.272" height="6.169" transform="translate(158.975 93.056)" fill="#6d76a1"/>
          <rect id="Rectángulo_34213" data-name="Rectángulo 34213" width="4.272" height="6.167" transform="translate(151.378 116.282)" fill="#6d76a1"/>
          <rect id="Rectángulo_34214" data-name="Rectángulo 34214" width="4.276" height="6.167" transform="translate(144.965 86.892)" fill="#6d76a1"/>
          <rect id="Rectángulo_34215" data-name="Rectángulo 34215" width="4.276" height="6.164" transform="translate(130.26 89.976)" fill="#6d76a1"/>
          <rect id="Rectángulo_34216" data-name="Rectángulo 34216" width="4.276" height="6.164" transform="translate(122.172 113.197)" fill="#6d76a1"/>
          <rect id="Rectángulo_34217" data-name="Rectángulo 34217" width="2.738" height="37.654" transform="translate(185.64 15.023)" fill="#c1e4fa"/>
          <rect id="Rectángulo_34218" data-name="Rectángulo 34218" width="2.738" height="37.649" transform="translate(185.64 101.364)" fill="#c1e4fa"/>
          <path id="Trazado_119994" data-name="Trazado 119994" d="M44,26.609a5.853,5.853,0,0,1,6.861-1.3c4.074,2.188,9.285,10.057,15.662,9.846,6.407-.215,8.413-4.029,10.1-6.405s1.232-4.122,2.373-5.4,2.591.135.8,4.6C78.952,30.09,76,41.145,68.437,42.8,58.53,44.976,39.619,32.345,44,26.609" transform="translate(48.106 25.412)" fill="#fbc6b4"/>
          <path id="Trazado_119995" data-name="Trazado 119995" d="M44.881,24.3s-3.81,3.342,1,9.154S53.6,41.132,53.6,41.132s4.557-1.9,8.283-8.688c0,0-12.314-13.62-17-8.143" transform="translate(48.216 25.526)" fill="#eda503"/>
          <path id="Trazado_119996" data-name="Trazado 119996" d="M37.323,36.6c2.827,10.447,1.27,17.793,0,21.772,2.947.947,1.192,2.527,1.112,2.728-4.169,8.652,21.747,3.525,26.3-3.479,1.567-2.409.072-5.468.35-10.095.1-1.038.129-2.093.137-3.122a57.922,57.922,0,0,0-.854-12.51c-2.036-9.548-11.017-10.013-16.481-9.253-2.479.344-5.715.764-8.2,2.228l-.015.015c-2.9,1.757-4.445,3.951-2.346,11.717" transform="translate(40.341 24.848)" fill="#ffb502"/>
          <path id="Trazado_119997" data-name="Trazado 119997" d="M43.235,31.525c1.12,4.743,5.124,19.215-6.422,26.453,0,0,19.12,14,30.059,1.888,0,0-2.2-20.66-5.257-28.867-.878-2.359-3.209-9.595-7.4-8.548,0,0,7.378,11.62,4.011,14.688s-6.542.487-8.027-1.825C47.811,31.594,45.269,23,45.269,23l-4.462,1.135a47.732,47.732,0,0,1,2.428,7.392" transform="translate(40.851 24.8)" fill="#1c2745"/>
          <path id="Trazado_119998" data-name="Trazado 119998" d="M41.885,19.229s2.449,3.848-.156,6.416c-2.679,2.627,9.633,7.266,9.036,4.905-.762-3.055-2.58-4.686-1.527-8.439Z" transform="translate(45.882 21.338)" fill="#f7b2a0"/>
          <path id="Trazado_119999" data-name="Trazado 119999" d="M48.35,15.624c2.96,2.143,7.192,12.7,4.738,15.46-1.084,1.207-6.2.656-9.949-3.738-1.544-1.8-3.616-5.291-2.1-9.259.694-1.8,3.88-4.954,7.314-2.462" transform="translate(44.953 16.315)" fill="#fbc6b4"/>
          <path id="Trazado_120000" data-name="Trazado 120000" d="M52.044,17.142c.755,1.3.631,1.631-3.416,2.791s-4.785.975-4.238,1.9c1.6,2.736-1.409,2.551.544,5.793s-1.783,1.61-3.665-1.017C40.9,26.081,38.8,23.535,40.264,19c1.688-5.3,8.977-6.6,11.78-1.854" transform="translate(44.113 15.767)" fill="#1d1b3a"/>
          <path id="Trazado_120001" data-name="Trazado 120001" d="M41.693,23.738S54.212,20.2,53.63,16.3c-.359-2.405-7.624-1.464-7.624-1.464Z" transform="translate(46.266 16.264)" fill="#eda503"/>
          <path id="Trazado_120002" data-name="Trazado 120002" d="M52.5,17.924c-1,3.766-3.954,5.837-11.629,8.289,0,0-4.152-7.441,1.23-11.382,4.753-3.47,11.038.684,10.4,3.093" transform="translate(43.658 14.985)" fill="#ffb502"/>
          <path id="Trazado_120003" data-name="Trazado 120003" d="M35.389,70.647c-2.6,10.152-5.637,31.837-.652,31.958s7.766-1.394,4.894-2.2-2.992-1.124-2.9-1.932c1.236-10.47,17.61-26.8,19-39.244.468-4.253.789-8.139,1.011-11.553,1.863,9.12.492,18.8.656,22,.523,11.38,2.956,32.892,8.411,32.932,5.81.042,8.662-1.567,4.951-2.335-3.211-.675-3.076-.829-3.019-1.622.783-11.489,6.354-32.732,7.422-46.386,1.236-15.755-37.517,9.51-39.774,18.386" transform="translate(35.581 52.379)" fill="#fbc6b4"/>
          <path id="Trazado_120004" data-name="Trazado 120004" d="M46.611,72.237s4.333,1.717,7.006,0c0,0,4.886.658,1.821,1.848-3.082,1.188-9.01,2.173-8.827-1.848" transform="translate(51.719 80.161)" fill="#ffb502"/>
          <path id="Trazado_120005" data-name="Trazado 120005" d="M32.33,72.422s4.338,1.711,7.01,0c0,0,4.886.665,1.8,1.846s-8.994,2.179-8.814-1.846" transform="translate(35.872 80.366)" fill="#ffb502"/>
          <path id="Trazado_120006" data-name="Trazado 120006" d="M72.005,36.914c-9.935,6.624-23.82,5.951-29.228,4.9-1.462,11.816-10.337,56.143-11.34,62.223,4.359,1.445,5.808,1.753,7.067,1.753C59.56,78.639,57.145,67,57.366,63.583c.793,3.947-1.808,23.259,2.738,42.208,1.523.983,6.139,2.262,9.441,0,.165-1.215,6.342-22.97,6.209-40-.091-11.612-2.036-19.584-3.749-28.875" transform="translate(34.886 40.963)" fill="#1c2745"/>
          <path id="Trazado_120007" data-name="Trazado 120007" d="M37.275,48.287A9.8,9.8,0,0,0,44,40.162L43.18,40.1a8.812,8.812,0,0,1-6.158,7.409Z" transform="translate(41.083 44.5)" fill="#fff"/>
          <path id="Trazado_120008" data-name="Trazado 120008" d="M54.381,47.57l.249-.787a8.93,8.93,0,0,1-6.156-7.4l-.821.063a9.808,9.808,0,0,0,6.728,8.129" transform="translate(52.88 43.697)" fill="#fff"/>
          <rect id="Rectángulo_34219" data-name="Rectángulo 34219" width="43.306" height="25.015" transform="translate(0 132.518)" fill="#c1e4fa"/>
          <rect id="Rectángulo_34220" data-name="Rectángulo 34220" width="16.799" height="25.015" transform="translate(43.306 132.518)" fill="#4ca1bf"/>
          <rect id="Rectángulo_34221" data-name="Rectángulo 34221" width="6.219" height="12.194" transform="translate(2.614 124.68)" fill="#c1e4fa"/>
          <rect id="Rectángulo_34222" data-name="Rectángulo 34222" width="46.293" height="1.496" transform="translate(5.724 126.419)" fill="#464f72"/>
          <rect id="Rectángulo_34223" data-name="Rectángulo 34223" width="6.219" height="12.194" transform="translate(48.907 124.68)" fill="#4ca1bf"/>
          <rect id="Rectángulo_34224" data-name="Rectángulo 34224" width="35.474" height="20.485" transform="translate(61.645 85.754)" fill="#c1e4fa"/>
          <rect id="Rectángulo_34225" data-name="Rectángulo 34225" width="13.761" height="20.485" transform="translate(97.119 85.754)" fill="#4ca1bf"/>
          <rect id="Rectángulo_34226" data-name="Rectángulo 34226" width="5.095" height="9.987" transform="translate(63.786 79.333)" fill="#c1e4fa"/>
          <rect id="Rectángulo_34227" data-name="Rectángulo 34227" width="37.919" height="1.224" transform="translate(66.335 80.755)" fill="#464f72"/>
          <rect id="Rectángulo_34228" data-name="Rectángulo 34228" width="5.095" height="9.987" transform="translate(101.706 79.333)" fill="#4ca1bf"/>
          <path id="Trazado_120009" data-name="Trazado 120009" d="M43.738,24.089a4.746,4.746,0,0,1,2.635,5.424c-.7,4.359-6.162,11.51-3.981,17.2s6.262,6.319,8.928,7.1,4.1-.169,5.6.454.69,2.388-3.892,2.169c-2.194-.11-13.08.684-16.937-5.614-5.055-8.245,1.112-28.886,7.645-26.732" transform="translate(37.989 26.558)" fill="#fbc6b4"/>
          <path id="Trazado_120010" data-name="Trazado 120010" d="M44.627,23.2s-3.023-.57-6.755,5.6c-3.726,6.148-4.5,9.346-4.5,9.346S36.5,41.661,43.783,42.9c0,0,8.2-16.1.844-19.7" transform="translate(37.03 25.731)" fill="#eda503"/>
        </g>
      </g>
    </g>
  </g>
</svg>
