<svg xmlns="http://www.w3.org/2000/svg" width="1030" height="360.002" viewBox="0 0 1030 360.002">
  <g id="Grupo_152232" data-name="Grupo 152232" transform="translate(-285 -6945.998)">
    <rect id="Rectángulo_34016" data-name="Rectángulo 34016" width="1030" height="186" transform="translate(285 6957)" fill="#ad84ff"/>
    <rect id="Rectángulo_34017" data-name="Rectángulo 34017" width="1030" height="11" transform="translate(285 6946)" fill="#25ffff"/>
    <path id="Trazado_121591" data-name="Trazado 121591" d="M11.32-4.333a4.673,4.673,0,0,1-.721,2.36A4.35,4.35,0,0,1,8.75-.387a6.3,6.3,0,0,1-2.72.563A5.025,5.025,0,0,1,2.057-1.468,6.786,6.786,0,0,1,.606-6.108v-.633a7.746,7.746,0,0,1,.655-3.292,4.961,4.961,0,0,1,1.885-2.18,5.26,5.26,0,0,1,2.848-.769,5.516,5.516,0,0,1,3.744,1.226,4.844,4.844,0,0,1,1.608,3.379H8.271a2.292,2.292,0,0,0-.589-1.679,2.422,2.422,0,0,0-1.687-.51A1.843,1.843,0,0,0,4.307-9.7a5.536,5.536,0,0,0-.562,2.751v.905A6.125,6.125,0,0,0,4.258-3.12a1.882,1.882,0,0,0,1.771.879,2.369,2.369,0,0,0,1.626-.5,2.126,2.126,0,0,0,.6-1.591ZM15.768,0H12.8V-13.5h2.971Zm7.181,0a3.344,3.344,0,0,1-.281-.853A2.754,2.754,0,0,1,20.382.176,3.374,3.374,0,0,1,18.1-.637a2.588,2.588,0,0,1-.94-2.043A2.66,2.66,0,0,1,18.3-5.019a5.821,5.821,0,0,1,3.322-.791h.914v-.5q0-1.316-1.134-1.316a.927.927,0,0,0-1.055,1.042H17.385a2.655,2.655,0,0,1,1.173-2.239,4.931,4.931,0,0,1,2.993-.86,4.323,4.323,0,0,1,2.874.888,3.086,3.086,0,0,1,1.081,2.435v4.21a4.311,4.311,0,0,0,.4,2V0ZM21.094-1.934a1.652,1.652,0,0,0,.918-.237,1.487,1.487,0,0,0,.523-.536V-4.228h-.861q-1.547,0-1.547,1.389a.848.848,0,0,0,.272.655A.986.986,0,0,0,21.094-1.934Zm11.03-.738a.684.684,0,0,0-.4-.606,6.016,6.016,0,0,0-1.5-.475A6.853,6.853,0,0,1,28.4-4.4a3.062,3.062,0,0,1-1.1-.971,2.319,2.319,0,0,1-.378-1.31A2.628,2.628,0,0,1,28-8.837a4.453,4.453,0,0,1,2.83-.848,4.934,4.934,0,0,1,3.023.853A2.666,2.666,0,0,1,35-6.592H32.027q0-1.143-1.2-1.143a1.194,1.194,0,0,0-.782.259.8.8,0,0,0-.316.646.737.737,0,0,0,.387.642,3.654,3.654,0,0,0,1.235.4,10.671,10.671,0,0,1,1.49.378A2.706,2.706,0,0,1,34.98-2.76,2.491,2.491,0,0,1,33.825-.642a5.068,5.068,0,0,1-2.993.817,5.172,5.172,0,0,1-2.18-.439,3.645,3.645,0,0,1-1.494-1.2,2.707,2.707,0,0,1-.536-1.591h2.769a1.145,1.145,0,0,0,.439.962,1.808,1.808,0,0,0,1.081.3,1.422,1.422,0,0,0,.91-.246A.787.787,0,0,0,32.124-2.672ZM40.966.176a4.889,4.889,0,0,1-3.542-1.305,4.507,4.507,0,0,1-1.354-3.4v-.246a5.84,5.84,0,0,1,.541-2.575,3.955,3.955,0,0,1,1.578-1.727,4.763,4.763,0,0,1,2.461-.611,4.117,4.117,0,0,1,3.164,1.244,4.887,4.887,0,0,1,1.16,3.467v1.151H39.085a2.135,2.135,0,0,0,.694,1.257,2.066,2.066,0,0,0,1.389.457,2.662,2.662,0,0,0,2.2-.984l1.354,1.6A3.784,3.784,0,0,1,43.15-.277,5.3,5.3,0,0,1,40.966.176ZM40.632-7.4q-1.3,0-1.547,1.723h2.988v-.229a1.467,1.467,0,0,0-.36-1.1A1.434,1.434,0,0,0,40.632-7.4ZM.967,25V12.2H5.089a6.064,6.064,0,0,1,3.05.769,5.406,5.406,0,0,1,2.114,2.171,6.554,6.554,0,0,1,.769,3.142v.589a6.592,6.592,0,0,1-.743,3.151A5.429,5.429,0,0,1,8.187,24.2a5.93,5.93,0,0,1-3.01.8ZM4.052,14.585v8.042H5.124a2.4,2.4,0,0,0,2.039-.945,4.63,4.63,0,0,0,.712-2.808V18.32a4.592,4.592,0,0,0-.712-2.795,2.442,2.442,0,0,0-2.074-.94ZM17.068,25.176a4.889,4.889,0,0,1-3.542-1.305,4.507,4.507,0,0,1-1.354-3.4v-.246a5.84,5.84,0,0,1,.541-2.575,3.955,3.955,0,0,1,1.578-1.727,4.763,4.763,0,0,1,2.461-.611,4.117,4.117,0,0,1,3.164,1.244,4.887,4.887,0,0,1,1.16,3.467v1.151H15.188a2.135,2.135,0,0,0,.694,1.257,2.066,2.066,0,0,0,1.389.457,2.662,2.662,0,0,0,2.2-.984l1.354,1.6a3.784,3.784,0,0,1-1.569,1.217A5.3,5.3,0,0,1,17.068,25.176ZM16.734,17.6q-1.3,0-1.547,1.723h2.988v-.229a1.467,1.467,0,0,0-.36-1.1A1.434,1.434,0,0,0,16.734,17.6ZM29.874,25H26.9V15.49h2.971ZM26.728,13.038A1.322,1.322,0,0,1,27.185,12a1.943,1.943,0,0,1,2.373,0,1.405,1.405,0,0,1,0,2.074,1.943,1.943,0,0,1-2.373,0A1.322,1.322,0,0,1,26.728,13.038ZM34.822,25H31.852V11.5h2.971Zm7.488-1.028a3.054,3.054,0,0,1-2.54,1.2,3,3,0,0,1-2.369-.91,3.826,3.826,0,0,1-.8-2.615V15.49H39.56v6.179a1.065,1.065,0,0,0,1.187,1.222,1.548,1.548,0,0,0,1.45-.729V15.49h2.979V25H42.4ZM49.6,15.49l.1,1.116a3.27,3.27,0,0,1,2.716-1.292,2.407,2.407,0,0,1,2.435,1.433,3.165,3.165,0,0,1,2.795-1.433q2.892,0,2.971,3.5V25H57.639V19a1.813,1.813,0,0,0-.246-1.063,1.048,1.048,0,0,0-.9-.334,1.4,1.4,0,0,0-1.31.782l.009.123V25H52.225V19.015a1.906,1.906,0,0,0-.237-1.081,1.045,1.045,0,0,0-.905-.334,1.42,1.42,0,0,0-1.3.782V25H46.819V15.49ZM65.426,25H62.455V15.49h2.971ZM62.279,13.038A1.322,1.322,0,0,1,62.736,12a1.943,1.943,0,0,1,2.373,0,1.405,1.405,0,0,1,0,2.074,1.943,1.943,0,0,1-2.373,0A1.322,1.322,0,0,1,62.279,13.038Zm7.69,2.452.1,1.116a3.225,3.225,0,0,1,2.716-1.292A2.713,2.713,0,0,1,75,16.2a4.226,4.226,0,0,1,.76,2.672V25H72.791V19a1.6,1.6,0,0,0-.29-1.059,1.342,1.342,0,0,0-1.055-.338,1.413,1.413,0,0,0-1.292.686V25H67.192V15.49ZM82.758,25a3.344,3.344,0,0,1-.281-.853,2.754,2.754,0,0,1-2.285,1.028,3.374,3.374,0,0,1-2.285-.813,2.588,2.588,0,0,1-.94-2.043,2.66,2.66,0,0,1,1.143-2.338,5.821,5.821,0,0,1,3.322-.791h.914v-.5q0-1.316-1.134-1.316a.927.927,0,0,0-1.055,1.042H77.194a2.655,2.655,0,0,1,1.173-2.239,4.931,4.931,0,0,1,2.993-.86,4.323,4.323,0,0,1,2.874.888,3.086,3.086,0,0,1,1.081,2.435v4.21a4.311,4.311,0,0,0,.4,2V25ZM80.9,23.066a1.652,1.652,0,0,0,.918-.237,1.487,1.487,0,0,0,.523-.536V20.772h-.861q-1.547,0-1.547,1.389a.848.848,0,0,0,.272.655A.986.986,0,0,0,80.9,23.066Zm10.072-.176a1.317,1.317,0,0,0,.967-.338,1.241,1.241,0,0,0,.334-.945h2.777a3.288,3.288,0,0,1-1.121,2.566,4.168,4.168,0,0,1-2.887,1,4.22,4.22,0,0,1-3.27-1.3,5.125,5.125,0,0,1-1.2-3.6v-.123a5.792,5.792,0,0,1,.532-2.544,3.872,3.872,0,0,1,1.534-1.7,4.573,4.573,0,0,1,2.373-.593,4.116,4.116,0,0,1,2.944,1.028,3.647,3.647,0,0,1,1.09,2.786H92.276A1.626,1.626,0,0,0,91.916,18a1.244,1.244,0,0,0-.967-.4q-1.151,0-1.345,1.468a10.357,10.357,0,0,0-.062,1.283,4.068,4.068,0,0,0,.343,1.986A1.187,1.187,0,0,0,90.976,22.891ZM99.431,25H96.46V15.49h2.971ZM96.284,13.038A1.322,1.322,0,0,1,96.741,12a1.943,1.943,0,0,1,2.373,0,1.405,1.405,0,0,1,0,2.074,1.943,1.943,0,0,1-2.373,0A1.322,1.322,0,0,1,96.284,13.038Zm4.6,7.119a5.613,5.613,0,0,1,.554-2.536,3.96,3.96,0,0,1,1.591-1.709,4.791,4.791,0,0,1,2.435-.6,4.373,4.373,0,0,1,3.366,1.323,5.076,5.076,0,0,1,1.23,3.6v.105a4.925,4.925,0,0,1-1.235,3.529,4.384,4.384,0,0,1-3.344,1.305,4.434,4.434,0,0,1-3.261-1.217,4.761,4.761,0,0,1-1.327-3.3Zm2.962.185a3.538,3.538,0,0,0,.413,1.934,1.376,1.376,0,0,0,1.222.615q1.582,0,1.617-2.435v-.3q0-2.558-1.635-2.558-1.485,0-1.608,2.206Zm2.021-8.842h3.129l-2.443,2.76-2.417,0Zm8.218,3.99.1,1.116a3.225,3.225,0,0,1,2.716-1.292,2.713,2.713,0,0,1,2.219.888,4.226,4.226,0,0,1,.76,2.672V25H116.9V19a1.6,1.6,0,0,0-.29-1.059,1.342,1.342,0,0,0-1.055-.338,1.413,1.413,0,0,0-1.292.686V25H111.3V15.49Z" transform="translate(321 6998)" fill="#12263f"/>
    <path id="Trazado_121592" data-name="Trazado 121592" d="M5.933,13.52,8.481,4.2h3.445L7.62,17H4.245L-.026,4.2H3.393ZM17.675,17a3.344,3.344,0,0,1-.281-.853,2.754,2.754,0,0,1-2.285,1.028,3.374,3.374,0,0,1-2.285-.813,2.588,2.588,0,0,1-.94-2.043,2.66,2.66,0,0,1,1.143-2.338,5.821,5.821,0,0,1,3.322-.791h.914v-.5q0-1.316-1.134-1.316a.927.927,0,0,0-1.055,1.042H12.111a2.655,2.655,0,0,1,1.173-2.239,4.931,4.931,0,0,1,2.993-.86,4.323,4.323,0,0,1,2.874.888,3.086,3.086,0,0,1,1.081,2.435v4.21a4.311,4.311,0,0,0,.4,2V17ZM15.82,15.066a1.652,1.652,0,0,0,.918-.237,1.487,1.487,0,0,0,.523-.536V12.772H16.4q-1.547,0-1.547,1.389a.848.848,0,0,0,.272.655A.986.986,0,0,0,15.82,15.066ZM25,17H22.025V3.5H25Zm1.45-4.843A5.613,5.613,0,0,1,27,9.622a3.96,3.96,0,0,1,1.591-1.709,4.791,4.791,0,0,1,2.435-.6,4.373,4.373,0,0,1,3.366,1.323,5.076,5.076,0,0,1,1.23,3.6v.105a4.925,4.925,0,0,1-1.235,3.529,4.384,4.384,0,0,1-3.344,1.305,4.434,4.434,0,0,1-3.261-1.217,4.761,4.761,0,0,1-1.327-3.3Zm2.962.185a3.538,3.538,0,0,0,.413,1.934,1.376,1.376,0,0,0,1.222.615q1.582,0,1.617-2.435v-.3q0-2.558-1.635-2.558-1.485,0-1.608,2.206ZM42.68,10.171,41.7,10.1a1.752,1.752,0,0,0-1.793.879V17H36.949V7.49h2.777l.1,1.222a2.294,2.294,0,0,1,2.083-1.4,2.888,2.888,0,0,1,.826.105Zm14.379,2.145a5.735,5.735,0,0,1-1,3.538,3.2,3.2,0,0,1-2.694,1.323,2.742,2.742,0,0,1-2.153-.958v4.438H48.252V7.49h2.769l.088.879A2.742,2.742,0,0,1,53.35,7.314a3.224,3.224,0,0,1,2.733,1.3,5.805,5.805,0,0,1,.976,3.564ZM54.1,12.131Q54.1,9.6,52.62,9.6a1.394,1.394,0,0,0-1.406.756V14.1a1.439,1.439,0,0,0,1.424.791q1.415,0,1.459-2.443Zm10.02-1.96-.976-.07a1.752,1.752,0,0,0-1.793.879V17H58.386V7.49h2.777l.1,1.222a2.294,2.294,0,0,1,2.083-1.4,2.888,2.888,0,0,1,.826.105Zm.378,1.986a5.613,5.613,0,0,1,.554-2.536,3.96,3.96,0,0,1,1.591-1.709,4.791,4.791,0,0,1,2.435-.6,4.373,4.373,0,0,1,3.366,1.323,5.076,5.076,0,0,1,1.23,3.6v.105a4.925,4.925,0,0,1-1.235,3.529,4.384,4.384,0,0,1-3.344,1.305,4.434,4.434,0,0,1-3.261-1.217,4.761,4.761,0,0,1-1.327-3.3Zm2.962.185a3.538,3.538,0,0,0,.413,1.934,1.376,1.376,0,0,0,1.222.615q1.582,0,1.617-2.435v-.3q0-2.558-1.635-2.558-1.485,0-1.608,2.206ZM77.774,7.49l.1,1.116a3.27,3.27,0,0,1,2.716-1.292,2.407,2.407,0,0,1,2.435,1.433,3.165,3.165,0,0,1,2.795-1.433q2.892,0,2.971,3.5V17H85.816V11a1.813,1.813,0,0,0-.246-1.063,1.048,1.048,0,0,0-.9-.334,1.4,1.4,0,0,0-1.31.782l.009.123V17H80.4V11.015a1.906,1.906,0,0,0-.237-1.081A1.045,1.045,0,0,0,79.26,9.6a1.42,1.42,0,0,0-1.3.782V17H75V7.49ZM95.08,17.176a4.889,4.889,0,0,1-3.542-1.305,4.507,4.507,0,0,1-1.354-3.4v-.246a5.84,5.84,0,0,1,.541-2.575A3.955,3.955,0,0,1,92.3,7.925a4.763,4.763,0,0,1,2.461-.611,4.117,4.117,0,0,1,3.164,1.244,4.887,4.887,0,0,1,1.16,3.467v1.151H93.2a2.135,2.135,0,0,0,.694,1.257,2.066,2.066,0,0,0,1.389.457,2.662,2.662,0,0,0,2.2-.984l1.354,1.6a3.784,3.784,0,0,1-1.569,1.217A5.3,5.3,0,0,1,95.08,17.176ZM94.746,9.6q-1.3,0-1.547,1.723h2.988v-.229a1.467,1.467,0,0,0-.36-1.1A1.434,1.434,0,0,0,94.746,9.6Zm5.159,2.575a5.809,5.809,0,0,1,.976-3.56,3.211,3.211,0,0,1,2.725-1.3,2.731,2.731,0,0,1,2.145,1V3.5h2.971V17h-2.663l-.149-1.02a2.8,2.8,0,0,1-2.32,1.2,3.205,3.205,0,0,1-2.689-1.3A5.993,5.993,0,0,1,99.905,12.175Zm2.962.185q0,2.531,1.477,2.531a1.458,1.458,0,0,0,1.406-.826V10.443a1.419,1.419,0,0,0-1.389-.844q-1.371,0-1.485,2.215ZM113.528,17h-2.971V7.49h2.971ZM110.382,5.038A1.322,1.322,0,0,1,110.839,4a1.943,1.943,0,0,1,2.373,0,1.322,1.322,0,0,1,.457,1.037,1.322,1.322,0,0,1-.457,1.037,1.943,1.943,0,0,1-2.373,0A1.322,1.322,0,0,1,110.382,5.038Zm4.6,7.119a5.613,5.613,0,0,1,.554-2.536,3.96,3.96,0,0,1,1.591-1.709,4.791,4.791,0,0,1,2.435-.6,4.373,4.373,0,0,1,3.366,1.323,5.076,5.076,0,0,1,1.23,3.6v.105a4.925,4.925,0,0,1-1.235,3.529,4.384,4.384,0,0,1-3.344,1.305,4.434,4.434,0,0,1-3.261-1.217,4.761,4.761,0,0,1-1.327-3.3Zm2.962.185a3.538,3.538,0,0,0,.413,1.934,1.376,1.376,0,0,0,1.222.615q1.582,0,1.617-2.435v-.3q0-2.558-1.635-2.558-1.485,0-1.608,2.206Zm12.226-.545a13.431,13.431,0,0,1,.571-3.99,9.629,9.629,0,0,1,1.578-3.129,5.6,5.6,0,0,1,2.237-1.793l.563,1.459a5.73,5.73,0,0,0-1.9,2.826,13.782,13.782,0,0,0-.681,4.5v.387a14.051,14.051,0,0,0,.672,4.588,5.706,5.706,0,0,0,1.912,2.848l-.562,1.459a5.547,5.547,0,0,1-2.237-1.8,9.484,9.484,0,0,1-1.578-3.116,13.5,13.5,0,0,1-.571-3.85ZM143.578,7.49l.1,1.116a3.27,3.27,0,0,1,2.716-1.292,2.407,2.407,0,0,1,2.435,1.433,3.165,3.165,0,0,1,2.795-1.433q2.892,0,2.971,3.5V17H151.62V11a1.813,1.813,0,0,0-.246-1.063,1.048,1.048,0,0,0-.9-.334,1.4,1.4,0,0,0-1.31.782l.009.123V17h-2.971V11.015a1.906,1.906,0,0,0-.237-1.081,1.045,1.045,0,0,0-.905-.334,1.42,1.42,0,0,0-1.3.782V17H140.8V7.49ZM159.407,17h-2.971V7.49h2.971ZM156.261,5.038A1.322,1.322,0,0,1,156.718,4a1.943,1.943,0,0,1,2.373,0,1.322,1.322,0,0,1,.457,1.037,1.322,1.322,0,0,1-.457,1.037,1.943,1.943,0,0,1-2.373,0A1.322,1.322,0,0,1,156.261,5.038Zm7.69,2.452.1,1.116a3.225,3.225,0,0,1,2.716-1.292,2.713,2.713,0,0,1,2.219.888,4.226,4.226,0,0,1,.76,2.672V17h-2.971V11a1.6,1.6,0,0,0-.29-1.059,1.342,1.342,0,0,0-1.055-.338,1.413,1.413,0,0,0-1.292.686V17h-2.962V7.49ZM174.507,17h-2.971V7.49h2.971ZM171.36,5.038A1.322,1.322,0,0,1,171.817,4a1.943,1.943,0,0,1,2.373,0,1.322,1.322,0,0,1,.457,1.037,1.322,1.322,0,0,1-.457,1.037,1.943,1.943,0,0,1-2.373,0A1.322,1.322,0,0,1,171.36,5.038Zm7.77,2.452.1,1.116a3.27,3.27,0,0,1,2.716-1.292,2.407,2.407,0,0,1,2.435,1.433,3.165,3.165,0,0,1,2.795-1.433q2.892,0,2.971,3.5V17h-2.971V11a1.813,1.813,0,0,0-.246-1.063,1.048,1.048,0,0,0-.9-.334,1.4,1.4,0,0,0-1.31.782l.009.123V17h-2.971V11.015a1.906,1.906,0,0,0-.237-1.081,1.045,1.045,0,0,0-.905-.334,1.42,1.42,0,0,0-1.3.782V17h-2.962V7.49Zm12.331,4.667a5.613,5.613,0,0,1,.554-2.536,3.96,3.96,0,0,1,1.591-1.709,4.791,4.791,0,0,1,2.435-.6,4.373,4.373,0,0,1,3.366,1.323,5.076,5.076,0,0,1,1.23,3.6v.105a4.925,4.925,0,0,1-1.235,3.529,4.384,4.384,0,0,1-3.344,1.305,4.434,4.434,0,0,1-3.261-1.217,4.761,4.761,0,0,1-1.327-3.3Zm2.962.185a3.538,3.538,0,0,0,.413,1.934,1.376,1.376,0,0,0,1.222.615q1.582,0,1.617-2.435v-.3q0-2.558-1.635-2.558-1.485,0-1.608,2.206Zm14.8-4.852.1,1.116a3.27,3.27,0,0,1,2.716-1.292,2.407,2.407,0,0,1,2.435,1.433,3.165,3.165,0,0,1,2.795-1.433q2.892,0,2.971,3.5V17h-2.971V11a1.813,1.813,0,0,0-.246-1.063,1.048,1.048,0,0,0-.9-.334,1.4,1.4,0,0,0-1.31.782l.009.123V17h-2.971V11.015a1.906,1.906,0,0,0-.237-1.081,1.045,1.045,0,0,0-.905-.334,1.42,1.42,0,0,0-1.3.782V17h-2.962V7.49ZM227.285,17a3.344,3.344,0,0,1-.281-.853,2.754,2.754,0,0,1-2.285,1.028,3.374,3.374,0,0,1-2.285-.813,2.588,2.588,0,0,1-.94-2.043,2.66,2.66,0,0,1,1.143-2.338,5.821,5.821,0,0,1,3.322-.791h.914v-.5q0-1.316-1.134-1.316a.927.927,0,0,0-1.055,1.042h-2.962A2.655,2.655,0,0,1,222.9,8.175a4.931,4.931,0,0,1,2.993-.86,4.323,4.323,0,0,1,2.874.888,3.086,3.086,0,0,1,1.081,2.435v4.21a4.311,4.311,0,0,0,.4,2V17Zm-1.854-1.934a1.652,1.652,0,0,0,.918-.237,1.487,1.487,0,0,0,.523-.536V12.772h-.861q-1.547,0-1.547,1.389a.848.848,0,0,0,.272.655A.986.986,0,0,0,225.431,15.066ZM234.2,7.49l.1,1.116a3.225,3.225,0,0,1,2.716-1.292,2.713,2.713,0,0,1,2.219.888,4.226,4.226,0,0,1,.76,2.672V17h-2.971V11a1.6,1.6,0,0,0-.29-1.059,1.342,1.342,0,0,0-1.055-.338,1.413,1.413,0,0,0-1.292.686V17h-2.962V7.49Zm10.881-2.364V7.49h1.564V9.547h-1.564V13.9a1.111,1.111,0,0,0,.193.747,1.037,1.037,0,0,0,.765.211,4.345,4.345,0,0,0,.738-.053v2.118a5.466,5.466,0,0,1-1.67.255,3.1,3.1,0,0,1-2.259-.721,2.954,2.954,0,0,1-.729-2.188V9.547h-1.213V7.49h1.213V5.126Zm7.33,12.05a4.889,4.889,0,0,1-3.542-1.305,4.507,4.507,0,0,1-1.354-3.4v-.246a5.84,5.84,0,0,1,.541-2.575,3.955,3.955,0,0,1,1.578-1.727,4.763,4.763,0,0,1,2.461-.611,4.117,4.117,0,0,1,3.164,1.244,4.887,4.887,0,0,1,1.16,3.467v1.151h-5.889a2.135,2.135,0,0,0,.694,1.257,2.066,2.066,0,0,0,1.389.457,2.662,2.662,0,0,0,2.2-.984l1.354,1.6a3.784,3.784,0,0,1-1.569,1.217A5.3,5.3,0,0,1,252.413,17.176ZM252.079,9.6q-1.3,0-1.547,1.723h2.988v-.229a1.467,1.467,0,0,0-.36-1.1A1.434,1.434,0,0,0,252.079,9.6Zm8.253-2.109.1,1.116a3.225,3.225,0,0,1,2.716-1.292,2.713,2.713,0,0,1,2.219.888,4.226,4.226,0,0,1,.76,2.672V17h-2.971V11a1.6,1.6,0,0,0-.29-1.059,1.342,1.342,0,0,0-1.055-.338,1.413,1.413,0,0,0-1.292.686V17h-2.962V7.49ZM270.888,17h-2.971V7.49h2.971ZM267.741,5.038A1.322,1.322,0,0,1,268.2,4a1.943,1.943,0,0,1,2.373,0,1.322,1.322,0,0,1,.457,1.037,1.322,1.322,0,0,1-.457,1.037,1.943,1.943,0,0,1-2.373,0A1.322,1.322,0,0,1,267.741,5.038Zm4.6,7.137a5.809,5.809,0,0,1,.976-3.56,3.211,3.211,0,0,1,2.725-1.3,2.731,2.731,0,0,1,2.145,1V3.5h2.971V17H278.49l-.149-1.02a2.8,2.8,0,0,1-2.32,1.2,3.205,3.205,0,0,1-2.689-1.3A5.993,5.993,0,0,1,272.338,12.175Zm2.962.185q0,2.531,1.477,2.531a1.458,1.458,0,0,0,1.406-.826V10.443a1.419,1.419,0,0,0-1.389-.844q-1.371,0-1.485,2.215Zm7.163-.2a5.613,5.613,0,0,1,.554-2.536,3.96,3.96,0,0,1,1.591-1.709,4.791,4.791,0,0,1,2.435-.6,4.373,4.373,0,0,1,3.366,1.323,5.076,5.076,0,0,1,1.23,3.6v.105a4.925,4.925,0,0,1-1.235,3.529,4.384,4.384,0,0,1-3.344,1.305,4.434,4.434,0,0,1-3.261-1.217,4.761,4.761,0,0,1-1.327-3.3Zm2.962.185a3.538,3.538,0,0,0,.413,1.934,1.376,1.376,0,0,0,1.222.615q1.582,0,1.617-2.435v-.3q0-2.558-1.635-2.558-1.485,0-1.608,2.206Zm12.19-.3a12.532,12.532,0,0,1-.606,3.92,10.008,10.008,0,0,1-1.674,3.186,5.574,5.574,0,0,1-2.307,1.806l-.562-1.459a5.787,5.787,0,0,0,1.89-2.812,13.577,13.577,0,0,0,.694-4.368v-.536a14.051,14.051,0,0,0-.672-4.588,5.706,5.706,0,0,0-1.912-2.848l.563-1.459a5.676,5.676,0,0,1,2.29,1.789,9.885,9.885,0,0,1,1.67,3.138,12.426,12.426,0,0,1,.628,3.845Zm5.774.132a5.809,5.809,0,0,1,.976-3.56,3.211,3.211,0,0,1,2.725-1.3,2.731,2.731,0,0,1,2.145,1V3.5h2.971V17h-2.663l-.149-1.02a2.8,2.8,0,0,1-2.32,1.2,3.205,3.205,0,0,1-2.689-1.3A5.993,5.993,0,0,1,303.39,12.175Zm2.962.185q0,2.531,1.477,2.531a1.458,1.458,0,0,0,1.406-.826V10.443a1.419,1.419,0,0,0-1.389-.844q-1.371,0-1.485,2.215Zm12.138,4.816a4.889,4.889,0,0,1-3.542-1.305,4.507,4.507,0,0,1-1.354-3.4v-.246a5.84,5.84,0,0,1,.541-2.575,3.955,3.955,0,0,1,1.578-1.727,4.763,4.763,0,0,1,2.461-.611,4.117,4.117,0,0,1,3.164,1.244,4.887,4.887,0,0,1,1.16,3.467v1.151h-5.889a2.135,2.135,0,0,0,.694,1.257,2.066,2.066,0,0,0,1.389.457,2.662,2.662,0,0,0,2.2-.984l1.354,1.6a3.784,3.784,0,0,1-1.569,1.217A5.3,5.3,0,0,1,318.489,17.176ZM318.155,9.6q-1.3,0-1.547,1.723H319.6v-.229a1.467,1.467,0,0,0-.36-1.1A1.434,1.434,0,0,0,318.155,9.6ZM3.955,42H.984V32.49H3.955ZM.809,30.038A1.322,1.322,0,0,1,1.266,29a1.724,1.724,0,0,1,1.187-.4,1.724,1.724,0,0,1,1.187.4,1.405,1.405,0,0,1,0,2.074,1.724,1.724,0,0,1-1.187.4,1.724,1.724,0,0,1-1.187-.4A1.322,1.322,0,0,1,.809,30.038ZM8.9,42H5.933V28.5H8.9Zm7.488-1.028a3.054,3.054,0,0,1-2.54,1.2,3,3,0,0,1-2.369-.91,3.826,3.826,0,0,1-.8-2.615V32.49h2.962v6.179a1.065,1.065,0,0,0,1.187,1.222,1.548,1.548,0,0,0,1.45-.729V32.49h2.979V42H16.479Zm7.286-8.481.1,1.116a3.27,3.27,0,0,1,2.716-1.292,2.407,2.407,0,0,1,2.435,1.433,3.165,3.165,0,0,1,2.795-1.433q2.892,0,2.971,3.5V42H31.72V36a1.813,1.813,0,0,0-.246-1.063,1.048,1.048,0,0,0-.9-.334,1.4,1.4,0,0,0-1.31.782l.009.123V42H26.306V36.015a1.906,1.906,0,0,0-.237-1.081,1.045,1.045,0,0,0-.905-.334,1.42,1.42,0,0,0-1.3.782V42H20.9V32.49ZM39.507,42H36.536V32.49h2.971ZM36.36,30.038A1.322,1.322,0,0,1,36.817,29a1.943,1.943,0,0,1,2.373,0,1.405,1.405,0,0,1,0,2.074,1.943,1.943,0,0,1-2.373,0A1.322,1.322,0,0,1,36.36,30.038Zm7.69,2.452.1,1.116a3.225,3.225,0,0,1,2.716-1.292,2.713,2.713,0,0,1,2.219.888,4.226,4.226,0,0,1,.76,2.672V42H46.872V36a1.6,1.6,0,0,0-.29-1.059,1.342,1.342,0,0,0-1.055-.338,1.413,1.413,0,0,0-1.292.686V42H41.273V32.49ZM56.839,42a3.344,3.344,0,0,1-.281-.853,2.754,2.754,0,0,1-2.285,1.028,3.374,3.374,0,0,1-2.285-.813,2.588,2.588,0,0,1-.94-2.043,2.66,2.66,0,0,1,1.143-2.338,5.821,5.821,0,0,1,3.322-.791h.914v-.5q0-1.316-1.134-1.316a.927.927,0,0,0-1.055,1.042H51.275a2.655,2.655,0,0,1,1.173-2.239,4.931,4.931,0,0,1,2.993-.86,4.323,4.323,0,0,1,2.874.888A3.086,3.086,0,0,1,59.4,35.637v4.21a4.311,4.311,0,0,0,.4,2V42Zm-1.854-1.934a1.652,1.652,0,0,0,.918-.237,1.487,1.487,0,0,0,.523-.536V37.772h-.861q-1.547,0-1.547,1.389a.848.848,0,0,0,.272.655A.986.986,0,0,0,54.984,40.066Zm8.771-7.576.1,1.116a3.225,3.225,0,0,1,2.716-1.292,2.713,2.713,0,0,1,2.219.888,4.226,4.226,0,0,1,.76,2.672V42H66.577V36a1.6,1.6,0,0,0-.29-1.059,1.342,1.342,0,0,0-1.055-.338,1.413,1.413,0,0,0-1.292.686V42H60.979V32.49Zm11.452,7.4a1.317,1.317,0,0,0,.967-.338,1.241,1.241,0,0,0,.334-.945h2.777a3.288,3.288,0,0,1-1.121,2.566,4.168,4.168,0,0,1-2.887,1,4.22,4.22,0,0,1-3.27-1.3,5.125,5.125,0,0,1-1.2-3.6v-.123a5.792,5.792,0,0,1,.532-2.544,3.872,3.872,0,0,1,1.534-1.7,4.573,4.573,0,0,1,2.373-.593A4.116,4.116,0,0,1,78.2,33.343a3.647,3.647,0,0,1,1.09,2.786H76.509A1.626,1.626,0,0,0,76.148,35a1.244,1.244,0,0,0-.967-.4q-1.151,0-1.345,1.468a10.357,10.357,0,0,0-.062,1.283,4.068,4.068,0,0,0,.343,1.986A1.187,1.187,0,0,0,75.208,39.891ZM83.663,42H80.692V32.49h2.971ZM80.517,30.038A1.322,1.322,0,0,1,80.974,29a1.943,1.943,0,0,1,2.373,0,1.405,1.405,0,0,1,0,2.074,1.943,1.943,0,0,1-2.373,0A1.322,1.322,0,0,1,80.517,30.038ZM90.844,42a3.344,3.344,0,0,1-.281-.853,2.754,2.754,0,0,1-2.285,1.028,3.374,3.374,0,0,1-2.285-.813,2.588,2.588,0,0,1-.94-2.043,2.66,2.66,0,0,1,1.143-2.338,5.821,5.821,0,0,1,3.322-.791h.914v-.5q0-1.316-1.134-1.316a.927.927,0,0,0-1.055,1.042H85.28a2.655,2.655,0,0,1,1.173-2.239,4.931,4.931,0,0,1,2.993-.86,4.323,4.323,0,0,1,2.874.888A3.086,3.086,0,0,1,93.4,35.637v4.21a4.311,4.311,0,0,0,.4,2V42Zm-1.854-1.934a1.652,1.652,0,0,0,.918-.237,1.487,1.487,0,0,0,.523-.536V37.772h-.861q-1.547,0-1.547,1.389a.848.848,0,0,0,.272.655A.986.986,0,0,0,88.989,40.066ZM106.26,38.6a1.268,1.268,0,0,0-.479-1.055,5.954,5.954,0,0,0-1.683-.782,16.147,16.147,0,0,1-1.969-.782q-2.487-1.222-2.487-3.357a3.011,3.011,0,0,1,.62-1.876,4.008,4.008,0,0,1,1.753-1.266,6.823,6.823,0,0,1,2.549-.453,5.969,5.969,0,0,1,2.474.492,3.917,3.917,0,0,1,1.7,1.4A3.661,3.661,0,0,1,109.345,33h-3.076a1.547,1.547,0,0,0-.479-1.213,1.867,1.867,0,0,0-1.3-.431,2.106,2.106,0,0,0-1.305.365,1.074,1.074,0,0,0,.048,1.819,6.65,6.65,0,0,0,1.854.826,11.36,11.36,0,0,1,2.18.918,3.663,3.663,0,0,1,2.074,3.3,3.125,3.125,0,0,1-1.266,2.637,5.629,5.629,0,0,1-3.472.958,6.888,6.888,0,0,1-2.817-.558,4.247,4.247,0,0,1-1.9-1.529,3.985,3.985,0,0,1-.637-2.237h3.094a1.963,1.963,0,0,0,.532,1.516,2.513,2.513,0,0,0,1.727.488,1.985,1.985,0,0,0,1.208-.33A1.088,1.088,0,0,0,106.26,38.6Zm9.132,3.577a4.889,4.889,0,0,1-3.542-1.305,4.507,4.507,0,0,1-1.354-3.4v-.246a5.84,5.84,0,0,1,.541-2.575,3.955,3.955,0,0,1,1.578-1.727,4.763,4.763,0,0,1,2.461-.611,4.117,4.117,0,0,1,3.164,1.244,4.887,4.887,0,0,1,1.16,3.467v1.151h-5.889a2.135,2.135,0,0,0,.694,1.257,2.066,2.066,0,0,0,1.389.457,2.662,2.662,0,0,0,2.2-.984l1.354,1.6a3.784,3.784,0,0,1-1.569,1.217A5.3,5.3,0,0,1,115.392,42.176Zm-.334-7.576q-1.3,0-1.547,1.723H116.5v-.229a1.467,1.467,0,0,0-.36-1.1A1.434,1.434,0,0,0,115.058,34.6Zm5.186,2.575a6.421,6.421,0,0,1,.475-2.549,3.821,3.821,0,0,1,1.362-1.709,3.591,3.591,0,0,1,2.065-.6,2.855,2.855,0,0,1,2.32,1l.105-.826h2.689V41.64a4.009,4.009,0,0,1-.584,2.184,3.75,3.75,0,0,1-1.692,1.424,6.219,6.219,0,0,1-2.566.5,5.365,5.365,0,0,1-2.026-.4,3.657,3.657,0,0,1-1.5-1.028l1.239-1.74a2.716,2.716,0,0,0,2.18.976,1.764,1.764,0,0,0,1.969-2.021v-.3a2.781,2.781,0,0,1-2.153.94,3.437,3.437,0,0,1-2.812-1.332,5.517,5.517,0,0,1-1.072-3.564Zm2.971.185a3.383,3.383,0,0,0,.439,1.85,1.387,1.387,0,0,0,1.23.681,1.573,1.573,0,0,0,1.4-.642v-4a1.534,1.534,0,0,0-1.38-.65,1.4,1.4,0,0,0-1.239.708A3.858,3.858,0,0,0,123.214,37.359Zm13.395,3.612a3.054,3.054,0,0,1-2.54,1.2,3,3,0,0,1-2.369-.91,3.826,3.826,0,0,1-.8-2.615V32.49h2.962v6.179a1.065,1.065,0,0,0,1.187,1.222,1.548,1.548,0,0,0,1.45-.729V32.49h2.979V42H136.7ZM135.554,28.5h3.129l-2.443,2.76-2.417,0Zm8.262,3.99.1,1.116a3.225,3.225,0,0,1,2.716-1.292,2.713,2.713,0,0,1,2.219.888,4.226,4.226,0,0,1,.76,2.672V42h-2.971V36a1.6,1.6,0,0,0-.29-1.059,1.342,1.342,0,0,0-1.055-.338,1.413,1.413,0,0,0-1.292.686V42h-2.962V32.49Zm15.363-2.364V32.49h1.564v2.057h-1.564V38.9a1.111,1.111,0,0,0,.193.747,1.037,1.037,0,0,0,.765.211,4.345,4.345,0,0,0,.738-.053v2.118a5.466,5.466,0,0,1-1.67.255,3.1,3.1,0,0,1-2.259-.721,2.954,2.954,0,0,1-.729-2.188v-4.72H155V32.49h1.213V30.126ZM165.032,42h-2.971V32.49h2.971Zm-3.146-11.962A1.322,1.322,0,0,1,162.343,29a1.943,1.943,0,0,1,2.373,0,1.405,1.405,0,0,1,0,2.074,1.943,1.943,0,0,1-2.373,0A1.322,1.322,0,0,1,161.886,30.038Zm13.8,7.277a5.735,5.735,0,0,1-1,3.538,3.2,3.2,0,0,1-2.694,1.323,2.742,2.742,0,0,1-2.153-.958v4.438h-2.962V32.49h2.769l.088.879a2.742,2.742,0,0,1,2.241-1.055,3.224,3.224,0,0,1,2.733,1.3,5.805,5.805,0,0,1,.976,3.564Zm-2.962-.185q0-2.531-1.477-2.531a1.394,1.394,0,0,0-1.406.756V39.1a1.439,1.439,0,0,0,1.424.791q1.415,0,1.459-2.443Zm3.894.026a5.613,5.613,0,0,1,.554-2.536,3.96,3.96,0,0,1,1.591-1.709,4.791,4.791,0,0,1,2.435-.6,4.373,4.373,0,0,1,3.366,1.323,5.076,5.076,0,0,1,1.23,3.6v.105a4.925,4.925,0,0,1-1.235,3.529,4.384,4.384,0,0,1-3.344,1.305,4.434,4.434,0,0,1-3.261-1.217,4.761,4.761,0,0,1-1.327-3.3Zm2.962.185a3.538,3.538,0,0,0,.413,1.934,1.376,1.376,0,0,0,1.222.615q1.582,0,1.617-2.435v-.3q0-2.558-1.635-2.558-1.485,0-1.608,2.206Zm11.628-.167a5.809,5.809,0,0,1,.976-3.56,3.211,3.211,0,0,1,2.725-1.3,2.731,2.731,0,0,1,2.145,1V28.5h2.971V42h-2.663l-.149-1.02a2.8,2.8,0,0,1-2.32,1.2,3.205,3.205,0,0,1-2.689-1.3A5.993,5.993,0,0,1,191.206,37.175Zm2.962.185q0,2.531,1.477,2.531a1.458,1.458,0,0,0,1.406-.826V35.443a1.419,1.419,0,0,0-1.389-.844q-1.371,0-1.485,2.215Zm12.138,4.816a4.889,4.889,0,0,1-3.542-1.305,4.507,4.507,0,0,1-1.354-3.4v-.246a5.84,5.84,0,0,1,.541-2.575,3.955,3.955,0,0,1,1.578-1.727,4.763,4.763,0,0,1,2.461-.611,4.117,4.117,0,0,1,3.164,1.244,4.887,4.887,0,0,1,1.16,3.467v1.151h-5.889a2.135,2.135,0,0,0,.694,1.257,2.066,2.066,0,0,0,1.389.457,2.662,2.662,0,0,0,2.2-.984l1.354,1.6a3.784,3.784,0,0,1-1.569,1.217A5.3,5.3,0,0,1,206.306,42.176Zm-.334-7.576q-1.3,0-1.547,1.723h2.988v-.229a1.467,1.467,0,0,0-.36-1.1A1.434,1.434,0,0,0,205.972,34.6Zm14.994,4.729a.684.684,0,0,0-.4-.606,6.016,6.016,0,0,0-1.5-.475,6.853,6.853,0,0,1-1.828-.646,3.062,3.062,0,0,1-1.1-.971,2.319,2.319,0,0,1-.378-1.31,2.628,2.628,0,0,1,1.081-2.158,4.453,4.453,0,0,1,2.83-.848,4.934,4.934,0,0,1,3.023.853,2.666,2.666,0,0,1,1.143,2.241h-2.971q0-1.143-1.2-1.143a1.194,1.194,0,0,0-.782.259.8.8,0,0,0-.316.646.737.737,0,0,0,.387.642,3.654,3.654,0,0,0,1.235.4,10.671,10.671,0,0,1,1.49.378,2.706,2.706,0,0,1,2.145,2.646,2.491,2.491,0,0,1-1.156,2.118,5.068,5.068,0,0,1-2.993.817,5.172,5.172,0,0,1-2.18-.439,3.645,3.645,0,0,1-1.494-1.2,2.707,2.707,0,0,1-.536-1.591h2.769a1.145,1.145,0,0,0,.439.962,1.808,1.808,0,0,0,1.081.3,1.422,1.422,0,0,0,.91-.246A.787.787,0,0,0,220.966,39.328Zm9.905,1.644a3.054,3.054,0,0,1-2.54,1.2,3,3,0,0,1-2.369-.91,3.826,3.826,0,0,1-.8-2.615V32.49h2.962v6.179a1.065,1.065,0,0,0,1.187,1.222,1.548,1.548,0,0,0,1.45-.729V32.49h2.979V42h-2.777Zm13.315-3.656a5.735,5.735,0,0,1-1,3.538,3.2,3.2,0,0,1-2.694,1.323,2.742,2.742,0,0,1-2.153-.958v4.438H235.38V32.49h2.769l.088.879a2.742,2.742,0,0,1,2.241-1.055,3.224,3.224,0,0,1,2.733,1.3,5.805,5.805,0,0,1,.976,3.564Zm-2.962-.185q0-2.531-1.477-2.531a1.394,1.394,0,0,0-1.406.756V39.1a1.439,1.439,0,0,0,1.424.791q1.415,0,1.459-2.443Zm8.868,5.045a4.889,4.889,0,0,1-3.542-1.305,4.507,4.507,0,0,1-1.354-3.4v-.246a5.84,5.84,0,0,1,.541-2.575,3.955,3.955,0,0,1,1.578-1.727,4.763,4.763,0,0,1,2.461-.611,4.117,4.117,0,0,1,3.164,1.244,4.887,4.887,0,0,1,1.16,3.467v1.151h-5.889a2.135,2.135,0,0,0,.694,1.257,2.066,2.066,0,0,0,1.389.457,2.662,2.662,0,0,0,2.2-.984l1.354,1.6a3.784,3.784,0,0,1-1.569,1.217A5.3,5.3,0,0,1,250.093,42.176Zm-.334-7.576q-1.3,0-1.547,1.723H251.2v-.229a1.467,1.467,0,0,0-.36-1.1A1.434,1.434,0,0,0,249.759,34.6Zm11.285.571-.976-.07a1.752,1.752,0,0,0-1.793.879V42h-2.962V32.49h2.777l.1,1.222a2.294,2.294,0,0,1,2.083-1.4,2.888,2.888,0,0,1,.826.105ZM262.8,42V34.547h-1.38V32.49h1.38v-.316a3.631,3.631,0,0,1,1.248-2.909,4.987,4.987,0,0,1,3.243-.949,11.509,11.509,0,0,1,3.094.51l-.4,2.338-.492-.132a7.832,7.832,0,0,0-2.021-.255q-1.7,0-1.7,1.547v.167h1.863v2.057h-1.863V42Zm8.947,0H268.77V32.49h2.979Zm5.827-2.109a1.317,1.317,0,0,0,.967-.338,1.241,1.241,0,0,0,.334-.945h2.777a3.288,3.288,0,0,1-1.121,2.566,4.168,4.168,0,0,1-2.887,1,4.22,4.22,0,0,1-3.27-1.3,5.125,5.125,0,0,1-1.2-3.6v-.123a5.792,5.792,0,0,1,.532-2.544,3.872,3.872,0,0,1,1.534-1.7,4.573,4.573,0,0,1,2.373-.593,4.116,4.116,0,0,1,2.944,1.028,3.647,3.647,0,0,1,1.09,2.786h-2.777a1.626,1.626,0,0,0-.36-1.134,1.244,1.244,0,0,0-.967-.4q-1.151,0-1.345,1.468a10.357,10.357,0,0,0-.062,1.283,4.068,4.068,0,0,0,.343,1.986A1.187,1.187,0,0,0,277.576,39.891ZM286.031,42h-2.971V32.49h2.971Zm-3.146-11.962A1.322,1.322,0,0,1,283.342,29a1.943,1.943,0,0,1,2.373,0,1.405,1.405,0,0,1,0,2.074,1.943,1.943,0,0,1-2.373,0A1.322,1.322,0,0,1,282.885,30.038Zm9.571,12.138a4.889,4.889,0,0,1-3.542-1.305,4.507,4.507,0,0,1-1.354-3.4v-.246a5.84,5.84,0,0,1,.541-2.575,3.955,3.955,0,0,1,1.578-1.727,4.763,4.763,0,0,1,2.461-.611,4.117,4.117,0,0,1,3.164,1.244,4.887,4.887,0,0,1,1.16,3.467v1.151h-5.889a2.135,2.135,0,0,0,.694,1.257,2.066,2.066,0,0,0,1.389.457,2.662,2.662,0,0,0,2.2-.984l1.354,1.6a3.784,3.784,0,0,1-1.569,1.217A5.3,5.3,0,0,1,292.456,42.176Zm-.334-7.576q-1.3,0-1.547,1.723h2.988v-.229a1.467,1.467,0,0,0-.36-1.1A1.434,1.434,0,0,0,292.122,34.6Zm9.642,2.575a5.809,5.809,0,0,1,.976-3.56,3.211,3.211,0,0,1,2.725-1.3,2.731,2.731,0,0,1,2.145,1V28.5h2.971V42h-2.663l-.149-1.02a2.8,2.8,0,0,1-2.32,1.2,3.205,3.205,0,0,1-2.689-1.3A5.993,5.993,0,0,1,301.764,37.175Zm2.962.185q0,2.531,1.477,2.531a1.458,1.458,0,0,0,1.406-.826V35.443a1.419,1.419,0,0,0-1.389-.844q-1.371,0-1.485,2.215Zm12.138,4.816a4.889,4.889,0,0,1-3.542-1.305,4.507,4.507,0,0,1-1.354-3.4v-.246a5.84,5.84,0,0,1,.541-2.575,3.955,3.955,0,0,1,1.578-1.727,4.763,4.763,0,0,1,2.461-.611,4.117,4.117,0,0,1,3.164,1.244,4.887,4.887,0,0,1,1.16,3.467v1.151h-5.889a2.135,2.135,0,0,0,.694,1.257,2.066,2.066,0,0,0,1.389.457,2.662,2.662,0,0,0,2.2-.984l1.354,1.6a3.784,3.784,0,0,1-1.569,1.217A5.3,5.3,0,0,1,316.863,42.176Zm-.334-7.576q-1.3,0-1.547,1.723h2.988v-.229a1.467,1.467,0,0,0-.36-1.1A1.434,1.434,0,0,0,316.529,34.6Zm13.14,7.4H326.7V28.5h2.971Zm7.181,0a3.344,3.344,0,0,1-.281-.853,2.754,2.754,0,0,1-2.285,1.028A3.374,3.374,0,0,1,332,41.363a2.588,2.588,0,0,1-.94-2.043,2.66,2.66,0,0,1,1.143-2.338,5.821,5.821,0,0,1,3.322-.791h.914v-.5q0-1.316-1.134-1.316a.927.927,0,0,0-1.055,1.042h-2.962a2.655,2.655,0,0,1,1.173-2.239,4.931,4.931,0,0,1,2.993-.86,4.323,4.323,0,0,1,2.874.888,3.086,3.086,0,0,1,1.081,2.435v4.21a4.311,4.311,0,0,0,.4,2V42ZM335,40.066a1.652,1.652,0,0,0,.918-.237,1.487,1.487,0,0,0,.523-.536V37.772h-.861q-1.547,0-1.547,1.389a.848.848,0,0,0,.272.655A.986.986,0,0,0,335,40.066ZM4.623,63.476l1.5-5.985h3.12L6.144,67H3.12l-3.1-9.51H3.146ZM13.254,67H10.283V57.49h2.971ZM10.107,55.038A1.322,1.322,0,0,1,10.564,54a1.724,1.724,0,0,1,1.187-.4,1.724,1.724,0,0,1,1.187.4,1.405,1.405,0,0,1,0,2.074,1.724,1.724,0,0,1-1.187.4,1.724,1.724,0,0,1-1.187-.4A1.322,1.322,0,0,1,10.107,55.038ZM20.435,67a3.344,3.344,0,0,1-.281-.853,2.754,2.754,0,0,1-2.285,1.028,3.374,3.374,0,0,1-2.285-.813,2.588,2.588,0,0,1-.94-2.043,2.66,2.66,0,0,1,1.143-2.338,5.821,5.821,0,0,1,3.322-.791h.914v-.5q0-1.316-1.134-1.316a.927.927,0,0,0-1.055,1.042H14.871a2.655,2.655,0,0,1,1.173-2.239,4.931,4.931,0,0,1,2.993-.86,4.323,4.323,0,0,1,2.874.888,3.086,3.086,0,0,1,1.081,2.435v4.21a4.311,4.311,0,0,0,.4,2V67ZM18.58,65.066a1.652,1.652,0,0,0,.918-.237,1.487,1.487,0,0,0,.523-.536V62.772H19.16q-1.547,0-1.547,1.389a.848.848,0,0,0,.272.655A.986.986,0,0,0,18.58,65.066ZM29.338,61.8a13.431,13.431,0,0,1,.571-3.99,9.629,9.629,0,0,1,1.578-3.129,5.6,5.6,0,0,1,2.237-1.793l.563,1.459a5.73,5.73,0,0,0-1.9,2.826,13.782,13.782,0,0,0-.681,4.5v.387a14.051,14.051,0,0,0,.672,4.588A5.706,5.706,0,0,0,34.286,69.5l-.562,1.459a5.547,5.547,0,0,1-2.237-1.8,9.484,9.484,0,0,1-1.578-3.116,13.5,13.5,0,0,1-.571-3.85ZM38.593,67H35.622V53.5h2.971Zm7.488-1.028a3.054,3.054,0,0,1-2.54,1.2,3,3,0,0,1-2.369-.91,3.826,3.826,0,0,1-.8-2.615V57.49H43.33v6.179a1.065,1.065,0,0,0,1.187,1.222,1.548,1.548,0,0,0,1.45-.729V57.49h2.979V67H46.169Zm8.341-5.862L55.8,57.49h3.076l-2.5,4.632L59,67H55.907l-1.494-2.812L52.945,67H49.834l2.637-4.878-2.5-4.632h3.111Zm9.835,7.066a4.889,4.889,0,0,1-3.542-1.305,4.507,4.507,0,0,1-1.354-3.4v-.246a5.84,5.84,0,0,1,.541-2.575,3.955,3.955,0,0,1,1.578-1.727,4.763,4.763,0,0,1,2.461-.611A4.117,4.117,0,0,1,67.1,58.558a4.887,4.887,0,0,1,1.16,3.467v1.151H62.376a2.135,2.135,0,0,0,.694,1.257,2.066,2.066,0,0,0,1.389.457,2.662,2.662,0,0,0,2.2-.984l1.354,1.6a3.784,3.784,0,0,1-1.569,1.217A5.3,5.3,0,0,1,64.257,67.176ZM63.923,59.6q-1.3,0-1.547,1.723h2.988v-.229a1.467,1.467,0,0,0-.36-1.1A1.434,1.434,0,0,0,63.923,59.6Zm10.512,4.729a.684.684,0,0,0-.4-.606,6.016,6.016,0,0,0-1.5-.475,6.853,6.853,0,0,1-1.828-.646,3.062,3.062,0,0,1-1.1-.971,2.319,2.319,0,0,1-.378-1.31,2.628,2.628,0,0,1,1.081-2.158,4.453,4.453,0,0,1,2.83-.848,4.934,4.934,0,0,1,3.023.853,2.666,2.666,0,0,1,1.143,2.241H74.338q0-1.143-1.2-1.143a1.194,1.194,0,0,0-.782.259.8.8,0,0,0-.316.646.737.737,0,0,0,.387.642,3.654,3.654,0,0,0,1.235.4,10.671,10.671,0,0,1,1.49.378,2.706,2.706,0,0,1,2.145,2.646,2.491,2.491,0,0,1-1.156,2.118,5.068,5.068,0,0,1-2.993.817,5.172,5.172,0,0,1-2.18-.439,3.645,3.645,0,0,1-1.494-1.2,2.707,2.707,0,0,1-.536-1.591H71.7a1.145,1.145,0,0,0,.439.962,1.808,1.808,0,0,0,1.081.3,1.422,1.422,0,0,0,.91-.246A.787.787,0,0,0,74.435,64.328Zm8.912-2.285a12.532,12.532,0,0,1-.606,3.92,10.008,10.008,0,0,1-1.674,3.186,5.574,5.574,0,0,1-2.307,1.806L78.2,69.5a5.787,5.787,0,0,0,1.89-2.812,13.577,13.577,0,0,0,.694-4.368v-.536a14.051,14.051,0,0,0-.672-4.588A5.706,5.706,0,0,0,78.2,54.344l.563-1.459a5.676,5.676,0,0,1,2.29,1.789,9.885,9.885,0,0,1,1.67,3.138,12.426,12.426,0,0,1,.628,3.845Z" transform="translate(536 6981)" fill="#12263f"/>
    <path id="Trazado_121593" data-name="Trazado 121593" d="M11,4.2v8.376a4.814,4.814,0,0,1-.606,2.465,3.929,3.929,0,0,1-1.74,1.586,6.131,6.131,0,0,1-2.681.545,5.3,5.3,0,0,1-3.683-1.213A4.326,4.326,0,0,1,.923,12.641V4.2h3.1v8.5q.053,2.1,1.951,2.1a1.889,1.889,0,0,0,1.45-.527,2.465,2.465,0,0,0,.492-1.714V4.2ZM15.513,7.49l.1,1.116a3.225,3.225,0,0,1,2.716-1.292,2.713,2.713,0,0,1,2.219.888,4.226,4.226,0,0,1,.76,2.672V17H18.334V11a1.6,1.6,0,0,0-.29-1.059A1.342,1.342,0,0,0,16.989,9.6a1.413,1.413,0,0,0-1.292.686V17H12.735V7.49ZM26.068,17H23.1V7.49h2.971ZM22.922,5.038A1.322,1.322,0,0,1,23.379,4a1.943,1.943,0,0,1,2.373,0,1.322,1.322,0,0,1,.457,1.037,1.322,1.322,0,0,1-.457,1.037,1.943,1.943,0,0,1-2.373,0A1.322,1.322,0,0,1,22.922,5.038ZM28.547,17V9.547h-1.38V7.49h1.38V6.734A3.286,3.286,0,0,1,29.5,4.212a3.785,3.785,0,0,1,2.689-.9,5.89,5.89,0,0,1,1.389.185l.009,2.18a2.706,2.706,0,0,0-.729-.079q-1.345,0-1.345,1.16V7.49h1.854V9.547H31.518V17Zm5.493-4.843a5.613,5.613,0,0,1,.554-2.536,3.96,3.96,0,0,1,1.591-1.709,4.791,4.791,0,0,1,2.435-.6,4.373,4.373,0,0,1,3.366,1.323,5.076,5.076,0,0,1,1.23,3.6v.105a4.925,4.925,0,0,1-1.235,3.529,4.384,4.384,0,0,1-3.344,1.305,4.434,4.434,0,0,1-3.261-1.217,4.761,4.761,0,0,1-1.327-3.3ZM37,12.342a3.538,3.538,0,0,0,.413,1.934,1.376,1.376,0,0,0,1.222.615q1.582,0,1.617-2.435v-.3q0-2.558-1.635-2.558-1.485,0-1.608,2.206Zm13.271-2.171L49.3,10.1a1.752,1.752,0,0,0-1.793.879V17H44.543V7.49H47.32l.1,1.222a2.294,2.294,0,0,1,2.083-1.4,2.888,2.888,0,0,1,.826.105ZM54.141,7.49l.1,1.116a3.27,3.27,0,0,1,2.716-1.292,2.407,2.407,0,0,1,2.435,1.433,3.165,3.165,0,0,1,2.795-1.433q2.892,0,2.971,3.5V17H62.183V11a1.813,1.813,0,0,0-.246-1.063,1.048,1.048,0,0,0-.9-.334,1.4,1.4,0,0,0-1.31.782l.009.123V17H56.769V11.015a1.906,1.906,0,0,0-.237-1.081,1.045,1.045,0,0,0-.905-.334,1.42,1.42,0,0,0-1.3.782V17H51.363V7.49ZM69.97,17H67V7.49H69.97ZM66.823,5.038A1.322,1.322,0,0,1,67.28,4a1.943,1.943,0,0,1,2.373,0,1.322,1.322,0,0,1,.457,1.037,1.322,1.322,0,0,1-.457,1.037,1.943,1.943,0,0,1-2.373,0A1.322,1.322,0,0,1,66.823,5.038Zm4.6,7.137a5.809,5.809,0,0,1,.976-3.56,3.211,3.211,0,0,1,2.725-1.3,2.731,2.731,0,0,1,2.145,1V3.5h2.971V17H77.572l-.149-1.02a2.8,2.8,0,0,1-2.32,1.2,3.205,3.205,0,0,1-2.689-1.3A5.993,5.993,0,0,1,71.42,12.175Zm2.962.185q0,2.531,1.477,2.531a1.458,1.458,0,0,0,1.406-.826V10.443A1.419,1.419,0,0,0,75.876,9.6q-1.371,0-1.485,2.215ZM87.275,17a3.344,3.344,0,0,1-.281-.853,2.754,2.754,0,0,1-2.285,1.028,3.374,3.374,0,0,1-2.285-.813,2.588,2.588,0,0,1-.94-2.043,2.66,2.66,0,0,1,1.143-2.338,5.821,5.821,0,0,1,3.322-.791h.914v-.5q0-1.316-1.134-1.316a.927.927,0,0,0-1.055,1.042H81.712a2.655,2.655,0,0,1,1.173-2.239,4.931,4.931,0,0,1,2.993-.86,4.323,4.323,0,0,1,2.874.888,3.086,3.086,0,0,1,1.081,2.435v4.21a4.311,4.311,0,0,0,.4,2V17Zm-1.854-1.934a1.652,1.652,0,0,0,.918-.237,1.487,1.487,0,0,0,.523-.536V12.772H86q-1.547,0-1.547,1.389a.848.848,0,0,0,.272.655A.986.986,0,0,0,85.421,15.066ZM91.1,12.175a5.809,5.809,0,0,1,.976-3.56,3.211,3.211,0,0,1,2.725-1.3,2.731,2.731,0,0,1,2.145,1V3.5h2.971V17H97.251L97.1,15.98a2.8,2.8,0,0,1-2.32,1.2,3.205,3.205,0,0,1-2.689-1.3A5.993,5.993,0,0,1,91.1,12.175Zm2.962.185q0,2.531,1.477,2.531a1.458,1.458,0,0,0,1.406-.826V10.443A1.419,1.419,0,0,0,95.555,9.6q-1.371,0-1.485,2.215Zm11.646-.185a5.809,5.809,0,0,1,.976-3.56,3.211,3.211,0,0,1,2.725-1.3,2.731,2.731,0,0,1,2.145,1V3.5h2.971V17h-2.663l-.149-1.02a2.8,2.8,0,0,1-2.32,1.2,3.205,3.205,0,0,1-2.689-1.3A5.993,5.993,0,0,1,105.706,12.175Zm2.962.185q0,2.531,1.477,2.531a1.458,1.458,0,0,0,1.406-.826V10.443a1.419,1.419,0,0,0-1.389-.844q-1.371,0-1.485,2.215Zm12.138,4.816a4.889,4.889,0,0,1-3.542-1.305,4.507,4.507,0,0,1-1.354-3.4v-.246a5.84,5.84,0,0,1,.541-2.575,3.955,3.955,0,0,1,1.578-1.727,4.763,4.763,0,0,1,2.461-.611,4.117,4.117,0,0,1,3.164,1.244,4.887,4.887,0,0,1,1.16,3.467v1.151h-5.889a2.135,2.135,0,0,0,.694,1.257,2.066,2.066,0,0,0,1.389.457,2.662,2.662,0,0,0,2.2-.984l1.354,1.6a3.784,3.784,0,0,1-1.569,1.217A5.3,5.3,0,0,1,120.806,17.176ZM120.472,9.6q-1.3,0-1.547,1.723h2.988v-.229a1.467,1.467,0,0,0-.36-1.1A1.434,1.434,0,0,0,120.472,9.6Zm13.14,7.4h-2.971V3.5h2.971Zm7.181,0a3.344,3.344,0,0,1-.281-.853,2.754,2.754,0,0,1-2.285,1.028,3.374,3.374,0,0,1-2.285-.813,2.588,2.588,0,0,1-.94-2.043,2.66,2.66,0,0,1,1.143-2.338,5.821,5.821,0,0,1,3.322-.791h.914v-.5q0-1.316-1.134-1.316a.927.927,0,0,0-1.055,1.042h-2.962A2.655,2.655,0,0,1,136.4,8.175a4.931,4.931,0,0,1,2.993-.86,4.323,4.323,0,0,1,2.874.888,3.086,3.086,0,0,1,1.081,2.435v4.21a4.311,4.311,0,0,0,.4,2V17Zm-1.854-1.934a1.652,1.652,0,0,0,.918-.237,1.487,1.487,0,0,0,.523-.536V12.772h-.861q-1.547,0-1.547,1.389a.848.848,0,0,0,.272.655A.986.986,0,0,0,138.938,15.066ZM4.254,42H1.178V29.2H4.254Zm5.133,0H6.416V28.5H9.387Zm7.488-1.028a3.054,3.054,0,0,1-2.54,1.2,3,3,0,0,1-2.369-.91,3.826,3.826,0,0,1-.8-2.615V32.49h2.962v6.179a1.065,1.065,0,0,0,1.187,1.222,1.548,1.548,0,0,0,1.45-.729V32.49H19.74V42H16.963Zm7.286-8.481.1,1.116a3.27,3.27,0,0,1,2.716-1.292,2.407,2.407,0,0,1,2.435,1.433A3.165,3.165,0,0,1,32.2,32.314q2.892,0,2.971,3.5V42H32.2V36a1.813,1.813,0,0,0-.246-1.063,1.048,1.048,0,0,0-.9-.334,1.4,1.4,0,0,0-1.31.782l.009.123V42H26.789V36.015a1.906,1.906,0,0,0-.237-1.081,1.045,1.045,0,0,0-.905-.334,1.42,1.42,0,0,0-1.3.782V42H21.384V32.49ZM39.99,42H37.02V32.49H39.99ZM36.844,30.038A1.322,1.322,0,0,1,37.3,29a1.943,1.943,0,0,1,2.373,0,1.405,1.405,0,0,1,0,2.074,1.943,1.943,0,0,1-2.373,0A1.322,1.322,0,0,1,36.844,30.038Zm7.69,2.452.1,1.116a3.225,3.225,0,0,1,2.716-1.292,2.713,2.713,0,0,1,2.219.888,4.226,4.226,0,0,1,.76,2.672V42H47.355V36a1.6,1.6,0,0,0-.29-1.059,1.342,1.342,0,0,0-1.055-.338,1.413,1.413,0,0,0-1.292.686V42H41.757V32.49ZM57.322,42a3.344,3.344,0,0,1-.281-.853,2.754,2.754,0,0,1-2.285,1.028,3.374,3.374,0,0,1-2.285-.813,2.588,2.588,0,0,1-.94-2.043,2.66,2.66,0,0,1,1.143-2.338A5.821,5.821,0,0,1,56,36.19h.914v-.5q0-1.316-1.134-1.316a.927.927,0,0,0-1.055,1.042H51.759a2.655,2.655,0,0,1,1.173-2.239,4.931,4.931,0,0,1,2.993-.86A4.323,4.323,0,0,1,58.8,33.2a3.086,3.086,0,0,1,1.081,2.435v4.21a4.311,4.311,0,0,0,.4,2V42Zm-1.854-1.934a1.652,1.652,0,0,0,.918-.237,1.487,1.487,0,0,0,.523-.536V37.772h-.861q-1.547,0-1.547,1.389a.848.848,0,0,0,.272.655A.986.986,0,0,0,55.468,40.066Zm8.771-7.576.1,1.116a3.225,3.225,0,0,1,2.716-1.292,2.713,2.713,0,0,1,2.219.888,4.226,4.226,0,0,1,.76,2.672V42H67.061V36a1.6,1.6,0,0,0-.29-1.059,1.342,1.342,0,0,0-1.055-.338,1.413,1.413,0,0,0-1.292.686V42H61.462V32.49Zm11.452,7.4a1.317,1.317,0,0,0,.967-.338,1.241,1.241,0,0,0,.334-.945H79.77a3.288,3.288,0,0,1-1.121,2.566,4.168,4.168,0,0,1-2.887,1,4.22,4.22,0,0,1-3.27-1.3,5.125,5.125,0,0,1-1.2-3.6v-.123a5.792,5.792,0,0,1,.532-2.544,3.872,3.872,0,0,1,1.534-1.7,4.573,4.573,0,0,1,2.373-.593,4.116,4.116,0,0,1,2.944,1.028,3.647,3.647,0,0,1,1.09,2.786H76.992A1.626,1.626,0,0,0,76.632,35a1.244,1.244,0,0,0-.967-.4q-1.151,0-1.345,1.468a10.357,10.357,0,0,0-.062,1.283,4.068,4.068,0,0,0,.343,1.986A1.187,1.187,0,0,0,75.691,39.891ZM84.146,42H81.176V32.49h2.971ZM81,30.038A1.322,1.322,0,0,1,81.457,29a1.943,1.943,0,0,1,2.373,0,1.405,1.405,0,0,1,0,2.074,1.943,1.943,0,0,1-2.373,0A1.322,1.322,0,0,1,81,30.038ZM91.327,42a3.344,3.344,0,0,1-.281-.853,2.754,2.754,0,0,1-2.285,1.028,3.374,3.374,0,0,1-2.285-.813,2.588,2.588,0,0,1-.94-2.043,2.66,2.66,0,0,1,1.143-2.338A5.821,5.821,0,0,1,90,36.19h.914v-.5q0-1.316-1.134-1.316a.927.927,0,0,0-1.055,1.042H85.764a2.655,2.655,0,0,1,1.173-2.239,4.931,4.931,0,0,1,2.993-.86A4.323,4.323,0,0,1,92.8,33.2a3.086,3.086,0,0,1,1.081,2.435v4.21a4.311,4.311,0,0,0,.4,2V42Zm-1.854-1.934a1.652,1.652,0,0,0,.918-.237,1.487,1.487,0,0,0,.523-.536V37.772h-.861q-1.547,0-1.547,1.389a.848.848,0,0,0,.272.655A.986.986,0,0,0,89.473,40.066Z" transform="translate(1031 6981)" fill="#12263f"/>
    <path id="Trazado_119648" data-name="Trazado 119648" d="M-6958-8555h820" transform="translate(7453 15632)" fill="none" stroke="#12263f" stroke-width="1"/>
    <path id="Trazado_121597" data-name="Trazado 121597" d="M5.722-4.526H4.052V0H.967V-12.8H6a5.621,5.621,0,0,1,3.56,1.01,3.421,3.421,0,0,1,1.283,2.853,4.155,4.155,0,0,1-.541,2.213A3.837,3.837,0,0,1,8.613-5.3L11.285-.132V0H7.98ZM4.052-6.9H6a1.751,1.751,0,0,0,1.323-.463A1.788,1.788,0,0,0,7.77-8.653a1.809,1.809,0,0,0-.448-1.3A1.735,1.735,0,0,0,6-10.424H4.052ZM19.09,0H16.119V-9.457L13.2-8.6v-2.25L18.817-12.8h.272Z" transform="translate(536 7118)" fill="#12263f"/>
    <path id="Trazado_121596" data-name="Trazado 121596" d="M5.722-4.526H4.052V0H.967V-12.8H6a5.621,5.621,0,0,1,3.56,1.01,3.421,3.421,0,0,1,1.283,2.853,4.155,4.155,0,0,1-.541,2.213A3.837,3.837,0,0,1,8.613-5.3L11.285-.132V0H7.98ZM4.052-6.9H6a1.751,1.751,0,0,0,1.323-.463A1.788,1.788,0,0,0,7.77-8.653a1.809,1.809,0,0,0-.448-1.3A1.735,1.735,0,0,0,6-10.424H4.052ZM21.454,0h-8.93V-1.934l4.113-4.324a4.909,4.909,0,0,0,1.521-2.751,1.913,1.913,0,0,0-.36-1.257,1.287,1.287,0,0,0-1.046-.431,1.3,1.3,0,0,0-1.1.576,2.366,2.366,0,0,0-.422,1.437H12.261a4.2,4.2,0,0,1,.589-2.175,4.129,4.129,0,0,1,1.635-1.56,4.856,4.856,0,0,1,2.338-.562,4.777,4.777,0,0,1,3.195.958,3.42,3.42,0,0,1,1.121,2.751A4,4,0,0,1,20.856-7.8a6.456,6.456,0,0,1-.875,1.5,22.029,22.029,0,0,1-1.912,2.1L16.418-2.285h5.036ZM31.28-4.148,32.862-9.51h3.173l-3.876,11.1-.167.4a2.944,2.944,0,0,1-2.918,1.846,4.642,4.642,0,0,1-1.222-.175V1.556h.387a2.026,2.026,0,0,0,.954-.18,1.094,1.094,0,0,0,.488-.647L29.918.1l-3.3-9.605h3.164Zm14.9-.378h-1.67V0H41.423V-12.8h5.036a5.621,5.621,0,0,1,3.56,1.01A3.421,3.421,0,0,1,51.3-8.934a4.155,4.155,0,0,1-.541,2.213A3.837,3.837,0,0,1,49.069-5.3L51.741-.132V0h-3.3ZM44.508-6.9h1.951a1.751,1.751,0,0,0,1.323-.463,1.788,1.788,0,0,0,.444-1.291,1.809,1.809,0,0,0-.448-1.3,1.735,1.735,0,0,0-1.318-.471H44.508Zm11.18-.738h1.4a1.453,1.453,0,0,0,1.661-1.626,1.406,1.406,0,0,0-.4-1.033,1.5,1.5,0,0,0-1.116-.4,1.606,1.606,0,0,0-1.024.343,1.046,1.046,0,0,0-.435.853H52.813a3.032,3.032,0,0,1,.563-1.8,3.715,3.715,0,0,1,1.56-1.235,5.334,5.334,0,0,1,2.193-.444,5.241,5.241,0,0,1,3.357.976,3.243,3.243,0,0,1,1.222,2.681,2.7,2.7,0,0,1-.505,1.56A3.6,3.6,0,0,1,59.73-6.574a3.441,3.441,0,0,1,1.6,1.121,2.951,2.951,0,0,1,.58,1.859A3.3,3.3,0,0,1,60.592-.853,5.472,5.472,0,0,1,57.129.176,5.675,5.675,0,0,1,54.8-.3a3.656,3.656,0,0,1-1.63-1.327,3.45,3.45,0,0,1-.554-1.929h2.979a1.334,1.334,0,0,0,.475,1.02,1.676,1.676,0,0,0,1.169.431,1.755,1.755,0,0,0,1.248-.435,1.454,1.454,0,0,0,.466-1.112,1.7,1.7,0,0,0-.483-1.371,2.021,2.021,0,0,0-1.336-.4H55.688Z" transform="translate(665 7118)" fill="#12263f"/>
    <path id="Trazado_121595" data-name="Trazado 121595" d="M5.722-4.526H4.052V0H.967V-12.8H6a5.621,5.621,0,0,1,3.56,1.01,3.421,3.421,0,0,1,1.283,2.853,4.155,4.155,0,0,1-.541,2.213A3.837,3.837,0,0,1,8.613-5.3L11.285-.132V0H7.98ZM4.052-6.9H6a1.751,1.751,0,0,0,1.323-.463A1.788,1.788,0,0,0,7.77-8.653a1.809,1.809,0,0,0-.448-1.3A1.735,1.735,0,0,0,6-10.424H4.052ZM20.347-5h1.3v2.285h-1.3V0H17.385V-2.716H12.437l-.176-1.811,5.124-8.244V-12.8h2.962ZM15.082-5h2.3V-8.938l-.185.3Z" transform="translate(852 7118)" fill="#12263f"/>
    <path id="Trazado_121594" data-name="Trazado 121594" d="M8.9-5.432H4.052v3.059h5.73V0H.967V-12.8H9.8v2.382H4.052v2.7H8.9ZM12.19.453l.056.651A1.907,1.907,0,0,1,13.83.35a1.4,1.4,0,0,1,1.42.836A1.846,1.846,0,0,1,16.88.35q1.687,0,1.733,2.04V6H16.88V2.5a1.057,1.057,0,0,0-.144-.62.611.611,0,0,0-.523-.195.819.819,0,0,0-.764.456l.005.072V6H13.722V2.509a1.111,1.111,0,0,0-.138-.631.609.609,0,0,0-.528-.195.829.829,0,0,0-.759.456V6H10.57V.453ZM21.423,6H19.69V.453h1.733ZM19.587-.977a.771.771,0,0,1,.267-.6,1.006,1.006,0,0,1,.692-.236,1.006,1.006,0,0,1,.692.236.771.771,0,0,1,.267.6.771.771,0,0,1-.267.6,1.006,1.006,0,0,1-.692.236,1.006,1.006,0,0,1-.692-.236A.771.771,0,0,1,19.587-.977ZM24.073.453l.056.651A1.881,1.881,0,0,1,25.714.35a1.583,1.583,0,0,1,1.294.518,2.465,2.465,0,0,1,.443,1.559V6H25.719V2.5a.936.936,0,0,0-.169-.618.783.783,0,0,0-.615-.2.824.824,0,0,0-.754.4V6H22.453V.453ZM34.251,1.1h-2.1l4.368-13.9h2.109Zm13.377-6.53H42.777v3.059h5.73V0H39.692V-12.8h8.833v2.382H42.777v2.7h4.852Zm6.8,8.7a3.345,3.345,0,0,1-.582,2.063,1.866,1.866,0,0,1-1.571.772,1.6,1.6,0,0,1-1.256-.559V8.133H49.295V.453H50.91l.051.513A1.6,1.6,0,0,1,52.268.35a1.881,1.881,0,0,1,1.594.756,3.386,3.386,0,0,1,.569,2.079ZM52.7,3.16q0-1.476-.861-1.476a.813.813,0,0,0-.82.441V4.308a.84.84,0,0,0,.831.461q.825,0,.851-1.425Zm5.844-1.143-.569-.041a1.022,1.022,0,0,0-1.046.513V6H55.206V.453h1.62l.056.713A1.338,1.338,0,0,1,58.1.35a1.685,1.685,0,0,1,.482.062Zm.22,1.159A3.274,3.274,0,0,1,59.092,1.7a2.31,2.31,0,0,1,.928-1A2.8,2.8,0,0,1,61.44.35a2.551,2.551,0,0,1,1.964.772,2.961,2.961,0,0,1,.718,2.1v.062a2.873,2.873,0,0,1-.72,2.058A2.557,2.557,0,0,1,61.45,6.1a2.586,2.586,0,0,1-1.9-.71,2.777,2.777,0,0,1-.774-1.925Zm1.728.108a2.064,2.064,0,0,0,.241,1.128.8.8,0,0,0,.713.359q.923,0,.943-1.42V3.175q0-1.492-.954-1.492-.866,0-.938,1.287ZM66.515.453l.056.651A1.907,1.907,0,0,1,68.156.35a1.4,1.4,0,0,1,1.42.836A1.846,1.846,0,0,1,71.206.35q1.687,0,1.733,2.04V6H71.206V2.5a1.057,1.057,0,0,0-.144-.62.611.611,0,0,0-.523-.195.819.819,0,0,0-.764.456l.005.072V6H68.048V2.509a1.112,1.112,0,0,0-.138-.631.609.609,0,0,0-.528-.195.829.829,0,0,0-.759.456V6H64.9V.453ZM78.978-5.2a13.431,13.431,0,0,1,.571-3.99,9.629,9.629,0,0,1,1.578-3.129,5.6,5.6,0,0,1,2.237-1.793l.563,1.459a5.73,5.73,0,0,0-1.9,2.826,13.782,13.782,0,0,0-.681,4.5v.387a14.051,14.051,0,0,0,.672,4.588A5.706,5.706,0,0,0,83.927,2.5l-.562,1.459a5.547,5.547,0,0,1-2.237-1.8A9.484,9.484,0,0,1,79.55-.958a13.5,13.5,0,0,1-.571-3.85Zm6.091-5.133a2.512,2.512,0,0,1,.773-1.916,2.9,2.9,0,0,1,2.074-.729A2.9,2.9,0,0,1,90-12.256a2.578,2.578,0,0,1,.765,1.964v.633A2.5,2.5,0,0,1,90-7.752a2.889,2.889,0,0,1-2.065.721,2.968,2.968,0,0,1-2.079-.716,2.524,2.524,0,0,1-.787-1.964Zm1.907.675a1.062,1.062,0,0,0,.255.738.9.9,0,0,0,.7.284q.923,0,.923-1.17v-.524a1.12,1.12,0,0,0-.246-.747.857.857,0,0,0-.694-.293.876.876,0,0,0-.686.284,1.114,1.114,0,0,0-.255.773Zm4.175,6.524a2.487,2.487,0,0,1,.778-1.916A2.924,2.924,0,0,1,94-5.774a2.956,2.956,0,0,1,2.083.712,2.565,2.565,0,0,1,.773,1.986v.615a2.509,2.509,0,0,1-.765,1.916,2.9,2.9,0,0,1-2.074.721,2.968,2.968,0,0,1-2.079-.716A2.524,2.524,0,0,1,91.151-2.5Zm1.9.675a1.039,1.039,0,0,0,.281.72.891.891,0,0,0,.686.31.808.808,0,0,0,.923-.8l.009-.9a1.075,1.075,0,0,0-.255-.747A.886.886,0,0,0,94-4.166a.893.893,0,0,0-.677.266,1.061,1.061,0,0,0-.272.72ZM88.5-.958l-1.38-.694,6.249-10,1.38.694Zm14.643-4a12.532,12.532,0,0,1-.606,3.92,10.008,10.008,0,0,1-1.674,3.186,5.574,5.574,0,0,1-2.307,1.806L97.989,2.5a5.787,5.787,0,0,0,1.89-2.812,13.577,13.577,0,0,0,.694-4.368v-.536A14.051,14.051,0,0,0,99.9-9.809a5.706,5.706,0,0,0-1.912-2.848l.563-1.459a5.676,5.676,0,0,1,2.29,1.789,9.885,9.885,0,0,1,1.67,3.138,12.426,12.426,0,0,1,.628,3.845Z" transform="translate(1106 7118)" fill="#12263f"/>
    <rect id="Rectángulo_34018" data-name="Rectángulo 34018" width="1030" height="163" transform="translate(285 7143)" fill="#f7f7f7"/>
    <path id="Trazado_119646" data-name="Trazado 119646" d="M-6643-10047v360" transform="translate(7138 16993)" fill="none" stroke="#12263f" stroke-width="1"/>
    <path id="Trazado_119647" data-name="Trazado 119647" d="M-6643-10047v360" transform="translate(7643 16993)" fill="none" stroke="#12263f" stroke-width="1"/>
    <path id="Trazado_119649" data-name="Trazado 119649" d="M-6958-8555h1030" transform="translate(7243 15742)" fill="none" stroke="#12263f" stroke-width="1"/>
  </g>
</svg>
