<svg xmlns="http://www.w3.org/2000/svg" xmlns:xlink="http://www.w3.org/1999/xlink" width="400" height="342" viewBox="0 0 400 342">
  <defs>
    <clipPath id="clip-path">
      <rect id="Rectángulo_34046" data-name="Rectángulo 34046" width="202.701" height="294.781" fill="none"/>
    </clipPath>
    <clipPath id="clip-path-3">
      <rect id="Rectángulo_34034" data-name="Rectángulo 34034" width="38.97" height="30.031" fill="none"/>
    </clipPath>
    <clipPath id="clip-path-4">
      <rect id="Rectángulo_34035" data-name="Rectángulo 34035" width="79.874" height="160.846" fill="none"/>
    </clipPath>
    <clipPath id="clip-path-5">
      <rect id="Rectángulo_34036" data-name="Rectángulo 34036" width="13.212" height="12.572" fill="none"/>
    </clipPath>
    <clipPath id="clip-path-6">
      <rect id="Rectángulo_34037" data-name="Rectángulo 34037" width="8.886" height="9.013" fill="none"/>
    </clipPath>
    <clipPath id="clip-path-7">
      <rect id="Rectángulo_34038" data-name="Rectángulo 34038" width="11.851" height="7.927" fill="none"/>
    </clipPath>
    <clipPath id="clip-path-8">
      <rect id="Rectángulo_34039" data-name="Rectángulo 34039" width="12.609" height="4.287" fill="none"/>
    </clipPath>
    <clipPath id="clip-path-9">
      <rect id="Rectángulo_34040" data-name="Rectángulo 34040" width="109.11" height="68.817" fill="none"/>
    </clipPath>
    <clipPath id="clip-path-10">
      <rect id="Rectángulo_34041" data-name="Rectángulo 34041" width="78.352" height="32.812" fill="none"/>
    </clipPath>
    <clipPath id="clip-path-11">
      <rect id="Rectángulo_34042" data-name="Rectángulo 34042" width="21.045" height="31.954" fill="none"/>
    </clipPath>
    <clipPath id="clip-path-12">
      <rect id="Rectángulo_34043" data-name="Rectángulo 34043" width="19.912" height="13.23" fill="none"/>
    </clipPath>
    <clipPath id="clip-path-13">
      <rect id="Rectángulo_34044" data-name="Rectángulo 34044" width="12.329" height="60.435" fill="none"/>
    </clipPath>
  </defs>
  <g id="Grupo_152212" data-name="Grupo 152212" transform="translate(-915 -677)">
    <g id="Grupo_151740" data-name="Grupo 151740" transform="translate(0 14)">
      <rect id="Rectángulo_34090" data-name="Rectángulo 34090" width="400" height="215" transform="translate(915 663)" fill="#e0d1ff"/>
      <g id="Grupo_151726" data-name="Grupo 151726" transform="translate(-53.823 34)">
        <circle id="Elipse_4805" data-name="Elipse 4805" cx="92.5" cy="92.5" r="92.5" transform="translate(1044.823 725)" fill="#ffc321"/>
        <g id="Grupo_151725" data-name="Grupo 151725" transform="translate(1048.927 656.098)">
          <g id="Grupo_151724" data-name="Grupo 151724" clip-path="url(#clip-path)">
            <g id="Grupo_151723" data-name="Grupo 151723">
              <g id="Grupo_151722" data-name="Grupo 151722" clip-path="url(#clip-path)">
                <path id="Trazado_119681" data-name="Trazado 119681" d="M98.79,244.591,84.433,224c-.654-1.324-4.361-6.323-4.878-7.694-.239-.624-4.379-5.094-2.911-1.039L70.067,218.6c-3.411-6.807-2.278,1.822-1.117,4.471.516,3.349.745,6.763,2.1,10.689,1.494,4.365,5.369,9.914,7.278,14.556a21.119,21.119,0,0,0,6.031,6.294,17.887,17.887,0,0,0,15.462-3.988c1.251-1.183.393-4.021-1.031-6.031" transform="translate(9.448 29.765)" fill="#1d1d1b"/>
                <path id="Trazado_119682" data-name="Trazado 119682" d="M182.752,189.086c-1.432-3.619-4.178-4.512-12.253-5.443-5.282-1.309-10.542-2.441-16.3-6.359q-1.331-1.716-2.649-3.423l-9.11,7.391a20.681,20.681,0,0,1,1.366,2c.477,13.381,3.427,13.312,8.993,11.564a3.022,3.022,0,0,1,.8-.34c10.032-1.12,14.231,2.764,23.841-.129,2.717-.639,6.028-2.581,5.313-5.26" transform="translate(19.85 24.229)" fill="#1d1d1b"/>
                <path id="Trazado_119683" data-name="Trazado 119683" d="M166.362,183.876c0,.149-7.112,4.617-7.112,4.617a9.186,9.186,0,0,0-.9.948c-1.073,1.147-3.044,3.069-4.567,2.644-7.037-1.921-32.913-19.387-41-43.667-16.145,2.72-36.581-3.967-59.612-9.731-1.048-.25-2.071-.524-3.12-.774-.224-.05-.424-.125-.648-.175-.723-.174-1.447-.374-2.172-.548l-2.619-.674.3-.749,1.3-3.143,7.834-19.214a78.465,78.465,0,0,1,8.26-.524c24.079-.424,44.615,9.158,64.877,22.657,29.694,29.245,38.228,44.316,39.176,48.334" transform="translate(6.218 15.729)" fill="#26749e"/>
                <path id="Trazado_119684" data-name="Trazado 119684" d="M128.891,45.1l-1.323,7.81-.05.224a5.316,5.316,0,0,0-.6.124c-.549.15-1.1.35-1.671.549-.6.224-1.123.45-1.648.675a58.817,58.817,0,0,0-5.54,3.043c-1.273.774-2.6,1.572-3.917,2.421-13.075,8.11-51.678,17.941-60.361,14.673-1.9,4.091-.725,2.569-2.3,9.232-.025,0-.8-2.121-1.123-2.994-.1-.224-.149-.375-.149-.375L41.331,56.454c.5-.25.973-.5,1.447-.749,9.433-4.617,17.093-4.667,23.581-1.673,7.186-1.172,15.67-1.047,24.428-.648,6.963-1.522,14.3-3.094,21.884-4.741,1.423-.325,2.87-.624,4.317-.948,3.918-.849,7.885-1.723,11.9-2.6" transform="translate(5.76 6.285)" fill="#26749e"/>
                <path id="Trazado_119685" data-name="Trazado 119685" d="M117.512,51.154c4.04,1.735,8.822.6,14-2.069l-7.458-3.175Z" transform="translate(16.376 6.398)" fill="#d18450"/>
                <path id="Trazado_119686" data-name="Trazado 119686" d="M77.309,235.577a5.177,5.177,0,0,1-4.317-2.47c-8.534-16.868-16.294-27.574-19.563-49.482C40,165.659,24.933,156.826,20.267,132.8a52.884,52.884,0,0,1-.924-10.155,24.27,24.27,0,0,1,10.081-2.77,20.125,20.125,0,0,1,2.994.149,19.653,19.653,0,0,1,1.972.4c4.94,1.248,10.031,4.691,15.346,11.228q1.608,1.984,3.219,4.342c.2.3.4.623.623.948.449.7.9,1.4,1.348,2.071,9.806,15.071,18.265,28.222,19.064,38.3A56.907,56.907,0,0,1,81.3,196.825c1.622,10.929,3.992,19.887,5.963,28.4,1.7,7.411-5.041,10.855-9.956,10.356" transform="translate(2.696 16.704)" fill="#26749e"/>
                <path id="Trazado_119687" data-name="Trazado 119687" d="M65.959,113.618c-5.59,2.6-7.236,6.638-7.66,10.855-.549,5.764,1.248,11.853-1.5,14.971a5.09,5.09,0,0,1-1.771,1.3.742.742,0,0,0-.1-.075c-1.348-.973-2.72-1.871-4.068-2.72q-1.16-.786-2.321-1.422a50.09,50.09,0,0,0-5.614-2.9,30.613,30.613,0,0,0-8.309-2.395,20.407,20.407,0,0,0-14.249,3.294c-.923-1.3-1.3-5.739-1.571-10.779-.075-1.423-.125-2.9-.2-4.367l10.98-3.319,8.035-2.42,20.636-6.213c1.946,3.093,3.319,5.439,7.71,6.188" transform="translate(2.592 14.971)" fill="#26749e"/>
                <path id="Trazado_119688" data-name="Trazado 119688" d="M60.825,115.161c-1.3,3.344-12.626,9.857-23.282,12.626-.873.25-1.747.449-2.594.623a13.559,13.559,0,0,0-2.845.924c-4.217,1.722-7.561,4.691-10.081,2.77-.2-.2-.424-.4-.648-.624C12.391,122.672.264,106.228.114,89.285a36.656,36.656,0,0,1,.2-4.042,28.007,28.007,0,0,1,2.77-9.332c3.069-7.86,7.336-14.6,14.024-18.963.424-.276.823-.525,1.273-.774a28.591,28.591,0,0,1,5.739-2.57c.848-.3,1.722-.549,2.644-.8a30.727,30.727,0,0,1,11.029-.6c.4.05.8.1,1.2.175,1.646.273,3.343.648,5.19,1.147,1.373.374,2.795.774,4.342,1.223a5,5,0,0,0,.573.175,32.916,32.916,0,0,1,4.467,8.234.862.862,0,0,1,.1.224A53.388,53.388,0,0,1,57.231,82.9c-.174,7.81-.275,15.172,3.594,32.264" transform="translate(0.016 7.24)" fill="#26749e"/>
                <g id="Grupo_151691" data-name="Grupo 151691" transform="translate(0 95.005)" opacity="0.2">
                  <g id="Grupo_151690" data-name="Grupo 151690">
                    <g id="Grupo_151689" data-name="Grupo 151689" clip-path="url(#clip-path-3)">
                      <path id="Trazado_119689" data-name="Trazado 119689" d="M38.969,112.608a56.8,56.8,0,0,1-6.143.739,38.356,38.356,0,0,1-3.98.031,28.522,28.522,0,0,1-12.518-3.357C6.928,100.953-1.894,91.9.354,83.385c5.912,9.73,12.594,17.845,21.679,20.863,4.373,4.281,10,5.1,16.451,3.688-.346,2.078-.223,3.672.485,4.672" transform="translate(0 -83.385)" fill="#1d1d1b"/>
                    </g>
                  </g>
                </g>
                <g id="Grupo_151694" data-name="Grupo 151694" transform="translate(0.13 91.435)" opacity="0.5" style="mix-blend-mode: multiply;isolation: isolate">
                  <g id="Grupo_151693" data-name="Grupo 151693">
                    <g id="Grupo_151692" data-name="Grupo 151692" clip-path="url(#clip-path-4)">
                      <path id="Trazado_119690" data-name="Trazado 119690" d="M79.989,241.1a5.177,5.177,0,0,1-4.317-2.47c-8.534-16.868-16.294-27.574-19.563-49.482-13.425-17.965-28.5-26.8-33.162-50.829-.924-1.3-1.3-5.739-1.572-10.779C12.392,118.728.264,102.285.114,85.342c.15-.973.226-1.522.226-1.522.923,1.248,15.545-3.568,15.545-3.568,6.263,8.06,26.9,22.309,33.636,25.328-2.445,1.646-6.462,6.513-9.332,11.853a32.307,32.307,0,0,0-2.644,6.412,16.46,16.46,0,0,0-.474,2.1,9.554,9.554,0,0,0,.5,5.514,20.994,20.994,0,0,0-.375,3.568c-.524,14.3,10.156,31.041,22.682,48.234A235.826,235.826,0,0,0,79.989,241.1" transform="translate(-0.114 -80.251)" fill="#26749e"/>
                    </g>
                  </g>
                </g>
                <path id="Trazado_119691" data-name="Trazado 119691" d="M44.074,105.149l-4.619,8.276c-.162.031-.324.062-.485.084a56.8,56.8,0,0,1-6.143.739,38.354,38.354,0,0,1-3.98.031,28.526,28.526,0,0,1-12.518-3.357C6.928,101.854-1.894,92.8.354,84.286a12.374,12.374,0,0,1,2.34-4.543C9.184,74.209,15.1,76.719,20.4,88.02c4.642,2.787,7.421,6.629,8.275,11.547a22.281,22.281,0,0,1,5.882,1.008,32.256,32.256,0,0,1,4.488,1.764,49.186,49.186,0,0,1,5.027,2.81" transform="translate(0 10.719)" fill="#26749e"/>
                <path id="Trazado_119692" data-name="Trazado 119692" d="M41.338,101.953a59.566,59.566,0,0,0,13.6,1.722c3.194.125,2.479,2.564,0,2.395l-12.355.5Z" transform="translate(5.761 14.208)" fill="#e38f56"/>
                <path id="Trazado_119693" data-name="Trazado 119693" d="M63.461,111.2c.141.827-1.008,1.362-2.975.706L51.5,109.262l7.352,6.091c.606.6.777,1.14.646,1.523-.262.817-1.836.988-3.379-.1l-7.9-5.375,5.3,6.637c.595,1.129.4,1.916-.152,2.229s-1.5.131-2.37-.716l-6.435-6.6,2.733,6.516c.626,1.2.333,1.946-.262,2.078a1.54,1.54,0,0,1-1.423-.646l-4.538-5.971a16.506,16.506,0,0,1-7.14-5.667c-.041-.091-.081-.172-.112-.263a5.518,5.518,0,0,1,5.275-7.3,18.866,18.866,0,0,1,3.338.3.571.571,0,0,1,.131.021c.534.131,1.079.242,1.613.362a53.858,53.858,0,0,1,9.168,3.833,61.453,61.453,0,0,0,8.4,3.419c1.1.494,1.624,1.079,1.715,1.563" transform="translate(4.666 14.172)" fill="#fcaf75"/>
                <g id="Grupo_151697" data-name="Grupo 151697" transform="translate(38.484 123.171)" opacity="0.15">
                  <g id="Grupo_151696" data-name="Grupo 151696">
                    <g id="Grupo_151695" data-name="Grupo 151695" clip-path="url(#clip-path-5)">
                      <path id="Trazado_119694" data-name="Trazado 119694" d="M46.99,120.654a1.538,1.538,0,0,1-1.422-.646l-4.539-5.97a16.5,16.5,0,0,1-7.14-5.668c-.04-.091-.081-.171-.111-.262,3.085,2.178,6.223,4.407,8.059,4.417.807,2.28,2.854,5.144,5.153,8.129" transform="translate(-33.777 -108.106)" fill="#1d1d1b"/>
                    </g>
                  </g>
                </g>
                <g id="Grupo_151700" data-name="Grupo 151700" transform="translate(49.145 125.572)" opacity="0.15">
                  <g id="Grupo_151699" data-name="Grupo 151699">
                    <g id="Grupo_151698" data-name="Grupo 151698" clip-path="url(#clip-path-6)">
                      <path id="Trazado_119695" data-name="Trazado 119695" d="M52.02,119.078c-.565.322-1.5.131-2.37-.716l-6.435-6.6-.081-1.553a53.144,53.144,0,0,0,8.886,8.865" transform="translate(-43.134 -110.213)" fill="#1d1d1b"/>
                    </g>
                  </g>
                </g>
                <g id="Grupo_151703" data-name="Grupo 151703" transform="translate(52.312 123.787)" opacity="0.15">
                  <g id="Grupo_151702" data-name="Grupo 151702">
                    <g id="Grupo_151701" data-name="Grupo 151701" clip-path="url(#clip-path-7)">
                      <path id="Trazado_119696" data-name="Trazado 119696" d="M57.764,115.908c-.262.817-1.836.989-3.379-.1l-7.9-5.375-.574-1.785c4.175,3.4,8.4,6.869,11.85,7.262" transform="translate(-45.914 -108.646)" fill="#1d1d1b"/>
                    </g>
                  </g>
                </g>
                <g id="Grupo_151706" data-name="Grupo 151706" transform="translate(55.529 122.082)" opacity="0.15">
                  <g id="Grupo_151705" data-name="Grupo 151705">
                    <g id="Grupo_151704" data-name="Grupo 151704" clip-path="url(#clip-path-8)">
                      <path id="Trazado_119697" data-name="Trazado 119697" d="M61.335,110.438c.141.827-1.008,1.362-2.975.706L49.373,108.5l-.635-1.352c3.862,1.856,10.136,3.893,12.6,3.288" transform="translate(-48.737 -107.15)" fill="#1d1d1b"/>
                    </g>
                  </g>
                </g>
                <g id="Grupo_151709" data-name="Grupo 151709" transform="translate(55.46 139.057)" opacity="0.5" style="mix-blend-mode: multiply;isolation: isolate">
                  <g id="Grupo_151708" data-name="Grupo 151708">
                    <g id="Grupo_151707" data-name="Grupo 151707" clip-path="url(#clip-path-9)">
                      <path id="Trazado_119698" data-name="Trazado 119698" d="M157.786,188.161c-1.073,1.147-3.044,3.069-4.567,2.644-7.037-1.921-32.913-19.387-41-43.667-16.145,2.72-36.58-3.967-59.612-9.731a5.093,5.093,0,0,1-1.772,1.3.836.836,0,0,0-.1-.074,12.512,12.512,0,0,1-1.9-2.172c-.2-.374-.25-.673.025-.772,4.516-1.748,5.066-11.092,4.242-13.637.125.2.774.809.948,1.008,13.874,16.419,37.978,18.917,60.037,18.317,11.428,20.212,25.327,36.756,43.692,46.787" transform="translate(-48.676 -122.049)" fill="#26749e"/>
                    </g>
                  </g>
                </g>
                <g id="Grupo_151712" data-name="Grupo 151712" transform="translate(54.976 57.324)" opacity="0.5" style="mix-blend-mode: multiply;isolation: isolate">
                  <g id="Grupo_151711" data-name="Grupo 151711">
                    <g id="Grupo_151710" data-name="Grupo 151710" clip-path="url(#clip-path-10)">
                      <path id="Trazado_119699" data-name="Trazado 119699" d="M126.6,52.184l-.05.224a5.079,5.079,0,0,0-.6.125c-.549.149-1.1.349-1.673.548-.6.226-1.122.45-1.646.675A58.436,58.436,0,0,0,117.1,56.8c-1.273.774-2.6,1.571-3.918,2.42C100.1,67.331,61.5,77.162,52.819,73.893c-1.9,4.091-.723,2.569-2.3,9.232-.025,0-.8-2.12-1.122-2.994l-1.148-12.2C61,72,74.2,70.325,87.678,64.435c11.153-2.1,23.58-7.41,36.555-14.123.849.6,1.622,1.224,2.371,1.872" transform="translate(-48.252 -50.313)" fill="#26749e"/>
                    </g>
                  </g>
                </g>
                <path id="Trazado_119700" data-name="Trazado 119700" d="M118.7,45.2c-3.082.6-5.1,3.951-3.689,5.934,1.091.684,1.973,2.621,2.823,4.748.866,1.892,2.534,1.38,2.566-.866l-.353-3.175c.829-2.008,1.575-3.337,4.425-3.866,1.675-.325,5.1,1.567,8.085,2.9,1.892.77,3.016-.28,2.117-1.635l2.952,1.355c2.578,1.335,3.368.185,2.5-1.2,2.276.641,3.785-.77,1.861-1.7a50.915,50.915,0,0,0-12.222-3.175c-4.907.074-8.926-.516-11.067.673" transform="translate(15.963 6.194)" fill="#fcaf75"/>
                <path id="Trazado_119701" data-name="Trazado 119701" d="M12.885,59.558a78.346,78.346,0,0,0,3.034-13.569l17.675,7.572L31.037,65.087c-3.015,11.342-20.672,3.281-18.152-5.529" transform="translate(1.761 6.409)" fill="#fcaf75"/>
                <g id="Grupo_151715" data-name="Grupo 151715" transform="translate(17.615 53.839)" opacity="0.1">
                  <g id="Grupo_151714" data-name="Grupo 151714">
                    <g id="Grupo_151713" data-name="Grupo 151713" clip-path="url(#clip-path-11)">
                      <path id="Trazado_119702" data-name="Trazado 119702" d="M35.312,55.521c-.755,4.336,4.322,20.318-2.111,23.287C24.862,82.556,13.684,58.84,15.7,54.1l5.816-6.844Z" transform="translate(-15.46 -47.254)"/>
                    </g>
                  </g>
                </g>
                <path id="Trazado_119703" data-name="Trazado 119703" d="M24.865,28.308c-8.166.084-12.829,4.057-13.144,12.861C11.955,50.424,14.795,58.591,22,63.626,25.5,66.587,31.488,68.3,36.011,66.7c4.687-1.661,4.52-11.341,5.227-20.245,1.208-8.994-7.184-15.684-16.374-18.142" transform="translate(1.633 3.945)" fill="#fcaf75"/>
                <path id="Trazado_119704" data-name="Trazado 119704" d="M40.858,41.621c-1.846,4.5-10.487,9.465-18.394,5.9l-.921,7.345L18.01,53.029c-.877,2.221-1.764,4.391-3.251,3.6L13.546,54.87C8.686,47.6,8.181,34.107,18.52,29.064,30.674,24.258,42.308,35.2,40.858,41.621" transform="translate(1.422 3.885)"/>
                <path id="Trazado_119705" data-name="Trazado 119705" d="M16.341,53.536a7.292,7.292,0,0,1-1.98-2.393,3.427,3.427,0,0,1-.041-3.018,2.268,2.268,0,0,1,2.636-1.136,2.523,2.523,0,0,1,1.411,1.555,7.476,7.476,0,0,1,.335,2.134q.06.983.117,1.965a1.728,1.728,0,0,1-.269,1.293,1.142,1.142,0,0,1-1.156.251,2.986,2.986,0,0,1-1.053-.652" transform="translate(1.949 6.533)" fill="#fcaf75"/>
                <g id="Grupo_151718" data-name="Grupo 151718" transform="translate(23.028 47.335)" opacity="0.1">
                  <g id="Grupo_151717" data-name="Grupo 151717">
                    <g id="Grupo_151716" data-name="Grupo 151716" clip-path="url(#clip-path-12)">
                      <path id="Trazado_119706" data-name="Trazado 119706" d="M20.211,46.27,20.445,49c6.809,7.08,16.53,6.972,19.141,3.314l.538-10.768Z" transform="translate(-20.211 -41.545)"/>
                    </g>
                  </g>
                </g>
                <path id="Trazado_119707" data-name="Trazado 119707" d="M10.209,43.361c2.613,3.932,6.866,6.192,13.7,5.824l17.4-8.432c-.755-7.568-8.185-14.292-17.851-13.512-9.233.746-13.346,7.244-13.247,16.12" transform="translate(1.422 3.788)" fill="#26749e"/>
                <path id="Trazado_119708" data-name="Trazado 119708" d="M21.522,47.681a44.921,44.921,0,0,0,11.645,3.387,7.391,7.391,0,0,0,4.572-.777c4.334-2.6,7.165-4.445,10-5.65.8-.342.94-1.122.051-1.756-1.475-1.053-4.508-2.609-8.2-4.686-5.668.914-11.718,4.6-18.064,9.482" transform="translate(2.999 5.323)" fill="#11587f"/>
                <path id="Trazado_119709" data-name="Trazado 119709" d="M77.4,134.813c24.664-54.548,20.743-54.149-41.14-24.782,64.919-30.809,65.222-32.543,9.814-56.083,55.408,23.539,56.281,22.257,28.191-41.46,28.09,63.717,29.825,63.74,56.111.754-22.469,53.838-24.8,62.9,15.346,58.783.019.183.011.368.044.549-36.965,6.355-32.954,12.59,8.518,44.1-49.254-36.834-49.715-33.7-34.373,21.364-15.389-55.234-17.43-57.63-42.478-3.223Z" transform="translate(5.053 1.74)" fill="#f39200"/>
                <path id="Trazado_119710" data-name="Trazado 119710" d="M89.646,86.409a9.4,9.4,0,0,1,5.841-2.116,8.412,8.412,0,0,1,5.444,1.929,9.19,9.19,0,0,1,1.029-1.732,8.212,8.212,0,0,1,6.722-3.188,11.339,11.339,0,0,1,1.235.071,10.1,10.1,0,0,1,2.991-11.523,14.355,14.355,0,0,1-7.349-5.472,14.991,14.991,0,0,1-2.377-7.6A10.713,10.713,0,0,1,96.686,59a10.6,10.6,0,0,1-5.861-1.779,10.721,10.721,0,0,1-1.661,5.093,9.268,9.268,0,0,1-6.146,4.006,10.671,10.671,0,0,1,1.765,5.659,11.472,11.472,0,0,1-2.771,7.5,9,9,0,0,1,6.366,4,9.835,9.835,0,0,1,1.268,2.926" transform="translate(11.429 7.913)" fill="#fcea10"/>
                <path id="Trazado_119711" data-name="Trazado 119711" d="M92.485,78.439a4.895,4.895,0,0,1,3.041-1.1,4.389,4.389,0,0,1,2.835,1,4.768,4.768,0,0,1,.537-.9,4.275,4.275,0,0,1,3.5-1.66,6.012,6.012,0,0,1,.644.036,5.258,5.258,0,0,1,1.556-6,7.465,7.465,0,0,1-3.826-2.848,7.81,7.81,0,0,1-1.238-3.955,5.58,5.58,0,0,1-3.382,1.154,5.52,5.52,0,0,1-3.051-.926,5.591,5.591,0,0,1-.865,2.652,4.823,4.823,0,0,1-3.2,2.086,5.55,5.55,0,0,1,.918,2.946,5.962,5.962,0,0,1-1.442,3.906,4.689,4.689,0,0,1,3.314,2.084,5.11,5.11,0,0,1,.661,1.523" transform="translate(12.334 8.781)" fill="#fff"/>
                <path id="Trazado_119712" data-name="Trazado 119712" d="M121.564,124.138V277.978l-6.164-3.559V120.579Z" transform="translate(16.082 16.803)" fill="#878787"/>
                <path id="Trazado_119713" data-name="Trazado 119713" d="M127.729,121.015l-6.164,3.559-6.164-3.559,6.164-3.559Z" transform="translate(16.082 16.368)" fill="#706f6f"/>
                <path id="Trazado_119714" data-name="Trazado 119714" d="M121.564,124.138V277.978l-6.164-3.559V120.579Z" transform="translate(16.082 16.803)" fill="#878787"/>
                <path id="Trazado_119715" data-name="Trazado 119715" d="M115.4,274.419V120.579l6.164,3.559V277.978Z" transform="translate(16.082 16.804)" fill="#878787"/>
                <path id="Trazado_119716" data-name="Trazado 119716" d="M115.4,120.579V274.418l6.165,3.559V124.138Z" transform="translate(16.082 16.803)" fill="#706f6f"/>
                <path id="Trazado_119717" data-name="Trazado 119717" d="M126.975,274.419V120.579l-6.164,3.559V277.978Z" transform="translate(16.836 16.804)" fill="#dadada"/>
                <g id="Grupo_151721" data-name="Grupo 151721" transform="translate(131.482 99.629)" style="mix-blend-mode: multiply;isolation: isolate">
                  <g id="Grupo_151720" data-name="Grupo 151720">
                    <g id="Grupo_151719" data-name="Grupo 151719" clip-path="url(#clip-path-13)">
                      <path id="Trazado_119718" data-name="Trazado 119718" d="M127.729,87.443v56.877l-6.164,3.558-6.165-3.558V87.443Z" transform="translate(-115.4 -87.443)" fill="#dadada"/>
                    </g>
                  </g>
                </g>
                <path id="Trazado_119719" data-name="Trazado 119719" d="M125.678,126.746V57.016l6.244-14.9v84.626Z" transform="translate(17.514 5.87)" fill="#b2b2b2"/>
                <path id="Trazado_119720" data-name="Trazado 119720" d="M113.615,86.108,92.543,73.969v57.55l21.072,12.139Z" transform="translate(12.896 10.308)" fill="#706f6f"/>
                <path id="Trazado_119721" data-name="Trazado 119721" d="M148.539,65.616l-37.5,21.656v57.55l37.5-21.656Z" transform="translate(15.474 9.144)" fill="#dadada"/>
                <path id="Trazado_119722" data-name="Trazado 119722" d="M113.615,88.741,92.543,76.6l37.73-21.524,21.072,12.139Z" transform="translate(12.896 7.676)" fill="#fff"/>
                <path id="Trazado_119723" data-name="Trazado 119723" d="M96.717,106.725c-.461-.267-.835-.05-.835.482a1.848,1.848,0,0,0,.835,1.448l9.381,5.416c.461.265.836.05.836-.483a1.844,1.844,0,0,0-.836-1.447Z" transform="translate(13.362 14.857)" fill="#3c3c3b"/>
                <path id="Trazado_119724" data-name="Trazado 119724" d="M96.717,103.938c-.461-.267-.835-.05-.835.483a1.848,1.848,0,0,0,.835,1.447l9.381,5.417c.461.267.836.05.836-.483a1.849,1.849,0,0,0-.836-1.447Z" transform="translate(13.362 14.469)" fill="#3c3c3b"/>
                <path id="Trazado_119725" data-name="Trazado 119725" d="M96.717,101.15c-.461-.267-.835-.05-.835.482a1.848,1.848,0,0,0,.835,1.448L106.1,108.5c.461.267.836.05.836-.483a1.849,1.849,0,0,0-.836-1.447Z" transform="translate(13.362 14.08)" fill="#3c3c3b"/>
                <path id="Trazado_119726" data-name="Trazado 119726" d="M96.717,98.363c-.461-.267-.835-.05-.835.482a1.848,1.848,0,0,0,.835,1.448l9.381,5.417c.461.267.836.05.836-.483a1.849,1.849,0,0,0-.836-1.447Z" transform="translate(13.362 13.692)" fill="#3c3c3b"/>
                <path id="Trazado_119727" data-name="Trazado 119727" d="M96.717,95.576c-.461-.267-.835-.05-.835.482a1.848,1.848,0,0,0,.835,1.448l9.381,5.417c.461.265.836.05.836-.483a1.849,1.849,0,0,0-.836-1.447Z" transform="translate(13.362 13.303)" fill="#3c3c3b"/>
                <path id="Trazado_119728" data-name="Trazado 119728" d="M96.717,92.788c-.461-.267-.835-.05-.835.483a1.848,1.848,0,0,0,.835,1.447l9.381,5.416c.461.267.836.05.836-.483A1.849,1.849,0,0,0,106.1,98.2Z" transform="translate(13.362 12.915)" fill="#3c3c3b"/>
                <path id="Trazado_119729" data-name="Trazado 119729" d="M96.717,90c-.461-.267-.835-.05-.835.482a1.848,1.848,0,0,0,.835,1.448l9.381,5.416c.461.267.836.05.836-.483a1.849,1.849,0,0,0-.836-1.447Z" transform="translate(13.362 12.526)" fill="#3c3c3b"/>
                <path id="Trazado_119730" data-name="Trazado 119730" d="M70.4,72l25.226,2.248v57.55L70.4,129.546Z" transform="translate(9.811 10.033)" fill="#9d9d9c"/>
                <path id="Trazado_119731" data-name="Trazado 119731" d="M136.152,110.6a5.627,5.627,0,0,0,2.4-4.1V86.018c0-1.314-.94-1.771-2.186-1.063l-13.935,7.9c-.072.041-.144.085-.215.132a5.625,5.625,0,0,0-2.4,4.1V117.57c0,1.313.94,1.769,2.188,1.062l13.984-7.925Z" transform="translate(16.697 11.793)" fill="#fff"/>
                <path id="Trazado_119732" data-name="Trazado 119732" d="M136.124,86.034l-13.937,7.9a2.956,2.956,0,0,0-1.377,2.232v20.484c0,.687.5.931,1.153.561l13.935-7.9a2.949,2.949,0,0,0,1.378-2.231V86.595c0-.687-.5-.931-1.153-.561" transform="translate(16.836 11.965)" fill="#f9b233"/>
                <path id="Trazado_119733" data-name="Trazado 119733" d="M128.285,92.88l4.184,6.282-4.24,2.016,4.24,7.139-8.576-7.4,5.02-2.042-4.267-4.029Z" transform="translate(17.265 12.943)" fill="#1d1d1b"/>
                <path id="Trazado_119734" data-name="Trazado 119734" d="M115.822,2.954l-5.633,15.373a.689.689,0,1,1-1.276-.468l5.633-15.372c.273-.466,1.379.034,1.276.467" transform="translate(15.17 0.321)" fill="#b2b2b2"/>
                <path id="Trazado_119735" data-name="Trazado 119735" d="M108.75,15.208a1.082,1.082,0,0,0-.692.361.705.705,0,0,0-.079.126c-.006.015-.031.087-.031.087l-.832,2.271a1,1,0,0,1,.751-.452,2.964,2.964,0,0,1,2.521.924.969.969,0,0,1,.268.875s.843-2.287.843-2.287l.047-.131a.438.438,0,0,0,.017-.106,1.053,1.053,0,0,0-.292-.744,2.968,2.968,0,0,0-2.523-.924" transform="translate(14.927 2.115)" fill="#e05a00"/>
                <path id="Trazado_119736" data-name="Trazado 119736" d="M111.859,20.646l-3.345,9.13a2.959,2.959,0,0,1-3.8,1.76l-.057-.021a2.959,2.959,0,0,1-1.76-3.8l3.345-9.13a2.959,2.959,0,0,1,3.8-1.76l.057.021a2.959,2.959,0,0,1,1.76,3.8" transform="translate(14.315 2.32)" fill="#e05a00"/>
                <path id="Trazado_119737" data-name="Trazado 119737" d="M110.909,17.761c.656.786.371,1.565-.638,1.741a3.549,3.549,0,0,1-3.016-1.105c-.656-.786-.371-1.565.638-1.741a3.55,3.55,0,0,1,3.016,1.105" transform="translate(14.898 2.316)" fill="#e05a00"/>
                <path id="Trazado_119738" data-name="Trazado 119738" d="M108.4,17.552,105.049,26.7a1.1,1.1,0,0,1-.763.637l-.059.01c-.312.055-.477-.142-.368-.441l3.353-9.151a1.1,1.1,0,0,1,.763-.638l.059-.01c.312-.055.477.144.368.441" transform="translate(14.469 2.383)" fill="#ff8521"/>
                <path id="Trazado_119739" data-name="Trazado 119739" d="M111.056,19.284,107.7,28.435a.3.3,0,0,1-.566.1l-.038-.046a1.1,1.1,0,0,1-.171-.981l3.353-9.151a.3.3,0,0,1,.566-.1l.038.046a1.1,1.1,0,0,1,.171.98" transform="translate(14.894 2.522)" fill="#ff8521"/>
                <path id="Trazado_119740" data-name="Trazado 119740" d="M109.894,18.035l-3.415,9.479a.446.446,0,0,1-.618.22.537.537,0,0,1-.375-.636l3.415-9.479a.448.448,0,0,1,.618-.221.537.537,0,0,1,.375.637" transform="translate(14.697 2.418)" fill="#ff8521"/>
                <path id="Trazado_119741" data-name="Trazado 119741" d="M114.255,4.569l-.608-.728.411-2.283L115.194,0l.608.728-.545,2.266Z" transform="translate(15.837)" fill="#b2b2b2"/>
                <path id="Trazado_119742" data-name="Trazado 119742" d="M114.583,4.552c-.41.663-.791.149-.608-.728l.411-2.283L115.154,0l.608.728-.177,2.249Z" transform="translate(15.877)" fill="#565656"/>
              </g>
            </g>
          </g>
        </g>
        <rect id="Rectángulo_34047" data-name="Rectángulo 34047" width="264" height="315" transform="translate(1019.823 656)" fill="none"/>
      </g>
    </g>
  </g>
</svg>
