<svg xmlns="http://www.w3.org/2000/svg" xmlns:xlink="http://www.w3.org/1999/xlink" width="505" height="338" viewBox="0 0 505 338">
  <defs>
    <clipPath id="clip-path">
      <path id="Trazado_118991" data-name="Trazado 118991" d="M0,0H198.879V233.087H0Z" fill="none"/>
    </clipPath>
    <clipPath id="clip-path-2">
      <rect id="Rectángulo_33856" data-name="Rectángulo 33856" width="241.776" height="285.652" fill="none"/>
    </clipPath>
  </defs>
  <g id="Grupo_152215" data-name="Grupo 152215" transform="translate(-915 -380)">
    <rect id="Rectángulo_33857" data-name="Rectángulo 33857" width="420" height="338" transform="translate(1000 380)" fill="#d3e6ff"/>
    <g id="Grupo_80161" data-name="Grupo 80161" transform="translate(915 412.503)">
      <rect id="Rectángulo_33833" data-name="Rectángulo 33833" width="170.315" height="232.908" transform="translate(0 -0.003)" fill="#25ffff"/>
      <rect id="Rectángulo_33834" data-name="Rectángulo 33834" width="155.8" height="220.206" transform="translate(7.257 6.282)" fill="#f3faff"/>
      <g id="Grupo_80160" data-name="Grupo 80160" transform="translate(0 -0.003)">
        <g id="Enmascarar_grupo_51" data-name="Enmascarar grupo 51" transform="translate(0 0)" clip-path="url(#clip-path)">
          <path id="Trazado_118966" data-name="Trazado 118966" d="M276.613,0V7.931a7.93,7.93,0,0,0,7.927,7.934h42.576a7.93,7.93,0,0,0,7.926-7.934V0Z" transform="translate(-223.756 0.003)" fill="#ad84ff"/>
          <rect id="Rectángulo_33835" data-name="Rectángulo 33835" width="19.276" height="1.951" transform="translate(25.343 195.321)" fill="#aec3ff"/>
          <rect id="Rectángulo_33836" data-name="Rectángulo 33836" width="19.276" height="1.951" transform="translate(49.083 195.321)" fill="#aec3ff"/>
          <rect id="Rectángulo_33837" data-name="Rectángulo 33837" width="26.734" height="1.951" transform="translate(25.343 199.65)" fill="#aec3ff"/>
          <path id="Trazado_118967" data-name="Trazado 118967" d="M652.477,341.829H624.3V313.651h28.178ZM625.626,340.5H651.15V314.978H625.626Z" transform="translate(-505.003 -253.716)" fill="#afcdfb"/>
          <path id="Trazado_118968" data-name="Trazado 118968" d="M656.457,315.713a1.99,1.99,0,0,1-1.534-.722l-8.7-10.519a1.991,1.991,0,1,1,3.069-2.537l6.9,8.342,12.475-20.938a1.991,1.991,0,1,1,3.421,2.038l-13.921,23.364a1.99,1.99,0,0,1-1.558.966c-.051,0-.1.006-.153.006" transform="translate(-522.372 -233.263)" fill="#ad84ff"/>
          <rect id="Rectángulo_33838" data-name="Rectángulo 33838" width="62.599" height="2.749" transform="translate(34.951 64.094)" fill="#a8cff0"/>
          <rect id="Rectángulo_33839" data-name="Rectángulo 33839" width="57.691" height="2.749" transform="translate(34.951 76.374)" fill="#a8cff0"/>
          <rect id="Rectángulo_33840" data-name="Rectángulo 33840" width="17.064" height="2.749" transform="translate(80.486 70.234)" fill="#a8cff0"/>
          <rect id="Rectángulo_33841" data-name="Rectángulo 33841" width="40.806" height="2.749" transform="translate(34.951 70.234)" fill="#a8cff0"/>
          <path id="Trazado_118969" data-name="Trazado 118969" d="M95.271,336.516l-2.8.778-.578-2.223,4.179-1.333h1.912v15.67H95.271Z" transform="translate(-74.333 -269.964)" fill="#a8cff0"/>
          <path id="Trazado_118970" data-name="Trazado 118970" d="M133.132,406.374a.99.99,0,1,1,.99.99.99.99,0,0,1-.99-.99" transform="translate(-107.692 -327.919)" fill="#aec3ff"/>
          <path id="Trazado_118971" data-name="Trazado 118971" d="M653.619,562.113H625.441V533.935h28.178Zm-26.851-1.327h25.524V535.262H626.768Z" transform="translate(-505.927 -431.906)" fill="#afcdfb"/>
          <path id="Trazado_118972" data-name="Trazado 118972" d="M657.6,536a1.991,1.991,0,0,1-1.534-.722l-8.7-10.519a1.991,1.991,0,1,1,3.069-2.537l6.9,8.342,12.475-20.938a1.991,1.991,0,1,1,3.421,2.038L659.31,535.024a1.99,1.99,0,0,1-1.558.966c-.051,0-.1.006-.153.006" transform="translate(-523.297 -411.453)" fill="#ad84ff"/>
          <path id="Trazado_118973" data-name="Trazado 118973" d="M91.262,567.549l5.319-4.525c2.119-1.788,2.891-2.781,2.891-4.171a2.317,2.317,0,0,0-2.494-2.406c-1.413,0-2.384.773-3.576,2.317l-1.92-1.5c1.479-2.075,2.935-3.245,5.694-3.245,3.024,0,5.1,1.854,5.1,4.657,0,2.428-1.3,3.73-4.017,5.981l-3.178,2.649h7.349v2.384H91.262Z" transform="translate(-73.823 -448.153)" fill="#a8cff0"/>
          <path id="Trazado_118974" data-name="Trazado 118974" d="M159.322,626.723a.983.983,0,1,1,.983.983.983.983,0,0,1-.983-.983" transform="translate(-128.878 -506.168)" fill="#aec3ff"/>
          <rect id="Rectángulo_33842" data-name="Rectángulo 33842" width="65.78" height="2.749" transform="translate(35.469 106.188)" fill="#a8cff0"/>
          <rect id="Rectángulo_33843" data-name="Rectángulo 33843" width="60.623" height="2.749" transform="translate(35.469 118.467)" fill="#a8cff0"/>
          <rect id="Rectángulo_33844" data-name="Rectángulo 33844" width="17.932" height="2.749" transform="translate(83.318 112.328)" fill="#a8cff0"/>
          <rect id="Rectángulo_33845" data-name="Rectángulo 33845" width="42.88" height="2.749" transform="translate(35.469 112.328)" fill="#a8cff0"/>
          <path id="Trazado_118975" data-name="Trazado 118975" d="M653.619,784.022H625.441V755.844h28.178Zm-26.851-1.327h25.524V757.171H626.768Z" transform="translate(-505.927 -611.411)" fill="#afcdfb"/>
          <path id="Trazado_118976" data-name="Trazado 118976" d="M657.6,757.906a1.991,1.991,0,0,1-1.534-.722l-8.7-10.519a1.991,1.991,0,1,1,3.069-2.537l6.9,8.342,12.475-20.938a1.991,1.991,0,0,1,3.421,2.038L659.31,756.934a1.99,1.99,0,0,1-1.558.966c-.051,0-.1.006-.153.006" transform="translate(-523.297 -590.958)" fill="#ad84ff"/>
          <rect id="Rectángulo_33846" data-name="Rectángulo 33846" width="65.78" height="2.749" transform="translate(35.469 148.592)" fill="#a8cff0"/>
          <rect id="Rectángulo_33847" data-name="Rectángulo 33847" width="60.623" height="2.749" transform="translate(35.469 160.871)" fill="#a8cff0"/>
          <rect id="Rectángulo_33848" data-name="Rectángulo 33848" width="17.932" height="2.749" transform="translate(83.318 154.732)" fill="#a8cff0"/>
          <rect id="Rectángulo_33849" data-name="Rectángulo 33849" width="42.88" height="2.749" transform="translate(35.469 154.732)" fill="#a8cff0"/>
          <path id="Trazado_118977" data-name="Trazado 118977" d="M90.237,789.418l1.857-1.728a4.93,4.93,0,0,0,3.974,1.987,2.373,2.373,0,0,0,2.613-2.333c0-1.49-1.361-2.333-3.477-2.333H93.973l-.432-1.663,4.082-4.341H91.079V776.7h10v1.987L96.867,783c2.4.345,4.449,1.577,4.449,4.3,0,2.786-2.159,4.773-5.291,4.773a7.167,7.167,0,0,1-5.788-2.656" transform="translate(-72.994 -628.279)" fill="#a8cff0"/>
          <path id="Trazado_118978" data-name="Trazado 118978" d="M152.2,848.066a.962.962,0,1,1,.962.962.962.962,0,0,1-.962-.962" transform="translate(-123.118 -685.233)" fill="#aec3ff"/>
          <path id="Trazado_118979" data-name="Trazado 118979" d="M456.028,1010.2a11.987,11.987,0,0,1-11.709-9.544.818.818,0,0,1,1.6-.328,10.317,10.317,0,0,0,20.189.1.819.819,0,0,1,1.6.344,12.009,12.009,0,0,1-11.685,9.43" transform="translate(-359.402 -808.647)" fill="#aec3ff"/>
          <path id="Trazado_118980" data-name="Trazado 118980" d="M445,940.311a.8.8,0,0,1-.156-.015.818.818,0,0,1-.648-.959,11.954,11.954,0,0,1,23.325-.634.819.819,0,0,1-1.588.4,10.317,10.317,0,0,0-20.13.547.819.819,0,0,1-.8.663" transform="translate(-359.307 -752.021)" fill="#a8cff0"/>
          <path id="Trazado_118981" data-name="Trazado 118981" d="M433.745,937.284a16.989,16.989,0,1,1,16.989-16.989,17.009,17.009,0,0,1-16.989,16.989m0-31.651a14.662,14.662,0,1,0,14.662,14.662,14.679,14.679,0,0,0-14.662-14.662" transform="translate(-337.119 -730.694)" fill="#a8cff0"/>
          <rect id="Rectángulo_33850" data-name="Rectángulo 33850" width="6.729" height="1.077" transform="translate(93.261 187.472)" fill="#a8cff0"/>
          <rect id="Rectángulo_33851" data-name="Rectángulo 33851" width="6.729" height="1.077" transform="translate(93.261 191.88)" fill="#a8cff0"/>
          <rect id="Rectángulo_33852" data-name="Rectángulo 33852" width="9.904" height="1.077" transform="translate(91.674 189.6)" fill="#a8cff0"/>
        </g>
      </g>
    </g>
    <g id="Grupo_80166" data-name="Grupo 80166" transform="translate(1045.513 412.5)">
      <path id="Trazado_118992" data-name="Trazado 118992" d="M65.512,87.921V242.673l14.462-8.13V79.791Z" transform="translate(35.287 42.979)" fill="#e8e8e8"/>
      <path id="Trazado_118993" data-name="Trazado 118993" d="M60.783,237.1l7.276,4.2V86.546l-7.276-4.2Z" transform="translate(32.74 44.355)" fill="#bcbcbc"/>
      <path id="Trazado_118994" data-name="Trazado 118994" d="M82.52,81.256l-7.23-4.184L60.784,85.186l7.276,4.2Z" transform="translate(32.741 41.515)" fill="#fff"/>
      <path id="Trazado_118995" data-name="Trazado 118995" d="M97.3,224.935l-14.462,8.13V78.313L97.3,70.183Z" transform="translate(44.619 37.804)" fill="#e8e8e8"/>
      <path id="Trazado_118996" data-name="Trazado 118996" d="M78.107,227.489l7.276,4.2V76.937l-7.276-4.2Z" transform="translate(42.072 39.179)" fill="#a3a3a3"/>
      <path id="Trazado_118997" data-name="Trazado 118997" d="M99.844,71.648l-7.23-4.184L78.107,75.578l7.275,4.2Z" transform="translate(42.072 36.339)" fill="#fff"/>
      <path id="Trazado_118998" data-name="Trazado 118998" d="M106.764,88.691l-39.255,22.65v4.537l39.255-22.65Z" transform="translate(36.363 47.773)" fill="#bcbcbc"/>
      <path id="Trazado_118999" data-name="Trazado 118999" d="M68.357,103.925l-2.423-1.465V107l2.423,1.465Z" transform="translate(35.515 55.189)" fill="#a3a3a3"/>
      <path id="Trazado_119000" data-name="Trazado 119000" d="M107.613,89.2l-2.423-1.465-39.255,22.65,2.423,1.465Z" transform="translate(35.515 47.26)" fill="#fff"/>
      <path id="Trazado_119001" data-name="Trazado 119001" d="M106.764,161.309l-39.255,22.65V188.5l39.255-22.65Z" transform="translate(36.363 86.888)" fill="#bcbcbc"/>
      <path id="Trazado_119002" data-name="Trazado 119002" d="M68.357,176.543l-2.423-1.465v4.537l2.423,1.465Z" transform="translate(35.515 94.304)" fill="#a3a3a3"/>
      <path id="Trazado_119003" data-name="Trazado 119003" d="M107.613,161.822l-2.423-1.465-39.255,22.65,2.423,1.465Z" transform="translate(35.515 86.375)" fill="#fff"/>
      <g id="Grupo_80165" data-name="Grupo 80165">
        <g id="Grupo_80164" data-name="Grupo 80164" clip-path="url(#clip-path-2)">
          <path id="Trazado_119004" data-name="Trazado 119004" d="M68.2,105.227c0,.792.482,1.157,1.077.814a2.58,2.58,0,0,0,1.076-2.057c0-.792-.482-1.157-1.076-.814a2.577,2.577,0,0,0-1.077,2.057" transform="translate(36.735 55.502)" fill="#fff"/>
          <path id="Trazado_119005" data-name="Trazado 119005" d="M91.039,92.046c0,.792.482,1.157,1.077.814A2.58,2.58,0,0,0,93.192,90.8c0-.792-.482-1.157-1.076-.814a2.577,2.577,0,0,0-1.077,2.057" transform="translate(49.037 48.402)" fill="#fff"/>
          <path id="Trazado_119006" data-name="Trazado 119006" d="M68.2,177.9c0,.792.482,1.157,1.077.814a2.58,2.58,0,0,0,1.076-2.057c0-.792-.482-1.157-1.076-.814A2.577,2.577,0,0,0,68.2,177.9" transform="translate(36.735 94.649)" fill="#fff"/>
          <path id="Trazado_119007" data-name="Trazado 119007" d="M91.039,164.722c0,.792.482,1.157,1.077.814a2.58,2.58,0,0,0,1.076-2.057c0-.792-.482-1.157-1.076-.814a2.577,2.577,0,0,0-1.077,2.057" transform="translate(49.037 87.549)" fill="#fff"/>
          <path id="Trazado_119008" data-name="Trazado 119008" d="M100.8,149.461C94.2,135.334,77.72,101.745,77.555,101.408l1.106-.543c.166.337,16.651,33.938,23.249,48.075Z" transform="translate(41.774 54.33)" fill="#3a3a3a"/>
          <rect id="Rectángulo_33855" data-name="Rectángulo 33855" width="1.231" height="54.313" transform="translate(124.937 152.392) rotate(-23.01)" fill="#3a3a3a"/>
          <path id="Trazado_119009" data-name="Trazado 119009" d="M81.486,104.269a2.332,2.332,0,0,1-.617-.08,12.442,12.442,0,0,1-1.769-.539l1.656-.942a.753.753,0,0,0,.46.3,2.488,2.488,0,0,0,1.808-.526c2.04-1.259.823-4.794-.215-6.684-.945-1.716-2.385-2.466-2.671-2.348a.745.745,0,0,0-.04.282v2.013l-1.231.711V93.731a1.346,1.346,0,0,1,.969-1.476c1.168-.3,2.991,1.02,4.051,2.948,1.552,2.82,2.426,6.695-.215,8.326a4.261,4.261,0,0,1-2.185.74" transform="translate(42.48 49.67)" fill="#9b8e83"/>
          <path id="Trazado_119010" data-name="Trazado 119010" d="M81.119,104.5a2.331,2.331,0,0,1-.617-.08,1.974,1.974,0,0,1-1.2-.892l1.085-.583a.794.794,0,0,0,.466.294,2.487,2.487,0,0,0,1.808-.526c2.04-1.259.825-4.794-.215-6.684-.945-1.716-2.385-2.466-2.671-2.348a.746.746,0,0,0-.04.282v1.985l-1.231.711v-2.7a1.346,1.346,0,0,1,.969-1.476c1.168-.3,2.991,1.02,4.051,2.948,1.552,2.82,2.426,6.695-.217,8.326a4.252,4.252,0,0,1-2.183.74" transform="translate(42.283 49.794)" fill="#e8e8e8"/>
          <path id="Trazado_119011" data-name="Trazado 119011" d="M78.2,106.194a2.331,2.331,0,0,1-.617-.08,12.369,12.369,0,0,1-1.769-.539l1.656-.942a.753.753,0,0,0,.46.3,2.488,2.488,0,0,0,1.808-.526c2.04-1.259.823-4.794-.215-6.684-.945-1.716-2.385-2.466-2.671-2.348a.745.745,0,0,0-.04.282v2.013l-1.231.711V95.655a1.346,1.346,0,0,1,.969-1.476c1.168-.3,2.991,1.02,4.051,2.948,1.552,2.82,2.426,6.695-.215,8.326a4.261,4.261,0,0,1-2.185.74" transform="translate(40.711 50.706)" fill="#9b8e83"/>
          <path id="Trazado_119012" data-name="Trazado 119012" d="M77.833,106.424a2.332,2.332,0,0,1-.617-.08,1.974,1.974,0,0,1-1.2-.892l1.085-.583a.794.794,0,0,0,.466.294,2.489,2.489,0,0,0,1.808-.526c2.04-1.259.825-4.794-.215-6.684-.945-1.716-2.385-2.466-2.671-2.348a.745.745,0,0,0-.04.282V97.87l-1.231.711v-2.7a1.346,1.346,0,0,1,.969-1.476c1.168-.3,2.991,1.02,4.051,2.948,1.552,2.82,2.426,6.695-.217,8.326a4.252,4.252,0,0,1-2.183.74" transform="translate(40.513 50.83)" fill="#e8e8e8"/>
          <path id="Trazado_119013" data-name="Trazado 119013" d="M105.5,121.945c-3.476-1.826-10.792-5.748-11.531-6.482,0,0-.652-3.033-1.211-5.4s-2.294-2.888-3.773-3.617-2.363.229-1.837,1.788a11.054,11.054,0,0,0,1.7,2.828c.428.775.954,2.348.751,2.219s-2.28-.979-2.723-.559.375,1.146,1.117,1.526.875,2.091,2.173,3.156A10.846,10.846,0,0,0,92.88,119a26.173,26.173,0,0,0,10.037,9.216s6.064-4.45,2.588-6.276" transform="translate(46.727 57.202)" fill="#3a3a3a"/>
          <path id="Trazado_119014" data-name="Trazado 119014" d="M94.562,120.165l-4.537-3.831s1-3.282,3.44-4.173c1.6-.585,6.944,3.44,6.944,3.44Z" transform="translate(48.491 60.383)" fill="#0f58b9"/>
          <path id="Trazado_119015" data-name="Trazado 119015" d="M98.3,122.811c-3.463-.717-7.269-1.674-8.436-1.916-2.8-3.685-8.609-6.632-10.078-8.267-.6-1.1-.9-3.131-1.651-4.748s-1.362-.565-1.423.652.189,2.32-.585,2.157-2.328-1.625-5.147-1.492-4.1,3.168-1,4.961a62.507,62.507,0,0,0,8.244,3.751,89.289,89.289,0,0,1,7.478,8.047c1.1,1.628,1.839,1.112,3.21,1.549s6.678,2.242,8.643,2.073.751-6.767.751-6.767" transform="translate(36.724 57.664)" fill="#3a3a3a"/>
          <path id="Trazado_119016" data-name="Trazado 119016" d="M100.16,112.588s6.855-5.867,10.806.9c3.065,5.251,1.38,10.367-1.956,12.723s-8.85-13.628-8.85-13.628" transform="translate(53.95 59.374)" fill="#0f58b9"/>
          <path id="Trazado_119017" data-name="Trazado 119017" d="M100.931,170.145c1.943-4.57,1.882-13.326,1.288-16.1-3.4-.648-7.63-.915-10.2.4.246,2.959.008,3.4.12,5.524a64.079,64.079,0,0,1,.063,6.745c-2.168-2.4-6.2-1.5-6.77,1.468-.142.737.554,4.091,1.179,4.644,3.328,2.943,5.795,1.889,7.387,1.8a5.41,5.41,0,0,0,6.361,1.008c.7-.439,1.094-4.687.574-5.491" transform="translate(46.006 82.687)" fill="#3a3a3a"/>
          <path id="Trazado_119018" data-name="Trazado 119018" d="M80.855,155.831a62.482,62.482,0,0,0-2.4,7.278c-1.8-1.359-3.356-3.1-5.441-2.614-2.189.509-2.871,2.139-2.98,3.936a10.332,10.332,0,0,0,2.459,3.845,25.77,25.77,0,0,0,5.516,3.831c1.165,1.346,2.979,2.7,4.745,2.4,1.817-.3,2.819-.731,2.925-2.6.174-3.113,1.025-4.077,2.634-8.975,1.359-4.131-6.379-9.44-7.455-7.109" transform="translate(37.722 83.63)" fill="#3a3a3a"/>
          <path id="Trazado_119019" data-name="Trazado 119019" d="M117.488,132.4a19.972,19.972,0,0,1,1.5,9.783,8.308,8.308,0,0,1-6.048,7,48.164,48.164,0,0,1-6.805,4.961,60.289,60.289,0,0,1-6.83,3.293s1.146.557.528,2.142a9.793,9.793,0,0,1,1.976,6.082c.132,5.247-.923,12.685-2.248,15.856-.408.979-2.623.66-4.7.032a6.189,6.189,0,0,1-4.027-3.465c-.755-2.3-1.171-18.187-2.085-20.462-1.219-3.04-1.352-4.288,1.746-7.036,1.679-1.486,12.1-9.612,12.1-9.612Z" transform="translate(47.372 71.317)" fill="#efb000"/>
          <path id="Trazado_119020" data-name="Trazado 119020" d="M99.766,142.958s4.167,3.4,8.956.935c3.873-1.993,4.319-4.765,4.319-4.765s1.016,4.091-4.816,6.967a10.437,10.437,0,0,1-9.42.068Z" transform="translate(53.221 74.94)" fill="#3a3a3a"/>
          <path id="Trazado_119021" data-name="Trazado 119021" d="M101.026,132.4s-5.247,2.2-9.412,4.256a35.916,35.916,0,0,0-9.349,7.278c-1.159,1.182-3.42,2.433-3.42,5.808A96.1,96.1,0,0,1,77.3,163.994c-.766,4.776-1.8,11.431-1.8,11.431s-.268,6.512,8.05,6.728c1.963-.615,4.733-11.954,5.314-14.454,1.142-4.917,2.173-9.73.7-11.557,1.617-1.222-.185-2.386-.185-2.386s3.548-.931,7-1.6,7.493-.492,10.077-2c1.908,1.2,7.482.585,10.184-3.813,3.39-5.518,2.623-9.223,1.8-9.252s-17.416-4.684-17.416-4.684" transform="translate(40.669 71.317)" fill="#fcd308"/>
          <path id="Trazado_119022" data-name="Trazado 119022" d="M97.2,117.047l2.977,4.682c2.456-.06,4.982-2.106,6.742-4.285-.594-.908-2.908-3.474-2.825-4.4,1.626-2.093,1-4.51-.5-7.362-1.572-2.988-5.739-4.334-8.883-3.183A4.129,4.129,0,0,0,91.5,105.59c-.551,2.613.2,7.95,1.985,9.747,1.243,1.252,2.093,1.78,3.711,1.709" transform="translate(49.191 54.988)" fill="#ffc9b6"/>
          <path id="Trazado_119023" data-name="Trazado 119023" d="M107.616,108.2a5.851,5.851,0,0,0-1.817-5.688c-1.976-1.829-6.075-3.345-8.636-1.865a1.3,1.3,0,0,0-.031-.232,1.608,1.608,0,0,0-2.173-.839,4.056,4.056,0,0,0-1.748,1.265,1.92,1.92,0,0,0-1.243-.385c-1.536.115-2.773,3-.057,5.245-1.282,2,1.109,4.462,4.017,4.716-.579,1.308-.16,2.257.631,3.5,1.236,1.937,4.59,3.653,6.816,3.333,2.52-.362,4.359-3.039,5.036-5.618a3.791,3.791,0,0,0-.8-3.43" transform="translate(48.645 53.57)" fill="#3a3a3a"/>
          <path id="Trazado_119024" data-name="Trazado 119024" d="M93.211,106.988a1.257,1.257,0,0,1,2.174.06c1.163,1.479-1.586,3.84-1.586,3.84Z" transform="translate(50.207 57.297)" fill="#ffc9b6"/>
          <path id="Trazado_119025" data-name="Trazado 119025" d="M110.489,111.129c-2.854.26-2.828.771-9.338,3.06a50.2,50.2,0,0,0-6.09,2.263c-2.988,1.663-3.479,3.39-3.713,5.193-.342,2.633-.411,4.77.025,10.263.554,6.993,2.7,9.281,2.7,9.281s-1.069,1.356-1.926,2.222c-.7.7.519,1.526,1.682,2.859,2.431,2.78,9.927,8.9,20.806,1.762a6.137,6.137,0,0,0,2.968-4.811c1.086-6.8.038-12.963.054-17.465.026-6.792-4.664-14.854-7.167-14.626" transform="translate(49.054 59.856)" fill="#0f58b9"/>
          <path id="Trazado_119026" data-name="Trazado 119026" d="M106.386,117.431s-1.846-1.429-5.218-.186a15.813,15.813,0,0,0-4.71,2.437s-6.5-1.6-8.144-1.848c-3.317-3.582-7.075-5.681-10.141-7.6a13.192,13.192,0,0,0-4.481,5.942c2.336,3.339,7.312,8.007,9.907,10.28,4.356,2.3,18.481,6.785,20.124,6.055,8.127-3.614,4.331-12.318,2.662-15.076" transform="translate(39.694 59.374)" fill="#0f58b9"/>
          <path id="Trazado_119027" data-name="Trazado 119027" d="M95.366,115.246s2.446,1.045,7.25-.611,3.53-3.285,3.53-3.285a11.728,11.728,0,0,0-5.167,1.3c-2.925,1.411-5.613,2.6-5.613,2.6" transform="translate(51.368 59.976)" fill="#0f58b9"/>
          <path id="Trazado_119028" data-name="Trazado 119028" d="M90.674,133.216a24.743,24.743,0,0,0,6.676,5.674c5.778,3.208,10.026,2.548,11.978,2.182a10.658,10.658,0,0,0,3.664-1.392l.109-2.18s-8.047,1.6-11.037.774-10.778-5.65-10.778-5.65Z" transform="translate(48.841 71.437)" fill="#efb000"/>
          <path id="Trazado_119029" data-name="Trazado 119029" d="M92.457,136.255a10.224,10.224,0,0,0,7.321-.037c3.608-1.585,7.082-4.69,6.876-10.812a108.559,108.559,0,0,0,10.167-4.193c.719,3.016.769,5.356,1.682,8.829s.86,6.745-1.079,8.729c-1.345,3.588-6.024,6.644-11.911,6.628a18.387,18.387,0,0,1-10.837-3.457c-3.617-2.268-2.771-1.622-3-2.65-.534-2.362.783-3.037.783-3.037" transform="translate(49.311 65.29)" fill="#fcd308"/>
          <path id="Trazado_119030" data-name="Trazado 119030" d="M94.469,114.511a12.871,12.871,0,0,1,6.472,5.442A37.459,37.459,0,0,1,105.052,131l1.8-.962s-1.911-8.25-4.774-12.006-5.534-4.367-5.534-4.367Z" transform="translate(50.885 61.224)" fill="#fcd308"/>
          <path id="Trazado_119031" data-name="Trazado 119031" d="M102.372,111.451s2.685.483,4.884,6.728a37.858,37.858,0,0,1,2.33,10.214l1.639-.7s-1.034-7.113-2.693-10.977c-1.814-4.227-4.568-5.565-4.568-5.565Z" transform="translate(55.142 59.873)" fill="#fcd308"/>
          <path id="Trazado_119032" data-name="Trazado 119032" d="M84.846,147.222a5.55,5.55,0,0,1-2.788-.474,3.652,3.652,0,0,1-1.926-2.265s3.705,1.18,4.714,2.739" transform="translate(43.162 77.825)" fill="#efb000"/>
          <path id="Trazado_119033" data-name="Trazado 119033" d="M85.4,147.544a5.549,5.549,0,0,1-2.573,1.177,3.653,3.653,0,0,1-2.867-.789s3.728-1.109,5.439-.388" transform="translate(43.072 79.342)" fill="#efb000"/>
          <path id="Trazado_119034" data-name="Trazado 119034" d="M105.982,101.61s-9.335-7.9-14.926-1.219c-4.271,5.1,6.122,12.425,6.122,12.425Z" transform="translate(48.491 52.631)" fill="#ffbc15"/>
          <path id="Trazado_119035" data-name="Trazado 119035" d="M93.27,101.855a9.136,9.136,0,0,1,11.9-2.843c6.184,3.568,4.928,12.7,1.776,15.265a9.941,9.941,0,0,1-10.975-1.1c-4-3.791-4.542-8.616-2.7-11.32" transform="translate(49.695 52.712)" fill="#ffd140"/>
          <path id="Trazado_119036" data-name="Trazado 119036" d="M92.517,101.65s-.209,4.847,4.81,8.676c4.271,3.259,10.61.857,10.61.857l-1.589,1.789s-5.011,1.6-9.021-.785c-4.908-2.913-5.759-6.988-4.81-10.538" transform="translate(49.649 54.753)" fill="#ffa300"/>
          <path id="Trazado_119037" data-name="Trazado 119037" d="M101.117,100.5c4.39,2.017,5.2,7.19,4.077,11.417-7.312,1.252-12.357-4.467-11.963-8.061.382-3.565,5.1-4.637,7.886-3.356" transform="translate(50.207 53.855)" fill="#ffbc15"/>
          <path id="Trazado_119038" data-name="Trazado 119038" d="M106.78,111.515s.165-6.025-3.334-9.9c-3.562-3.942-7.379-3.214-7.379-3.214s3.376-2.385,8.186,1.476c5.621,4.51,2.528,11.634,2.528,11.634" transform="translate(51.745 52.613)" fill="#ffbc15"/>
          <path id="Trazado_119039" data-name="Trazado 119039" d="M88.831,134.29s2.119,2.534,4.727,9.076a30.619,30.619,0,0,1,1.969,7.658s2.793,1.046,3.857-1.4c-.583-6.232-7.935-16.5-7.935-16.5a1.9,1.9,0,0,0-2.619,1.162" transform="translate(47.848 71.62)" fill="#3a3a3a"/>
          <path id="Trazado_119040" data-name="Trazado 119040" d="M92.316,131.428l-1.642,2.433a20.71,20.71,0,0,0,13.2,6.928,18.2,18.2,0,0,0,13.438-3.6l.583-3.925a14.382,14.382,0,0,1-11.132,3.984c-7.193-.412-14.446-5.824-14.446-5.824" transform="translate(48.841 70.793)" fill="#3a3a3a"/>
          <path id="Trazado_119041" data-name="Trazado 119041" d="M95.063,108.3s-2.042,3-1.646,4.685,2.68.712,2.68.712l1.176-3.851Z" transform="translate(50.291 58.336)" fill="#3a3a3a"/>
          <path id="Trazado_119042" data-name="Trazado 119042" d="M155.989,60.733,42.925,126.01v-8.86L155.989,51.873Z" transform="translate(23.121 27.941)" fill="#a3a3a3"/>
          <path id="Trazado_119043" data-name="Trazado 119043" d="M159.452,53.872,46.388,119.149l-9.89-5.71L149.561,48.162Z" transform="translate(19.659 25.942)" fill="#bcbcbc"/>
          <path id="Trazado_119044" data-name="Trazado 119044" d="M36.5,90.587v8.859l9.89,5.711V96.3Z" transform="translate(19.659 48.794)" fill="#7f7f7f"/>
          <path id="Trazado_119045" data-name="Trazado 119045" d="M155.989,49.124,42.925,114.4v-8.859L155.989,40.264Z" transform="translate(23.121 21.688)" fill="#a3a3a3"/>
          <path id="Trazado_119046" data-name="Trazado 119046" d="M159.452,42.263,46.388,107.54l-9.89-5.71L149.561,36.553Z" transform="translate(19.659 19.689)" fill="#bcbcbc"/>
          <path id="Trazado_119047" data-name="Trazado 119047" d="M36.5,78.978v8.859l9.89,5.711V84.688Z" transform="translate(19.659 42.541)" fill="#7f7f7f"/>
          <path id="Trazado_119048" data-name="Trazado 119048" d="M140.327,120.03a.605.605,0,0,1-.308-.083L.308,39.285a.616.616,0,0,1,.617-1.066l139.71,80.662a.616.616,0,0,1-.308,1.149" transform="translate(0 20.542)" fill="#666"/>
          <path id="Trazado_119049" data-name="Trazado 119049" d="M173.96,100.386a.619.619,0,0,1-.308-.082L33.942,19.643a.616.616,0,1,1,.615-1.068l139.71,80.662a.616.616,0,0,1-.308,1.149" transform="translate(18.116 9.961)" fill="#666"/>
          <path id="Trazado_119050" data-name="Trazado 119050" d="M205.86,81.893a.619.619,0,0,1-.308-.082L65.842,1.148A.616.616,0,1,1,66.457.082l139.71,80.662a.616.616,0,0,1-.308,1.149" transform="translate(35.299 0)" fill="#666"/>
          <path id="Trazado_119051" data-name="Trazado 119051" d="M43.634,84.644h0a.867.867,0,0,1-.865-.865V69.487a.865.865,0,0,1,1.729,0V83.779a.867.867,0,0,1-.865.865" transform="translate(23.037 36.963)" fill="#3a3a3a"/>
          <path id="Trazado_119052" data-name="Trazado 119052" d="M52.232,72.5c0,2.026-2.951,3.67-6.592,3.67s-6.593-1.643-6.593-3.67,2.951-3.67,6.593-3.67,6.592,1.643,6.592,3.67" transform="translate(21.032 37.077)" fill="#4f4f4f"/>
          <path id="Trazado_119053" data-name="Trazado 119053" d="M40.408,68.834l-1.322,3.2H52.15l-1.322-3.2Z" transform="translate(21.054 37.077)" fill="#4f4f4f"/>
          <path id="Trazado_119054" data-name="Trazado 119054" d="M50.564,70.324c0,1.648-2.4,2.983-5.358,2.983s-5.358-1.336-5.358-2.983,2.4-2.983,5.358-2.983,5.358,1.336,5.358,2.983" transform="translate(21.464 36.273)" fill="#666"/>
          <path id="Trazado_119055" data-name="Trazado 119055" d="M52.232,68.772c0,2.026-2.951,3.67-6.592,3.67s-6.593-1.643-6.593-3.67S42,65.1,45.64,65.1s6.592,1.643,6.592,3.67" transform="translate(21.032 35.067)" fill="#4f4f4f"/>
          <path id="Trazado_119056" data-name="Trazado 119056" d="M40.408,65.1,39.087,68.3H52.15L50.828,65.1Z" transform="translate(21.054 35.066)" fill="#4f4f4f"/>
          <path id="Trazado_119057" data-name="Trazado 119057" d="M50.564,66.592c0,1.648-2.4,2.983-5.358,2.983s-5.358-1.336-5.358-2.983,2.4-2.983,5.358-2.983,5.358,1.336,5.358,2.983" transform="translate(21.464 34.262)" fill="#666"/>
          <path id="Trazado_119058" data-name="Trazado 119058" d="M52.232,64.885c0,2.026-2.951,3.67-6.592,3.67s-6.593-1.643-6.593-3.67,2.951-3.67,6.593-3.67,6.592,1.643,6.592,3.67" transform="translate(21.032 32.973)" fill="#4f4f4f"/>
          <path id="Trazado_119059" data-name="Trazado 119059" d="M40.408,61.215l-1.322,3.194H52.15l-1.322-3.194Z" transform="translate(21.054 32.973)" fill="#4f4f4f"/>
          <path id="Trazado_119060" data-name="Trazado 119060" d="M50.564,62.705c0,1.648-2.4,2.983-5.358,2.983s-5.358-1.336-5.358-2.983,2.4-2.983,5.358-2.983,5.358,1.336,5.358,2.983" transform="translate(21.464 32.169)" fill="#666"/>
          <path id="Trazado_119061" data-name="Trazado 119061" d="M76.756,65.331h0a.867.867,0,0,1-.865-.865V50.174a.865.865,0,1,1,1.729,0V64.466a.867.867,0,0,1-.865.865" transform="translate(40.878 26.56)" fill="#3a3a3a"/>
          <path id="Trazado_119062" data-name="Trazado 119062" d="M85.353,53.192c0,2.026-2.951,3.67-6.592,3.67s-6.593-1.643-6.593-3.67,2.953-3.67,6.593-3.67,6.592,1.643,6.592,3.67" transform="translate(38.873 26.675)" fill="#4f4f4f"/>
          <path id="Trazado_119063" data-name="Trazado 119063" d="M73.53,49.522l-1.322,3.194H85.272L83.95,49.522Z" transform="translate(38.894 26.674)" fill="#4f4f4f"/>
          <path id="Trazado_119064" data-name="Trazado 119064" d="M83.686,51.012c0,1.648-2.4,2.983-5.358,2.983s-5.358-1.336-5.358-2.983,2.4-2.983,5.358-2.983,5.358,1.336,5.358,2.983" transform="translate(39.305 25.87)" fill="#666"/>
          <path id="Trazado_119065" data-name="Trazado 119065" d="M85.353,49.46c0,2.026-2.951,3.67-6.592,3.67s-6.593-1.643-6.593-3.67,2.953-3.67,6.593-3.67,6.592,1.643,6.592,3.67" transform="translate(38.873 24.664)" fill="#4f4f4f"/>
          <path id="Trazado_119066" data-name="Trazado 119066" d="M73.53,45.789l-1.322,3.194H85.272L83.95,45.789Z" transform="translate(38.894 24.664)" fill="#4f4f4f"/>
          <path id="Trazado_119067" data-name="Trazado 119067" d="M83.686,47.28c0,1.648-2.4,2.983-5.358,2.983s-5.358-1.336-5.358-2.983,2.4-2.983,5.358-2.983,5.358,1.336,5.358,2.983" transform="translate(39.305 23.86)" fill="#666"/>
          <path id="Trazado_119068" data-name="Trazado 119068" d="M85.353,45.573c0,2.026-2.951,3.67-6.592,3.67s-6.593-1.643-6.593-3.67,2.953-3.67,6.593-3.67,6.592,1.643,6.592,3.67" transform="translate(38.873 22.571)" fill="#4f4f4f"/>
          <path id="Trazado_119069" data-name="Trazado 119069" d="M73.53,41.9,72.208,45.1H85.272L83.95,41.9Z" transform="translate(38.894 22.57)" fill="#4f4f4f"/>
          <path id="Trazado_119070" data-name="Trazado 119070" d="M83.686,43.393c0,1.648-2.4,2.983-5.358,2.983s-5.358-1.336-5.358-2.983,2.4-2.983,5.358-2.983,5.358,1.336,5.358,2.983" transform="translate(39.305 21.767)" fill="#666"/>
          <path id="Trazado_119071" data-name="Trazado 119071" d="M110.17,46.53h0a.867.867,0,0,1-.865-.865V31.373a.865.865,0,1,1,1.729,0V45.665a.867.867,0,0,1-.865.865" transform="translate(58.876 16.433)" fill="#3a3a3a"/>
          <path id="Trazado_119072" data-name="Trazado 119072" d="M118.768,34.39c0,2.026-2.951,3.67-6.592,3.67s-6.593-1.643-6.593-3.67,2.953-3.67,6.593-3.67,6.592,1.643,6.592,3.67" transform="translate(56.871 16.547)" fill="#4f4f4f"/>
          <path id="Trazado_119073" data-name="Trazado 119073" d="M106.944,30.72l-1.322,3.194h13.063l-1.322-3.194Z" transform="translate(56.893 16.547)" fill="#4f4f4f"/>
          <path id="Trazado_119074" data-name="Trazado 119074" d="M117.1,32.21c0,1.648-2.4,2.983-5.358,2.983s-5.358-1.336-5.358-2.983,2.4-2.983,5.358-2.983,5.358,1.336,5.358,2.983" transform="translate(57.304 15.743)" fill="#666"/>
          <path id="Trazado_119075" data-name="Trazado 119075" d="M118.768,30.658c0,2.026-2.951,3.67-6.592,3.67s-6.593-1.643-6.593-3.67,2.953-3.67,6.593-3.67,6.592,1.643,6.592,3.67" transform="translate(56.871 14.537)" fill="#4f4f4f"/>
          <path id="Trazado_119076" data-name="Trazado 119076" d="M106.944,26.987l-1.322,3.194h13.063l-1.322-3.194Z" transform="translate(56.893 14.537)" fill="#4f4f4f"/>
          <path id="Trazado_119077" data-name="Trazado 119077" d="M117.1,28.478c0,1.648-2.4,2.983-5.358,2.983s-5.358-1.336-5.358-2.983,2.4-2.983,5.358-2.983,5.358,1.336,5.358,2.983" transform="translate(57.304 13.733)" fill="#666"/>
          <path id="Trazado_119078" data-name="Trazado 119078" d="M118.768,26.771c0,2.026-2.951,3.67-6.592,3.67s-6.593-1.643-6.593-3.67,2.953-3.67,6.593-3.67,6.592,1.643,6.592,3.67" transform="translate(56.871 12.443)" fill="#4f4f4f"/>
          <path id="Trazado_119079" data-name="Trazado 119079" d="M106.944,23.1l-1.322,3.194h13.063L117.364,23.1Z" transform="translate(56.893 12.443)" fill="#4f4f4f"/>
          <path id="Trazado_119080" data-name="Trazado 119080" d="M117.1,24.591c0,1.648-2.4,2.983-5.358,2.983s-5.358-1.336-5.358-2.983,2.4-2.983,5.358-2.983,5.358,1.336,5.358,2.983" transform="translate(57.304 11.639)" fill="#666"/>
        </g>
      </g>
    </g>
  </g>
</svg>
