<svg xmlns="http://www.w3.org/2000/svg" width="650" height="418" viewBox="0 0 650 418">
  <g id="Grupo_152220" data-name="Grupo 152220" transform="translate(-685 -638)">
    <g id="Grupo_152219" data-name="Grupo 152219">
      <g id="Grupo_151773" data-name="Grupo 151773">
        <rect id="Rectángulo_34231" data-name="Rectángulo 34231" width="650" height="418" rx="14" transform="translate(685 638)" fill="#fff"/>
        <rect id="Rectángulo_34232" data-name="Rectángulo 34232" width="495" height="278" transform="translate(768 717)" fill="#fff"/>
        <path id="Rectángulo_34232_-_Contorno" data-name="Rectángulo 34232 - Contorno" d="M1,1V277H494V1H1M0,0H495V278H0Z" transform="translate(768 717)" fill="#12263f"/>
        <path id="Trazado_120012" data-name="Trazado 120012" d="M-877.775-11007h-524.44v-1h524.44Z" transform="translate(2154.674 11700)"/>
        <rect id="Rectángulo_34233" data-name="Rectángulo 34233" width="441" height="255" transform="translate(810 728)" fill="#fff"/>
        <path id="Rectángulo_34233_-_Contorno" data-name="Rectángulo 34233 - Contorno" d="M1,1V254H440V1H1M0,0H441V255H0Z" transform="translate(810 728)" fill="#12263f"/>
        <path id="Trazado_120013" data-name="Trazado 120013" d="M-920.948-10774.25H-1361v-1h440.052Z" transform="translate(2171 11700)" fill="#12263f"/>
        <path id="Trazado_120014" data-name="Trazado 120014" d="M-1170.5-10717.644h-1v-57.106h1Z" transform="translate(2133 11700)" fill="#707070"/>
        <path id="Trazado_120015" data-name="Trazado 120015" d="M-1170.5-10717.644h-1v-57.106h1Z" transform="translate(2245 11700)" fill="#707070"/>
        <path id="Trazado_120016" data-name="Trazado 120016" d="M-1170.5-10717.644h-1v-57.106h1Z" transform="translate(2352 11700)" fill="#707070"/>
        <path id="Trazado_120017" data-name="Trazado 120017" d="M-1431.263-10866.68h-1V-10983h1Z" transform="translate(2171 11861.792)" fill="#12263f"/>
        <path id="Trazado_120018" data-name="Trazado 120018" d="M-908.036-10680.969H-1403v-1h494.964Z" transform="translate(2171 11693)" fill="#12263f"/>
        <path id="Trazado_120019" data-name="Trazado 120019" d="M-1431.263-10866.68h-1V-10983h1Z" transform="translate(2171 11700)" fill="#12263f"/>
        <path id="Trazado_120020" data-name="Trazado 120020" d="M-1431.263-10866.68h-1V-10983h1Z" transform="translate(2716 11861.792)" fill="#12263f"/>
        <path id="Trazado_120021" data-name="Trazado 120021" d="M-1431.263-10855.273h-1V-10983h1Z" transform="translate(2716 11688.594)" fill="#12263f"/>
        <path id="Trazado_121574" data-name="Trazado 121574" d="M6.66-2.481A2.877,2.877,0,0,1,5.744-.567,3,3,0,0,1,3.7.107,2.756,2.756,0,0,1,1.474-.886,4,4,0,0,1,.639-3.545V-4.3a4.456,4.456,0,0,1,.389-1.917,2.909,2.909,0,0,1,1.1-1.27,3.073,3.073,0,0,1,1.654-.443,2.826,2.826,0,0,1,2,.7A2.912,2.912,0,0,1,6.66-5.307H5.624a2.247,2.247,0,0,0-.583-1.358,1.763,1.763,0,0,0-1.254-.42,1.845,1.845,0,0,0-1.55.731,3.356,3.356,0,0,0-.561,2.08v.758a3.45,3.45,0,0,0,.532,2.027A1.718,1.718,0,0,0,3.7-.736a1.984,1.984,0,0,0,1.319-.389,2.161,2.161,0,0,0,.61-1.356Zm7.423-1.176A4.838,4.838,0,0,1,13.7-1.652,2.929,2.929,0,0,1,12.6-.344a3.015,3.015,0,0,1-1.654.451A2.989,2.989,0,0,1,9.308-.346,3,3,0,0,1,8.2-1.641a4.642,4.642,0,0,1-.406-1.947v-.564a4.78,4.78,0,0,1,.392-1.993A2.989,2.989,0,0,1,9.295-7.469a2.976,2.976,0,0,1,1.641-.459,3.032,3.032,0,0,1,1.657.454,2.924,2.924,0,0,1,1.1,1.316,4.861,4.861,0,0,1,.387,2.006Zm-1.026-.5A3.506,3.506,0,0,0,12.5-6.3a1.842,1.842,0,0,0-1.563-.744A1.823,1.823,0,0,0,9.4-6.3a3.434,3.434,0,0,0-.577,2.065v.575a3.511,3.511,0,0,0,.567,2.119,1.83,1.83,0,0,0,1.56.771A1.823,1.823,0,0,0,12.493-1.5a3.492,3.492,0,0,0,.564-2.087ZM21.64,0H20.6L16.667-6.026V0H15.63V-7.82h1.037l3.948,6.053V-7.82H21.64Zm4.42-1.37L28.295-7.82h1.128L26.522,0h-.913l-2.9-7.82h1.123Zm8.83-2.245H31.5V-.843h3.937V0H30.47V-7.82h4.915v.843H31.5v2.519h3.389ZM42.732,0H41.7L37.759-6.026V0H36.722V-7.82h1.037l3.948,6.053V-7.82h1.026Zm7.584-2.481A2.877,2.877,0,0,1,49.4-.567a3,3,0,0,1-2.049.674,2.756,2.756,0,0,1-2.221-.994A4,4,0,0,1,44.3-3.545V-4.3a4.456,4.456,0,0,1,.389-1.917,2.909,2.909,0,0,1,1.1-1.27,3.073,3.073,0,0,1,1.654-.443,2.826,2.826,0,0,1,2,.7,2.912,2.912,0,0,1,.875,1.926H49.28A2.247,2.247,0,0,0,48.7-6.664a1.763,1.763,0,0,0-1.254-.42,1.845,1.845,0,0,0-1.55.731,3.356,3.356,0,0,0-.561,2.08v.758a3.45,3.45,0,0,0,.532,2.027,1.718,1.718,0,0,0,1.488.753,1.984,1.984,0,0,0,1.319-.389,2.161,2.161,0,0,0,.61-1.356ZM52.83,0H51.8V-7.82H52.83Zm7.9-3.658a4.838,4.838,0,0,1-.387,2.006,2.929,2.929,0,0,1-1.1,1.308,3.015,3.015,0,0,1-1.654.451,2.989,2.989,0,0,1-1.638-.454,3,3,0,0,1-1.109-1.294,4.642,4.642,0,0,1-.406-1.947v-.564a4.78,4.78,0,0,1,.392-1.993,2.989,2.989,0,0,1,1.109-1.324,2.976,2.976,0,0,1,1.641-.459,3.032,3.032,0,0,1,1.657.454,2.924,2.924,0,0,1,1.1,1.316,4.861,4.861,0,0,1,.387,2.006Zm-1.026-.5A3.506,3.506,0,0,0,59.146-6.3a1.842,1.842,0,0,0-1.563-.744,1.823,1.823,0,0,0-1.539.744,3.434,3.434,0,0,0-.577,2.065v.575a3.511,3.511,0,0,0,.567,2.119,1.83,1.83,0,0,0,1.56.771A1.823,1.823,0,0,0,59.141-1.5a3.492,3.492,0,0,0,.564-2.087ZM68.288,0H67.251L63.314-6.026V0H62.278V-7.82h1.037l3.948,6.053V-7.82h1.026ZM74.54-3.615H71.151V-.843h3.937V0H70.12V-7.82h4.915v.843H71.151v2.519H74.54Zm4.136.129a4.849,4.849,0,0,1-1.931-.937,1.791,1.791,0,0,1-.6-1.372,1.892,1.892,0,0,1,.739-1.528,2.935,2.935,0,0,1,1.92-.6,3.2,3.2,0,0,1,1.437.312,2.362,2.362,0,0,1,.978.859,2.2,2.2,0,0,1,.346,1.2H80.523a1.43,1.43,0,0,0-.451-1.118A1.835,1.835,0,0,0,78.8-7.084a1.878,1.878,0,0,0-1.19.336,1.122,1.122,0,0,0-.427.934,1.009,1.009,0,0,0,.406.81,3.978,3.978,0,0,0,1.38.605,6.4,6.4,0,0,1,1.525.6,2.315,2.315,0,0,1,.816.771,1.967,1.967,0,0,1,.266,1.037,1.827,1.827,0,0,1-.741,1.523,3.16,3.16,0,0,1-1.982.572,3.676,3.676,0,0,1-1.5-.309,2.531,2.531,0,0,1-1.077-.846,2.064,2.064,0,0,1-.379-1.219H76.93a1.347,1.347,0,0,0,.524,1.12,2.205,2.205,0,0,0,1.4.411A2.027,2.027,0,0,0,80.1-1.069a1.082,1.082,0,0,0,.435-.908,1.062,1.062,0,0,0-.4-.889A4.644,4.644,0,0,0,78.676-3.486Z" transform="translate(816 945)" fill="#12263f"/>
        <path id="Trazado_120022" data-name="Trazado 120022" d="M-1360.5-10992.312h-1v-27.187h1Z" transform="translate(2171 11697.906)" fill="#12263f"/>
        <path id="Trazado_120023" data-name="Trazado 120023" d="M-1360.5-10992.312h-1v-27.187h1Z" transform="translate(2129.785 11697.906)" fill="#12263f"/>
        <path id="Trazado_121572" data-name="Trazado 121572" d="M7.047-3.82H8.625v1.18H7.047V0H5.594V-2.641H.414v-.852l5.094-7.883H7.047Zm-4.992,0H5.594V-9.4l-.172.313ZM17.063-4.852A6.61,6.61,0,0,1,16.2-1.078,3.084,3.084,0,0,1,13.484.156a3.107,3.107,0,0,1-2.7-1.207,6.274,6.274,0,0,1-.906-3.605v-1.93a6.463,6.463,0,0,1,.867-3.727,3.108,3.108,0,0,1,2.719-1.219,3.136,3.136,0,0,1,2.7,1.176,6.237,6.237,0,0,1,.891,3.629ZM15.617-6.828A5.3,5.3,0,0,0,15.1-9.5a1.775,1.775,0,0,0-1.633-.84,1.751,1.751,0,0,0-1.617.836,5.171,5.171,0,0,0-.523,2.57v2.313A5.381,5.381,0,0,0,11.863-1.9a1.771,1.771,0,0,0,1.621.879,1.747,1.747,0,0,0,1.59-.828,5.186,5.186,0,0,0,.543-2.609Z" transform="translate(780 674)" fill="#12263f"/>
        <path id="Trazado_120024" data-name="Trazado 120024" d="M-1360.5-10992.312h-1v-27.187h1Z" transform="translate(2624 11697.906)" fill="#12263f"/>
        <path id="Trazado_120025" data-name="Trazado 120025" d="M-1360.5-10992.312h-1v-27.187h1Z" transform="translate(2611.052 11697.906)" fill="#12263f"/>
        <path id="Trazado_121580" data-name="Trazado 121580" d="M5.7,0H4.242V-9.633L1.328-8.562V-9.875L5.469-11.43H5.7ZM17.063-4.852A6.61,6.61,0,0,1,16.2-1.078,3.084,3.084,0,0,1,13.484.156a3.107,3.107,0,0,1-2.7-1.207,6.274,6.274,0,0,1-.906-3.605v-1.93a6.463,6.463,0,0,1,.867-3.727,3.108,3.108,0,0,1,2.719-1.219,3.136,3.136,0,0,1,2.7,1.176,6.237,6.237,0,0,1,.891,3.629ZM15.617-6.828A5.3,5.3,0,0,0,15.1-9.5a1.775,1.775,0,0,0-1.633-.84,1.751,1.751,0,0,0-1.617.836,5.171,5.171,0,0,0-.523,2.57v2.313A5.381,5.381,0,0,0,11.863-1.9a1.771,1.771,0,0,0,1.621.879,1.747,1.747,0,0,0,1.59-.828,5.186,5.186,0,0,0,.543-2.609Z" transform="translate(1247 674)" fill="#12263f"/>
        <path id="Trazado_121581" data-name="Trazado 121581" d="M5.7,0H4.242V-9.633L1.328-8.562V-9.875L5.469-11.43H5.7ZM17.063-4.852A6.61,6.61,0,0,1,16.2-1.078,3.084,3.084,0,0,1,13.484.156a3.107,3.107,0,0,1-2.7-1.207,6.274,6.274,0,0,1-.906-3.605v-1.93a6.463,6.463,0,0,1,.867-3.727,3.108,3.108,0,0,1,2.719-1.219,3.136,3.136,0,0,1,2.7,1.176,6.237,6.237,0,0,1,.891,3.629ZM15.617-6.828A5.3,5.3,0,0,0,15.1-9.5a1.775,1.775,0,0,0-1.633-.84,1.751,1.751,0,0,0-1.617.836,5.171,5.171,0,0,0-.523,2.57v2.313A5.381,5.381,0,0,0,11.863-1.9a1.771,1.771,0,0,0,1.621.879,1.747,1.747,0,0,0,1.59-.828,5.186,5.186,0,0,0,.543-2.609Zm10.43,1.977a6.61,6.61,0,0,1-.867,3.773A3.084,3.084,0,0,1,22.469.156a3.107,3.107,0,0,1-2.7-1.207,6.274,6.274,0,0,1-.906-3.605v-1.93a6.463,6.463,0,0,1,.867-3.727,3.108,3.108,0,0,1,2.719-1.219,3.136,3.136,0,0,1,2.7,1.176,6.237,6.237,0,0,1,.891,3.629ZM24.6-6.828A5.3,5.3,0,0,0,24.086-9.5a1.775,1.775,0,0,0-1.633-.84,1.751,1.751,0,0,0-1.617.836,5.171,5.171,0,0,0-.523,2.57v2.313A5.381,5.381,0,0,0,20.848-1.9a1.771,1.771,0,0,0,1.621.879,1.747,1.747,0,0,0,1.59-.828A5.186,5.186,0,0,0,24.6-4.461Z" transform="translate(1004 1034)" fill="#12263f"/>
        <path id="Trazado_121579" data-name="Trazado 121579" d="M5.7,0H4.242V-9.633L1.328-8.562V-9.875L5.469-11.43H5.7ZM17.063-4.852A6.61,6.61,0,0,1,16.2-1.078,3.084,3.084,0,0,1,13.484.156a3.107,3.107,0,0,1-2.7-1.207,6.274,6.274,0,0,1-.906-3.605v-1.93a6.463,6.463,0,0,1,.867-3.727,3.108,3.108,0,0,1,2.719-1.219,3.136,3.136,0,0,1,2.7,1.176,6.237,6.237,0,0,1,.891,3.629ZM15.617-6.828A5.3,5.3,0,0,0,15.1-9.5a1.775,1.775,0,0,0-1.633-.84,1.751,1.751,0,0,0-1.617.836,5.171,5.171,0,0,0-.523,2.57v2.313A5.381,5.381,0,0,0,11.863-1.9a1.771,1.771,0,0,0,1.621.879,1.747,1.747,0,0,0,1.59-.828,5.186,5.186,0,0,0,.543-2.609Z" transform="translate(1297 731)" fill="#12263f"/>
        <path id="Trazado_120026" data-name="Trazado 120026" d="M-875.219-10982.5H-898.99v-1h23.771Z" transform="translate(2171 11700)" fill="#12263f"/>
        <path id="Trazado_120027" data-name="Trazado 120027" d="M-875.219-10982.5H-898.99v-1h23.771Z" transform="translate(2171 11716)" fill="#12263f"/>
        <path id="Trazado_121575" data-name="Trazado 121575" d="M6.923-3.658a4.838,4.838,0,0,1-.387,2.006,2.929,2.929,0,0,1-1.1,1.308A3.015,3.015,0,0,1,3.787.107,2.989,2.989,0,0,1,2.148-.346,3,3,0,0,1,1.039-1.641,4.642,4.642,0,0,1,.634-3.588v-.564a4.78,4.78,0,0,1,.392-1.993A2.989,2.989,0,0,1,2.135-7.469a2.976,2.976,0,0,1,1.641-.459,3.032,3.032,0,0,1,1.657.454,2.924,2.924,0,0,1,1.1,1.316,4.861,4.861,0,0,1,.387,2.006ZM5.9-4.163A3.506,3.506,0,0,0,5.339-6.3a1.842,1.842,0,0,0-1.563-.744A1.823,1.823,0,0,0,2.237-6.3,3.434,3.434,0,0,0,1.66-4.232v.575a3.511,3.511,0,0,0,.567,2.119,1.83,1.83,0,0,0,1.56.771A1.823,1.823,0,0,0,5.333-1.5,3.492,3.492,0,0,0,5.9-3.583ZM8.47,0V-7.82h2.557a2.968,2.968,0,0,1,1.915.526,1.9,1.9,0,0,1,.642,1.558,1.588,1.588,0,0,1-.312.969,2.02,2.02,0,0,1-.849.653,1.814,1.814,0,0,1,1,.674,1.935,1.935,0,0,1,.368,1.184A2.092,2.092,0,0,1,13.111-.6a2.821,2.821,0,0,1-1.928.6ZM9.5-3.658V-.843h1.7a1.639,1.639,0,0,0,1.136-.373,1.311,1.311,0,0,0,.416-1.029q0-1.413-1.536-1.413Zm0-.827h1.558a1.633,1.633,0,0,0,1.082-.339,1.137,1.137,0,0,0,.406-.92,1.118,1.118,0,0,0-.376-.939,1.846,1.846,0,0,0-1.144-.293H9.5Zm8.121,1a4.849,4.849,0,0,1-1.931-.937,1.791,1.791,0,0,1-.6-1.372,1.892,1.892,0,0,1,.739-1.528,2.935,2.935,0,0,1,1.92-.6,3.2,3.2,0,0,1,1.437.312,2.362,2.362,0,0,1,.978.859,2.2,2.2,0,0,1,.346,1.2H19.47a1.43,1.43,0,0,0-.451-1.118,1.835,1.835,0,0,0-1.273-.407,1.878,1.878,0,0,0-1.19.336,1.122,1.122,0,0,0-.427.934,1.009,1.009,0,0,0,.406.81,3.978,3.978,0,0,0,1.38.605,6.4,6.4,0,0,1,1.525.6,2.315,2.315,0,0,1,.816.771,1.967,1.967,0,0,1,.266,1.037,1.827,1.827,0,0,1-.741,1.523A3.16,3.16,0,0,1,17.8.107,3.676,3.676,0,0,1,16.3-.2a2.531,2.531,0,0,1-1.077-.846,2.064,2.064,0,0,1-.379-1.219h1.037a1.347,1.347,0,0,0,.524,1.12,2.2,2.2,0,0,0,1.4.411,2.027,2.027,0,0,0,1.251-.333,1.082,1.082,0,0,0,.435-.908,1.062,1.062,0,0,0-.4-.889A4.644,4.644,0,0,0,17.623-3.486Zm8.642-.129H22.875V-.843h3.937V0H21.844V-7.82h4.915v.843H22.875v2.519h3.389Zm4.7.451H29.127V0H28.091V-7.82H30.68a3.064,3.064,0,0,1,2.033.6,2.164,2.164,0,0,1,.712,1.751,2.105,2.105,0,0,1-.395,1.273,2.357,2.357,0,0,1-1.1.811L33.768-.064V0H32.662Zm-1.837-.843h1.584a1.787,1.787,0,0,0,1.222-.4,1.346,1.346,0,0,0,.454-1.065,1.418,1.418,0,0,0-.432-1.114,1.831,1.831,0,0,0-1.249-.393H29.127ZM37.356-1.37,39.59-7.82h1.128L37.818,0H36.9l-2.9-7.82h1.123Zm8.325-.677H42.4L41.669,0H40.605l2.986-7.82h.9L47.486,0H46.428ZM42.716-2.89h2.659L44.043-6.547Zm11.516.408a2.877,2.877,0,0,1-.916,1.915,3,3,0,0,1-2.049.674,2.756,2.756,0,0,1-2.221-.994,4,4,0,0,1-.835-2.659V-4.3A4.456,4.456,0,0,1,48.6-6.214a2.909,2.909,0,0,1,1.1-1.27,3.073,3.073,0,0,1,1.654-.443,2.826,2.826,0,0,1,2,.7,2.912,2.912,0,0,1,.875,1.926H53.2a2.247,2.247,0,0,0-.583-1.358,1.763,1.763,0,0,0-1.254-.42,1.845,1.845,0,0,0-1.55.731,3.356,3.356,0,0,0-.561,2.08v.758a3.45,3.45,0,0,0,.532,2.027,1.718,1.718,0,0,0,1.488.753,1.984,1.984,0,0,0,1.319-.389,2.161,2.161,0,0,0,.61-1.356ZM56.746,0H55.714V-7.82h1.031Zm7.9-3.658a4.838,4.838,0,0,1-.387,2.006,2.929,2.929,0,0,1-1.1,1.308A3.015,3.015,0,0,1,61.51.107a2.989,2.989,0,0,1-1.638-.454,3,3,0,0,1-1.109-1.294,4.642,4.642,0,0,1-.406-1.947v-.564a4.78,4.78,0,0,1,.392-1.993,2.989,2.989,0,0,1,1.109-1.324A2.976,2.976,0,0,1,61.5-7.928a3.032,3.032,0,0,1,1.657.454,2.924,2.924,0,0,1,1.1,1.316,4.861,4.861,0,0,1,.387,2.006Zm-1.026-.5A3.506,3.506,0,0,0,63.062-6.3,1.842,1.842,0,0,0,61.5-7.042,1.823,1.823,0,0,0,59.96-6.3a3.434,3.434,0,0,0-.577,2.065v.575a3.511,3.511,0,0,0,.567,2.119,1.83,1.83,0,0,0,1.56.771A1.823,1.823,0,0,0,63.057-1.5a3.492,3.492,0,0,0,.564-2.087ZM72.2,0H71.167L67.23-6.026V0H66.193V-7.82H67.23l3.948,6.053V-7.82H72.2Zm6.252-3.615H75.066V-.843H79V0H74.035V-7.82H78.95v.843H75.066v2.519h3.389Zm4.136.129a4.849,4.849,0,0,1-1.931-.937,1.791,1.791,0,0,1-.6-1.372,1.892,1.892,0,0,1,.739-1.528,2.935,2.935,0,0,1,1.92-.6,3.2,3.2,0,0,1,1.437.312,2.362,2.362,0,0,1,.978.859,2.2,2.2,0,0,1,.346,1.2H84.439a1.43,1.43,0,0,0-.451-1.118,1.835,1.835,0,0,0-1.273-.407,1.878,1.878,0,0,0-1.19.336,1.122,1.122,0,0,0-.427.934A1.009,1.009,0,0,0,81.5-5a3.978,3.978,0,0,0,1.38.605,6.4,6.4,0,0,1,1.525.6,2.315,2.315,0,0,1,.816.771,1.967,1.967,0,0,1,.266,1.037A1.827,1.827,0,0,1,84.75-.465a3.16,3.16,0,0,1-1.982.572,3.676,3.676,0,0,1-1.5-.309,2.531,2.531,0,0,1-1.077-.846,2.064,2.064,0,0,1-.379-1.219h1.037a1.347,1.347,0,0,0,.524,1.12,2.205,2.205,0,0,0,1.4.411,2.027,2.027,0,0,0,1.251-.333,1.082,1.082,0,0,0,.435-.908,1.062,1.062,0,0,0-.4-.889A4.644,4.644,0,0,0,82.591-3.486Z" transform="translate(966 945)" fill="#12263f"/>
        <path id="Trazado_121576" data-name="Trazado 121576" d="M2.24-7.82,4.8-1.439,7.353-7.82H8.69V0H7.659V-3.045l.1-3.287L5.188,0H4.4L1.837-6.316l.1,3.271V0H.908V-7.82ZM16.527-3.658a4.838,4.838,0,0,1-.387,2.006,2.929,2.929,0,0,1-1.1,1.308A3.015,3.015,0,0,1,13.39.107a2.989,2.989,0,0,1-1.638-.454,3,3,0,0,1-1.109-1.294,4.642,4.642,0,0,1-.406-1.947v-.564a4.78,4.78,0,0,1,.392-1.993,2.989,2.989,0,0,1,1.109-1.324,2.976,2.976,0,0,1,1.641-.459,3.032,3.032,0,0,1,1.657.454,2.924,2.924,0,0,1,1.1,1.316,4.861,4.861,0,0,1,.387,2.006Zm-1.026-.5A3.506,3.506,0,0,0,14.942-6.3a1.842,1.842,0,0,0-1.563-.744,1.823,1.823,0,0,0-1.539.744,3.434,3.434,0,0,0-.577,2.065v.575a3.511,3.511,0,0,0,.567,2.119,1.83,1.83,0,0,0,1.56.771A1.823,1.823,0,0,0,14.937-1.5,3.492,3.492,0,0,0,15.5-3.583ZM18.074,0V-7.82h2.208a3.554,3.554,0,0,1,1.8.451A3.051,3.051,0,0,1,23.3-6.085a4.178,4.178,0,0,1,.432,1.912v.5A4.193,4.193,0,0,1,23.3-1.735,3,3,0,0,1,22.083-.457,3.78,3.78,0,0,1,20.238,0ZM19.1-6.977V-.843H20.19a2.361,2.361,0,0,0,1.856-.742A3.065,3.065,0,0,0,22.709-3.7v-.457a3.114,3.114,0,0,0-.626-2.072,2.227,2.227,0,0,0-1.775-.75ZM26.394,0H25.362V-7.82h1.031Zm6.2-3.454H29.31V0H28.279V-7.82h4.845v.843H29.31V-4.3h3.282ZM35.465,0H34.434V-7.82h1.031ZM43.1-2.481a2.877,2.877,0,0,1-.916,1.915,3,3,0,0,1-2.049.674,2.756,2.756,0,0,1-2.221-.994,4,4,0,0,1-.835-2.659V-4.3a4.456,4.456,0,0,1,.389-1.917,2.909,2.909,0,0,1,1.1-1.27,3.073,3.073,0,0,1,1.654-.443,2.826,2.826,0,0,1,2,.7A2.912,2.912,0,0,1,43.1-5.307H42.066a2.247,2.247,0,0,0-.583-1.358,1.763,1.763,0,0,0-1.254-.42,1.845,1.845,0,0,0-1.55.731,3.356,3.356,0,0,0-.561,2.08v.758a3.45,3.45,0,0,0,.532,2.027,1.718,1.718,0,0,0,1.488.753,1.984,1.984,0,0,0,1.319-.389,2.161,2.161,0,0,0,.61-1.356Zm5.726.435H45.552L44.816,0H43.753l2.986-7.82h.9L50.633,0H49.575ZM45.864-2.89h2.659L47.19-6.547Zm11.516.408a2.877,2.877,0,0,1-.916,1.915,3,3,0,0,1-2.049.674,2.756,2.756,0,0,1-2.221-.994,4,4,0,0,1-.835-2.659V-4.3a4.456,4.456,0,0,1,.389-1.917,2.909,2.909,0,0,1,1.1-1.27,3.073,3.073,0,0,1,1.654-.443,2.826,2.826,0,0,1,2,.7,2.912,2.912,0,0,1,.875,1.926H56.343a2.247,2.247,0,0,0-.583-1.358,1.763,1.763,0,0,0-1.254-.42,1.845,1.845,0,0,0-1.55.731,3.356,3.356,0,0,0-.561,2.08v.758a3.45,3.45,0,0,0,.532,2.027,1.718,1.718,0,0,0,1.488.753,1.984,1.984,0,0,0,1.319-.389,2.161,2.161,0,0,0,.61-1.356ZM59.893,0H58.862V-7.82h1.031Zm7.9-3.658a4.838,4.838,0,0,1-.387,2.006,2.929,2.929,0,0,1-1.1,1.308,3.015,3.015,0,0,1-1.654.451,2.989,2.989,0,0,1-1.638-.454A3,3,0,0,1,61.91-1.641,4.642,4.642,0,0,1,61.5-3.588v-.564A4.78,4.78,0,0,1,61.9-6.145a2.989,2.989,0,0,1,1.109-1.324,2.976,2.976,0,0,1,1.641-.459,3.032,3.032,0,0,1,1.657.454,2.924,2.924,0,0,1,1.1,1.316,4.861,4.861,0,0,1,.387,2.006Zm-1.026-.5A3.506,3.506,0,0,0,66.209-6.3a1.842,1.842,0,0,0-1.563-.744,1.823,1.823,0,0,0-1.539.744,3.434,3.434,0,0,0-.577,2.065v.575A3.511,3.511,0,0,0,63.1-1.539a1.83,1.83,0,0,0,1.56.771A1.823,1.823,0,0,0,66.2-1.5a3.492,3.492,0,0,0,.564-2.087ZM75.351,0H74.314L70.377-6.026V0H69.341V-7.82h1.037l3.948,6.053V-7.82h1.026ZM81.6-3.615H78.214V-.843h3.937V0H77.183V-7.82H82.1v.843H78.214v2.519H81.6Zm4.136.129a4.849,4.849,0,0,1-1.931-.937A1.791,1.791,0,0,1,83.2-5.8a1.892,1.892,0,0,1,.739-1.528,2.935,2.935,0,0,1,1.92-.6,3.2,3.2,0,0,1,1.437.312,2.362,2.362,0,0,1,.978.859,2.2,2.2,0,0,1,.346,1.2H87.586a1.43,1.43,0,0,0-.451-1.118,1.835,1.835,0,0,0-1.273-.407,1.878,1.878,0,0,0-1.19.336,1.122,1.122,0,0,0-.427.934,1.009,1.009,0,0,0,.406.81,3.978,3.978,0,0,0,1.38.605,6.4,6.4,0,0,1,1.525.6,2.315,2.315,0,0,1,.816.771,1.967,1.967,0,0,1,.266,1.037A1.827,1.827,0,0,1,87.9-.465a3.16,3.16,0,0,1-1.982.572,3.676,3.676,0,0,1-1.5-.309,2.531,2.531,0,0,1-1.077-.846,2.064,2.064,0,0,1-.379-1.219h1.037a1.347,1.347,0,0,0,.524,1.12,2.205,2.205,0,0,0,1.4.411,2.027,2.027,0,0,0,1.251-.333,1.082,1.082,0,0,0,.435-.908,1.062,1.062,0,0,0-.4-.889A4.644,4.644,0,0,0,85.739-3.486Z" transform="translate(1079 945)" fill="#12263f"/>
        <path id="Trazado_121577" data-name="Trazado 121577" d="M3.776-3.164H1.939V0H.9V-7.82H3.491a3.064,3.064,0,0,1,2.033.6,2.164,2.164,0,0,1,.712,1.751,2.105,2.105,0,0,1-.395,1.273,2.357,2.357,0,0,1-1.1.811L6.58-.064V0H5.473ZM1.939-4.007H3.523a1.787,1.787,0,0,0,1.222-.4A1.346,1.346,0,0,0,5.2-5.47a1.418,1.418,0,0,0-.432-1.114,1.831,1.831,0,0,0-1.249-.393H1.939ZM13.7-3.658a4.838,4.838,0,0,1-.387,2.006,2.929,2.929,0,0,1-1.1,1.308A3.015,3.015,0,0,1,10.56.107,2.989,2.989,0,0,1,8.921-.346,3,3,0,0,1,7.812-1.641a4.642,4.642,0,0,1-.406-1.947v-.564A4.78,4.78,0,0,1,7.8-6.145,2.989,2.989,0,0,1,8.908-7.469a2.976,2.976,0,0,1,1.641-.459,3.032,3.032,0,0,1,1.657.454,2.924,2.924,0,0,1,1.1,1.316A4.861,4.861,0,0,1,13.7-4.152Zm-1.026-.5A3.506,3.506,0,0,0,12.112-6.3a1.842,1.842,0,0,0-1.563-.744A1.823,1.823,0,0,0,9.01-6.3a3.434,3.434,0,0,0-.577,2.065v.575A3.511,3.511,0,0,0,9-1.539a1.83,1.83,0,0,0,1.56.771A1.823,1.823,0,0,0,12.106-1.5a3.492,3.492,0,0,0,.564-2.087ZM20.5-6.977H17.988V0H16.962V-6.977H14.454V-7.82H20.5Zm6.666-.843V-2.5a2.494,2.494,0,0,1-.7,1.81A2.8,2.8,0,0,1,24.6.1l-.274.011a2.927,2.927,0,0,1-2.046-.693,2.478,2.478,0,0,1-.773-1.907V-7.82h1.021v5.3a1.789,1.789,0,0,0,.467,1.319,1.8,1.8,0,0,0,1.332.47,1.808,1.808,0,0,0,1.34-.467,1.785,1.785,0,0,0,.465-1.316v-5.3ZM29.831-.843h3.706V0H28.794V-7.82h1.037ZM40.38-3.658a4.838,4.838,0,0,1-.387,2.006A2.929,2.929,0,0,1,38.9-.344a3.015,3.015,0,0,1-1.654.451A2.989,2.989,0,0,1,35.6-.346,3,3,0,0,1,34.5-1.641a4.642,4.642,0,0,1-.406-1.947v-.564a4.78,4.78,0,0,1,.392-1.993,2.989,2.989,0,0,1,1.109-1.324,2.976,2.976,0,0,1,1.641-.459,3.032,3.032,0,0,1,1.657.454,2.924,2.924,0,0,1,1.1,1.316,4.861,4.861,0,0,1,.387,2.006Zm-1.026-.5A3.506,3.506,0,0,0,38.8-6.3a1.842,1.842,0,0,0-1.563-.744,1.823,1.823,0,0,0-1.539.744,3.434,3.434,0,0,0-.577,2.065v.575a3.511,3.511,0,0,0,.567,2.119,1.83,1.83,0,0,0,1.56.771A1.823,1.823,0,0,0,38.79-1.5a3.492,3.492,0,0,0,.564-2.087Z" transform="translate(1186 945)" fill="#12263f"/>
        <path id="Trazado_121573" data-name="Trazado 121573" d="M8.289-10.562,3.578,0H2.063l4.7-10.187H.6v-1.187H8.289Zm8.773,5.711A6.61,6.61,0,0,1,16.2-1.078,3.084,3.084,0,0,1,13.484.156a3.107,3.107,0,0,1-2.7-1.207,6.274,6.274,0,0,1-.906-3.605v-1.93a6.463,6.463,0,0,1,.867-3.727,3.108,3.108,0,0,1,2.719-1.219,3.136,3.136,0,0,1,2.7,1.176,6.237,6.237,0,0,1,.891,3.629ZM15.617-6.828A5.3,5.3,0,0,0,15.1-9.5a1.775,1.775,0,0,0-1.633-.84,1.751,1.751,0,0,0-1.617.836,5.171,5.171,0,0,0-.523,2.57v2.313A5.381,5.381,0,0,0,11.863-1.9a1.771,1.771,0,0,0,1.621.879,1.747,1.747,0,0,0,1.59-.828,5.186,5.186,0,0,0,.543-2.609Zm10.43,1.977a6.61,6.61,0,0,1-.867,3.773A3.084,3.084,0,0,1,22.469.156a3.107,3.107,0,0,1-2.7-1.207,6.274,6.274,0,0,1-.906-3.605v-1.93a6.463,6.463,0,0,1,.867-3.727,3.108,3.108,0,0,1,2.719-1.219,3.136,3.136,0,0,1,2.7,1.176,6.237,6.237,0,0,1,.891,3.629ZM24.6-6.828A5.3,5.3,0,0,0,24.086-9.5a1.775,1.775,0,0,0-1.633-.84,1.751,1.751,0,0,0-1.617.836,5.171,5.171,0,0,0-.523,2.57v2.313A5.381,5.381,0,0,0,20.848-1.9a1.771,1.771,0,0,0,1.621.879,1.747,1.747,0,0,0,1.59-.828A5.186,5.186,0,0,0,24.6-4.461Z" transform="translate(723 861)" fill="#12263f"/>
        <path id="Trazado_121578" data-name="Trazado 121578" d="M6.617-11.383v1.227H6.352a3.805,3.805,0,0,0-2.687,1A4.161,4.161,0,0,0,2.508-6.43,3.085,3.085,0,0,1,4.961-7.461,2.95,2.95,0,0,1,7.332-6.414a4.038,4.038,0,0,1,.887,2.7A4.025,4.025,0,0,1,7.262-.9,3.3,3.3,0,0,1,4.7.156,3.247,3.247,0,0,1,2.047-1.1a4.97,4.97,0,0,1-1.016-3.23v-.555a7.488,7.488,0,0,1,1.34-4.8,4.921,4.921,0,0,1,3.988-1.7Zm-1.9,5.125a2.306,2.306,0,0,0-1.367.445A2.32,2.32,0,0,0,2.484-4.7v.531A3.731,3.731,0,0,0,3.117-1.9,1.9,1.9,0,0,0,4.7-1.039,1.838,1.838,0,0,0,6.23-1.758a2.982,2.982,0,0,0,.559-1.883,2.983,2.983,0,0,0-.566-1.895A1.816,1.816,0,0,0,4.719-6.258ZM16.828-8.406a2.641,2.641,0,0,1-.449,1.516,3.056,3.056,0,0,1-1.215,1.039,3.26,3.26,0,0,1,1.41,1.117,2.811,2.811,0,0,1,.52,1.664,2.972,2.972,0,0,1-1,2.352,3.827,3.827,0,0,1-2.621.875,3.81,3.81,0,0,1-2.629-.879A2.986,2.986,0,0,1,9.859-3.07a2.9,2.9,0,0,1,.5-1.664,3.136,3.136,0,0,1,1.395-1.125,2.981,2.981,0,0,1-1.2-1.039,2.679,2.679,0,0,1-.437-1.508,2.94,2.94,0,0,1,.922-2.281,3.458,3.458,0,0,1,2.43-.844,3.461,3.461,0,0,1,2.426.844A2.934,2.934,0,0,1,16.828-8.406Zm-1.18,5.3a2.1,2.1,0,0,0-.605-1.555,2.147,2.147,0,0,0-1.582-.6,2.11,2.11,0,0,0-1.566.594A2.12,2.12,0,0,0,11.3-3.1a2.019,2.019,0,0,0,.574,1.523,2.2,2.2,0,0,0,1.6.555,2.2,2.2,0,0,0,1.594-.559A2.014,2.014,0,0,0,15.648-3.1Zm-2.172-7.242a1.865,1.865,0,0,0-1.379.527,1.937,1.937,0,0,0-.527,1.434,1.928,1.928,0,0,0,.52,1.4,1.844,1.844,0,0,0,1.387.535,1.844,1.844,0,0,0,1.387-.535,1.928,1.928,0,0,0,.52-1.4A1.929,1.929,0,0,0,14.844-9.8,1.839,1.839,0,0,0,13.477-10.344Zm12.57,5.492a6.61,6.61,0,0,1-.867,3.773A3.084,3.084,0,0,1,22.469.156a3.107,3.107,0,0,1-2.7-1.207,6.274,6.274,0,0,1-.906-3.605v-1.93a6.463,6.463,0,0,1,.867-3.727,3.108,3.108,0,0,1,2.719-1.219,3.136,3.136,0,0,1,2.7,1.176,6.237,6.237,0,0,1,.891,3.629ZM24.6-6.828A5.3,5.3,0,0,0,24.086-9.5a1.775,1.775,0,0,0-1.633-.84,1.751,1.751,0,0,0-1.617.836,5.171,5.171,0,0,0-.523,2.57v2.313A5.381,5.381,0,0,0,20.848-1.9a1.771,1.771,0,0,0,1.621.879,1.747,1.747,0,0,0,1.59-.828A5.186,5.186,0,0,0,24.6-4.461Z" transform="translate(1269 861)" fill="#12263f"/>
        <path id="Trazado_120028" data-name="Trazado 120028" d="M-875.219-10982.5H-898.99v-1h23.771Z" transform="translate(1626.341 11700)" fill="#12263f"/>
        <path id="Trazado_120029" data-name="Trazado 120029" d="M-875.219-10982.5H-898.99v-1h23.771Z" transform="translate(1626.341 11978.112)" fill="#12263f"/>
        <path id="Polígono_22" data-name="Polígono 22" d="M5,0l5,9H0Z" transform="translate(734 720)" fill="#12263f"/>
        <path id="Polígono_23" data-name="Polígono 23" d="M5,0l5,9H0Z" transform="translate(744 995) rotate(180)" fill="#12263f"/>
        <path id="Trazado_120030" data-name="Trazado 120030" d="M-1360.5-10995.085h-1v-24.415h1Z" transform="translate(2129.785 12019.906)" fill="#12263f"/>
        <path id="Polígono_24" data-name="Polígono 24" d="M5,0l5,9H0Z" transform="translate(768 1016.531) rotate(-90)" fill="#12263f"/>
        <path id="Polígono_25" data-name="Polígono 25" d="M5,0l5,9H0Z" transform="translate(810 697.5) rotate(-90)" fill="#12263f"/>
        <path id="Polígono_26" data-name="Polígono 26" d="M5,0l5,9H0Z" transform="translate(768.785 687.5) rotate(90)" fill="#12263f"/>
        <path id="Polígono_27" data-name="Polígono 27" d="M5,0l5,9H0Z" transform="translate(1250.052 687.5) rotate(90)" fill="#12263f"/>
        <path id="Polígono_28" data-name="Polígono 28" d="M5,0l5,9H0Z" transform="translate(1260 697.5) rotate(-90)" fill="#12263f"/>
        <path id="Polígono_29" data-name="Polígono 29" d="M5,0l5,9H0Z" transform="translate(1289.237 719) rotate(180)" fill="#12263f"/>
        <path id="Polígono_30" data-name="Polígono 30" d="M5,0l5,9H0Z" transform="translate(1279.237 733)" fill="#12263f"/>
        <path id="Polígono_31" data-name="Polígono 31" d="M5,0l5,9H0Z" transform="translate(1289.237 979) rotate(180)" fill="#12263f"/>
        <path id="Polígono_32" data-name="Polígono 32" d="M5,0l5,9H0Z" transform="translate(1279.237 993)" fill="#12263f"/>
        <path id="Trazado_120031" data-name="Trazado 120031" d="M-875.219-10982.5H-898.99v-1h23.771Z" transform="translate(2171 11961)" fill="#12263f"/>
        <path id="Trazado_120032" data-name="Trazado 120032" d="M-875.219-10982.5H-898.99v-1h23.771Z" transform="translate(2171 11977)" fill="#12263f"/>
        <path id="Trazado_120033" data-name="Trazado 120033" d="M-1360.5-10994.906h-1v-24.594h1Z" transform="translate(2624 12018.734)" fill="#12263f"/>
        <path id="Polígono_33" data-name="Polígono 33" d="M5,0l5,9H0Z" transform="translate(1262.964 1006.531) rotate(90)" fill="#12263f"/>
      </g>
    </g>
  </g>
</svg>
