<svg xmlns="http://www.w3.org/2000/svg" xmlns:xlink="http://www.w3.org/1999/xlink" width="820" height="146.156" viewBox="0 0 820 146.156">
  <defs>
    <linearGradient id="linear-gradient" x1="0.01" y1="0.57" x2="1" y2="0.561" gradientUnits="objectBoundingBox">
      <stop offset="0" stop-color="#ff5d21"/>
      <stop offset="0.429" stop-color="#fff"/>
      <stop offset="1" stop-color="#bcd9ff"/>
    </linearGradient>
  </defs>
  <g id="Grupo_152228" data-name="Grupo 152228" transform="translate(-390 -5635)">
    <g id="Rectángulo_34323" data-name="Rectángulo 34323" transform="translate(390 5635)" stroke="#2e0877" stroke-width="2" fill="url(#linear-gradient)">
      <rect width="820" height="94" rx="16" stroke="none"/>
      <rect x="1" y="1" width="818" height="92" rx="15" fill="none"/>
    </g>
    <g id="Grupo_152227" data-name="Grupo 152227">
      <path id="Trazado_121576" data-name="Trazado 121576" d="M5.7,0H4.242V-9.633L1.328-8.562V-9.875L5.469-11.43H5.7ZM17.063-4.852A6.61,6.61,0,0,1,16.2-1.078,3.084,3.084,0,0,1,13.484.156a3.107,3.107,0,0,1-2.7-1.207,6.274,6.274,0,0,1-.906-3.605v-1.93a6.463,6.463,0,0,1,.867-3.727,3.108,3.108,0,0,1,2.719-1.219,3.136,3.136,0,0,1,2.7,1.176,6.237,6.237,0,0,1,.891,3.629ZM15.617-6.828A5.3,5.3,0,0,0,15.1-9.5a1.775,1.775,0,0,0-1.633-.84,1.751,1.751,0,0,0-1.617.836,5.171,5.171,0,0,0-.523,2.57v2.313A5.381,5.381,0,0,0,11.863-1.9a1.771,1.771,0,0,0,1.621.879,1.747,1.747,0,0,0,1.59-.828,5.186,5.186,0,0,0,.543-2.609Zm10.43,1.977a6.61,6.61,0,0,1-.867,3.773A3.084,3.084,0,0,1,22.469.156a3.107,3.107,0,0,1-2.7-1.207,6.274,6.274,0,0,1-.906-3.605v-1.93a6.463,6.463,0,0,1,.867-3.727,3.108,3.108,0,0,1,2.719-1.219,3.136,3.136,0,0,1,2.7,1.176,6.237,6.237,0,0,1,.891,3.629ZM24.6-6.828A5.3,5.3,0,0,0,24.086-9.5a1.775,1.775,0,0,0-1.633-.84,1.751,1.751,0,0,0-1.617.836,5.171,5.171,0,0,0-.523,2.57v2.313A5.381,5.381,0,0,0,20.848-1.9a1.771,1.771,0,0,0,1.621.879,1.747,1.747,0,0,0,1.59-.828A5.186,5.186,0,0,0,24.6-4.461Zm10.43,1.977a6.61,6.61,0,0,1-.867,3.773A3.084,3.084,0,0,1,31.453.156a3.107,3.107,0,0,1-2.7-1.207,6.274,6.274,0,0,1-.906-3.605v-1.93a6.463,6.463,0,0,1,.867-3.727,3.108,3.108,0,0,1,2.719-1.219,3.136,3.136,0,0,1,2.7,1.176,6.237,6.237,0,0,1,.891,3.629ZM33.586-6.828A5.3,5.3,0,0,0,33.07-9.5a1.775,1.775,0,0,0-1.633-.84,1.751,1.751,0,0,0-1.617.836,5.171,5.171,0,0,0-.523,2.57v2.313A5.381,5.381,0,0,0,29.832-1.9a1.771,1.771,0,0,0,1.621.879,1.747,1.747,0,0,0,1.59-.828,5.186,5.186,0,0,0,.543-2.609Z" transform="translate(390 5781)" fill="#12263f"/>
      <path id="Trazado_121577" data-name="Trazado 121577" d="M8.4,0H.945V-1.039L4.883-5.414A9.354,9.354,0,0,0,6.09-7.027a2.693,2.693,0,0,0,.332-1.285,2.041,2.041,0,0,0-.539-1.461,1.885,1.885,0,0,0-1.437-.57A2.232,2.232,0,0,0,2.77-9.73a2.343,2.343,0,0,0-.6,1.707H.727a3.355,3.355,0,0,1,1.012-2.539,3.751,3.751,0,0,1,2.707-.969,3.6,3.6,0,0,1,2.508.832,2.838,2.838,0,0,1,.922,2.215q0,1.68-2.141,4L2.688-1.18H8.4Zm8.664-4.852A6.61,6.61,0,0,1,16.2-1.078,3.084,3.084,0,0,1,13.484.156a3.107,3.107,0,0,1-2.7-1.207,6.274,6.274,0,0,1-.906-3.605v-1.93a6.463,6.463,0,0,1,.867-3.727,3.108,3.108,0,0,1,2.719-1.219,3.136,3.136,0,0,1,2.7,1.176,6.237,6.237,0,0,1,.891,3.629ZM15.617-6.828A5.3,5.3,0,0,0,15.1-9.5a1.775,1.775,0,0,0-1.633-.84,1.751,1.751,0,0,0-1.617.836,5.171,5.171,0,0,0-.523,2.57v2.313A5.381,5.381,0,0,0,11.863-1.9a1.771,1.771,0,0,0,1.621.879,1.747,1.747,0,0,0,1.59-.828,5.186,5.186,0,0,0,.543-2.609Zm10.43,1.977a6.61,6.61,0,0,1-.867,3.773A3.084,3.084,0,0,1,22.469.156a3.107,3.107,0,0,1-2.7-1.207,6.274,6.274,0,0,1-.906-3.605v-1.93a6.463,6.463,0,0,1,.867-3.727,3.108,3.108,0,0,1,2.719-1.219,3.136,3.136,0,0,1,2.7,1.176,6.237,6.237,0,0,1,.891,3.629ZM24.6-6.828A5.3,5.3,0,0,0,24.086-9.5a1.775,1.775,0,0,0-1.633-.84,1.751,1.751,0,0,0-1.617.836,5.171,5.171,0,0,0-.523,2.57v2.313A5.381,5.381,0,0,0,20.848-1.9a1.771,1.771,0,0,0,1.621.879,1.747,1.747,0,0,0,1.59-.828A5.186,5.186,0,0,0,24.6-4.461Zm10.43,1.977a6.61,6.61,0,0,1-.867,3.773A3.084,3.084,0,0,1,31.453.156a3.107,3.107,0,0,1-2.7-1.207,6.274,6.274,0,0,1-.906-3.605v-1.93a6.463,6.463,0,0,1,.867-3.727,3.108,3.108,0,0,1,2.719-1.219,3.136,3.136,0,0,1,2.7,1.176,6.237,6.237,0,0,1,.891,3.629ZM33.586-6.828A5.3,5.3,0,0,0,33.07-9.5a1.775,1.775,0,0,0-1.633-.84,1.751,1.751,0,0,0-1.617.836,5.171,5.171,0,0,0-.523,2.57v2.313A5.381,5.381,0,0,0,29.832-1.9a1.771,1.771,0,0,0,1.621.879,1.747,1.747,0,0,0,1.59-.828,5.186,5.186,0,0,0,.543-2.609Z" transform="translate(459 5781)" fill="#12263f"/>
      <path id="Trazado_121578" data-name="Trazado 121578" d="M3.047-6.391H4.133A2.387,2.387,0,0,0,5.742-6.93a1.8,1.8,0,0,0,.586-1.414,1.764,1.764,0,0,0-1.992-2,2.072,2.072,0,0,0-1.5.535,1.873,1.873,0,0,0-.559,1.418H.836a2.9,2.9,0,0,1,.988-2.246,3.6,3.6,0,0,1,2.512-.895,3.558,3.558,0,0,1,2.523.852,3.076,3.076,0,0,1,.914,2.367,2.5,2.5,0,0,1-.48,1.438A2.9,2.9,0,0,1,5.984-5.836a2.8,2.8,0,0,1,1.449.984,2.734,2.734,0,0,1,.512,1.68,3.1,3.1,0,0,1-1,2.43,3.745,3.745,0,0,1-2.6.9A3.844,3.844,0,0,1,1.738-.711,2.877,2.877,0,0,1,.734-3H2.188a1.859,1.859,0,0,0,.586,1.438,2.229,2.229,0,0,0,1.57.539,2.187,2.187,0,0,0,1.6-.547A2.108,2.108,0,0,0,6.5-3.141a1.912,1.912,0,0,0-.609-1.523,2.655,2.655,0,0,0-1.758-.547H3.047ZM17.063-4.852A6.61,6.61,0,0,1,16.2-1.078,3.084,3.084,0,0,1,13.484.156a3.107,3.107,0,0,1-2.7-1.207,6.274,6.274,0,0,1-.906-3.605v-1.93a6.463,6.463,0,0,1,.867-3.727,3.108,3.108,0,0,1,2.719-1.219,3.136,3.136,0,0,1,2.7,1.176,6.237,6.237,0,0,1,.891,3.629ZM15.617-6.828A5.3,5.3,0,0,0,15.1-9.5a1.775,1.775,0,0,0-1.633-.84,1.751,1.751,0,0,0-1.617.836,5.171,5.171,0,0,0-.523,2.57v2.313A5.381,5.381,0,0,0,11.863-1.9a1.771,1.771,0,0,0,1.621.879,1.747,1.747,0,0,0,1.59-.828,5.186,5.186,0,0,0,.543-2.609Zm10.43,1.977a6.61,6.61,0,0,1-.867,3.773A3.084,3.084,0,0,1,22.469.156a3.107,3.107,0,0,1-2.7-1.207,6.274,6.274,0,0,1-.906-3.605v-1.93a6.463,6.463,0,0,1,.867-3.727,3.108,3.108,0,0,1,2.719-1.219,3.136,3.136,0,0,1,2.7,1.176,6.237,6.237,0,0,1,.891,3.629ZM24.6-6.828A5.3,5.3,0,0,0,24.086-9.5a1.775,1.775,0,0,0-1.633-.84,1.751,1.751,0,0,0-1.617.836,5.171,5.171,0,0,0-.523,2.57v2.313A5.381,5.381,0,0,0,20.848-1.9a1.771,1.771,0,0,0,1.621.879,1.747,1.747,0,0,0,1.59-.828A5.186,5.186,0,0,0,24.6-4.461Zm10.43,1.977a6.61,6.61,0,0,1-.867,3.773A3.084,3.084,0,0,1,31.453.156a3.107,3.107,0,0,1-2.7-1.207,6.274,6.274,0,0,1-.906-3.605v-1.93a6.463,6.463,0,0,1,.867-3.727,3.108,3.108,0,0,1,2.719-1.219,3.136,3.136,0,0,1,2.7,1.176,6.237,6.237,0,0,1,.891,3.629ZM33.586-6.828A5.3,5.3,0,0,0,33.07-9.5a1.775,1.775,0,0,0-1.633-.84,1.751,1.751,0,0,0-1.617.836,5.171,5.171,0,0,0-.523,2.57v2.313A5.381,5.381,0,0,0,29.832-1.9a1.771,1.771,0,0,0,1.621.879,1.747,1.747,0,0,0,1.59-.828,5.186,5.186,0,0,0,.543-2.609Z" transform="translate(528 5781)" fill="#12263f"/>
      <path id="Trazado_121579" data-name="Trazado 121579" d="M7.047-3.82H8.625v1.18H7.047V0H5.594V-2.641H.414v-.852l5.094-7.883H7.047Zm-4.992,0H5.594V-9.4l-.172.313ZM17.063-4.852A6.61,6.61,0,0,1,16.2-1.078,3.084,3.084,0,0,1,13.484.156a3.107,3.107,0,0,1-2.7-1.207,6.274,6.274,0,0,1-.906-3.605v-1.93a6.463,6.463,0,0,1,.867-3.727,3.108,3.108,0,0,1,2.719-1.219,3.136,3.136,0,0,1,2.7,1.176,6.237,6.237,0,0,1,.891,3.629ZM15.617-6.828A5.3,5.3,0,0,0,15.1-9.5a1.775,1.775,0,0,0-1.633-.84,1.751,1.751,0,0,0-1.617.836,5.171,5.171,0,0,0-.523,2.57v2.313A5.381,5.381,0,0,0,11.863-1.9a1.771,1.771,0,0,0,1.621.879,1.747,1.747,0,0,0,1.59-.828,5.186,5.186,0,0,0,.543-2.609Zm10.43,1.977a6.61,6.61,0,0,1-.867,3.773A3.084,3.084,0,0,1,22.469.156a3.107,3.107,0,0,1-2.7-1.207,6.274,6.274,0,0,1-.906-3.605v-1.93a6.463,6.463,0,0,1,.867-3.727,3.108,3.108,0,0,1,2.719-1.219,3.136,3.136,0,0,1,2.7,1.176,6.237,6.237,0,0,1,.891,3.629ZM24.6-6.828A5.3,5.3,0,0,0,24.086-9.5a1.775,1.775,0,0,0-1.633-.84,1.751,1.751,0,0,0-1.617.836,5.171,5.171,0,0,0-.523,2.57v2.313A5.381,5.381,0,0,0,20.848-1.9a1.771,1.771,0,0,0,1.621.879,1.747,1.747,0,0,0,1.59-.828A5.186,5.186,0,0,0,24.6-4.461Zm10.43,1.977a6.61,6.61,0,0,1-.867,3.773A3.084,3.084,0,0,1,31.453.156a3.107,3.107,0,0,1-2.7-1.207,6.274,6.274,0,0,1-.906-3.605v-1.93a6.463,6.463,0,0,1,.867-3.727,3.108,3.108,0,0,1,2.719-1.219,3.136,3.136,0,0,1,2.7,1.176,6.237,6.237,0,0,1,.891,3.629ZM33.586-6.828A5.3,5.3,0,0,0,33.07-9.5a1.775,1.775,0,0,0-1.633-.84,1.751,1.751,0,0,0-1.617.836,5.171,5.171,0,0,0-.523,2.57v2.313A5.381,5.381,0,0,0,29.832-1.9a1.771,1.771,0,0,0,1.621.879,1.747,1.747,0,0,0,1.59-.828,5.186,5.186,0,0,0,.543-2.609Z" transform="translate(596 5781)" fill="#12263f"/>
      <path id="Trazado_121580" data-name="Trazado 121580" d="M1.609-5.7l.578-5.672H8.016v1.336h-4.6l-.344,3.1a3.671,3.671,0,0,1,1.9-.492A3.138,3.138,0,0,1,7.438-6.4a4.026,4.026,0,0,1,.914,2.777A3.886,3.886,0,0,1,7.4-.855,3.46,3.46,0,0,1,4.75.156,3.6,3.6,0,0,1,2.289-.68,3.337,3.337,0,0,1,1.2-2.992H2.57a2.3,2.3,0,0,0,.7,1.473,2.162,2.162,0,0,0,1.484.5,1.95,1.95,0,0,0,1.582-.687,2.874,2.874,0,0,0,.574-1.9,2.638,2.638,0,0,0-.621-1.832,2.113,2.113,0,0,0-1.652-.691,2.383,2.383,0,0,0-1.484.414l-.383.313Zm15.453.852A6.61,6.61,0,0,1,16.2-1.078,3.084,3.084,0,0,1,13.484.156a3.107,3.107,0,0,1-2.7-1.207,6.274,6.274,0,0,1-.906-3.605v-1.93a6.463,6.463,0,0,1,.867-3.727,3.108,3.108,0,0,1,2.719-1.219,3.136,3.136,0,0,1,2.7,1.176,6.237,6.237,0,0,1,.891,3.629ZM15.617-6.828A5.3,5.3,0,0,0,15.1-9.5a1.775,1.775,0,0,0-1.633-.84,1.751,1.751,0,0,0-1.617.836,5.171,5.171,0,0,0-.523,2.57v2.313A5.381,5.381,0,0,0,11.863-1.9a1.771,1.771,0,0,0,1.621.879,1.747,1.747,0,0,0,1.59-.828,5.186,5.186,0,0,0,.543-2.609Zm10.43,1.977a6.61,6.61,0,0,1-.867,3.773A3.084,3.084,0,0,1,22.469.156a3.107,3.107,0,0,1-2.7-1.207,6.274,6.274,0,0,1-.906-3.605v-1.93a6.463,6.463,0,0,1,.867-3.727,3.108,3.108,0,0,1,2.719-1.219,3.136,3.136,0,0,1,2.7,1.176,6.237,6.237,0,0,1,.891,3.629ZM24.6-6.828A5.3,5.3,0,0,0,24.086-9.5a1.775,1.775,0,0,0-1.633-.84,1.751,1.751,0,0,0-1.617.836,5.171,5.171,0,0,0-.523,2.57v2.313A5.381,5.381,0,0,0,20.848-1.9a1.771,1.771,0,0,0,1.621.879,1.747,1.747,0,0,0,1.59-.828A5.186,5.186,0,0,0,24.6-4.461Zm10.43,1.977a6.61,6.61,0,0,1-.867,3.773A3.084,3.084,0,0,1,31.453.156a3.107,3.107,0,0,1-2.7-1.207,6.274,6.274,0,0,1-.906-3.605v-1.93a6.463,6.463,0,0,1,.867-3.727,3.108,3.108,0,0,1,2.719-1.219,3.136,3.136,0,0,1,2.7,1.176,6.237,6.237,0,0,1,.891,3.629ZM33.586-6.828A5.3,5.3,0,0,0,33.07-9.5a1.775,1.775,0,0,0-1.633-.84,1.751,1.751,0,0,0-1.617.836,5.171,5.171,0,0,0-.523,2.57v2.313A5.381,5.381,0,0,0,29.832-1.9a1.771,1.771,0,0,0,1.621.879,1.747,1.747,0,0,0,1.59-.828,5.186,5.186,0,0,0,.543-2.609Z" transform="translate(665 5781)" fill="#12263f"/>
      <path id="Trazado_121581" data-name="Trazado 121581" d="M6.617-11.383v1.227H6.352a3.805,3.805,0,0,0-2.687,1A4.161,4.161,0,0,0,2.508-6.43,3.085,3.085,0,0,1,4.961-7.461,2.95,2.95,0,0,1,7.332-6.414a4.038,4.038,0,0,1,.887,2.7A4.025,4.025,0,0,1,7.262-.9,3.3,3.3,0,0,1,4.7.156,3.247,3.247,0,0,1,2.047-1.1a4.97,4.97,0,0,1-1.016-3.23v-.555a7.488,7.488,0,0,1,1.34-4.8,4.921,4.921,0,0,1,3.988-1.7Zm-1.9,5.125a2.306,2.306,0,0,0-1.367.445A2.32,2.32,0,0,0,2.484-4.7v.531A3.731,3.731,0,0,0,3.117-1.9,1.9,1.9,0,0,0,4.7-1.039,1.838,1.838,0,0,0,6.23-1.758a2.982,2.982,0,0,0,.559-1.883,2.983,2.983,0,0,0-.566-1.895A1.816,1.816,0,0,0,4.719-6.258ZM17.063-4.852A6.61,6.61,0,0,1,16.2-1.078,3.084,3.084,0,0,1,13.484.156a3.107,3.107,0,0,1-2.7-1.207,6.274,6.274,0,0,1-.906-3.605v-1.93a6.463,6.463,0,0,1,.867-3.727,3.108,3.108,0,0,1,2.719-1.219,3.136,3.136,0,0,1,2.7,1.176,6.237,6.237,0,0,1,.891,3.629ZM15.617-6.828A5.3,5.3,0,0,0,15.1-9.5a1.775,1.775,0,0,0-1.633-.84,1.751,1.751,0,0,0-1.617.836,5.171,5.171,0,0,0-.523,2.57v2.313A5.381,5.381,0,0,0,11.863-1.9a1.771,1.771,0,0,0,1.621.879,1.747,1.747,0,0,0,1.59-.828,5.186,5.186,0,0,0,.543-2.609Zm10.43,1.977a6.61,6.61,0,0,1-.867,3.773A3.084,3.084,0,0,1,22.469.156a3.107,3.107,0,0,1-2.7-1.207,6.274,6.274,0,0,1-.906-3.605v-1.93a6.463,6.463,0,0,1,.867-3.727,3.108,3.108,0,0,1,2.719-1.219,3.136,3.136,0,0,1,2.7,1.176,6.237,6.237,0,0,1,.891,3.629ZM24.6-6.828A5.3,5.3,0,0,0,24.086-9.5a1.775,1.775,0,0,0-1.633-.84,1.751,1.751,0,0,0-1.617.836,5.171,5.171,0,0,0-.523,2.57v2.313A5.381,5.381,0,0,0,20.848-1.9a1.771,1.771,0,0,0,1.621.879,1.747,1.747,0,0,0,1.59-.828A5.186,5.186,0,0,0,24.6-4.461Zm10.43,1.977a6.61,6.61,0,0,1-.867,3.773A3.084,3.084,0,0,1,31.453.156a3.107,3.107,0,0,1-2.7-1.207,6.274,6.274,0,0,1-.906-3.605v-1.93a6.463,6.463,0,0,1,.867-3.727,3.108,3.108,0,0,1,2.719-1.219,3.136,3.136,0,0,1,2.7,1.176,6.237,6.237,0,0,1,.891,3.629ZM33.586-6.828A5.3,5.3,0,0,0,33.07-9.5a1.775,1.775,0,0,0-1.633-.84,1.751,1.751,0,0,0-1.617.836,5.171,5.171,0,0,0-.523,2.57v2.313A5.381,5.381,0,0,0,29.832-1.9a1.771,1.771,0,0,0,1.621.879,1.747,1.747,0,0,0,1.59-.828,5.186,5.186,0,0,0,.543-2.609Z" transform="translate(734 5781)" fill="#12263f"/>
      <path id="Trazado_121582" data-name="Trazado 121582" d="M8.289-10.562,3.578,0H2.063l4.7-10.187H.6v-1.187H8.289Zm8.773,5.711A6.61,6.61,0,0,1,16.2-1.078,3.084,3.084,0,0,1,13.484.156a3.107,3.107,0,0,1-2.7-1.207,6.274,6.274,0,0,1-.906-3.605v-1.93a6.463,6.463,0,0,1,.867-3.727,3.108,3.108,0,0,1,2.719-1.219,3.136,3.136,0,0,1,2.7,1.176,6.237,6.237,0,0,1,.891,3.629ZM15.617-6.828A5.3,5.3,0,0,0,15.1-9.5a1.775,1.775,0,0,0-1.633-.84,1.751,1.751,0,0,0-1.617.836,5.171,5.171,0,0,0-.523,2.57v2.313A5.381,5.381,0,0,0,11.863-1.9a1.771,1.771,0,0,0,1.621.879,1.747,1.747,0,0,0,1.59-.828,5.186,5.186,0,0,0,.543-2.609Zm10.43,1.977a6.61,6.61,0,0,1-.867,3.773A3.084,3.084,0,0,1,22.469.156a3.107,3.107,0,0,1-2.7-1.207,6.274,6.274,0,0,1-.906-3.605v-1.93a6.463,6.463,0,0,1,.867-3.727,3.108,3.108,0,0,1,2.719-1.219,3.136,3.136,0,0,1,2.7,1.176,6.237,6.237,0,0,1,.891,3.629ZM24.6-6.828A5.3,5.3,0,0,0,24.086-9.5a1.775,1.775,0,0,0-1.633-.84,1.751,1.751,0,0,0-1.617.836,5.171,5.171,0,0,0-.523,2.57v2.313A5.381,5.381,0,0,0,20.848-1.9a1.771,1.771,0,0,0,1.621.879,1.747,1.747,0,0,0,1.59-.828A5.186,5.186,0,0,0,24.6-4.461Zm10.43,1.977a6.61,6.61,0,0,1-.867,3.773A3.084,3.084,0,0,1,31.453.156a3.107,3.107,0,0,1-2.7-1.207,6.274,6.274,0,0,1-.906-3.605v-1.93a6.463,6.463,0,0,1,.867-3.727,3.108,3.108,0,0,1,2.719-1.219,3.136,3.136,0,0,1,2.7,1.176,6.237,6.237,0,0,1,.891,3.629ZM33.586-6.828A5.3,5.3,0,0,0,33.07-9.5a1.775,1.775,0,0,0-1.633-.84,1.751,1.751,0,0,0-1.617.836,5.171,5.171,0,0,0-.523,2.57v2.313A5.381,5.381,0,0,0,29.832-1.9a1.771,1.771,0,0,0,1.621.879,1.747,1.747,0,0,0,1.59-.828,5.186,5.186,0,0,0,.543-2.609Z" transform="translate(803 5781)" fill="#12263f"/>
      <path id="Trazado_121583" data-name="Trazado 121583" d="M7.844-8.406a2.641,2.641,0,0,1-.449,1.516A3.057,3.057,0,0,1,6.18-5.852,3.26,3.26,0,0,1,7.59-4.734a2.811,2.811,0,0,1,.52,1.664,2.972,2.972,0,0,1-1,2.352A3.827,3.827,0,0,1,4.492.156,3.81,3.81,0,0,1,1.863-.723,2.986,2.986,0,0,1,.875-3.07a2.9,2.9,0,0,1,.5-1.664A3.136,3.136,0,0,1,2.773-5.859,2.981,2.981,0,0,1,1.578-6.9a2.679,2.679,0,0,1-.437-1.508,2.94,2.94,0,0,1,.922-2.281,3.458,3.458,0,0,1,2.43-.844,3.461,3.461,0,0,1,2.426.844A2.934,2.934,0,0,1,7.844-8.406ZM6.664-3.1a2.1,2.1,0,0,0-.605-1.555,2.147,2.147,0,0,0-1.582-.6,2.11,2.11,0,0,0-1.566.594A2.12,2.12,0,0,0,2.32-3.1a2.019,2.019,0,0,0,.574,1.523,2.2,2.2,0,0,0,1.6.555,2.2,2.2,0,0,0,1.594-.559A2.014,2.014,0,0,0,6.664-3.1ZM4.492-10.344a1.865,1.865,0,0,0-1.379.527,1.937,1.937,0,0,0-.527,1.434,1.928,1.928,0,0,0,.52,1.4,1.844,1.844,0,0,0,1.387.535A1.844,1.844,0,0,0,5.879-6.98a1.928,1.928,0,0,0,.52-1.4A1.929,1.929,0,0,0,5.859-9.8,1.839,1.839,0,0,0,4.492-10.344Zm12.57,5.492A6.61,6.61,0,0,1,16.2-1.078,3.084,3.084,0,0,1,13.484.156a3.107,3.107,0,0,1-2.7-1.207,6.274,6.274,0,0,1-.906-3.605v-1.93a6.463,6.463,0,0,1,.867-3.727,3.108,3.108,0,0,1,2.719-1.219,3.136,3.136,0,0,1,2.7,1.176,6.237,6.237,0,0,1,.891,3.629ZM15.617-6.828A5.3,5.3,0,0,0,15.1-9.5a1.775,1.775,0,0,0-1.633-.84,1.751,1.751,0,0,0-1.617.836,5.171,5.171,0,0,0-.523,2.57v2.313A5.381,5.381,0,0,0,11.863-1.9a1.771,1.771,0,0,0,1.621.879,1.747,1.747,0,0,0,1.59-.828,5.186,5.186,0,0,0,.543-2.609Zm10.43,1.977a6.61,6.61,0,0,1-.867,3.773A3.084,3.084,0,0,1,22.469.156a3.107,3.107,0,0,1-2.7-1.207,6.274,6.274,0,0,1-.906-3.605v-1.93a6.463,6.463,0,0,1,.867-3.727,3.108,3.108,0,0,1,2.719-1.219,3.136,3.136,0,0,1,2.7,1.176,6.237,6.237,0,0,1,.891,3.629ZM24.6-6.828A5.3,5.3,0,0,0,24.086-9.5a1.775,1.775,0,0,0-1.633-.84,1.751,1.751,0,0,0-1.617.836,5.171,5.171,0,0,0-.523,2.57v2.313A5.381,5.381,0,0,0,20.848-1.9a1.771,1.771,0,0,0,1.621.879,1.747,1.747,0,0,0,1.59-.828A5.186,5.186,0,0,0,24.6-4.461Zm10.43,1.977a6.61,6.61,0,0,1-.867,3.773A3.084,3.084,0,0,1,31.453.156a3.107,3.107,0,0,1-2.7-1.207,6.274,6.274,0,0,1-.906-3.605v-1.93a6.463,6.463,0,0,1,.867-3.727,3.108,3.108,0,0,1,2.719-1.219,3.136,3.136,0,0,1,2.7,1.176,6.237,6.237,0,0,1,.891,3.629ZM33.586-6.828A5.3,5.3,0,0,0,33.07-9.5a1.775,1.775,0,0,0-1.633-.84,1.751,1.751,0,0,0-1.617.836,5.171,5.171,0,0,0-.523,2.57v2.313A5.381,5.381,0,0,0,29.832-1.9a1.771,1.771,0,0,0,1.621.879,1.747,1.747,0,0,0,1.59-.828,5.186,5.186,0,0,0,.543-2.609Z" transform="translate(872 5781)" fill="#12263f"/>
      <path id="Trazado_121584" data-name="Trazado 121584" d="M6.484-5A3.536,3.536,0,0,1,5.4-4.133,2.936,2.936,0,0,1,4.023-3.8a3.031,3.031,0,0,1-1.715-.484A3.149,3.149,0,0,1,1.18-5.652a4.648,4.648,0,0,1-.4-1.941,4.735,4.735,0,0,1,.434-2.055,3.185,3.185,0,0,1,1.23-1.4A3.509,3.509,0,0,1,4.3-11.531a3.177,3.177,0,0,1,2.66,1.262,5.5,5.5,0,0,1,.973,3.441v.422q0,3.32-1.312,4.848A5.043,5.043,0,0,1,2.664.008H2.383V-1.219h.3a3.979,3.979,0,0,0,2.75-.932A4,4,0,0,0,6.484-5ZM4.258-5A2.232,2.232,0,0,0,5.6-5.445a2.625,2.625,0,0,0,.895-1.1v-.578a3.977,3.977,0,0,0-.617-2.312,1.842,1.842,0,0,0-1.562-.891,1.856,1.856,0,0,0-1.531.73A3.013,3.013,0,0,0,2.2-7.672a3.136,3.136,0,0,0,.559,1.918A1.769,1.769,0,0,0,4.258-5Zm12.8.148A6.61,6.61,0,0,1,16.2-1.078,3.084,3.084,0,0,1,13.484.156a3.107,3.107,0,0,1-2.7-1.207,6.274,6.274,0,0,1-.906-3.605v-1.93a6.463,6.463,0,0,1,.867-3.727,3.108,3.108,0,0,1,2.719-1.219,3.136,3.136,0,0,1,2.7,1.176,6.237,6.237,0,0,1,.891,3.629ZM15.617-6.828A5.3,5.3,0,0,0,15.1-9.5a1.775,1.775,0,0,0-1.633-.84,1.751,1.751,0,0,0-1.617.836,5.171,5.171,0,0,0-.523,2.57v2.313A5.381,5.381,0,0,0,11.863-1.9a1.771,1.771,0,0,0,1.621.879,1.747,1.747,0,0,0,1.59-.828,5.186,5.186,0,0,0,.543-2.609Zm10.43,1.977a6.61,6.61,0,0,1-.867,3.773A3.084,3.084,0,0,1,22.469.156a3.107,3.107,0,0,1-2.7-1.207,6.274,6.274,0,0,1-.906-3.605v-1.93a6.463,6.463,0,0,1,.867-3.727,3.108,3.108,0,0,1,2.719-1.219,3.136,3.136,0,0,1,2.7,1.176,6.237,6.237,0,0,1,.891,3.629ZM24.6-6.828A5.3,5.3,0,0,0,24.086-9.5a1.775,1.775,0,0,0-1.633-.84,1.751,1.751,0,0,0-1.617.836,5.171,5.171,0,0,0-.523,2.57v2.313A5.381,5.381,0,0,0,20.848-1.9a1.771,1.771,0,0,0,1.621.879,1.747,1.747,0,0,0,1.59-.828A5.186,5.186,0,0,0,24.6-4.461Zm10.43,1.977a6.61,6.61,0,0,1-.867,3.773A3.084,3.084,0,0,1,31.453.156a3.107,3.107,0,0,1-2.7-1.207,6.274,6.274,0,0,1-.906-3.605v-1.93a6.463,6.463,0,0,1,.867-3.727,3.108,3.108,0,0,1,2.719-1.219,3.136,3.136,0,0,1,2.7,1.176,6.237,6.237,0,0,1,.891,3.629ZM33.586-6.828A5.3,5.3,0,0,0,33.07-9.5a1.775,1.775,0,0,0-1.633-.84,1.751,1.751,0,0,0-1.617.836,5.171,5.171,0,0,0-.523,2.57v2.313A5.381,5.381,0,0,0,29.832-1.9a1.771,1.771,0,0,0,1.621.879,1.747,1.747,0,0,0,1.59-.828,5.186,5.186,0,0,0,.543-2.609Z" transform="translate(941 5781)" fill="#12263f"/>
      <path id="Trazado_121585" data-name="Trazado 121585" d="M5.7,0H4.242V-9.633L1.328-8.562V-9.875L5.469-11.43H5.7ZM17.063-4.852A6.61,6.61,0,0,1,16.2-1.078,3.084,3.084,0,0,1,13.484.156a3.107,3.107,0,0,1-2.7-1.207,6.274,6.274,0,0,1-.906-3.605v-1.93a6.463,6.463,0,0,1,.867-3.727,3.108,3.108,0,0,1,2.719-1.219,3.136,3.136,0,0,1,2.7,1.176,6.237,6.237,0,0,1,.891,3.629ZM15.617-6.828A5.3,5.3,0,0,0,15.1-9.5a1.775,1.775,0,0,0-1.633-.84,1.751,1.751,0,0,0-1.617.836,5.171,5.171,0,0,0-.523,2.57v2.313A5.381,5.381,0,0,0,11.863-1.9a1.771,1.771,0,0,0,1.621.879,1.747,1.747,0,0,0,1.59-.828,5.186,5.186,0,0,0,.543-2.609Zm10.43,1.977a6.61,6.61,0,0,1-.867,3.773A3.084,3.084,0,0,1,22.469.156a3.107,3.107,0,0,1-2.7-1.207,6.274,6.274,0,0,1-.906-3.605v-1.93a6.463,6.463,0,0,1,.867-3.727,3.108,3.108,0,0,1,2.719-1.219,3.136,3.136,0,0,1,2.7,1.176,6.237,6.237,0,0,1,.891,3.629ZM24.6-6.828A5.3,5.3,0,0,0,24.086-9.5a1.775,1.775,0,0,0-1.633-.84,1.751,1.751,0,0,0-1.617.836,5.171,5.171,0,0,0-.523,2.57v2.313A5.381,5.381,0,0,0,20.848-1.9a1.771,1.771,0,0,0,1.621.879,1.747,1.747,0,0,0,1.59-.828A5.186,5.186,0,0,0,24.6-4.461Zm10.43,1.977a6.61,6.61,0,0,1-.867,3.773A3.084,3.084,0,0,1,31.453.156a3.107,3.107,0,0,1-2.7-1.207,6.274,6.274,0,0,1-.906-3.605v-1.93a6.463,6.463,0,0,1,.867-3.727,3.108,3.108,0,0,1,2.719-1.219,3.136,3.136,0,0,1,2.7,1.176,6.237,6.237,0,0,1,.891,3.629ZM33.586-6.828A5.3,5.3,0,0,0,33.07-9.5a1.775,1.775,0,0,0-1.633-.84,1.751,1.751,0,0,0-1.617.836,5.171,5.171,0,0,0-.523,2.57v2.313A5.381,5.381,0,0,0,29.832-1.9a1.771,1.771,0,0,0,1.621.879,1.747,1.747,0,0,0,1.59-.828,5.186,5.186,0,0,0,.543-2.609Zm10.43,1.977a6.61,6.61,0,0,1-.867,3.773A3.084,3.084,0,0,1,40.438.156a3.107,3.107,0,0,1-2.7-1.207,6.274,6.274,0,0,1-.906-3.605v-1.93a6.463,6.463,0,0,1,.867-3.727,3.108,3.108,0,0,1,2.719-1.219,3.136,3.136,0,0,1,2.7,1.176,6.237,6.237,0,0,1,.891,3.629ZM42.57-6.828A5.3,5.3,0,0,0,42.055-9.5a1.775,1.775,0,0,0-1.633-.84,1.751,1.751,0,0,0-1.617.836,5.171,5.171,0,0,0-.523,2.57v2.313A5.381,5.381,0,0,0,38.816-1.9a1.771,1.771,0,0,0,1.621.879,1.747,1.747,0,0,0,1.59-.828,5.186,5.186,0,0,0,.543-2.609Z" transform="translate(1009 5781)" fill="#12263f"/>
      <path id="Trazado_121586" data-name="Trazado 121586" d="M5.7,0H4.242V-9.633L1.328-8.562V-9.875L5.469-11.43H5.7ZM14.68,0H13.227V-9.633l-2.914,1.07V-9.875l4.141-1.555h.227ZM26.047-4.852a6.61,6.61,0,0,1-.867,3.773A3.084,3.084,0,0,1,22.469.156a3.107,3.107,0,0,1-2.7-1.207,6.274,6.274,0,0,1-.906-3.605v-1.93a6.463,6.463,0,0,1,.867-3.727,3.108,3.108,0,0,1,2.719-1.219,3.136,3.136,0,0,1,2.7,1.176,6.237,6.237,0,0,1,.891,3.629ZM24.6-6.828A5.3,5.3,0,0,0,24.086-9.5a1.775,1.775,0,0,0-1.633-.84,1.751,1.751,0,0,0-1.617.836,5.171,5.171,0,0,0-.523,2.57v2.313A5.381,5.381,0,0,0,20.848-1.9a1.771,1.771,0,0,0,1.621.879,1.747,1.747,0,0,0,1.59-.828A5.186,5.186,0,0,0,24.6-4.461Zm10.43,1.977a6.61,6.61,0,0,1-.867,3.773A3.084,3.084,0,0,1,31.453.156a3.107,3.107,0,0,1-2.7-1.207,6.274,6.274,0,0,1-.906-3.605v-1.93a6.463,6.463,0,0,1,.867-3.727,3.108,3.108,0,0,1,2.719-1.219,3.136,3.136,0,0,1,2.7,1.176,6.237,6.237,0,0,1,.891,3.629ZM33.586-6.828A5.3,5.3,0,0,0,33.07-9.5a1.775,1.775,0,0,0-1.633-.84,1.751,1.751,0,0,0-1.617.836,5.171,5.171,0,0,0-.523,2.57v2.313A5.381,5.381,0,0,0,29.832-1.9a1.771,1.771,0,0,0,1.621.879,1.747,1.747,0,0,0,1.59-.828,5.186,5.186,0,0,0,.543-2.609Zm10.43,1.977a6.61,6.61,0,0,1-.867,3.773A3.084,3.084,0,0,1,40.438.156a3.107,3.107,0,0,1-2.7-1.207,6.274,6.274,0,0,1-.906-3.605v-1.93a6.463,6.463,0,0,1,.867-3.727,3.108,3.108,0,0,1,2.719-1.219,3.136,3.136,0,0,1,2.7,1.176,6.237,6.237,0,0,1,.891,3.629ZM42.57-6.828A5.3,5.3,0,0,0,42.055-9.5a1.775,1.775,0,0,0-1.633-.84,1.751,1.751,0,0,0-1.617.836,5.171,5.171,0,0,0-.523,2.57v2.313A5.381,5.381,0,0,0,38.816-1.9a1.771,1.771,0,0,0,1.621.879,1.747,1.747,0,0,0,1.59-.828,5.186,5.186,0,0,0,.543-2.609Z" transform="translate(1087 5781)" fill="#12263f"/>
      <path id="Trazado_121587" data-name="Trazado 121587" d="M5.7,0H4.242V-9.633L1.328-8.562V-9.875L5.469-11.43H5.7ZM17.383,0H9.93V-1.039l3.938-4.375a9.354,9.354,0,0,0,1.207-1.613,2.693,2.693,0,0,0,.332-1.285,2.041,2.041,0,0,0-.539-1.461,1.885,1.885,0,0,0-1.437-.57,2.232,2.232,0,0,0-1.676.613,2.343,2.343,0,0,0-.6,1.707H9.711a3.355,3.355,0,0,1,1.012-2.539,3.751,3.751,0,0,1,2.707-.969,3.6,3.6,0,0,1,2.508.832,2.838,2.838,0,0,1,.922,2.215q0,1.68-2.141,4l-3.047,3.3h5.711Zm8.664-4.852a6.61,6.61,0,0,1-.867,3.773A3.084,3.084,0,0,1,22.469.156a3.107,3.107,0,0,1-2.7-1.207,6.274,6.274,0,0,1-.906-3.605v-1.93a6.463,6.463,0,0,1,.867-3.727,3.108,3.108,0,0,1,2.719-1.219,3.136,3.136,0,0,1,2.7,1.176,6.237,6.237,0,0,1,.891,3.629ZM24.6-6.828A5.3,5.3,0,0,0,24.086-9.5a1.775,1.775,0,0,0-1.633-.84,1.751,1.751,0,0,0-1.617.836,5.171,5.171,0,0,0-.523,2.57v2.313A5.381,5.381,0,0,0,20.848-1.9a1.771,1.771,0,0,0,1.621.879,1.747,1.747,0,0,0,1.59-.828A5.186,5.186,0,0,0,24.6-4.461Zm10.43,1.977a6.61,6.61,0,0,1-.867,3.773A3.084,3.084,0,0,1,31.453.156a3.107,3.107,0,0,1-2.7-1.207,6.274,6.274,0,0,1-.906-3.605v-1.93a6.463,6.463,0,0,1,.867-3.727,3.108,3.108,0,0,1,2.719-1.219,3.136,3.136,0,0,1,2.7,1.176,6.237,6.237,0,0,1,.891,3.629ZM33.586-6.828A5.3,5.3,0,0,0,33.07-9.5a1.775,1.775,0,0,0-1.633-.84,1.751,1.751,0,0,0-1.617.836,5.171,5.171,0,0,0-.523,2.57v2.313A5.381,5.381,0,0,0,29.832-1.9a1.771,1.771,0,0,0,1.621.879,1.747,1.747,0,0,0,1.59-.828,5.186,5.186,0,0,0,.543-2.609Zm10.43,1.977a6.61,6.61,0,0,1-.867,3.773A3.084,3.084,0,0,1,40.438.156a3.107,3.107,0,0,1-2.7-1.207,6.274,6.274,0,0,1-.906-3.605v-1.93a6.463,6.463,0,0,1,.867-3.727,3.108,3.108,0,0,1,2.719-1.219,3.136,3.136,0,0,1,2.7,1.176,6.237,6.237,0,0,1,.891,3.629ZM42.57-6.828A5.3,5.3,0,0,0,42.055-9.5a1.775,1.775,0,0,0-1.633-.84,1.751,1.751,0,0,0-1.617.836,5.171,5.171,0,0,0-.523,2.57v2.313A5.381,5.381,0,0,0,38.816-1.9a1.771,1.771,0,0,0,1.621.879,1.747,1.747,0,0,0,1.59-.828,5.186,5.186,0,0,0,.543-2.609Z" transform="translate(1165 5781)" fill="#12263f"/>
      <path id="Trazado_120494" data-name="Trazado 120494" d="M-7063-5589.307h820" transform="translate(7453 11331)" fill="none" stroke="#2e0877" stroke-width="1"/>
      <path id="Trazado_120495" data-name="Trazado 120495" d="M-7045-5596.307v16.969" transform="translate(7453 11338)" fill="none" stroke="#2e0877" stroke-width="1"/>
      <path id="Trazado_120496" data-name="Trazado 120496" d="M-7045-5596.307v16.969" transform="translate(7523 11338)" fill="none" stroke="#2e0877" stroke-width="1"/>
      <path id="Trazado_120497" data-name="Trazado 120497" d="M-7045-5596.307v16.969" transform="translate(7591 11338)" fill="none" stroke="#2e0877" stroke-width="1"/>
      <path id="Trazado_120498" data-name="Trazado 120498" d="M-7045-5596.307v16.969" transform="translate(7659 11338)" fill="none" stroke="#2e0877" stroke-width="1"/>
      <path id="Trazado_120499" data-name="Trazado 120499" d="M-7045-5596.307v16.969" transform="translate(7730 11338)" fill="none" stroke="#2e0877" stroke-width="1"/>
      <path id="Trazado_120500" data-name="Trazado 120500" d="M-7045-5596.307v16.969" transform="translate(7797 11338)" fill="none" stroke="#2e0877" stroke-width="1"/>
      <path id="Trazado_120501" data-name="Trazado 120501" d="M-7045-5596.307v16.969" transform="translate(7864 11338)" fill="none" stroke="#2e0877" stroke-width="1"/>
      <path id="Trazado_120502" data-name="Trazado 120502" d="M-7045-5596.307v16.969" transform="translate(7938 11338)" fill="none" stroke="#2e0877" stroke-width="1"/>
      <path id="Trazado_120503" data-name="Trazado 120503" d="M-7045-5596.307v16.969" transform="translate(8005 11338)" fill="none" stroke="#2e0877" stroke-width="1"/>
      <path id="Trazado_120504" data-name="Trazado 120504" d="M-7045-5596.307v16.969" transform="translate(8076.5 11338)" fill="none" stroke="#2e0877" stroke-width="1"/>
      <path id="Trazado_120505" data-name="Trazado 120505" d="M-7045-5596.307v16.969" transform="translate(8154.5 11338)" fill="none" stroke="#2e0877" stroke-width="1"/>
      <path id="Trazado_120506" data-name="Trazado 120506" d="M-7045-5596.307v16.969" transform="translate(8232.5 11338)" fill="none" stroke="#2e0877" stroke-width="1"/>
    </g>
  </g>
</svg>
