<svg xmlns="http://www.w3.org/2000/svg" xmlns:xlink="http://www.w3.org/1999/xlink" width="820" height="402" viewBox="0 0 820 402">
  <defs>
    <clipPath id="clip-path">
      <path id="Trazado_119618" data-name="Trazado 119618" d="M0,0H200.327V213.668H0Z" fill="none" stroke="#ad84ff" stroke-width="2"/>
    </clipPath>
    <clipPath id="clip-path-2">
      <path id="Trazado_119618-2" data-name="Trazado 119618" d="M0,0H230.956V246.337H0Z" fill="none" stroke="#ad84ff" stroke-width="2"/>
    </clipPath>
  </defs>
  <g id="Grupo_152233" data-name="Grupo 152233" transform="translate(-390 -10301)">
    <g id="Grupo_151680" data-name="Grupo 151680" transform="translate(0 -381)">
      <rect id="Rectángulo_33985" data-name="Rectángulo 33985" width="820" height="402" transform="translate(390 10682)" fill="#f4fbff"/>
      <g id="Grupo_151679" data-name="Grupo 151679">
        <g id="Grupo_151669" data-name="Grupo 151669" transform="translate(452 10761.227)">
          <g id="Enmascarar_grupo_55" data-name="Enmascarar grupo 55" clip-path="url(#clip-path)">
            <path id="Trazado_119602" data-name="Trazado 119602" d="M0,0H16.085V41.755l-.572-.084A18.175,18.175,0,0,1,0,23.689ZM15.085,1H1V23.689a17.177,17.177,0,0,0,14.085,16.9Z" transform="translate(-0.008 -0.008)" fill="#ad84ff"/>
            <path id="Rectángulo_33980" data-name="Rectángulo 33980" d="M-.5-.5H9.273V41.373H-.5ZM8.273.5H.5V40.373H8.273Z" transform="translate(23.376 0.492)" fill="#ad84ff"/>
            <path id="Rectángulo_33981" data-name="Rectángulo 33981" d="M-.5-.5H99.113V41.373H-.5ZM98.113.5H.5V40.373H98.113Z" transform="translate(39.957 0.492)" fill="#ad84ff"/>
            <path id="Rectángulo_33982" data-name="Rectángulo 33982" d="M-.5-.5H10.071V41.373H-.5ZM9.071.5H.5V40.373H9.071Z" transform="translate(154.177 0.492)" fill="#ad84ff"/>
            <path id="Trazado_119603" data-name="Trazado 119603" d="M185.41,0h17.778V20.213A21.646,21.646,0,0,1,186.013,41.4l-.6.126Zm16.778,1H186.41V40.285a20.626,20.626,0,0,0,15.778-20.072Z" transform="translate(-2.853 -0.008)" fill="#ad84ff"/>
            <path id="Trazado_119604" data-name="Trazado 119604" d="M12.146,75.962l-.087-.029A17.667,17.667,0,0,1,17.672,41.51H176.89a17.513,17.513,0,0,1,10.693,3.6,17.669,17.669,0,0,1,6.27,9.118l.155.533-.547.1c-9.536,1.712-35.3,6.176-68.475,10.627C106.258,68,88,70.124,70.721,71.8c-20.887,2.03-40.563,3.428-58.483,4.155ZM17.672,42.51A16.67,16.67,0,0,0,12.29,74.955c17.877-.727,37.5-2.122,58.335-4.147,17.267-1.678,35.513-3.8,54.23-6.313,32.531-4.364,57.928-8.74,67.875-10.52A16.666,16.666,0,0,0,176.89,42.51Z" transform="translate(-0.008 -0.645)" fill="#ad84ff"/>
            <path id="Trazado_119605" data-name="Trazado 119605" d="M4.662,107.185l.583-.582a17.675,17.675,0,0,1,8.238-29.73L9.4,75.95H185.166l-4.086.923A17.715,17.715,0,0,1,193.387,87.7l.222.577-.611.1c-10.039,1.588-37.1,5.715-71.535,9.73-19.362,2.258-38.169,4.143-55.9,5.6-21.408,1.762-41.475,2.92-59.644,3.442ZM17.672,76.95v.423A16.659,16.659,0,0,0,6.206,106.14c18.069-.526,38.009-1.68,59.276-3.43,17.719-1.458,36.515-3.341,55.865-5.6,33.724-3.933,60.377-7.972,70.873-9.626a16.684,16.684,0,0,0-15.33-10.113V76.95Z" transform="translate(-0.008 -1.173)" fill="#ad84ff"/>
            <path id="Trazado_119606" data-name="Trazado 119606" d="M5.508,106.83H189.066l.145.141a17.485,17.485,0,0,1,5.311,11.494l.029.466-.462.062c-16.977,2.258-105.7,13.629-185.413,15.749H8.5l-.122-.076a18,18,0,0,1-6.068-6.317,17.629,17.629,0,0,1,2.869-21.224c.053-.053.114-.114.19-.178Zm183.152,1H5.885a16.659,16.659,0,0,0-2.707,20.021,17,17,0,0,0,5.6,5.885c78.921-2.109,166.646-13.281,184.706-15.675A16.484,16.484,0,0,0,188.66,107.83Z" transform="translate(-0.008 -1.647)" fill="#ad84ff"/>
            <path id="Trazado_119607" data-name="Trazado 119607" d="M9.756,166.88H185.31l-3.8.984a17.632,17.632,0,0,1-4.418.558H17.874a16.735,16.735,0,0,1-2.151-.132,16.553,16.553,0,0,1-2.241-.426Z" transform="translate(-0.209 -2.569)" fill="#ad84ff"/>
            <path id="Trazado_119608" data-name="Trazado 119608" d="M7.384,134.41h179.8l-1.137.731a17.669,17.669,0,0,1,8.521,15.12c0,.209,0,.425-.01.644l-.02.417-.414.055c-16.492,2.2-102.767,13.285-181.857,15.66l-.088,0-.084-.028a17.649,17.649,0,0,1-6.911-29.245,17.769,17.769,0,0,1,3.344-2.625Zm177.1,1H10.08l-.341.185a16.781,16.781,0,0,0-3.853,2.878,16.659,16.659,0,0,0,6.436,27.561c78.362-2.36,163.758-13.27,181.241-15.593,0-.06,0-.12,0-.181a16.672,16.672,0,0,0-8.738-14.665Z" transform="translate(-0.008 -2.071)" fill="#ad84ff"/>
            <path id="Trazado_119609" data-name="Trazado 119609" d="M15.269,167.224l.616.08a15.736,15.736,0,0,0,2.023.124H174.69l-.05.546a17.078,17.078,0,0,1-17.01,15.47H32.342a17.075,17.075,0,0,1-17.021-15.6Zm158.316,1.2H17.907c-.526,0-1.037-.022-1.526-.064a16.076,16.076,0,0,0,15.961,14.08H157.629a16.086,16.086,0,0,0,15.955-14.016Z" transform="translate(-0.243 -2.576)" fill="#ad84ff"/>
            <path id="Trazado_119610" data-name="Trazado 119610" d="M154.873,183.18c-7.168,4.805-20.028,13.657-33.813,24.282H79.153L45.34,183.18Z" transform="translate(-0.696 -2.812)" fill="#12263f"/>
            <path id="Trazado_119610_-_Contorno" data-name="Trazado 119610 - Contorno" d="M43.787,182.68h112.73l-1.365.915c-8.076,5.414-20.494,14.018-33.786,24.262l-.135.1H78.992Zm109.446,1H46.893l32.42,23.282h41.576C133.427,197.3,145.175,189.112,153.233,183.68Z" transform="translate(-0.696 -2.812)" fill="#ad84ff"/>
            <rect id="Rectángulo_33983" data-name="Rectángulo 33983" width="15.607" height="40.873" transform="translate(138.57 0.492)" fill="#12263f"/>
            <path id="Rectángulo_33983_-_Contorno" data-name="Rectángulo 33983 - Contorno" d="M-.5-.5H16.107V41.373H-.5ZM15.107.5H.5V40.373H15.107Z" transform="translate(138.57 0.492)" fill="#ad84ff"/>
            <rect id="Rectángulo_33984" data-name="Rectángulo 33984" width="7.808" height="40.873" transform="translate(32.149 0.492)" fill="#12263f"/>
            <path id="Rectángulo_33984_-_Contorno" data-name="Rectángulo 33984 - Contorno" d="M-.5-.5H8.308V41.373H-.5ZM7.308.5H.5V40.373H7.308Z" transform="translate(32.149 0.492)" fill="#ad84ff"/>
            <path id="Trazado_119611" data-name="Trazado 119611" d="M23.618.5V41.373h-5.2a17.368,17.368,0,0,1-2.6-.2V.5Z" transform="translate(-0.243 -0.008)" fill="#12263f"/>
            <path id="Trazado_119611_-_Contorno" data-name="Trazado 119611 - Contorno" d="M15.32,0h8.8V41.873h-5.7a17.953,17.953,0,0,1-2.674-.2l-.425-.064Zm7.8,1h-6.8V40.74a16.888,16.888,0,0,0,2.1.132h4.7Z" transform="translate(-0.243 -0.008)" fill="#ad84ff"/>
            <path id="Trazado_119612" data-name="Trazado 119612" d="M185.609.5V40.91a20.741,20.741,0,0,1-4.382.463H166.3V.5Z" transform="translate(-2.552 -0.008)" fill="#12263f"/>
            <path id="Trazado_119612_-_Contorno" data-name="Trazado 119612 - Contorno" d="M165.8,0h20.309V41.314l-.395.085a21.359,21.359,0,0,1-4.487.474H165.8Zm19.309,1H166.8V40.873h14.427a20.406,20.406,0,0,0,3.882-.371Z" transform="translate(-2.552 -0.008)" fill="#ad84ff"/>
            <path id="Trazado_119613" data-name="Trazado 119613" d="M78.129,207.34h44.918l-1.154.9-.719.557-.719.556c-6.429,4.989-13.141,7.518-19.951,7.518a28.255,28.255,0,0,1-8.02-1.179A31.451,31.451,0,0,1,86.3,213.1a28,28,0,0,1-5.393-3.759Zm41.994,1H81.231l.316.227.025.024a27.247,27.247,0,0,0,5.238,3.645,30.438,30.438,0,0,0,5.979,2.5,27.252,27.252,0,0,0,7.716,1.132c6.582,0,13.089-2.459,19.338-7.308Z" transform="translate(-1.223 -3.19)" fill="#ad84ff"/>
            <path id="Trazado_119614" data-name="Trazado 119614" d="M194.245,59.365a17.183,17.183,0,0,1-13.381,16.749H14.064c-.571-.128-1.123-.286-1.664-.463C90.1,72.5,174.858,57.918,193.556,54.56A16.822,16.822,0,0,1,194.245,59.365Z" transform="translate(-0.19 -0.837)" fill="#12263f"/>
            <path id="Trazado_119614_-_Contorno" data-name="Trazado 119614 - Contorno" d="M193.908,53.989l.127.429a17.378,17.378,0,0,1,.71,4.947A17.683,17.683,0,0,1,180.973,76.6l-.054.012H14.009l-.054-.012c-.549-.123-1.109-.279-1.71-.476l-2.635-.862,2.771-.112c17.9-.726,37.559-2.122,58.427-4.151,17.267-1.678,35.513-3.8,54.23-6.313,33.157-4.448,58.9-8.908,68.431-10.62Zm-13.1,21.625A16.667,16.667,0,0,0,193.2,55.132C183.323,56.9,157.842,61.3,125.17,65.679,106.441,68.191,88.183,70.317,70.9,72c-16.566,1.61-32.37,2.822-47.142,3.618Z" transform="translate(-0.19 -0.837)" fill="#ad84ff"/>
            <path id="Trazado_119615" data-name="Trazado 119615" d="M189.112,106.365c-.138.138-.286.286-.433.414.089.079.177.167.266.256H5.77a1.424,1.424,0,0,1,.217-.207C84.739,104.563,172.895,91.24,193,88.06a17.175,17.175,0,0,1-3.889,18.3Z" transform="translate(-0.089 -1.352)" fill="#12263f"/>
            <path id="Trazado_119615_-_Contorno" data-name="Trazado 119615 - Contorno" d="M190.152,107.534H4.668l.726-.829a1.9,1.9,0,0,1,.293-.278l.127-.1.159,0c18.151-.522,38.2-1.679,59.591-3.439,17.719-1.458,36.515-3.341,55.865-5.6,34.413-4.013,61.462-8.137,71.5-9.724l.4-.063.146.377a17.647,17.647,0,0,1-4,18.839l-.065.065ZM26,106.534H188.2l.154-.134c.134-.116.273-.255.407-.389a16.68,16.68,0,0,0,3.917-17.393c-10.346,1.632-37.153,5.7-71.132,9.666-19.362,2.258-38.169,4.143-55.9,5.6C51.819,105.023,38.554,105.909,26,106.534Z" transform="translate(-0.089 -1.352)" fill="#ad84ff"/>
            <path id="Trazado_119616" data-name="Trazado 119616" d="M194.19,119.793a17.175,17.175,0,0,1-8.586,14.868H9.213a3.644,3.644,0,0,1-.423-.246C88.379,132.3,176.6,121,194.151,118.67,194.18,119.044,194.19,119.418,194.19,119.793Z" transform="translate(-0.135 -1.821)" fill="#12263f"/>
            <path id="Trazado_119616_-_Contorno" data-name="Trazado 119616 - Contorno" d="M194.607,118.1l.042.526c.028.349.041.729.041,1.162a17.674,17.674,0,0,1-8.837,15.3l-.116.067H9.1l-.1-.047a4.05,4.05,0,0,1-.482-.279l-1.365-.877,1.622-.043c79.661-2.119,168.34-13.484,185.308-15.74Zm-9.138,16.056a16.676,16.676,0,0,0,8.221-14.368c0-.2,0-.381-.009-.556-16.622,2.2-91.048,11.68-163.869,14.924Z" transform="translate(-0.135 -1.821)" fill="#ad84ff"/>
            <path id="Trazado_119617" data-name="Trazado 119617" d="M194.236,151.13a17.169,17.169,0,0,1-12.869,16H13.592c-.394-.1-.778-.217-1.162-.345C91.113,164.423,177.024,153.424,194.236,151.13Z" transform="translate(-0.191 -2.32)" fill="#12263f"/>
            <path id="Trazado_119617_-_Contorno" data-name="Trazado 119617 - Contorno" d="M194.756,150.556l-.021.591a17.669,17.669,0,0,1-13.244,16.467l-.061.016H13.53l-.06-.015c-.362-.09-.743-.2-1.2-.355l-2.669-.89,2.812-.084c79.04-2.374,165.271-13.455,181.755-15.652ZM181.3,166.631a16.671,16.671,0,0,0,12.4-14.926c-16.558,2.2-90.828,11.67-163.8,14.926Z" transform="translate(-0.191 -2.32)" fill="#ad84ff"/>
          </g>
        </g>
        <path id="Trazado_119619" data-name="Trazado 119619" d="M8.4,0H.945V-1.039L4.883-5.414A9.354,9.354,0,0,0,6.09-7.027a2.693,2.693,0,0,0,.332-1.285,2.041,2.041,0,0,0-.539-1.461,1.885,1.885,0,0,0-1.437-.57A2.232,2.232,0,0,0,2.77-9.73a2.343,2.343,0,0,0-.6,1.707H.727a3.355,3.355,0,0,1,1.012-2.539,3.751,3.751,0,0,1,2.707-.969,3.6,3.6,0,0,1,2.508.832,2.838,2.838,0,0,1,.922,2.215q0,1.68-2.141,4L2.688-1.18H8.4Zm8.875-10.562L12.563,0H11.047l4.7-10.187H9.586v-1.187h7.688Zm7.109,2.109.039.938A3.122,3.122,0,0,1,26.93-8.609,2.417,2.417,0,0,1,29.344-7.25a3.2,3.2,0,0,1,1.1-.984,3.242,3.242,0,0,1,1.6-.375q2.781,0,2.828,2.945V0H33.422V-5.578a1.941,1.941,0,0,0-.414-1.355,1.823,1.823,0,0,0-1.391-.449,1.916,1.916,0,0,0-1.336.48,1.949,1.949,0,0,0-.617,1.293V0H28.211V-5.539a1.613,1.613,0,0,0-1.8-1.844,1.934,1.934,0,0,0-1.945,1.211V0H23.016V-8.453Zm14.023,0,.039.938a3.122,3.122,0,0,1,2.508-1.094A2.417,2.417,0,0,1,43.367-7.25a3.2,3.2,0,0,1,1.1-.984,3.242,3.242,0,0,1,1.6-.375q2.781,0,2.828,2.945V0H47.445V-5.578a1.941,1.941,0,0,0-.414-1.355,1.823,1.823,0,0,0-1.391-.449A1.916,1.916,0,0,0,44.3-6.9a1.949,1.949,0,0,0-.617,1.293V0H42.234V-5.539a1.613,1.613,0,0,0-1.8-1.844,1.934,1.934,0,0,0-1.945,1.211V0H37.039V-8.453Z" transform="translate(530 10737.227)" fill="#12263f"/>
        <path id="Trazado_119619-2" data-name="Trazado 119619" d="M-8627.5-976.547h-1v-33.906h1Z" transform="translate(9080 11725.227)" fill="#12263f"/>
        <path id="Trazado_119620" data-name="Trazado 119620" d="M-8627.5-976.547h-1v-33.906h1Z" transform="translate(9280.327 11725.227)" fill="#12263f"/>
        <g id="Grupo_151670" data-name="Grupo 151670" transform="translate(-128 25.227)">
          <path id="Trazado_119621" data-name="Trazado 119621" d="M-8564.125-993H-8608v-1h43.875Z" transform="translate(9208 11700)" fill="#12263f"/>
          <path id="Polígono_7" data-name="Polígono 7" d="M5.5,0,11,9H0Z" transform="translate(596 10712) rotate(-90)" fill="#12263f"/>
        </g>
        <g id="Grupo_151671" data-name="Grupo 151671" transform="translate(599 10726.227)">
          <path id="Trazado_119621-2" data-name="Trazado 119621" d="M-8558.673-993H-8608v-1h49.327Z" transform="translate(8608 999)" fill="#12263f"/>
          <path id="Polígono_7-2" data-name="Polígono 7" d="M5.5,0,11,9H0Z" transform="translate(53.327) rotate(90)" fill="#12263f"/>
        </g>
        <path id="Trazado_119622" data-name="Trazado 119622" d="M-8368.079-941.464h-1V-963.5H-8393.2v-1h25.116Z" transform="translate(9051 11725.227)" fill="#707070"/>
        <path id="Trazado_119620-2" data-name="Trazado 119620" d="M8.4,0H.945V-1.039L4.883-5.414A9.354,9.354,0,0,0,6.09-7.027a2.693,2.693,0,0,0,.332-1.285,2.041,2.041,0,0,0-.539-1.461,1.885,1.885,0,0,0-1.437-.57A2.232,2.232,0,0,0,2.77-9.73a2.343,2.343,0,0,0-.6,1.707H.727a3.355,3.355,0,0,1,1.012-2.539,3.751,3.751,0,0,1,2.707-.969,3.6,3.6,0,0,1,2.508.832,2.838,2.838,0,0,1,.922,2.215q0,1.68-2.141,4L2.688-1.18H8.4Zm7.2-11.383v1.227h-.266a3.805,3.805,0,0,0-2.687,1A4.161,4.161,0,0,0,11.492-6.43a3.085,3.085,0,0,1,2.453-1.031,2.95,2.95,0,0,1,2.371,1.047,4.038,4.038,0,0,1,.887,2.7A4.025,4.025,0,0,1,16.246-.9,3.3,3.3,0,0,1,13.68.156,3.247,3.247,0,0,1,11.031-1.1a4.97,4.97,0,0,1-1.016-3.23v-.555a7.488,7.488,0,0,1,1.34-4.8,4.921,4.921,0,0,1,3.988-1.7ZM13.7-6.258a2.306,2.306,0,0,0-1.367.445A2.32,2.32,0,0,0,11.469-4.7v.531A3.731,3.731,0,0,0,12.1-1.9a1.9,1.9,0,0,0,1.578.859,1.838,1.838,0,0,0,1.535-.719,2.982,2.982,0,0,0,.559-1.883,2.983,2.983,0,0,0-.566-1.895A1.816,1.816,0,0,0,13.7-6.258Zm5.391,5.5a.905.905,0,0,1,.223-.625.848.848,0,0,1,.668-.25.874.874,0,0,1,.676.25.887.887,0,0,1,.23.625.839.839,0,0,1-.23.6.89.89,0,0,1-.676.242.863.863,0,0,1-.668-.242A.855.855,0,0,1,19.094-.758Zm9.7-10.625v1.227h-.266a3.805,3.805,0,0,0-2.687,1A4.161,4.161,0,0,0,24.688-6.43a3.085,3.085,0,0,1,2.453-1.031,2.95,2.95,0,0,1,2.371,1.047,4.038,4.038,0,0,1,.887,2.7A4.025,4.025,0,0,1,29.441-.9,3.3,3.3,0,0,1,26.875.156,3.247,3.247,0,0,1,24.227-1.1a4.97,4.97,0,0,1-1.016-3.23v-.555a7.488,7.488,0,0,1,1.34-4.8,4.921,4.921,0,0,1,3.988-1.7ZM26.9-6.258a2.306,2.306,0,0,0-1.367.445A2.32,2.32,0,0,0,24.664-4.7v.531A3.731,3.731,0,0,0,25.3-1.9a1.9,1.9,0,0,0,1.578.859,1.838,1.838,0,0,0,1.535-.719,2.982,2.982,0,0,0,.559-1.883A2.983,2.983,0,0,0,28.4-5.535,1.816,1.816,0,0,0,26.9-6.258Zm12.555-4.3L34.742,0H33.227l4.7-10.187H31.766v-1.187h7.688ZM42.6-8.453l.039.938a3.122,3.122,0,0,1,2.508-1.094A2.417,2.417,0,0,1,47.563-7.25a3.2,3.2,0,0,1,1.1-.984,3.242,3.242,0,0,1,1.6-.375q2.781,0,2.828,2.945V0H51.641V-5.578a1.941,1.941,0,0,0-.414-1.355,1.823,1.823,0,0,0-1.391-.449A1.916,1.916,0,0,0,48.5-6.9a1.949,1.949,0,0,0-.617,1.293V0H46.43V-5.539a1.613,1.613,0,0,0-1.8-1.844A1.934,1.934,0,0,0,42.68-6.172V0H41.234V-8.453Zm14.023,0,.039.938a3.122,3.122,0,0,1,2.508-1.094A2.417,2.417,0,0,1,61.586-7.25a3.2,3.2,0,0,1,1.1-.984,3.242,3.242,0,0,1,1.6-.375q2.781,0,2.828,2.945V0H65.664V-5.578a1.941,1.941,0,0,0-.414-1.355,1.823,1.823,0,0,0-1.391-.449,1.916,1.916,0,0,0-1.336.48,1.949,1.949,0,0,0-.617,1.293V0H60.453V-5.539a1.613,1.613,0,0,0-1.8-1.844A1.934,1.934,0,0,0,56.7-6.172V0H55.258V-8.453Z" transform="translate(659 10880.395)" fill="#12263f"/>
        <g id="Grupo_151672" data-name="Grupo 151672" transform="translate(676.921 10830.251) rotate(-90)">
          <path id="Trazado_119621-3" data-name="Trazado 119621" d="M-8552.673-993H-8608v-1h55.327Z" transform="translate(8588.304 999)" fill="#12263f"/>
          <path id="Polígono_7-3" data-name="Polígono 7" d="M5.5,0,11,9H0Z" transform="translate(39.63) rotate(90)" fill="#12263f"/>
        </g>
        <g id="Grupo_151673" data-name="Grupo 151673" transform="translate(687.921 10880.511) rotate(90)">
          <path id="Trazado_119621-4" data-name="Trazado 119621" d="M-8581.59-993H-8608v-1h26.41Z" transform="translate(8618.742 999)" fill="#12263f"/>
          <path id="Polígono_7-4" data-name="Polígono 7" d="M5.5,0,11,12.194H0Z" transform="translate(49.346) rotate(90)" fill="#12263f"/>
        </g>
        <path id="Trazado_119623" data-name="Trazado 119623" d="M-8307.113-927.023H-8393.2v-1h85.084V-964h1Z" transform="translate(8990.034 11902.418)" fill="#12263f"/>
        <path id="Trazado_119621-5" data-name="Trazado 119621" d="M7.859-4.93h-4.5v3.047H8.641V0H1.016V-11.375H8.625v1.9H3.359v2.711h4.5ZM17.57,0h-7.8V-1.547l3.68-3.922a9.078,9.078,0,0,0,1.121-1.445,2.322,2.322,0,0,0,.363-1.172,1.738,1.738,0,0,0-.383-1.191,1.382,1.382,0,0,0-1.094-.434,1.49,1.49,0,0,0-1.207.527A2.089,2.089,0,0,0,11.813-7.8H9.547a3.729,3.729,0,0,1,.5-1.9,3.5,3.5,0,0,1,1.4-1.348,4.262,4.262,0,0,1,2.055-.488,4.036,4.036,0,0,1,2.73.844A2.985,2.985,0,0,1,17.2-8.3a3.825,3.825,0,0,1-.437,1.719,9.551,9.551,0,0,1-1.5,2.039L12.68-1.82H17.57Zm9.117-10.109L22.289,0H19.906l4.406-9.547H18.656v-1.828h8.031Z" transform="translate(541.5 11047.227)" fill="#12263f"/>
        <g id="Grupo_151674" data-name="Grupo 151674" transform="translate(845 10761.227)">
          <g id="Enmascarar_grupo_55-2" data-name="Enmascarar grupo 55" clip-path="url(#clip-path-2)">
            <path id="Trazado_119602-2" data-name="Trazado 119602" d="M0,0H18.391V47.974l-.572-.084A20.878,20.878,0,0,1,0,27.234ZM17.391,1H1V27.234A19.88,19.88,0,0,0,17.391,46.808Z" transform="translate(0.068 0.068)" fill="#ad84ff"/>
            <path id="Rectángulo_33980-2" data-name="Rectángulo 33980" d="M-.5-.5H10.615V47.622H-.5ZM9.615.5H.5V46.622H9.615Z" transform="translate(26.95 0.568)" fill="#ad84ff"/>
            <path id="Rectángulo_33981-2" data-name="Rectángulo 33981" d="M-.5-.5H114.19V47.622H-.5ZM113.19.5H.5V46.622H113.19Z" transform="translate(46.066 0.568)" fill="#ad84ff"/>
            <path id="Rectángulo_33982-2" data-name="Rectángulo 33982" d="M-.5-.5H11.534V47.622H-.5ZM10.534.5H.5V46.622H10.534Z" transform="translate(177.749 0.568)" fill="#ad84ff"/>
            <path id="Trazado_119603-2" data-name="Trazado 119603" d="M185.41,0h20.344V23.227a24.869,24.869,0,0,1-19.741,24.351l-.6.126Zm19.344,1H186.41V46.465a23.855,23.855,0,0,0,18.344-23.238Z" transform="translate(25.135 0.068)" fill="#ad84ff"/>
            <path id="Trazado_119604-2" data-name="Trazado 119604" d="M13.937,81.076l-.087-.029A20.292,20.292,0,0,1,20.3,41.51H203.859a20.29,20.29,0,0,1,19.483,14.607l.155.533-.547.1C211.957,58.723,182.258,63.868,144.01,69c-21.592,2.9-42.64,5.347-62.56,7.283-24.079,2.34-46.762,3.952-67.421,4.789ZM20.3,42.51a19.3,19.3,0,0,0-6.217,37.559c20.616-.838,43.247-2.447,67.272-4.782,19.908-1.935,40.944-4.384,62.524-7.279,37.6-5.045,66.936-10.1,78.342-12.144a19.29,19.29,0,0,0-18.36-13.354Z" transform="translate(0.068 5.68)" fill="#ad84ff"/>
            <path id="Trazado_119605-2" data-name="Trazado 119605" d="M5.489,111.8l.59-.59a20.3,20.3,0,0,1,9.729-34.277l-4.365-.986H212.714l-4.366.986A20.343,20.343,0,0,1,222.807,89.45l.222.577-.611.1c-11.573,1.831-42.775,6.588-82.47,11.217-22.321,2.6-44,4.776-64.443,6.458-24.68,2.031-47.813,3.366-68.759,3.968ZM20.3,76.95v.488A19.283,19.283,0,0,0,7.048,110.757c20.841-.606,43.843-1.937,68.375-3.956,20.429-1.681,42.1-3.852,64.409-6.454,38.986-4.546,69.775-9.217,81.808-11.114a19.311,19.311,0,0,0-17.782-11.8V76.95Z" transform="translate(0.068 10.336)" fill="#ad84ff"/>
            <path id="Trazado_119606-2" data-name="Trazado 119606" d="M6.3,106.83H217.866l.145.141a20.082,20.082,0,0,1,6.1,13.2l.029.466-.462.062c-11.094,1.476-41.1,5.323-80.044,9.171-22.278,2.2-43.956,4.051-64.431,5.5-24.834,1.753-48.143,2.926-69.278,3.489h-.18l-.122-.076a20.678,20.678,0,0,1-6.97-7.255,20.248,20.248,0,0,1,3.3-24.377c.06-.06.129-.129.215-.2Zm211.158,1H6.678l-.024.024a19.282,19.282,0,0,0-3.133,23.174,19.674,19.674,0,0,0,6.506,6.824c21.086-.563,44.336-1.735,69.1-3.483,20.466-1.444,42.134-3.293,64.4-5.494,38.391-3.794,68.1-7.587,79.542-9.105A19.081,19.081,0,0,0,217.46,107.83Z" transform="translate(0.068 14.511)" fill="#ad84ff"/>
            <path id="Trazado_119607-2" data-name="Trazado 119607" d="M9.756,166.88H210.961l-3.8.984a20.251,20.251,0,0,1-5.075.64H18.525a19.221,19.221,0,0,1-2.468-.151,19.01,19.01,0,0,1-2.575-.49Z" transform="translate(1.84 22.629)" fill="#ad84ff"/>
            <path id="Trazado_119608-2" data-name="Trazado 119608" d="M8.7,134.41H215.461l-1.2.769a20.293,20.293,0,0,1,9.892,17.429c0,.24,0,.489-.012.739l-.02.417-.414.055c-19.013,2.534-118.477,15.315-209.654,18.054l-.088,0-.084-.028a20.271,20.271,0,0,1-7.938-33.59,20.41,20.41,0,0,1,3.946-3.078Zm203.935,1H11.525l-.41.223a19.4,19.4,0,0,0-8.6,9.469,19.295,19.295,0,0,0,2.209,18.891,19.327,19.327,0,0,0,9.393,6.877c90.45-2.722,189.033-15.327,209.04-17.986,0-.09,0-.182,0-.276a19.3,19.3,0,0,0-10.114-16.974Z" transform="translate(0.068 18.24)" fill="#ad84ff"/>
            <path id="Trazado_119609-2" data-name="Trazado 119609" d="M15.269,167.224l.616.08a18.213,18.213,0,0,0,2.342.143H198.9l-.05.546a19.352,19.352,0,0,1-1.813,6.589,19.629,19.629,0,0,1-17.722,11.177H34.869a19.609,19.609,0,0,1-19.547-17.917Zm182.524,1.224H18.227c-.638,0-1.257-.028-1.846-.082a18.61,18.61,0,0,0,18.488,16.394H179.311a18.593,18.593,0,0,0,18.481-16.312Z" transform="translate(2.139 22.686)" fill="#ad84ff"/>
            <path id="Trazado_119610-2" data-name="Trazado 119610" d="M171.619,183.18c-8.264,5.54-23.09,15.745-38.983,27.994H84.323L45.34,183.18Z" transform="translate(6.13 24.766)" fill="#12263f"/>
            <path id="Trazado_119610_-_Contorno-2" data-name="Trazado 119610 - Contorno" d="M43.787,182.68H173.263l-1.365.915c-9.312,6.242-23.63,16.163-38.956,27.975l-.135.1H84.162l-.131-.094Zm126.192,1H46.893l37.59,26.994h47.983C147.035,199.452,160.681,189.944,169.979,183.68Z" transform="translate(6.13 24.766)" fill="#ad84ff"/>
            <rect id="Rectángulo_33983-2" data-name="Rectángulo 33983" width="17.993" height="47.122" transform="translate(159.756 0.568)" fill="#12263f"/>
            <path id="Rectángulo_33983_-_Contorno-2" data-name="Rectángulo 33983 - Contorno" d="M-.5-.5H18.493V47.622H-.5ZM17.493.5H.5V46.622H17.493Z" transform="translate(159.756 0.568)" fill="#ad84ff"/>
            <rect id="Rectángulo_33984-2" data-name="Rectángulo 33984" width="9.002" height="47.122" transform="translate(37.064 0.568)" fill="#12263f"/>
            <path id="Rectángulo_33984_-_Contorno-2" data-name="Rectángulo 33984 - Contorno" d="M-.5-.5h10V47.622H-.5Zm9,1H.5V46.622h8Z" transform="translate(37.064 0.568)" fill="#ad84ff"/>
            <path id="Trazado_119611-2" data-name="Trazado 119611" d="M24.811.5V47.622H18.817a20.023,20.023,0,0,1-3-.227V.5Z" transform="translate(2.139 0.068)" fill="#12263f"/>
            <path id="Trazado_119611_-_Contorno-2" data-name="Trazado 119611 - Contorno" d="M15.32,0h9.991V48.122H18.817a20.62,20.62,0,0,1-3.072-.233l-.425-.064Zm8.991,1H16.32V46.96a19.557,19.557,0,0,0,2.5.162h5.494Z" transform="translate(2.139 0.068)" fill="#ad84ff"/>
            <path id="Trazado_119612-2" data-name="Trazado 119612" d="M188.561.5V47.089a23.912,23.912,0,0,1-5.052.534H166.3V.5Z" transform="translate(22.483 0.068)" fill="#12263f"/>
            <path id="Trazado_119612_-_Contorno-2" data-name="Trazado 119612 - Contorno" d="M165.8,0h23.261V47.492l-.395.085a24.548,24.548,0,0,1-5.157.545H165.8Zm22.261,1H166.8V47.122h16.71a23.6,23.6,0,0,0,4.552-.441Z" transform="translate(22.483 0.068)" fill="#ad84ff"/>
            <path id="Trazado_119613-2" data-name="Trazado 119613" d="M78.129,207.34h51.325l-1.154.9-.832.644-.825.639c-7.4,5.741-15.121,8.652-22.954,8.652a32.5,32.5,0,0,1-9.224-1.356,36.184,36.184,0,0,1-7.116-2.979,32.154,32.154,0,0,1-6.206-4.326Zm48.4,1h-45.3l.552.4.025.024a31.475,31.475,0,0,0,6.051,4.212,35.169,35.169,0,0,0,6.91,2.887,31.5,31.5,0,0,0,8.92,1.309c7.606,0,15.123-2.84,22.342-8.442Z" transform="translate(10.773 28.1)" fill="#ad84ff"/>
            <path id="Trazado_119614-2" data-name="Trazado 119614" d="M222.048,60.1a19.81,19.81,0,0,1-15.427,19.31H14.318c-.658-.148-1.294-.329-1.918-.534,89.578-3.633,187.3-20.445,208.854-24.316A19.394,19.394,0,0,1,222.048,60.1Z" transform="translate(1.676 7.376)" fill="#12263f"/>
            <path id="Trazado_119614_-_Contorno-2" data-name="Trazado 119614 - Contorno" d="M221.606,53.989l.127.429a19.958,19.958,0,0,1,.815,5.682A20.31,20.31,0,0,1,206.73,79.9l-.054.012H14.263l-.054-.012c-.631-.142-1.274-.32-1.965-.546L9.61,78.489l2.77-.112c20.64-.837,43.3-2.447,67.365-4.786,19.908-1.935,40.944-4.384,62.524-7.279,38.228-5.129,67.91-10.271,78.9-12.244Zm-15.04,24.921A19.291,19.291,0,0,0,220.9,55.132c-11.335,2.03-40.754,7.108-78.5,12.171-21.592,2.9-42.64,5.347-62.56,7.283C59.65,76.549,40.439,78,22.581,78.909Z" transform="translate(1.676 7.376)" fill="#ad84ff"/>
            <path id="Trazado_119615-2" data-name="Trazado 119615" d="M217.144,109.163c-.159.159-.329.329-.5.477.1.091.2.193.307.3H5.77a1.642,1.642,0,0,1,.25-.238c90.793-2.611,192.427-17.97,215.608-21.637a19.8,19.8,0,0,1-4.484,21.1Z" transform="translate(0.78 11.906)" fill="#12263f"/>
            <path id="Trazado_119615_-_Contorno-2" data-name="Trazado 119615 - Contorno" d="M218.158,110.435H4.668l.726-.829a2.121,2.121,0,0,1,.326-.309l.127-.1.159,0c20.928-.6,44.044-1.936,68.706-3.965,20.429-1.681,42.1-3.852,64.41-6.454C178.8,94.151,209.983,89.4,221.55,87.566l.4-.063.146.377a20.269,20.269,0,0,1-4.6,21.637l-.129.129Zm-192.221-1H216.117l.2-.173c.157-.136.317-.3.473-.452A19.306,19.306,0,0,0,221.3,88.618c-11.882,1.875-42.826,6.577-82.066,11.153-22.321,2.6-44,4.776-64.443,6.458C57.695,107.635,41.337,108.709,25.937,109.435Z" transform="translate(0.78 11.906)" fill="#ad84ff"/>
            <path id="Trazado_119616-2" data-name="Trazado 119616" d="M222.536,119.964a19.8,19.8,0,0,1-9.9,17.141H9.278a4.2,4.2,0,0,1-.488-.284c91.758-2.441,193.472-15.461,213.7-18.152C222.525,119.1,222.536,119.533,222.536,119.964Z" transform="translate(1.188 16.044)" fill="#12263f"/>
            <path id="Trazado_119616_-_Contorno-2" data-name="Trazado 119616 - Contorno" d="M222.948,118.1l.042.526c.032.4.047.836.047,1.333a20.3,20.3,0,0,1-10.149,17.575l-.116.067H9.167l-.1-.047a4.6,4.6,0,0,1-.547-.316l-1.365-.877,1.622-.043c21.121-.562,44.415-1.735,69.235-3.486,20.466-1.444,42.134-3.293,64.4-5.494,38.925-3.847,68.921-7.693,80.01-9.168Zm-10.445,18.5a19.24,19.24,0,0,0,9.533-16.642c0-.26,0-.5-.013-.728-11.5,1.525-41.179,5.312-79.51,9.1-22.278,2.2-43.956,4.051-64.431,5.5-16.978,1.2-33.245,2.126-48.59,2.773Z" transform="translate(1.188 16.044)" fill="#ad84ff"/>
            <path id="Trazado_119617-2" data-name="Trazado 119617" d="M222.033,151.13A19.794,19.794,0,0,1,207.2,169.577H13.77c-.454-.114-.9-.25-1.34-.4C103.144,166.455,202.19,153.775,222.033,151.13Z" transform="translate(1.681 20.432)" fill="#12263f"/>
            <path id="Trazado_119617_-_Contorno-2" data-name="Trazado 119617 - Contorno" d="M222.553,150.556l-.021.591a20.294,20.294,0,0,1-15.212,18.914l-.062.016H13.708l-.06-.015c-.416-.1-.853-.234-1.376-.408l-2.669-.89,2.812-.084c91.128-2.737,190.547-15.512,209.552-18.045Zm-15.421,18.521A19.3,19.3,0,0,0,221.5,151.7c-19.161,2.544-107.067,13.767-192.446,17.372Z" transform="translate(1.681 20.432)" fill="#ad84ff"/>
          </g>
        </g>
        <path id="Trazado_119624" data-name="Trazado 119624" d="M7.047-3.82H8.625v1.18H7.047V0H5.594V-2.641H.414v-.852l5.094-7.883H7.047Zm-4.992,0H5.594V-9.4l-.172.313ZM17.063-4.852A6.61,6.61,0,0,1,16.2-1.078,3.084,3.084,0,0,1,13.484.156a3.107,3.107,0,0,1-2.7-1.207,6.274,6.274,0,0,1-.906-3.605v-1.93a6.463,6.463,0,0,1,.867-3.727,3.108,3.108,0,0,1,2.719-1.219,3.136,3.136,0,0,1,2.7,1.176,6.237,6.237,0,0,1,.891,3.629ZM15.617-6.828A5.3,5.3,0,0,0,15.1-9.5a1.775,1.775,0,0,0-1.633-.84,1.751,1.751,0,0,0-1.617.836,5.171,5.171,0,0,0-.523,2.57v2.313A5.381,5.381,0,0,0,11.863-1.9a1.771,1.771,0,0,0,1.621.879,1.747,1.747,0,0,0,1.59-.828,5.186,5.186,0,0,0,.543-2.609Zm8.766-1.625.039.938A3.122,3.122,0,0,1,26.93-8.609,2.417,2.417,0,0,1,29.344-7.25a3.2,3.2,0,0,1,1.1-.984,3.242,3.242,0,0,1,1.6-.375q2.781,0,2.828,2.945V0H33.422V-5.578a1.941,1.941,0,0,0-.414-1.355,1.823,1.823,0,0,0-1.391-.449,1.916,1.916,0,0,0-1.336.48,1.949,1.949,0,0,0-.617,1.293V0H28.211V-5.539a1.613,1.613,0,0,0-1.8-1.844,1.934,1.934,0,0,0-1.945,1.211V0H23.016V-8.453Zm14.023,0,.039.938a3.122,3.122,0,0,1,2.508-1.094A2.417,2.417,0,0,1,43.367-7.25a3.2,3.2,0,0,1,1.1-.984,3.242,3.242,0,0,1,1.6-.375q2.781,0,2.828,2.945V0H47.445V-5.578a1.941,1.941,0,0,0-.414-1.355,1.823,1.823,0,0,0-1.391-.449A1.916,1.916,0,0,0,44.3-6.9a1.949,1.949,0,0,0-.617,1.293V0H42.234V-5.539a1.613,1.613,0,0,0-1.8-1.844,1.934,1.934,0,0,0-1.945,1.211V0H37.039V-8.453Z" transform="translate(934 10737.227)" fill="#12263f"/>
        <path id="Trazado_119624-2" data-name="Trazado 119624" d="M-8627.5-976.547h-1v-33.906h1Z" transform="translate(9473 11725.227)" fill="#12263f"/>
        <path id="Trazado_119625" data-name="Trazado 119625" d="M-8627.5-976.547h-1v-33.906h1Z" transform="translate(9703 11725.227)" fill="#12263f"/>
        <g id="Grupo_151675" data-name="Grupo 151675" transform="translate(265 25.227)">
          <path id="Trazado_119621-6" data-name="Trazado 119621" d="M-8553.789-993H-8608v-1h54.211Z" transform="translate(9208 11700)" fill="#12263f"/>
          <path id="Polígono_7-5" data-name="Polígono 7" d="M5.5,0,11,9H0Z" transform="translate(596 10712) rotate(-90)" fill="#12263f"/>
        </g>
        <g id="Grupo_151676" data-name="Grupo 151676" transform="translate(992 10726.227)">
          <path id="Trazado_119621-7" data-name="Trazado 119621" d="M-8553.789-993H-8608v-1h54.211Z" transform="translate(8608 999)" fill="#12263f"/>
          <path id="Polígono_7-6" data-name="Polígono 7" d="M5.5,0,11,9H0Z" transform="translate(58.211) rotate(90)" fill="#12263f"/>
        </g>
        <path id="Trazado_119626" data-name="Trazado 119626" d="M-8368.079-918.928h-1V-963.5H-8393.2v-1h25.116Z" transform="translate(9473 11725.227)" fill="#707070"/>
        <path id="Trazado_119623-2" data-name="Trazado 119623" d="M7.047-3.82H8.625v1.18H7.047V0H5.594V-2.641H.414v-.852l5.094-7.883H7.047Zm-4.992,0H5.594V-9.4l-.172.313Zm15.219-6.742L12.563,0H11.047l4.7-10.187H9.586v-1.187h7.688Zm1.82,9.8a.905.905,0,0,1,.223-.625.848.848,0,0,1,.668-.25.874.874,0,0,1,.676.25.887.887,0,0,1,.23.625.839.839,0,0,1-.23.6.89.89,0,0,1-.676.242.863.863,0,0,1-.668-.242A.855.855,0,0,1,19.094-.758Zm11.375-9.8L25.758,0H24.242l4.7-10.187H22.781v-1.187h7.688Zm2.3,4.859.578-5.672H39.18v1.336h-4.6l-.344,3.1a3.671,3.671,0,0,1,1.9-.492A3.138,3.138,0,0,1,38.6-6.4a4.026,4.026,0,0,1,.914,2.777,3.886,3.886,0,0,1-.949,2.77A3.46,3.46,0,0,1,35.914.156,3.6,3.6,0,0,1,33.453-.68a3.337,3.337,0,0,1-1.086-2.312h1.367a2.3,2.3,0,0,0,.7,1.473,2.162,2.162,0,0,0,1.484.5A1.95,1.95,0,0,0,37.5-1.711a2.874,2.874,0,0,0,.574-1.9,2.638,2.638,0,0,0-.621-1.832A2.113,2.113,0,0,0,35.8-6.133a2.383,2.383,0,0,0-1.484.414l-.383.313ZM42.6-8.453l.039.938a3.122,3.122,0,0,1,2.508-1.094A2.417,2.417,0,0,1,47.563-7.25a3.2,3.2,0,0,1,1.1-.984,3.242,3.242,0,0,1,1.6-.375q2.781,0,2.828,2.945V0H51.641V-5.578a1.941,1.941,0,0,0-.414-1.355,1.823,1.823,0,0,0-1.391-.449A1.916,1.916,0,0,0,48.5-6.9a1.949,1.949,0,0,0-.617,1.293V0H46.43V-5.539a1.613,1.613,0,0,0-1.8-1.844A1.934,1.934,0,0,0,42.68-6.172V0H41.234V-8.453Zm14.023,0,.039.938a3.122,3.122,0,0,1,2.508-1.094A2.417,2.417,0,0,1,61.586-7.25a3.2,3.2,0,0,1,1.1-.984,3.242,3.242,0,0,1,1.6-.375q2.781,0,2.828,2.945V0H65.664V-5.578a1.941,1.941,0,0,0-.414-1.355,1.823,1.823,0,0,0-1.391-.449,1.916,1.916,0,0,0-1.336.48,1.949,1.949,0,0,0-.617,1.293V0H60.453V-5.539a1.613,1.613,0,0,0-1.8-1.844A1.934,1.934,0,0,0,56.7-6.172V0H55.258V-8.453Z" transform="translate(1080 10880.227)" fill="#12263f"/>
        <g id="Grupo_151677" data-name="Grupo 151677" transform="translate(1098.921 10868.832) rotate(-90)">
          <path id="Trazado_119621-8" data-name="Trazado 119621" d="M-8564.531-993H-8608v-1h43.469Z" transform="translate(8618.742 999)" fill="#12263f"/>
          <path id="Polígono_7-7" data-name="Polígono 7" d="M5.5,0,11,9H0Z" transform="translate(58.211) rotate(90)" fill="#12263f"/>
        </g>
        <g id="Grupo_151678" data-name="Grupo 151678" transform="translate(1109.921 10876.879) rotate(90)">
          <path id="Trazado_119621-9" data-name="Trazado 119621" d="M-8564.531-993H-8608v-1h43.469Z" transform="translate(8618.742 999)" fill="#12263f"/>
          <path id="Polígono_7-8" data-name="Polígono 7" d="M5.5,0,11,9H0Z" transform="translate(58.211) rotate(90)" fill="#12263f"/>
        </g>
        <path id="Trazado_119627" data-name="Trazado 119627" d="M-8278.115-898.163H-8393.2v-1h114.082V-964h1Z" transform="translate(9383.034 11906.227)" fill="#12263f"/>
        <path id="Trazado_119622-2" data-name="Trazado 119622" d="M7.859-4.93h-4.5v3.047H8.641V0H1.016V-11.375H8.625v1.9H3.359v2.711h4.5Zm8.594.648h1.289v1.82H16.453V0H14.2V-2.461H9.531l-.1-1.422,4.742-7.492h2.281Zm-4.773,0H14.2V-8.3l-.148.258ZM26.609-4.7a5.763,5.763,0,0,1-.977,3.609A3.409,3.409,0,0,1,22.773.156,3.433,3.433,0,0,1,19.93-1.07a5.594,5.594,0,0,1-1.008-3.516V-6.68A5.687,5.687,0,0,1,19.91-10.3a3.434,3.434,0,0,1,2.848-1.234A3.437,3.437,0,0,1,25.6-10.309,5.576,5.576,0,0,1,26.609-6.8ZM24.352-7a4.158,4.158,0,0,0-.387-2.059A1.307,1.307,0,0,0,22.758-9.7a1.284,1.284,0,0,0-1.176.613,3.891,3.891,0,0,0-.4,1.918v2.766a4.365,4.365,0,0,0,.379,2.066,1.29,1.29,0,0,0,1.215.676,1.268,1.268,0,0,0,1.2-.648A4.26,4.26,0,0,0,24.352-4.3Z" transform="translate(950 11047.227)" fill="#12263f"/>
      </g>
    </g>
  </g>
</svg>
