<svg xmlns="http://www.w3.org/2000/svg" xmlns:xlink="http://www.w3.org/1999/xlink" width="505" height="267.817" viewBox="0 0 505 267.817">
  <defs>
    <clipPath id="clip-path">
      <rect id="Rectángulo_34173" data-name="Rectángulo 34173" width="358.118" height="267.817" fill="none"/>
    </clipPath>
  </defs>
  <g id="Grupo_152213" data-name="Grupo 152213" transform="translate(-915 -1950.184)">
    <g id="Grupo_151758" data-name="Grupo 151758">
      <rect id="Rectángulo_34174" data-name="Rectángulo 34174" width="505" height="134" transform="translate(915 2043)" fill="#f2f8ff"/>
      <g id="Grupo_151757" data-name="Grupo 151757" transform="translate(956.882 1950.184)">
        <g id="Grupo_151756" data-name="Grupo 151756" clip-path="url(#clip-path)">
          <path id="Trazado_119854" data-name="Trazado 119854" d="M67.39,79.395l.1-2.812-7.159-.22-.1,2.814Z" transform="translate(40.822 51.759)" fill="#8d96fe"/>
          <path id="Trazado_119855" data-name="Trazado 119855" d="M73.75,79.585l.094-2.81-7.159-.216-.1,2.812Z" transform="translate(45.132 51.892)" fill="#8d96fe"/>
          <rect id="Rectángulo_34126" data-name="Rectángulo 34126" width="2.816" height="7.169" transform="translate(122.386 131.583) rotate(-88.224)" fill="#8d96fe"/>
          <rect id="Rectángulo_34127" data-name="Rectángulo 34127" width="2.812" height="7.163" transform="matrix(0.029, -1, 1, 0.029, 133.056, 131.912)" fill="#8d96fe"/>
          <rect id="Rectángulo_34128" data-name="Rectángulo 34128" width="2.812" height="7.164" transform="translate(143.725 132.241) rotate(-88.393)" fill="#8d96fe"/>
          <path id="Trazado_119856" data-name="Trazado 119856" d="M99.186,80.362l.072-2.812L92.1,77.33l-.077,2.812Z" transform="translate(62.373 52.415)" fill="#8d96fe"/>
          <path id="Trazado_119857" data-name="Trazado 119857" d="M105.544,80.552l.067-2.812-7.159-.216-.072,2.814Z" transform="translate(66.682 52.546)" fill="#8d96fe"/>
          <path id="Trazado_119858" data-name="Trazado 119858" d="M111.905,80.747l.06-2.812-7.161-.218-.064,2.814Z" transform="translate(70.994 52.677)" fill="#8d96fe"/>
          <path id="Trazado_119859" data-name="Trazado 119859" d="M118.046,81.19l.445-2.782a41.047,41.047,0,0,0-4.944-.43l-2.388-.069-.059,2.812,2.357.069a37.58,37.58,0,0,1,4.589.4" transform="translate(75.304 52.808)" fill="#8d96fe"/>
          <path id="Trazado_119860" data-name="Trazado 119860" d="M123.654,83.754l1.21-2.542s-.421-.191-1.055-.483a25.125,25.125,0,0,0-2.364-.961,23.972,23.972,0,0,0-2.421-.8l-1.116-.332-.7,2.728,1.029.307a34.373,34.373,0,0,1,4.441,1.638c.589.268.978.448.978.448" transform="translate(79.443 53.298)" fill="#8d96fe"/>
          <path id="Trazado_119861" data-name="Trazado 119861" d="M128.376,87.685l1.861-2.112s-.354-.3-.891-.742a22.944,22.944,0,0,0-2-1.569,24.015,24.015,0,0,0-2.1-1.443l-.978-.621-1.445,2.416.914.577a21.856,21.856,0,0,1,1.948,1.339,22.719,22.719,0,0,1,1.871,1.46l.825.695" transform="translate(83.246 55.037)" fill="#8d96fe"/>
          <path id="Trazado_119862" data-name="Trazado 119862" d="M131.861,92.641l2.361-1.535s-.263-.383-.663-.95-.918-1.344-1.517-2.05c-.57-.725-1.156-1.448-1.644-1.946l-.784-.854-2.035,1.94s.29.319.726.794c.453.463.993,1.138,1.532,1.814a23.326,23.326,0,0,1,1.409,1.9c.372.53.614.884.614.884" transform="translate(86.474 57.821)" fill="#8d96fe"/>
          <path id="Trazado_119863" data-name="Trazado 119863" d="M133.712,98.3l2.7-.777s-.525-1.79-1.221-3.513a33.576,33.576,0,0,0-1.567-3.374l-2.488,1.305a29.436,29.436,0,0,1,1.441,3.117c.644,1.592,1.131,3.24,1.131,3.242" transform="translate(88.888 61.435)" fill="#8d96fe"/>
          <path id="Trazado_119864" data-name="Trazado 119864" d="M133.54,104.158l2.81.144a11.56,11.56,0,0,0,.027-1.166c-.015-.7.044-1.638-.05-2.565a34.358,34.358,0,0,0-.445-3.706l-2.772.483a31.171,31.171,0,0,1,.408,3.393c.087.851.025,1.711.052,2.351s-.034,1.067-.03,1.067" transform="translate(90.223 65.656)" fill="#8d96fe"/>
          <path id="Trazado_119865" data-name="Trazado 119865" d="M132.048,109.774l2.609,1.054s.158-.44.389-1.1a23.951,23.951,0,0,0,.8-2.436,30.73,30.73,0,0,0,.81-3.641l-2.773-.461a28.393,28.393,0,0,1-.745,3.339,20.271,20.271,0,0,1-.73,2.235c-.215.606-.359,1.01-.359,1.01" transform="translate(89.503 69.943)" fill="#8d96fe"/>
          <path id="Trazado_119866" data-name="Trazado 119866" d="M128.947,114.7l2.216,1.735.716-.908c.426-.55.921-1.336,1.443-2.1a21.932,21.932,0,0,0,1.32-2.179c.341-.606.57-1.01.57-1.01l-2.49-1.309s-.215.376-.534.938a20.389,20.389,0,0,1-1.223,2.025c-.493.713-.95,1.443-1.347,1.958s-.673.849-.673.849" transform="translate(87.401 73.832)" fill="#8d96fe"/>
          <path id="Trazado_119867" data-name="Trazado 119867" d="M124.637,118.8l1.884,2.092s1.325-1.233,2.653-2.465c.671-.626,1.346-1.25,1.8-1.775.465-.508.779-.847.779-.847l-2.07-1.9s-.294.319-.74.8c-.43.495-1.062,1.087-1.7,1.681-1.3,1.2-2.6,2.411-2.6,2.411" transform="translate(84.48 77.207)" fill="#8d96fe"/>
          <path id="Trazado_119868" data-name="Trazado 119868" d="M120.049,123.506l2.141,1.822s1.1-1.3,2.391-2.542l2.493-2.5-1.943-2.033-2.567,2.57c-1.3,1.248-2.515,2.683-2.515,2.683" transform="translate(81.37 80.153)" fill="#8d96fe"/>
          <path id="Trazado_119869" data-name="Trazado 119869" d="M115.956,128.956l2.614,1.181,2-2.807c1.086-1.346,2.166-2.691,2.166-2.691l-2.312-1.619s-1.163,1.451-2.324,2.9c-1.072,1.515-2.149,3.032-2.149,3.032" transform="translate(78.596 83.384)" fill="#8d96fe"/>
          <path id="Trazado_119870" data-name="Trazado 119870" d="M112.777,134.971l2.924.483.435-.987a23.247,23.247,0,0,1,1.067-2.121c.406-.758.792-1.532,1.124-2.089s.567-.916.567-.916l-2.731-.955s-.24.394-.607.987c-.351.6-.758,1.433-1.2,2.252a24.153,24.153,0,0,0-1.119,2.285c-.275.638-.463,1.06-.463,1.06" transform="translate(76.441 87.022)" fill="#8d96fe"/>
          <path id="Trazado_119871" data-name="Trazado 119871" d="M110.981,141.5l3.039-.248s.065-.423.174-1.064a15.858,15.858,0,0,1,.5-2.319,27.873,27.873,0,0,1,.995-3.3l-2.988-.24a29.717,29.717,0,0,0-1.03,3.547,17.486,17.486,0,0,0-.512,2.487c-.106.683-.174,1.139-.174,1.139" transform="translate(75.224 91.048)" fill="#8d96fe"/>
          <path id="Trazado_119872" data-name="Trazado 119872" d="M111.613,148.268l2.941-.968a6.526,6.526,0,0,1-.245-1.047c-.1-.641-.233-1.495-.364-2.349-.037-.857-.075-1.721-.109-2.369a5.968,5.968,0,0,1,.008-1.077l-3.032.488a6.427,6.427,0,0,0,0,1.156c.035.69.087,1.612.138,2.533.139.913.284,1.825.391,2.51a6.651,6.651,0,0,0,.272,1.122" transform="translate(75.093 95.204)" fill="#8d96fe"/>
          <path id="Trazado_119873" data-name="Trazado 119873" d="M115.647,154.008l2.631-1.622s-1.055-1.372-1.95-2.841c-.406-.765-.849-1.508-1.114-2.1-.238-.6-.4-1-.4-1l-2.859,1.193s.169.428.431,1.074c.287.629.753,1.424,1.186,2.24.96,1.58,2.079,3.055,2.079,3.054" transform="translate(75.881 99.264)" fill="#8d96fe"/>
          <path id="Trazado_119874" data-name="Trazado 119874" d="M121.47,157.746l2.136-2.151a23.7,23.7,0,0,1-2.872-1.916,15.053,15.053,0,0,1-1.837-1.495c-.478-.435-.8-.727-.8-.727l-2.487,1.812s.339.314.851.784a15.648,15.648,0,0,0,1.955,1.616,25.767,25.767,0,0,0,3.052,2.077" transform="translate(78.363 102.659)" fill="#8d96fe"/>
          <path id="Trazado_119875" data-name="Trazado 119875" d="M127.878,159.869l1.49-2.53a48.268,48.268,0,0,1-6.433-2.466l-1.938,2.3a32.562,32.562,0,0,0,3.391,1.481,24.538,24.538,0,0,0,2.386.878c.663.2,1.1.341,1.1.341" transform="translate(82.013 104.973)" fill="#8d96fe"/>
          <path id="Trazado_119876" data-name="Trazado 119876" d="M134.484,160.828l.748-2.747s-.435-.034-1.072-.146-1.49-.238-2.344-.378c-.856-.119-1.695-.305-2.327-.458l-1.049-.238-1.258,2.616s.455.109,1.129.265a24.4,24.4,0,0,0,2.5.505c.918.153,1.83.3,2.52.419a11.525,11.525,0,0,0,1.151.161" transform="translate(86.205 106.322)" fill="#8d96fe"/>
          <path id="Trazado_119877" data-name="Trazado 119877" d="M141.084,160.854l.027-2.814s-1.777.05-3.486-.064c-.862-.04-1.721-.081-2.371-.106s-1.069-.081-1.069-.081l-.493,2.783a10.083,10.083,0,0,0,1.158.087c.695.032,1.627.077,2.555.119,1.872.128,3.679.074,3.679.074" transform="translate(90.617 106.951)" fill="#8d96fe"/>
          <path id="Trazado_119878" data-name="Trazado 119878" d="M147.5,160.442l-.262-2.8s-1.763.225-3.528.282l-3.537.19.092,2.815s1.812-.1,3.619-.2c1.817-.059,3.616-.287,3.616-.287" transform="translate(95.008 106.85)" fill="#8d96fe"/>
          <path id="Trazado_119879" data-name="Trazado 119879" d="M71.019,80.981A7.688,7.688,0,1,1,63.333,73.3a7.689,7.689,0,0,1,7.686,7.684" transform="translate(37.716 49.681)" fill="#97a3fc"/>
          <rect id="Rectángulo_34129" data-name="Rectángulo 34129" width="1.608" height="7.619" transform="translate(129.945 92.799) rotate(-45.446)" fill="#ffb502"/>
          <rect id="Rectángulo_34130" data-name="Rectángulo 34130" width="7.538" height="1.609" transform="translate(129.993 96.998) rotate(-45.042)" fill="#ffb502"/>
          <path id="Trazado_119880" data-name="Trazado 119880" d="M201.446,84.337a9.4,9.4,0,1,1-8.988-9.8,9.382,9.382,0,0,1,8.988,9.8" transform="translate(123.8 50.515)" fill="#cbe9f4"/>
          <path id="Trazado_119883" data-name="Trazado 119883" d="M103.99,112.047l-.233-.943c63.78-15.768,84.394-51.457,84.6-51.814l.842.471c-.2.362-21.023,36.417-85.206,52.286" transform="translate(70.327 40.187)" fill="#848fb7"/>
          <path id="Trazado_119884" data-name="Trazado 119884" d="M130.681,95.907c-1.552,0-3.158-.045-4.819-.144l.055-.97c23.171,1.386,35.2-7.592,35.325-7.683l.586.77c-.111.086-10.761,8.027-31.147,8.027" transform="translate(85.31 59.044)" fill="#848fb7"/>
          <path id="Trazado_119885" data-name="Trazado 119885" d="M108.793,91.023a1.41,1.41,0,0,1-1.409,1.408h-4.255a1.409,1.409,0,1,1,0-2.819h4.255a1.412,1.412,0,0,1,1.409,1.411" transform="translate(68.945 60.74)" fill="#64b4d7"/>
          <path id="Trazado_119886" data-name="Trazado 119886" d="M108.793,92.548a1.408,1.408,0,0,1-1.409,1.408h-4.255a1.409,1.409,0,1,1,0-2.819h4.255a1.41,1.41,0,0,1,1.409,1.411" transform="translate(68.945 61.773)" fill="#64b4d7"/>
          <path id="Trazado_119887" data-name="Trazado 119887" d="M108.793,94.072a1.408,1.408,0,0,1-1.409,1.408h-4.255a1.409,1.409,0,1,1,0-2.817h4.255a1.409,1.409,0,0,1,1.409,1.409" transform="translate(68.945 62.808)" fill="#64b4d7"/>
          <path id="Trazado_119888" data-name="Trazado 119888" d="M108.793,95.6a1.41,1.41,0,0,1-1.409,1.411h-4.255a1.409,1.409,0,1,1,0-2.819h4.255a1.409,1.409,0,0,1,1.409,1.408" transform="translate(68.945 63.841)" fill="#64b4d7"/>
          <path id="Trazado_119889" data-name="Trazado 119889" d="M130.843,91.023a1.408,1.408,0,0,1-1.408,1.408h-4.252a1.409,1.409,0,1,1,0-2.819h4.252a1.41,1.41,0,0,1,1.408,1.411" transform="translate(83.893 60.74)" fill="#64b4d7"/>
          <path id="Trazado_119890" data-name="Trazado 119890" d="M130.843,92.548a1.406,1.406,0,0,1-1.408,1.408h-4.252a1.409,1.409,0,1,1,0-2.819h4.252a1.408,1.408,0,0,1,1.408,1.411" transform="translate(83.893 61.773)" fill="#64b4d7"/>
          <path id="Trazado_119891" data-name="Trazado 119891" d="M130.843,94.072a1.406,1.406,0,0,1-1.408,1.408h-4.252a1.409,1.409,0,1,1,0-2.817h4.252a1.408,1.408,0,0,1,1.408,1.409" transform="translate(83.893 62.808)" fill="#64b4d7"/>
          <path id="Trazado_119892" data-name="Trazado 119892" d="M130.843,95.6a1.408,1.408,0,0,1-1.408,1.411h-4.252a1.409,1.409,0,1,1,0-2.819h4.252a1.407,1.407,0,0,1,1.408,1.408" transform="translate(83.893 63.841)" fill="#64b4d7"/>
          <rect id="Rectángulo_34131" data-name="Rectángulo 34131" width="48.185" height="2.953" transform="translate(270.135 204.508)" fill="#464f72"/>
          <path id="Trazado_119893" data-name="Trazado 119893" d="M159.919,67.992l13.273,21.582,1.075-.906L160.639,66.514Z" transform="translate(108.394 45.083)" fill="#464f72"/>
          <path id="Trazado_119894" data-name="Trazado 119894" d="M185.381,66.42,171.365,90.084l-1.183-.96,14.392-24.295Z" transform="translate(115.351 43.942)" fill="#464f72"/>
          <path id="Trazado_119895" data-name="Trazado 119895" d="M159.919,53.463l13.273,21.585,1.075-.9L160.639,51.989Z" transform="translate(108.394 35.238)" fill="#464f72"/>
          <path id="Trazado_119896" data-name="Trazado 119896" d="M184.783,53.463,171.506,75.048l-1.074-.9L184.06,51.989Z" transform="translate(115.52 35.238)" fill="#464f72"/>
          <path id="Trazado_119897" data-name="Trazado 119897" d="M182.409,66.272l-31.362,47.313-1.158-.77,31.36-47.309Z" transform="translate(101.596 44.4)" fill="#464f72"/>
          <path id="Trazado_119898" data-name="Trazado 119898" d="M169.713,65.523l30.125,49.854.987-.94L170.7,64.58Z" transform="translate(115.033 43.773)" fill="#464f72"/>
          <path id="Trazado_119899" data-name="Trazado 119899" d="M200.126,40.456l-51.291,67.481-1.106-.844,51.291-67.475Z" transform="translate(100.133 26.854)" fill="#464f72"/>
          <path id="Trazado_119900" data-name="Trazado 119900" d="M160.264,40.456l51.287,67.481,1.106-.844L161.368,39.619Z" transform="translate(108.628 26.854)" fill="#464f72"/>
          <rect id="Rectángulo_34132" data-name="Rectángulo 34132" width="5.911" height="82.713" transform="translate(281.588 64.337)" fill="#848fb7"/>
          <rect id="Rectángulo_34133" data-name="Rectángulo 34133" width="2.067" height="28.679" transform="translate(283.501 39.35)" fill="#848fb7"/>
          <path id="Trazado_119901" data-name="Trazado 119901" d="M159.445,51.28,157.5,50.22,177.734,21.5l.857,2.768Z" transform="translate(106.754 14.57)" fill="#848fb7"/>
          <path id="Trazado_119902" data-name="Trazado 119902" d="M188.249,51.28l1.95-1.06L169.865,21.5l-.757,2.768Z" transform="translate(114.623 14.57)" fill="#848fb7"/>
          <rect id="Rectángulo_34134" data-name="Rectángulo 34134" width="5.908" height="70.303" transform="translate(264.228 64.337)" fill="#848fb7"/>
          <rect id="Rectángulo_34135" data-name="Rectángulo 34135" width="3.513" height="70.303" transform="translate(265.379 64.337)" fill="#6d76a1"/>
          <rect id="Rectángulo_34136" data-name="Rectángulo 34136" width="5.908" height="70.303" transform="translate(298.937 64.337)" fill="#848fb7"/>
          <path id="Trazado_119903" data-name="Trazado 119903" d="M163.391,161.7h-5.908l17.162-81.09,6.193-.888Z" transform="translate(106.744 54.034)" fill="#848fb7"/>
          <path id="Trazado_119904" data-name="Trazado 119904" d="M160.581,161.26H158.65l17.189-80.9.22,7.866Z" transform="translate(107.534 54.469)" fill="#6d76a1"/>
          <rect id="Rectángulo_34137" data-name="Rectángulo 34137" width="39.559" height="2.956" transform="translate(264.228 107.903)" fill="#848fb7"/>
          <rect id="Rectángulo_34138" data-name="Rectángulo 34138" width="78.268" height="2.955" transform="translate(245.41 132.273)" fill="#848fb7"/>
          <rect id="Rectángulo_34139" data-name="Rectángulo 34139" width="56.633" height="2.955" transform="translate(255.688 176.445)" fill="#848fb7"/>
          <rect id="Rectángulo_34140" data-name="Rectángulo 34140" width="50.036" height="2.955" transform="translate(248.903 208.941)" fill="#464f72"/>
          <rect id="Rectángulo_34141" data-name="Rectángulo 34141" width="68.679" height="2.955" transform="translate(248.901 156.506)" fill="#848fb7"/>
          <path id="Trazado_119905" data-name="Trazado 119905" d="M203.565,83.979l-54.73,72-1.1-.842,54.728-72Z" transform="translate(100.133 56.351)" fill="#464f72"/>
          <path id="Trazado_119906" data-name="Trazado 119906" d="M157.87,83.62l54.718,73.28,1.22-.946L159.09,82.677Z" transform="translate(107.006 56.039)" fill="#464f72"/>
          <rect id="Rectángulo_34142" data-name="Rectángulo 34142" width="1.039" height="6.535" transform="translate(247.864 134.79)" fill="#848fb7"/>
          <rect id="Rectángulo_34143" data-name="Rectángulo 34143" width="1.037" height="6.532" transform="translate(258.584 87.226)" fill="#848fb7"/>
          <rect id="Rectángulo_34144" data-name="Rectángulo 34144" width="1.039" height="6.532" transform="translate(309.54 87.226)" fill="#848fb7"/>
          <rect id="Rectángulo_34145" data-name="Rectángulo 34145" width="1.035" height="6.535" transform="translate(320.25 134.79)" fill="#848fb7"/>
          <path id="Trazado_119907" data-name="Trazado 119907" d="M154.359,59.074l-1.223-.836,12.058-17.692,1.059,1.072Z" transform="translate(103.797 27.482)" fill="#848fb7"/>
          <path id="Trazado_119908" data-name="Trazado 119908" d="M153.29,159.835h-6.054l17.2-81,5.9.638Z" transform="translate(99.798 53.437)" fill="#848fb7"/>
          <path id="Trazado_119909" data-name="Trazado 119909" d="M151.143,158.8h-3.1l16.954-78.441h3.193Z" transform="translate(100.343 54.47)" fill="#6d76a1"/>
          <path id="Trazado_119910" data-name="Trazado 119910" d="M194.748,160.072h6.09L183.48,78.487,177.7,79.712Z" transform="translate(120.447 53.199)" fill="#848fb7"/>
          <path id="Trazado_119911" data-name="Trazado 119911" d="M195.225,158.642h3.463L182.2,80.6h-3.213Z" transform="translate(121.317 54.63)" fill="#6d76a1"/>
          <path id="Trazado_119912" data-name="Trazado 119912" d="M185.109,161.881h6L173.658,79.445l-5.906.644Z" transform="translate(113.703 53.849)" fill="#848fb7"/>
          <rect id="Rectángulo_34146" data-name="Rectángulo 34146" width="2.307" height="68.788" transform="translate(283.591 65.852)" fill="#6d76a1"/>
          <path id="Trazado_119913" data-name="Trazado 119913" d="M186.885,161.453h1.9L171.332,80.077l-2.307.285Z" transform="translate(114.566 54.277)" fill="#6d76a1"/>
          <path id="Trazado_119914" data-name="Trazado 119914" d="M182.4,105.929h-3.349l-.161-67.062h3.51Z" transform="translate(121.251 26.345)" fill="#6d76a1"/>
          <rect id="Rectángulo_34147" data-name="Rectángulo 34147" width="54.886" height="2.953" transform="translate(256.933 85.749)" fill="#848fb7"/>
          <path id="Trazado_119915" data-name="Trazado 119915" d="M189.5,59.679l1.292-.726L180.3,40.289h-1.743Z" transform="translate(121.026 27.308)" fill="#848fb7"/>
          <rect id="Rectángulo_34148" data-name="Rectángulo 34148" width="40.616" height="3.691" transform="translate(264.228 64.337)" fill="#848fb7"/>
          <rect id="Rectángulo_34149" data-name="Rectángulo 34149" width="38.172" height="1.617" transform="translate(265.379 65.213)" fill="#6d76a1"/>
          <path id="Trazado_119916" data-name="Trazado 119916" d="M158.021,56.534A1.019,1.019,0,0,1,157,57.553h-3.075a1.019,1.019,0,1,1,0-2.039H157a1.02,1.02,0,0,1,1.02,1.02" transform="translate(103.64 37.628)" fill="#c1e4fa"/>
          <path id="Trazado_119917" data-name="Trazado 119917" d="M158.021,57.637A1.02,1.02,0,0,1,157,58.656h-3.075a1.019,1.019,0,1,1,0-2.039H157a1.021,1.021,0,0,1,1.02,1.02" transform="translate(103.64 38.375)" fill="#c1e4fa"/>
          <path id="Trazado_119918" data-name="Trazado 119918" d="M158.021,58.74A1.019,1.019,0,0,1,157,59.757h-3.075a1.018,1.018,0,1,1,0-2.037H157a1.02,1.02,0,0,1,1.02,1.02" transform="translate(103.64 39.123)" fill="#c1e4fa"/>
          <path id="Trazado_119919" data-name="Trazado 119919" d="M158.021,59.841A1.018,1.018,0,0,1,157,60.86h-3.075a1.018,1.018,0,1,1,0-2.037H157a1.018,1.018,0,0,1,1.02,1.018" transform="translate(103.64 39.871)" fill="#c1e4fa"/>
          <path id="Trazado_119920" data-name="Trazado 119920" d="M188.391,56.477a1.02,1.02,0,0,1-1.018,1.02H184.3a1.019,1.019,0,1,1,0-2.039h3.077a1.019,1.019,0,0,1,1.018,1.018" transform="translate(124.225 37.591)" fill="#c1e4fa"/>
          <path id="Trazado_119922" data-name="Trazado 119922" d="M188.391,58.684a1.018,1.018,0,0,1-1.018,1.017H184.3a1.018,1.018,0,1,1,0-2.037h3.077a1.019,1.019,0,0,1,1.018,1.02" transform="translate(124.225 39.085)" fill="#c1e4fa"/>
          <path id="Trazado_119923" data-name="Trazado 119923" d="M188.391,59.785a1.02,1.02,0,0,1-1.018,1.02H184.3a1.019,1.019,0,1,1,0-2.039h3.077a1.019,1.019,0,0,1,1.018,1.018" transform="translate(124.225 39.833)" fill="#c1e4fa"/>
          <path id="Trazado_119924" data-name="Trazado 119924" d="M151.63,83.836a1.017,1.017,0,0,1-1.017,1.018h-3.077a1.019,1.019,0,1,1,0-2.039h3.077a1.019,1.019,0,0,1,1.017,1.02" transform="translate(99.31 56.133)" fill="#c1e4fa"/>
          <path id="Trazado_119925" data-name="Trazado 119925" d="M151.63,84.939a1.017,1.017,0,0,1-1.017,1.018h-3.077a1.019,1.019,0,1,1,0-2.039h3.077a1.018,1.018,0,0,1,1.017,1.02" transform="translate(99.31 56.881)" fill="#c1e4fa"/>
          <path id="Trazado_119926" data-name="Trazado 119926" d="M151.63,86.039a1.018,1.018,0,0,1-1.017,1.02h-3.077a1.019,1.019,0,1,1,0-2.039h3.077a1.019,1.019,0,0,1,1.017,1.018" transform="translate(99.31 57.628)" fill="#c1e4fa"/>
          <path id="Trazado_119927" data-name="Trazado 119927" d="M151.63,87.142a1.018,1.018,0,0,1-1.017,1.02h-3.077a1.018,1.018,0,1,1,0-2.037h3.077a1.017,1.017,0,0,1,1.017,1.017" transform="translate(99.31 58.376)" fill="#c1e4fa"/>
          <path id="Trazado_119928" data-name="Trazado 119928" d="M194.773,83.891a1.019,1.019,0,0,1-1.018,1.018h-3.075a1.018,1.018,0,1,1,0-2.037h3.075a1.018,1.018,0,0,1,1.018,1.018" transform="translate(128.552 56.172)" fill="#c1e4fa"/>
          <path id="Trazado_119929" data-name="Trazado 119929" d="M194.773,85a1.018,1.018,0,0,1-1.018,1.017h-3.075a1.018,1.018,0,1,1,0-2.037h3.075A1.018,1.018,0,0,1,194.773,85" transform="translate(128.552 56.919)" fill="#c1e4fa"/>
          <path id="Trazado_119930" data-name="Trazado 119930" d="M194.773,86.1a1.019,1.019,0,0,1-1.018,1.018h-3.075a1.019,1.019,0,1,1,0-2.039h3.075a1.019,1.019,0,0,1,1.018,1.02" transform="translate(128.552 57.667)" fill="#c1e4fa"/>
          <path id="Trazado_119931" data-name="Trazado 119931" d="M194.773,87.2a1.019,1.019,0,0,1-1.018,1.018h-3.075a1.019,1.019,0,1,1,0-2.039h3.075a1.019,1.019,0,0,1,1.018,1.02" transform="translate(128.552 58.413)" fill="#c1e4fa"/>
          <rect id="Rectángulo_34150" data-name="Rectángulo 34150" width="86.729" height="52.022" transform="translate(145.716 159.873)" fill="#c1e4fa"/>
          <rect id="Rectángulo_34151" data-name="Rectángulo 34151" width="23.464" height="52.022" transform="translate(145.716 159.873)" fill="#64b4d7"/>
          <rect id="Rectángulo_34152" data-name="Rectángulo 34152" width="19.59" height="3.149" transform="translate(143.224 165.88)" fill="#64b4d7"/>
          <rect id="Rectángulo_34153" data-name="Rectángulo 34153" width="4.03" height="3.149" transform="translate(158.784 165.88)" fill="#4ca1bf"/>
          <path id="Trazado_119932" data-name="Trazado 119932" d="M83.691,102.947h25.494l-.864-3.136H84.555Z" transform="translate(56.727 67.652)" fill="#4ca1bf"/>
          <rect id="Rectángulo_34154" data-name="Rectángulo 34154" width="18.796" height="22.288" transform="translate(140.417 170.598)" fill="#464f72"/>
          <rect id="Rectángulo_34155" data-name="Rectángulo 34155" width="8.392" height="22.288" transform="translate(157.521 170.598)" fill="#343c56"/>
          <path id="Trazado_119933" data-name="Trazado 119933" d="M93.885,102.947l.649-3.136h6.877l.866,3.136Z" transform="translate(63.636 67.652)" fill="#3c93aa"/>
          <path id="Trazado_119934" data-name="Trazado 119934" d="M87.575,110.935H93.34l-2.884-5.76Z" transform="translate(59.359 71.289)" fill="#4ca1bf"/>
          <path id="Trazado_119935" data-name="Trazado 119935" d="M92.554,110.205,90.23,105.68l-2.322,4.525Z" transform="translate(59.585 71.631)" fill="#ffcf03"/>
          <path id="Trazado_119936" data-name="Trazado 119936" d="M89.83,109.42l.044-2.042-.525.706-.143-1.8-.012,2.346.426-.587Z" transform="translate(60.457 72.04)" fill="#6d76a1"/>
          <rect id="Rectángulo_34156" data-name="Rectángulo 34156" width="5.904" height="3.528" transform="translate(158.784 173.366)" fill="#848fb7"/>
          <rect id="Rectángulo_34157" data-name="Rectángulo 34157" width="4.445" height="0.431" transform="translate(159.511 173.818)" fill="#464f72"/>
          <rect id="Rectángulo_34158" data-name="Rectángulo 34158" width="4.445" height="0.431" transform="translate(159.511 174.574)" fill="#464f72"/>
          <rect id="Rectángulo_34159" data-name="Rectángulo 34159" width="4.445" height="0.435" transform="translate(159.511 175.349)" fill="#464f72"/>
          <rect id="Rectángulo_34160" data-name="Rectángulo 34160" width="4.445" height="0.43" transform="translate(159.511 176.106)" fill="#464f72"/>
          <rect id="Rectángulo_34161" data-name="Rectángulo 34161" width="32.997" height="55.654" transform="matrix(0.001, -1, 1, 0.001, 173.656, 202.746)" fill="#848fb7"/>
          <rect id="Rectángulo_34162" data-name="Rectángulo 34162" width="24.847" height="2.418" transform="translate(220.969 198.726) rotate(-89.942)" fill="#464f72"/>
          <rect id="Rectángulo_34163" data-name="Rectángulo 34163" width="24.847" height="2.417" transform="matrix(0.001, -1, 1, 0.001, 224.902, 198.725)" fill="#464f72"/>
          <rect id="Rectángulo_34164" data-name="Rectángulo 34164" width="24.849" height="2.421" transform="matrix(0.001, -1, 1, 0.001, 216.74, 198.724)" fill="#464f72"/>
          <rect id="Rectángulo_34165" data-name="Rectángulo 34165" width="24.85" height="2.419" transform="translate(212.413 198.719) rotate(-89.923)" fill="#464f72"/>
          <rect id="Rectángulo_34166" data-name="Rectángulo 34166" width="24.852" height="2.419" transform="translate(208.187 198.715) rotate(-89.923)" fill="#464f72"/>
          <rect id="Rectángulo_34167" data-name="Rectángulo 34167" width="24.85" height="2.419" transform="translate(203.888 198.707) rotate(-89.934)" fill="#464f72"/>
          <rect id="Rectángulo_34168" data-name="Rectángulo 34168" width="24.85" height="2.419" transform="translate(199.662 198.702) rotate(-89.934)" fill="#464f72"/>
          <rect id="Rectángulo_34169" data-name="Rectángulo 34169" width="24.852" height="2.419" transform="matrix(0.001, -1, 1, 0.001, 195.335, 198.696)" fill="#464f72"/>
          <path id="Trazado_119937" data-name="Trazado 119937" d="M113.9,128.457l.032-24.843h2.418l-.029,24.852Z" transform="translate(77.205 70.23)" fill="#464f72"/>
          <rect id="Rectángulo_34170" data-name="Rectángulo 34170" width="24.848" height="2.419" transform="translate(185.971 198.684) rotate(-89.93)" fill="#464f72"/>
          <rect id="Rectángulo_34171" data-name="Rectángulo 34171" width="24.85" height="2.416" transform="translate(181.644 198.68) rotate(-89.919)" fill="#464f72"/>
          <rect id="Rectángulo_34172" data-name="Rectángulo 34172" width="24.848" height="2.42" transform="translate(177.415 198.673) rotate(-89.923)" fill="#464f72"/>
          <path id="Trazado_119938" data-name="Trazado 119938" d="M189.784,80.674a4.961,4.961,0,0,0-5.862.924c-2.629,2.918-4.542,10.7-9.7,12.362-5.184,1.664-7.884-.809-9.919-2.225s-2.166-2.945-3.441-3.636-2.034.849.674,3.909c1.292,1.466,6.825,9.459,13.347,8.617,8.548-1.1,20.046-16.62,14.9-19.952" transform="translate(108.248 54.296)" fill="#fbc6b4"/>
          <path id="Trazado_119939" data-name="Trazado 119939" d="M181.333,79.735s4.008,1.582,1.825,7.605-3.976,8.35-3.976,8.35-4.186-.21-9.112-4.569c0,0,5.946-14.419,11.263-11.387" transform="translate(115.275 53.761)" fill="#eda503"/>
          <path id="Trazado_119940" data-name="Trazado 119940" d="M190.218,77.358l-.015-.013c-2.406-.456-5.117.136-7.2.575-4.589.951-11.636,3.9-10.528,12.12a49.61,49.61,0,0,0,2.9,10.251c.307.822.627,1.654,1.008,2.458,1.549,3.621,1.226,6.495,3.171,7.975,5.648,4.292,28.3,2.547,25.389-6.158-.124-.138-1.742-2.7-1.862-2.827a53.492,53.492,0,0,1-4.658-7.465,20.164,20.164,0,0,1-1.086-2.307,21.354,21.354,0,0,1-1.468-6.408c-.453-5.585-2.834-7.631-5.654-8.2" transform="translate(116.826 52.313)" fill="#ffb502"/>
          <path id="Trazado_119941" data-name="Trazado 119941" d="M172.5,114.561c.342,6.05,2.367,14.191,1.955,18.256-.067.651-.186.872-2.346,1.081s-.431,1.778,3.094,2.416,4.9-16.647,4.721-24.917c-.154-7.23-7.832-3.867-7.424,3.164" transform="translate(116.012 72.77)" fill="#fbc6b4"/>
          <path id="Trazado_119942" data-name="Trazado 119942" d="M177.544,124.211s-3.337.7-4.938-1.028c0,0-3.554-.21-1.587,1.159,1.985,1.374,6,3.022,6.525-.131" transform="translate(115.516 83.486)" fill="#ffb502"/>
          <path id="Trazado_119943" data-name="Trazado 119943" d="M185.531,122.819c3.159,4.619,8.627,10.089,10.24,13.5.26.529.267.772-1.346,1.966-1.609,1.18.5,1.607,3.6.436s-4.057-15.481-8.136-21.941c-3.559-5.636-8.017.678-4.361,6.04" transform="translate(124.83 77.658)" fill="#fbc6b4"/>
          <path id="Trazado_119944" data-name="Trazado 119944" d="M195.283,127.79s-2.3,2.133-4.387,1.535c0,0-2.908,1.528-.686,1.668s6.164-.47,5.074-3.2" transform="translate(128.359 86.617)" fill="#ffb502"/>
          <path id="Trazado_119945" data-name="Trazado 119945" d="M206.552,146.505a6.806,6.806,0,0,1-1.225,1.3,1.274,1.274,0,0,1-.309.238,8.717,8.717,0,0,1-4.579,1.695s-14.221-6.374-12.6-25.8c.443-5.327,3.134-9.235,4.21-12.256,1.148-3.218-6.067,9.725-7.037,11.344-2.414,4.008-4.594,16.689-4.594,16.689a6.378,6.378,0,0,1-1.532.466,1.684,1.684,0,0,1-.4.074,9.347,9.347,0,0,1-5.574-.96s-6.71-20.317,5.547-35.737c4.45-5.6,19.092-11.656,19.092-11.656l3.221-3.265s10.407,11.8,6.663,24.773c-1.252,4.337-4.332,12.191-4.478,17.156-.119,4.312,3.585,15.941,3.585,15.941" transform="translate(115.966 60.078)" fill="#1c2745"/>
          <path id="Trazado_119946" data-name="Trazado 119946" d="M188.189,83.954c.463,4.114.681,10.745,11.07,12.605,0,0-9.627,23.387-21.848,16.84,0,0-4.166-17.156-4.075-24.6.032-2.138-.181-8.594,3.478-8.958,0,0-2.574,11.406,1,12.9s5.377-1.487,5.9-3.762c.839-3.658.4-11.261.4-11.261l3.919-.773a44.214,44.214,0,0,0,.154,7.008" transform="translate(117.487 52.155)" fill="#1c2745"/>
          <path id="Trazado_119947" data-name="Trazado 119947" d="M178.817,74.631s-.247,3.874,2.747,4.715c3.067.854-4.195,9.354-4.72,7.349-.678-2.584.007-4.544-2.317-6.908Z" transform="translate(118.296 50.585)" fill="#f7b2a0"/>
          <path id="Trazado_119948" data-name="Trazado 119948" d="M172.743,73.045c-1.329,2.81-.154,12.4,2.805,13.451,1.3.451,4.881-2.052,5.871-6.864.416-1.968.525-5.419-2.226-7.751-1.252-1.059-4.916-2.1-6.449,1.164" transform="translate(116.719 48.018)" fill="#fbc6b4"/>
          <path id="Trazado_119949" data-name="Trazado 119949" d="M171.494,75.324c-.03,1.273.2,1.471,3.683.674s3.961-1.233,3.936-.32c-.072,2.693,2.089,1.317,1.965,4.533s1.99.47,2.314-2.255a6.7,6.7,0,0,0-2.369-6.084c-3.433-3.255-9.389-1.235-9.528,3.451" transform="translate(116.238 47.636)" fill="#1d1b3a"/>
          <path id="Trazado_119950" data-name="Trazado 119950" d="M179.3,76.892s-8.355,2-9.523-1.146c-.718-1.941,5.079-4.211,5.079-4.211Z" transform="translate(115.033 48.487)" fill="#eda503"/>
          <path id="Trazado_119951" data-name="Trazado 119951" d="M171.6,76.544c2.29,2.4,5.044,2.575,12.109.815,0,0,.042-7.243-5.577-7.97-4.956-.633-7.993,5.624-6.532,7.154" transform="translate(116.066 47.003)" fill="#ffb502"/>
          <path id="Trazado_119952" data-name="Trazado 119952" d="M190.774,76.9a4.036,4.036,0,0,0-3.433,3.8c-.463,3.725,2.3,10.85-.824,14.973s-6.606,3.676-8.968,3.684-3.3-1.111-4.676-.961-1.131,1.785,2.666,2.69c1.812.436,10.508,3.659,15.147-.567,6.075-5.535,5.926-23.833.087-23.622" transform="translate(116.654 52.123)" fill="#fbc6b4"/>
          <path id="Trazado_119953" data-name="Trazado 119953" d="M184.076,76.82s4-.955,5.585,4.958,1.463,8.689,1.463,8.689-3.387,2.131-9.619,1.414c0,0-3.243-14.521,2.57-15.062" transform="translate(122.414 52.031)" fill="#eda503"/>
          <path id="Trazado_119954" data-name="Trazado 119954" d="M193.232,102.868a8.342,8.342,0,0,1-4.656-7.658l.7.047a7.488,7.488,0,0,0,4.265,6.986Z" transform="translate(127.816 64.534)" fill="#fff"/>
          <path id="Trazado_119955" data-name="Trazado 119955" d="M175.708,100.912l-.005-.7a7.582,7.582,0,0,0,6.856-4.468l.651.26a8.334,8.334,0,0,1-7.5,4.908" transform="translate(119.093 64.896)" fill="#fff"/>
          <path id="Trazado_119956" data-name="Trazado 119956" d="M45.142,103.268s1.847-2.153,4.216-2.082c2.124.064.03,2.028-2.829,3.834Z" transform="translate(30.598 68.583)" fill="#f7b2a0"/>
          <path id="Trazado_119957" data-name="Trazado 119957" d="M30.287,108.374c-1.857.337-2.483,1.876-1.579,4.278,1.377,3.686,4.921,2.973,11.444,2.386,7.413-.668,18.239-10.825,18.239-10.825a1.771,1.771,0,0,0-1.453-2.018s-7.225,4.879-14.57,5.624c-3.6.364-8.171-.149-12.082.555" transform="translate(19.181 69.269)" fill="#eda503"/>
          <path id="Trazado_119958" data-name="Trazado 119958" d="M91.7,92.311c.5-9.141.032-31.031-8.817-35.536C73.1,55.053,59.562,72.254,54.465,79.861c-31.82,47.43-.933,64.691-.933,64.691s35.053,4.79,38.165-52.242" transform="translate(27.164 38.401)" fill="#ffb502"/>
          <path id="Trazado_119959" data-name="Trazado 119959" d="M82.63,90.251c.374-6.792.022-23.067-6.552-26.412-7.267-1.28-17.338,11.51-21.127,17.154-23.65,35.262-.693,48.093-.693,48.093S80.32,132.641,82.63,90.251" transform="translate(29.998 43.21)" fill="#ffcf03"/>
          <path id="Trazado_119960" data-name="Trazado 119960" d="M46.9,116.94,48.993,83l26.256,8.3-17.526,29.06-1.237-.748L73.063,92.127,50.32,84.934l-1.981,32.1Z" transform="translate(31.792 56.261)" fill="#464f72"/>
          <path id="Trazado_119961" data-name="Trazado 119961" d="M64.562,144.341,34.712,134.8,44.99,101.817l29.845,9.548Z" transform="translate(23.528 69.012)" fill="#64b4d7"/>
          <path id="Trazado_119962" data-name="Trazado 119962" d="M73.927,112.425a1.421,1.421,0,0,1-1.857.711L41,103.2a1.446,1.446,0,0,1-1.114-1.661,1.414,1.414,0,0,1,1.854-.708l31.068,9.936a1.437,1.437,0,0,1,1.119,1.661" transform="translate(27.005 68.279)" fill="#c1e4fa"/>
          <path id="Trazado_119963" data-name="Trazado 119963" d="M73.077,114.973a1.418,1.418,0,0,1-1.857.71l-31.068-9.938a1.445,1.445,0,0,1-1.117-1.658,1.416,1.416,0,0,1,1.854-.715l31.071,9.939a1.435,1.435,0,0,1,1.117,1.661" transform="translate(26.427 70.005)" fill="#c1e4fa"/>
          <path id="Trazado_119964" data-name="Trazado 119964" d="M72.2,117.586a1.419,1.419,0,0,1-1.859.711l-31.07-9.939A1.441,1.441,0,0,1,38.16,106.7a1.414,1.414,0,0,1,1.854-.711l31.071,9.939a1.437,1.437,0,0,1,1.119,1.658" transform="translate(25.835 71.778)" fill="#c1e4fa"/>
          <path id="Trazado_119965" data-name="Trazado 119965" d="M71.351,120.135a1.413,1.413,0,0,1-1.857.708l-31.07-9.934a1.45,1.45,0,0,1-1.116-1.663,1.422,1.422,0,0,1,1.854-.711l31.07,9.939a1.438,1.438,0,0,1,1.119,1.661" transform="translate(25.258 73.504)" fill="#c1e4fa"/>
          <path id="Trazado_119966" data-name="Trazado 119966" d="M60.284,130.777c-.951,2.844-4.609,4.181-8.173,2.988l-10.33-3.456c-3.559-1.19-5.678-4.455-4.73-7.3s4.607-4.174,8.168-2.985l10.33,3.455c3.565,1.191,5.681,4.46,4.735,7.3" transform="translate(24.96 81.06)" fill="#64b4d7"/>
          <path id="Trazado_119967" data-name="Trazado 119967" d="M70.132,123.782a1.42,1.42,0,0,1-1.857.708L37.2,114.551a1.444,1.444,0,0,1-1.116-1.658,1.419,1.419,0,0,1,1.854-.711l31.07,9.939a1.44,1.44,0,0,1,1.121,1.661" transform="translate(24.431 75.976)" fill="#c1e4fa"/>
          <path id="Trazado_119968" data-name="Trazado 119968" d="M69.281,126.328a1.412,1.412,0,0,1-1.857.708L36.353,117.1a1.442,1.442,0,0,1-1.116-1.656,1.422,1.422,0,0,1,1.856-.716L68.16,124.67a1.436,1.436,0,0,1,1.121,1.658" transform="translate(23.854 77.702)" fill="#c1e4fa"/>
          <path id="Trazado_119969" data-name="Trazado 119969" d="M68.406,128.942a1.41,1.41,0,0,1-1.859.708L35.48,119.716a1.443,1.443,0,0,1-1.117-1.658,1.414,1.414,0,0,1,1.854-.713l31.071,9.936a1.437,1.437,0,0,1,1.117,1.661" transform="translate(23.261 79.475)" fill="#c1e4fa"/>
          <path id="Trazado_119970" data-name="Trazado 119970" d="M67.552,131.492a1.413,1.413,0,0,1-1.857.708l-31.066-9.936a1.448,1.448,0,0,1-1.117-1.661,1.416,1.416,0,0,1,1.854-.711l31.071,9.936a1.442,1.442,0,0,1,1.116,1.664" transform="translate(22.684 81.201)" fill="#c1e4fa"/>
          <path id="Trazado_119971" data-name="Trazado 119971" d="M41.145,107.208c3.079,2.342,5.693,8.07,6.921,26.793.267,4.114-23.613,5.111-23.7.98-.213-10.99,1.663-15.5,4.8-25.4.866-2.693,5.9-7.059,11.976-2.369" transform="translate(16.504 71.262)" fill="#ffb502"/>
          <path id="Trazado_119972" data-name="Trazado 119972" d="M48.2,113.757s3.783-4.728,3.567-2.614.621,3.359-2.53,4.6Z" transform="translate(32.672 74.965)" fill="#f7b2a0"/>
          <path id="Trazado_119973" data-name="Trazado 119973" d="M36.263,107.009c-4.153.589-5.116,2.871-4.676,5.4.661,3.876,2.671,10.013,9.5,12.956s19.944-7.208,19.944-7.208a1.775,1.775,0,0,0-1.052-2.26s-11.426,5.96-16.8,2.01c-2.6-1.913-2.968-11.451-6.908-10.9" transform="translate(21.344 72.516)" fill="#ffb502"/>
          <path id="Trazado_119974" data-name="Trazado 119974" d="M20.556,156.053c-1.24-1.414-1.191-1.632-.846-2.075a9.872,9.872,0,0,1,1.027-1.144l-2.726-1.661a13.2,13.2,0,0,0-1.179,2.648c.208.26,1.814,2.372,3.725,2.233" transform="translate(11.408 102.466)" fill="#fbc6b4"/>
          <path id="Trazado_119975" data-name="Trazado 119975" d="M17,152.771a.112.112,0,0,0-.027-.052c-1.549,2.309,1.988,3.678,4.062,3.98s-.31-1.695-.31-1.695c-1.911.139-3.517-1.973-3.725-2.233" transform="translate(11.243 103.514)" fill="#ffb502"/>
          <path id="Trazado_119976" data-name="Trazado 119976" d="M17.049,171.631c-.371,1.334,2.591,3.46,3.419,2.753,7.137-6.062,14.771-19.26,17.619-24.657.129-.24.253-.465.369-.668,1.423-2.325,2.24-1.846,7.062-12.624a47.567,47.567,0,0,0,2.517-9.579l-4.792-1.975-11.025-4.637c-3.824,3.639-5.114,14.176-5.944,18.444-.685,3.6-1.482,9.431-2.237,12.238-2.663,9.8-4.584,11.795-6.988,20.7" transform="translate(11.534 81.503)" fill="#1c2745"/>
          <path id="Trazado_119977" data-name="Trazado 119977" d="M37.485,157.014c-1.731-.762-1.768-.987-1.648-1.537a11.517,11.517,0,0,1,.456-1.461l-3.169-.367a13.6,13.6,0,0,0,.042,2.9c.29.149,2.629,1.393,4.319.466" transform="translate(22.415 104.144)" fill="#fbc6b4"/>
          <path id="Trazado_119978" data-name="Trazado 119978" d="M33.163,155.394a.254.254,0,0,0-.052-.044c-.446,2.76,3.337,2.517,5.344,1.921s-.973-1.411-.973-1.411c-1.69.926-4.028-.317-4.319-.466" transform="translate(22.418 105.297)" fill="#ffb502"/>
          <path id="Trazado_119979" data-name="Trazado 119979" d="M30.1,141.453c.884,3.572,2.862,7.25,2.862,12.26,0,10.186.96,12.441,2.478,21.54.168,1.05,2.4,1.716,3.6,1.475a1.072,1.072,0,0,0,.461-.186.393.393,0,0,0,.223-.22c3.939-8.486,6.579-22.924,6.934-29,.2-3.591.107-3.144-.02-15.941a48.434,48.434,0,0,0-1.7-9.76l-15.9.518c-1.958,4.916.037,15.1,1.057,19.317" transform="translate(19.121 82.434)" fill="#27355c"/>
          <path id="Trazado_119980" data-name="Trazado 119980" d="M34.665,176.323a1.076,1.076,0,0,0,.46-.186c2.408-6.711,3.438-13.847,4.325-20.023a122.652,122.652,0,0,0,1.633-17.02,41.838,41.838,0,0,0-3.067-16.768.192.192,0,0,0-.247-.1.2.2,0,0,0-.109.242,41.243,41.243,0,0,1,3.049,16.624,121.848,121.848,0,0,1-1.622,16.988c-.908,6.225-1.963,13.478-4.421,20.241" transform="translate(23.496 82.839)" fill="#fff"/>
          <path id="Trazado_119981" data-name="Trazado 119981" d="M43.042,108.6s-4.285,5.414-2.059,14.741c0,0,1.606,5.9,6.812,5.344l.99,8.681s-9.605,5.079-24.32-2.033c0,0-2.149-14.5,5.235-26.907,0,0,1.545-2.372,3.283-2.906,0,0-8.592,14.35-2.04,15.6s10.32-14.174,10.32-14.174Z" transform="translate(16.386 71.522)" fill="#27355c"/>
          <path id="Trazado_119982" data-name="Trazado 119982" d="M30.764,103.654s-1.124,4.741-.195,5.859,5.879-.013,5.641-1.789a27.92,27.92,0,0,0-.94-4.352Z" transform="translate(20.471 70.066)" fill="#fbc6b4"/>
          <path id="Trazado_119983" data-name="Trazado 119983" d="M28.885,103.513c0,4.178,2.337,7.565,5.218,7.565,1.294,0,4.171.359,5.08-.775,1.122-1.382,1.129-4.938.483-7.154-1.488-5.1-3.646-6.782-6.532-6.782s-4.25,2.968-4.25,7.146" transform="translate(19.578 65.318)" fill="#fbc6b4"/>
          <path id="Trazado_119984" data-name="Trazado 119984" d="M34.751,111.851a6.6,6.6,0,0,1-6.518-4.252c-1.534-3.4-.649-9.07,2.778-10.8a8.257,8.257,0,0,1,7.037-.139c3.151,1.5,2.742,3.413,2.106,3.726-1.327.654-2.372-.381-2.106,1.43.2,1.4.094,4.481-1.208,4.669s-2.4.195-2.089,2.075c.237,1.423,1.827,3.2,0,3.292" transform="translate(18.645 65.027)" fill="#000644"/>
          <path id="Trazado_119985" data-name="Trazado 119985" d="M34.251,102.753s7.114-4.127,5.082-6.166c-1.653-1.654-7.28.532-7.28.532Z" transform="translate(21.726 65.048)" fill="#eda503"/>
          <path id="Trazado_119986" data-name="Trazado 119986" d="M40.238,99.626c-.683,3.787-3.934,5.852-12.107,8.042,0,0-4.114-7.339,1.191-11.233C34,93,40.69,97.112,40.238,99.626" transform="translate(18.037 64.476)" fill="#ffb502"/>
        </g>
      </g>
    </g>
  </g>
</svg>
