<svg xmlns="http://www.w3.org/2000/svg" width="650" height="418" viewBox="0 0 650 418">
  <g id="Grupo_152221" data-name="Grupo 152221" transform="translate(-4511 11062)">
    <g id="Grupo_151772" data-name="Grupo 151772" transform="translate(4496)">
      <rect id="Rectángulo_34235" data-name="Rectángulo 34235" width="650" height="418" rx="14" transform="translate(15 -11062)" fill="#fff"/>
      <rect id="Rectángulo_34236" data-name="Rectángulo 34236" width="539" height="328" transform="translate(85 -11016)" fill="#fff"/>
      <path id="Rectángulo_34236_-_Contorno" data-name="Rectángulo 34236 - Contorno" d="M1,1V327H538V1H1M0,0H539V328H0Z" transform="translate(85 -11016)" fill="#12263f"/>
      <path id="Trazado_120034" data-name="Trazado 120034" d="M623.668-10953.758H85v-1H623.668Z" transform="translate(0 -3)" fill="#12263f"/>
      <path id="Trazado_121600" data-name="Trazado 121600" d="M1.939-3.062V0H.908V-7.82H3.792A2.9,2.9,0,0,1,5.8-7.165,2.222,2.222,0,0,1,6.531-5.43,2.192,2.192,0,0,1,5.82-3.677a3.027,3.027,0,0,1-2.038.615Zm0-.843H3.792a1.853,1.853,0,0,0,1.268-.39A1.426,1.426,0,0,0,5.5-5.422a1.474,1.474,0,0,0-.44-1.119,1.736,1.736,0,0,0-1.208-.436H1.939Zm8.776.741H8.878V0H7.842V-7.82h2.589a3.064,3.064,0,0,1,2.033.6,2.164,2.164,0,0,1,.712,1.751,2.105,2.105,0,0,1-.395,1.273,2.357,2.357,0,0,1-1.1.811L13.519-.064V0H12.413ZM8.878-4.007h1.584a1.787,1.787,0,0,0,1.222-.4,1.346,1.346,0,0,0,.454-1.065,1.418,1.418,0,0,0-.432-1.114,1.831,1.831,0,0,0-1.249-.393H8.878Zm10.162.392H15.651V-.843h3.937V0H14.62V-7.82h4.915v.843H15.651v2.519h3.389Zm4.136.129a4.849,4.849,0,0,1-1.931-.937,1.791,1.791,0,0,1-.6-1.372,1.892,1.892,0,0,1,.739-1.528,2.935,2.935,0,0,1,1.92-.6,3.2,3.2,0,0,1,1.437.312,2.362,2.362,0,0,1,.978.859,2.2,2.2,0,0,1,.346,1.2H25.024a1.43,1.43,0,0,0-.451-1.118A1.835,1.835,0,0,0,23.3-7.084a1.878,1.878,0,0,0-1.19.336,1.122,1.122,0,0,0-.427.934,1.009,1.009,0,0,0,.406.81,3.978,3.978,0,0,0,1.38.605,6.4,6.4,0,0,1,1.525.6,2.315,2.315,0,0,1,.816.771,1.967,1.967,0,0,1,.266,1.037,1.827,1.827,0,0,1-.741,1.523,3.16,3.16,0,0,1-1.982.572A3.676,3.676,0,0,1,21.85-.2a2.531,2.531,0,0,1-1.077-.846,2.064,2.064,0,0,1-.379-1.219h1.037a1.347,1.347,0,0,0,.524,1.12,2.2,2.2,0,0,0,1.4.411A2.027,2.027,0,0,0,24.6-1.069a1.082,1.082,0,0,0,.435-.908,1.062,1.062,0,0,0-.4-.889A4.644,4.644,0,0,0,23.176-3.486Zm8.642-.129H28.429V-.843h3.937V0H27.4V-7.82h4.915v.843H28.429v2.519h3.389Zm7.342-3.362H36.647V0H35.621V-6.977H33.113V-7.82h6.048Zm5.054,4.931H40.938L40.2,0H39.139l2.986-7.82h.9L46.02,0H44.961ZM41.25-2.89h2.659L42.577-6.547Z" transform="translate(98 -10996)" fill="#12263f"/>
      <path id="Trazado_120035" data-name="Trazado 120035" d="M623.668-10953.758H85v-1H623.668Z" transform="translate(0 47)" fill="#12263f"/>
      <path id="Trazado_121599" data-name="Trazado 121599" d="M1.939-3.062V0H.908V-7.82H3.792A2.9,2.9,0,0,1,5.8-7.165,2.222,2.222,0,0,1,6.531-5.43,2.192,2.192,0,0,1,5.82-3.677a3.027,3.027,0,0,1-2.038.615Zm0-.843H3.792a1.853,1.853,0,0,0,1.268-.39A1.426,1.426,0,0,0,5.5-5.422a1.474,1.474,0,0,0-.44-1.119,1.736,1.736,0,0,0-1.208-.436H1.939Zm8.776.741H8.878V0H7.842V-7.82h2.589a3.064,3.064,0,0,1,2.033.6,2.164,2.164,0,0,1,.712,1.751,2.105,2.105,0,0,1-.395,1.273,2.357,2.357,0,0,1-1.1.811L13.519-.064V0H12.413ZM8.878-4.007h1.584a1.787,1.787,0,0,0,1.222-.4,1.346,1.346,0,0,0,.454-1.065,1.418,1.418,0,0,0-.432-1.114,1.831,1.831,0,0,0-1.249-.393H8.878Zm11.757.349a4.838,4.838,0,0,1-.387,2.006,2.929,2.929,0,0,1-1.1,1.308A3.015,3.015,0,0,1,17.5.107a2.989,2.989,0,0,1-1.638-.454,3,3,0,0,1-1.109-1.294,4.642,4.642,0,0,1-.406-1.947v-.564a4.78,4.78,0,0,1,.392-1.993,2.989,2.989,0,0,1,1.109-1.324,2.976,2.976,0,0,1,1.641-.459,3.032,3.032,0,0,1,1.657.454,2.924,2.924,0,0,1,1.1,1.316,4.861,4.861,0,0,1,.387,2.006Zm-1.026-.5A3.506,3.506,0,0,0,19.051-6.3a1.842,1.842,0,0,0-1.563-.744,1.823,1.823,0,0,0-1.539.744,3.434,3.434,0,0,0-.577,2.065v.575a3.511,3.511,0,0,0,.567,2.119,1.83,1.83,0,0,0,1.56.771A1.823,1.823,0,0,0,19.046-1.5a3.492,3.492,0,0,0,.564-2.087Zm3.6,1.1V0H22.183V-7.82h2.884a2.9,2.9,0,0,1,2.011.655,2.222,2.222,0,0,1,.728,1.735,2.192,2.192,0,0,1-.712,1.754,3.027,3.027,0,0,1-2.038.615Zm0-.843h1.853a1.853,1.853,0,0,0,1.268-.39,1.426,1.426,0,0,0,.44-1.127,1.474,1.474,0,0,0-.44-1.119,1.736,1.736,0,0,0-1.208-.436H23.214ZM30.229,0H29.2V-7.82h1.031Zm6.306-3.615H33.145V-.843h3.937V0H32.114V-7.82h4.915v.843H33.145v2.519h3.389Zm7.342-3.362H41.363V0H40.337V-6.977H37.829V-7.82h6.048Zm5.054,4.931H45.654L44.918,0H43.855l2.986-7.82h.9L50.735,0H49.677ZM45.966-2.89h2.659L47.292-6.547Zm8.69-.274H52.819V0H51.783V-7.82h2.589a3.064,3.064,0,0,1,2.033.6,2.164,2.164,0,0,1,.712,1.751,2.105,2.105,0,0,1-.395,1.273,2.357,2.357,0,0,1-1.1.811L57.46-.064V0H56.354Zm-1.837-.843H54.4a1.787,1.787,0,0,0,1.222-.4A1.346,1.346,0,0,0,56.08-5.47a1.418,1.418,0,0,0-.432-1.114A1.831,1.831,0,0,0,54.4-6.977H52.819ZM59.667,0H58.636V-7.82h1.031Zm7.9-3.658a4.838,4.838,0,0,1-.387,2.006,2.929,2.929,0,0,1-1.1,1.308,3.015,3.015,0,0,1-1.654.451,2.989,2.989,0,0,1-1.638-.454,3,3,0,0,1-1.109-1.294,4.642,4.642,0,0,1-.406-1.947v-.564a4.78,4.78,0,0,1,.392-1.993A2.989,2.989,0,0,1,62.78-7.469a2.976,2.976,0,0,1,1.641-.459,3.032,3.032,0,0,1,1.657.454,2.924,2.924,0,0,1,1.1,1.316,4.861,4.861,0,0,1,.387,2.006Zm-1.026-.5A3.506,3.506,0,0,0,65.984-6.3a1.842,1.842,0,0,0-1.563-.744,1.823,1.823,0,0,0-1.539.744A3.434,3.434,0,0,0,62.3-4.232v.575a3.511,3.511,0,0,0,.567,2.119,1.83,1.83,0,0,0,1.56.771A1.823,1.823,0,0,0,65.979-1.5a3.492,3.492,0,0,0,.564-2.087Z" transform="translate(98 -10938)" fill="#12263f"/>
      <path id="Trazado_120036" data-name="Trazado 120036" d="M623.668-10953.758H85v-1H623.668Z" transform="translate(0 140.258)" fill="#12263f"/>
      <path id="Trazado_121598" data-name="Trazado 121598" d="M1.939-3.062V0H.908V-7.82H3.792A2.9,2.9,0,0,1,5.8-7.165,2.222,2.222,0,0,1,6.531-5.43,2.192,2.192,0,0,1,5.82-3.677a3.027,3.027,0,0,1-2.038.615Zm0-.843H3.792a1.853,1.853,0,0,0,1.268-.39A1.426,1.426,0,0,0,5.5-5.422a1.474,1.474,0,0,0-.44-1.119,1.736,1.736,0,0,0-1.208-.436H1.939Zm8.776.741H8.878V0H7.842V-7.82h2.589a3.064,3.064,0,0,1,2.033.6,2.164,2.164,0,0,1,.712,1.751,2.105,2.105,0,0,1-.395,1.273,2.357,2.357,0,0,1-1.1.811L13.519-.064V0H12.413ZM8.878-4.007h1.584a1.787,1.787,0,0,0,1.222-.4,1.346,1.346,0,0,0,.454-1.065,1.418,1.418,0,0,0-.432-1.114,1.831,1.831,0,0,0-1.249-.393H8.878Zm11.757.349a4.838,4.838,0,0,1-.387,2.006,2.929,2.929,0,0,1-1.1,1.308A3.015,3.015,0,0,1,17.5.107a2.989,2.989,0,0,1-1.638-.454,3,3,0,0,1-1.109-1.294,4.642,4.642,0,0,1-.406-1.947v-.564a4.78,4.78,0,0,1,.392-1.993,2.989,2.989,0,0,1,1.109-1.324,2.976,2.976,0,0,1,1.641-.459,3.032,3.032,0,0,1,1.657.454,2.924,2.924,0,0,1,1.1,1.316,4.861,4.861,0,0,1,.387,2.006Zm-1.026-.5A3.506,3.506,0,0,0,19.051-6.3a1.842,1.842,0,0,0-1.563-.744,1.823,1.823,0,0,0-1.539.744,3.434,3.434,0,0,0-.577,2.065v.575a3.511,3.511,0,0,0,.567,2.119,1.83,1.83,0,0,0,1.56.771A1.823,1.823,0,0,0,19.046-1.5a3.492,3.492,0,0,0,.564-2.087Zm4.727.269L26.377-7.82h1.171l-2.7,4.9V0H23.821V-2.917l-2.7-4.9h1.182Zm8.642.279H29.589V-.843h3.937V0H28.558V-7.82h4.915v.843H29.589v2.519h3.389Zm7.584,1.133a2.877,2.877,0,0,1-.916,1.915A3,3,0,0,1,37.6.107a2.756,2.756,0,0,1-2.221-.994,4,4,0,0,1-.835-2.659V-4.3a4.456,4.456,0,0,1,.389-1.917,2.909,2.909,0,0,1,1.1-1.27,3.073,3.073,0,0,1,1.654-.443,2.826,2.826,0,0,1,2,.7,2.912,2.912,0,0,1,.875,1.926H39.526a2.247,2.247,0,0,0-.583-1.358,1.763,1.763,0,0,0-1.254-.42,1.845,1.845,0,0,0-1.55.731,3.356,3.356,0,0,0-.561,2.08v.758a3.45,3.45,0,0,0,.532,2.027A1.718,1.718,0,0,0,37.6-.736a1.984,1.984,0,0,0,1.319-.389,2.161,2.161,0,0,0,.61-1.356Zm6.655-4.5H44.7V0H43.678V-6.977H41.169V-7.82h6.048Zm7.025,3.319a4.838,4.838,0,0,1-.387,2.006,2.929,2.929,0,0,1-1.1,1.308,3.015,3.015,0,0,1-1.654.451,2.989,2.989,0,0,1-1.638-.454,3,3,0,0,1-1.109-1.294,4.642,4.642,0,0,1-.406-1.947v-.564a4.78,4.78,0,0,1,.392-1.993,2.989,2.989,0,0,1,1.109-1.324A2.976,2.976,0,0,1,51.1-7.928a3.032,3.032,0,0,1,1.657.454,2.924,2.924,0,0,1,1.1,1.316,4.861,4.861,0,0,1,.387,2.006Zm-1.026-.5A3.506,3.506,0,0,0,52.658-6.3,1.842,1.842,0,0,0,51.1-7.042a1.823,1.823,0,0,0-1.539.744,3.434,3.434,0,0,0-.577,2.065v.575a3.511,3.511,0,0,0,.567,2.119,1.83,1.83,0,0,0,1.56.771A1.823,1.823,0,0,0,52.653-1.5a3.492,3.492,0,0,0,.564-2.087Z" transform="translate(98 -10879)" fill="#12263f"/>
      <path id="Trazado_121597" data-name="Trazado 121597" d="M.908,0V-7.82H3.115a3.554,3.554,0,0,1,1.8.451A3.051,3.051,0,0,1,6.131-6.085a4.178,4.178,0,0,1,.432,1.912v.5a4.193,4.193,0,0,1-.427,1.939A3,3,0,0,1,4.917-.457,3.78,3.78,0,0,1,3.072,0ZM1.939-6.977V-.843H3.024A2.361,2.361,0,0,0,4.88-1.585,3.065,3.065,0,0,0,5.543-3.7v-.457a3.114,3.114,0,0,0-.626-2.072,2.227,2.227,0,0,0-1.775-.75ZM9.228,0H8.2V-7.82H9.228Zm4.753-3.164H12.144V0H11.107V-7.82H13.7a3.064,3.064,0,0,1,2.033.6,2.164,2.164,0,0,1,.712,1.751,2.105,2.105,0,0,1-.395,1.273,2.357,2.357,0,0,1-1.1.811L16.785-.064V0H15.678Zm-1.837-.843h1.584a1.787,1.787,0,0,0,1.222-.4A1.346,1.346,0,0,0,15.4-5.47a1.418,1.418,0,0,0-.432-1.114,1.831,1.831,0,0,0-1.249-.393H12.144Zm10.162.392H18.917V-.843h3.937V0H17.886V-7.82H22.8v.843H18.917v2.519h3.389ZM29.89-2.481a2.877,2.877,0,0,1-.916,1.915,3,3,0,0,1-2.049.674A2.756,2.756,0,0,1,24.7-.886a4,4,0,0,1-.835-2.659V-4.3a4.456,4.456,0,0,1,.389-1.917,2.909,2.909,0,0,1,1.1-1.27,3.073,3.073,0,0,1,1.654-.443,2.826,2.826,0,0,1,2,.7,2.912,2.912,0,0,1,.875,1.926H28.854a2.247,2.247,0,0,0-.583-1.358,1.763,1.763,0,0,0-1.254-.42,1.845,1.845,0,0,0-1.55.731,3.356,3.356,0,0,0-.561,2.08v.758a3.45,3.45,0,0,0,.532,2.027,1.718,1.718,0,0,0,1.488.753,1.984,1.984,0,0,0,1.319-.389,2.161,2.161,0,0,0,.61-1.356Zm7.16,0a2.877,2.877,0,0,1-.916,1.915,3,3,0,0,1-2.049.674,2.756,2.756,0,0,1-2.221-.994,4,4,0,0,1-.835-2.659V-4.3a4.456,4.456,0,0,1,.389-1.917,2.909,2.909,0,0,1,1.1-1.27,3.073,3.073,0,0,1,1.654-.443,2.826,2.826,0,0,1,2,.7,2.912,2.912,0,0,1,.875,1.926H36.013a2.247,2.247,0,0,0-.583-1.358,1.763,1.763,0,0,0-1.254-.42,1.845,1.845,0,0,0-1.55.731,3.356,3.356,0,0,0-.561,2.08v.758A3.45,3.45,0,0,0,32.6-1.488a1.718,1.718,0,0,0,1.488.753A1.984,1.984,0,0,0,35.4-1.125a2.161,2.161,0,0,0,.61-1.356ZM39.563,0H38.532V-7.82h1.031Zm7.9-3.658a4.838,4.838,0,0,1-.387,2.006,2.929,2.929,0,0,1-1.1,1.308,3.015,3.015,0,0,1-1.654.451,2.989,2.989,0,0,1-1.638-.454A3,3,0,0,1,41.58-1.641a4.642,4.642,0,0,1-.406-1.947v-.564a4.78,4.78,0,0,1,.392-1.993,2.989,2.989,0,0,1,1.109-1.324,2.976,2.976,0,0,1,1.641-.459,3.032,3.032,0,0,1,1.657.454,2.924,2.924,0,0,1,1.1,1.316,4.861,4.861,0,0,1,.387,2.006Zm-1.026-.5A3.506,3.506,0,0,0,45.88-6.3a1.842,1.842,0,0,0-1.563-.744,1.823,1.823,0,0,0-1.539.744A3.434,3.434,0,0,0,42.2-4.232v.575a3.511,3.511,0,0,0,.567,2.119,1.83,1.83,0,0,0,1.56.771A1.823,1.823,0,0,0,45.875-1.5a3.492,3.492,0,0,0,.564-2.087ZM44.822-9.926h1.2L44.585-8.347l-.8,0ZM55.021,0H53.985L50.048-6.026V0H49.011V-7.82h1.037L54-1.767V-7.82h1.026Z" transform="translate(98 -10856)" fill="#12263f"/>
      <path id="Trazado_121596" data-name="Trazado 121596" d="M6.66-2.481A2.877,2.877,0,0,1,5.744-.567,3,3,0,0,1,3.7.107,2.756,2.756,0,0,1,1.474-.886,4,4,0,0,1,.639-3.545V-4.3a4.456,4.456,0,0,1,.389-1.917,2.909,2.909,0,0,1,1.1-1.27,3.073,3.073,0,0,1,1.654-.443,2.826,2.826,0,0,1,2,.7A2.912,2.912,0,0,1,6.66-5.307H5.624a2.247,2.247,0,0,0-.583-1.358,1.763,1.763,0,0,0-1.254-.42,1.845,1.845,0,0,0-1.55.731,3.356,3.356,0,0,0-.561,2.08v.758a3.45,3.45,0,0,0,.532,2.027A1.718,1.718,0,0,0,3.7-.736a1.984,1.984,0,0,0,1.319-.389,2.161,2.161,0,0,0,.61-1.356Zm7.423-1.176A4.838,4.838,0,0,1,13.7-1.652,2.929,2.929,0,0,1,12.6-.344a3.015,3.015,0,0,1-1.654.451A2.989,2.989,0,0,1,9.308-.346,3,3,0,0,1,8.2-1.641a4.642,4.642,0,0,1-.406-1.947v-.564a4.78,4.78,0,0,1,.392-1.993A2.989,2.989,0,0,1,9.295-7.469a2.976,2.976,0,0,1,1.641-.459,3.032,3.032,0,0,1,1.657.454,2.924,2.924,0,0,1,1.1,1.316,4.861,4.861,0,0,1,.387,2.006Zm-1.026-.5A3.506,3.506,0,0,0,12.5-6.3a1.842,1.842,0,0,0-1.563-.744A1.823,1.823,0,0,0,9.4-6.3a3.434,3.434,0,0,0-.577,2.065v.575a3.511,3.511,0,0,0,.567,2.119,1.83,1.83,0,0,0,1.56.771A1.823,1.823,0,0,0,12.493-1.5a3.492,3.492,0,0,0,.564-2.087ZM21.64,0H20.6L16.667-6.026V0H15.63V-7.82h1.037l3.948,6.053V-7.82H21.64Zm7.079-6.977H26.206V0H25.18V-6.977H22.671V-7.82h6.048ZM30.986,0H29.955V-7.82h1.031Zm6.306-3.615H33.9V-.843h3.937V0H32.871V-7.82h4.915v.843H33.9v2.519h3.389ZM45.133,0H44.1L40.16-6.026V0H39.123V-7.82H40.16l3.948,6.053V-7.82h1.026Zm6.252-3.615H48V-.843h3.937V0H46.965V-7.82h4.915v.843H48v2.519h3.389Z" transform="translate(98 -10830)" fill="#12263f"/>
      <path id="Trazado_121595" data-name="Trazado 121595" d="M.908,0V-7.82H3.115a3.554,3.554,0,0,1,1.8.451A3.051,3.051,0,0,1,6.131-6.085a4.178,4.178,0,0,1,.432,1.912v.5a4.193,4.193,0,0,1-.427,1.939A3,3,0,0,1,4.917-.457,3.78,3.78,0,0,1,3.072,0ZM1.939-6.977V-.843H3.024A2.361,2.361,0,0,0,4.88-1.585,3.065,3.065,0,0,0,5.543-3.7v-.457a3.114,3.114,0,0,0-.626-2.072,2.227,2.227,0,0,0-1.775-.75ZM9.228,0H8.2V-7.82H9.228Zm4.189-3.486a4.849,4.849,0,0,1-1.931-.937,1.791,1.791,0,0,1-.6-1.372,1.892,1.892,0,0,1,.739-1.528,2.935,2.935,0,0,1,1.92-.6,3.2,3.2,0,0,1,1.437.312,2.362,2.362,0,0,1,.978.859,2.2,2.2,0,0,1,.346,1.2H15.265a1.43,1.43,0,0,0-.451-1.118,1.835,1.835,0,0,0-1.273-.407,1.878,1.878,0,0,0-1.19.336,1.122,1.122,0,0,0-.427.934,1.009,1.009,0,0,0,.406.81,3.978,3.978,0,0,0,1.38.605,6.4,6.4,0,0,1,1.525.6,2.315,2.315,0,0,1,.816.771,1.967,1.967,0,0,1,.266,1.037,1.827,1.827,0,0,1-.741,1.523,3.16,3.16,0,0,1-1.982.572A3.676,3.676,0,0,1,12.09-.2a2.531,2.531,0,0,1-1.077-.846,2.064,2.064,0,0,1-.379-1.219h1.037a1.347,1.347,0,0,0,.524,1.12,2.2,2.2,0,0,0,1.4.411,2.027,2.027,0,0,0,1.251-.333,1.082,1.082,0,0,0,.435-.908,1.062,1.062,0,0,0-.4-.889A4.644,4.644,0,0,0,13.417-3.486Zm8.642-.129H18.67V-.843h3.937V0H17.639V-7.82h4.915v.843H18.67v2.519h3.389ZM29.9,0H28.864L24.927-6.026V0H23.891V-7.82h1.037l3.948,6.053V-7.82H29.9ZM28.789-9.743a1.335,1.335,0,0,1-.33.94,1.073,1.073,0,0,1-.824.36,1.21,1.21,0,0,1-.381-.054,2.057,2.057,0,0,1-.422-.22,1.826,1.826,0,0,0-.376-.2.92.92,0,0,0-.266-.035.493.493,0,0,0-.376.169.613.613,0,0,0-.156.432l-.666-.038a1.4,1.4,0,0,1,.325-.951,1.042,1.042,0,0,1,.824-.376,1,1,0,0,1,.338.054,2.466,2.466,0,0,1,.408.209,2.4,2.4,0,0,0,.395.2.907.907,0,0,0,.3.048.481.481,0,0,0,.384-.183.641.641,0,0,0,.153-.424Zm8.959,6.085a4.838,4.838,0,0,1-.387,2.006,2.929,2.929,0,0,1-1.1,1.308,3.015,3.015,0,0,1-1.654.451,2.989,2.989,0,0,1-1.638-.454,3,3,0,0,1-1.109-1.294,4.642,4.642,0,0,1-.406-1.947v-.564a4.78,4.78,0,0,1,.392-1.993A2.989,2.989,0,0,1,32.96-7.469,2.976,2.976,0,0,1,34.6-7.928a3.032,3.032,0,0,1,1.657.454,2.924,2.924,0,0,1,1.1,1.316,4.861,4.861,0,0,1,.387,2.006Zm-1.026-.5A3.506,3.506,0,0,0,36.164-6.3,1.842,1.842,0,0,0,34.6-7.042a1.823,1.823,0,0,0-1.539.744,3.434,3.434,0,0,0-.577,2.065v.575a3.511,3.511,0,0,0,.567,2.119,1.83,1.83,0,0,0,1.56.771A1.823,1.823,0,0,0,36.158-1.5a3.492,3.492,0,0,0,.564-2.087ZM39.107-.521a.622.622,0,0,1,.153-.43.583.583,0,0,1,.459-.172.6.6,0,0,1,.465.172.61.61,0,0,1,.158.43.577.577,0,0,1-.158.414.612.612,0,0,1-.465.167.594.594,0,0,1-.459-.167A.588.588,0,0,1,39.107-.521Zm.005-4.743a.622.622,0,0,1,.153-.43.583.583,0,0,1,.459-.172.6.6,0,0,1,.465.172.61.61,0,0,1,.158.43.577.577,0,0,1-.158.414.612.612,0,0,1-.465.167.594.594,0,0,1-.459-.167A.588.588,0,0,1,39.112-5.264Z" transform="translate(98 -10799)" fill="#12263f"/>
      <path id="Trazado_121594" data-name="Trazado 121594" d="M.908,0V-7.82H3.115a3.554,3.554,0,0,1,1.8.451A3.051,3.051,0,0,1,6.131-6.085a4.178,4.178,0,0,1,.432,1.912v.5a4.193,4.193,0,0,1-.427,1.939A3,3,0,0,1,4.917-.457,3.78,3.78,0,0,1,3.072,0ZM1.939-6.977V-.843H3.024A2.361,2.361,0,0,0,4.88-1.585,3.065,3.065,0,0,0,5.543-3.7v-.457a3.114,3.114,0,0,0-.626-2.072,2.227,2.227,0,0,0-1.775-.75ZM9.228,0H8.2V-7.82H9.228Zm1.885,0V-7.82h2.557a2.968,2.968,0,0,1,1.915.526,1.9,1.9,0,0,1,.642,1.558,1.588,1.588,0,0,1-.312.969,2.02,2.02,0,0,1-.849.653,1.814,1.814,0,0,1,1,.674,1.935,1.935,0,0,1,.368,1.184A2.092,2.092,0,0,1,15.753-.6a2.821,2.821,0,0,1-1.928.6Zm1.031-3.658V-.843h1.7a1.639,1.639,0,0,0,1.136-.373A1.311,1.311,0,0,0,15.4-2.245q0-1.413-1.536-1.413Zm0-.827H13.7a1.633,1.633,0,0,0,1.082-.339,1.137,1.137,0,0,0,.406-.92,1.118,1.118,0,0,0-.376-.939,1.846,1.846,0,0,0-1.144-.293H12.144ZM23.466-7.82V-2.5a2.494,2.494,0,0,1-.7,1.81A2.8,2.8,0,0,1,20.9.1l-.274.011a2.927,2.927,0,0,1-2.046-.693,2.478,2.478,0,0,1-.773-1.907V-7.82h1.021v5.3a1.789,1.789,0,0,0,.467,1.319,1.8,1.8,0,0,0,1.332.47,1.808,1.808,0,0,0,1.34-.467,1.785,1.785,0,0,0,.465-1.316v-5.3Zm4.9,0h1.037v5.538a2.294,2.294,0,0,1-.674,1.756,2.516,2.516,0,0,1-1.8.634,2.586,2.586,0,0,1-1.815-.6,2.153,2.153,0,0,1-.65-1.67H25.5a1.434,1.434,0,0,0,.368,1.047,1.425,1.425,0,0,0,1.066.376,1.383,1.383,0,0,0,1.034-.4,1.561,1.561,0,0,0,.4-1.128Zm8.809,4.163a4.838,4.838,0,0,1-.387,2.006A2.929,2.929,0,0,1,35.7-.344a3.015,3.015,0,0,1-1.654.451A2.989,2.989,0,0,1,32.4-.346a3,3,0,0,1-1.109-1.294,4.642,4.642,0,0,1-.406-1.947v-.564a4.78,4.78,0,0,1,.392-1.993A2.989,2.989,0,0,1,32.39-7.469a2.976,2.976,0,0,1,1.641-.459,3.032,3.032,0,0,1,1.657.454,2.924,2.924,0,0,1,1.1,1.316,4.861,4.861,0,0,1,.387,2.006Zm-1.026-.5A3.506,3.506,0,0,0,35.594-6.3a1.842,1.842,0,0,0-1.563-.744,1.823,1.823,0,0,0-1.539.744,3.434,3.434,0,0,0-.577,2.065v.575a3.511,3.511,0,0,0,.567,2.119,1.83,1.83,0,0,0,1.56.771A1.823,1.823,0,0,0,35.589-1.5a3.492,3.492,0,0,0,.564-2.087ZM38.538-.521a.622.622,0,0,1,.153-.43.583.583,0,0,1,.459-.172.6.6,0,0,1,.465.172.61.61,0,0,1,.158.43.577.577,0,0,1-.158.414.612.612,0,0,1-.465.167.594.594,0,0,1-.459-.167A.588.588,0,0,1,38.538-.521Zm.005-4.743a.622.622,0,0,1,.153-.43.583.583,0,0,1,.459-.172.6.6,0,0,1,.465.172.61.61,0,0,1,.158.43.577.577,0,0,1-.158.414.612.612,0,0,1-.465.167A.594.594,0,0,1,38.7-4.85.588.588,0,0,1,38.543-5.264Z" transform="translate(98 -10778)" fill="#12263f"/>
      <path id="Trazado_121593" data-name="Trazado 121593" d="M3.776-3.164H1.939V0H.9V-7.82H3.491a3.064,3.064,0,0,1,2.033.6,2.164,2.164,0,0,1,.712,1.751,2.105,2.105,0,0,1-.395,1.273,2.357,2.357,0,0,1-1.1.811L6.58-.064V0H5.473ZM1.939-4.007H3.523a1.787,1.787,0,0,0,1.222-.4A1.346,1.346,0,0,0,5.2-5.47a1.418,1.418,0,0,0-.432-1.114,1.831,1.831,0,0,0-1.249-.393H1.939ZM12.1-3.615H8.712V-.843h3.937V0H7.681V-7.82H12.6v.843H8.712v2.519H12.1Zm4.42,2.245L18.756-7.82h1.128L16.983,0H16.07l-2.9-7.82H14.3ZM22.038,0H21.006V-7.82h1.031Zm4.189-3.486A4.849,4.849,0,0,1,24.3-4.423a1.791,1.791,0,0,1-.6-1.372,1.892,1.892,0,0,1,.739-1.528,2.935,2.935,0,0,1,1.92-.6,3.2,3.2,0,0,1,1.437.312,2.362,2.362,0,0,1,.978.859,2.2,2.2,0,0,1,.346,1.2H28.075a1.43,1.43,0,0,0-.451-1.118,1.835,1.835,0,0,0-1.273-.407,1.878,1.878,0,0,0-1.19.336,1.122,1.122,0,0,0-.427.934,1.009,1.009,0,0,0,.406.81,3.978,3.978,0,0,0,1.38.605,6.4,6.4,0,0,1,1.525.6,2.315,2.315,0,0,1,.816.771,1.967,1.967,0,0,1,.266,1.037,1.827,1.827,0,0,1-.741,1.523A3.16,3.16,0,0,1,26.4.107,3.676,3.676,0,0,1,24.9-.2a2.531,2.531,0,0,1-1.077-.846,2.064,2.064,0,0,1-.379-1.219h1.037a1.347,1.347,0,0,0,.524,1.12,2.2,2.2,0,0,0,1.4.411,2.027,2.027,0,0,0,1.251-.333,1.082,1.082,0,0,0,.435-.908,1.062,1.062,0,0,0-.4-.889A4.644,4.644,0,0,0,26.227-3.486Zm10.237-.172a4.838,4.838,0,0,1-.387,2.006,2.929,2.929,0,0,1-1.1,1.308,3.015,3.015,0,0,1-1.654.451,2.989,2.989,0,0,1-1.638-.454A3,3,0,0,1,30.58-1.641a4.642,4.642,0,0,1-.406-1.947v-.564a4.78,4.78,0,0,1,.392-1.993,2.989,2.989,0,0,1,1.109-1.324,2.976,2.976,0,0,1,1.641-.459,3.032,3.032,0,0,1,1.657.454,2.924,2.924,0,0,1,1.1,1.316,4.861,4.861,0,0,1,.387,2.006Zm-1.026-.5A3.506,3.506,0,0,0,34.88-6.3a1.842,1.842,0,0,0-1.563-.744,1.823,1.823,0,0,0-1.539.744A3.434,3.434,0,0,0,31.2-4.232v.575a3.511,3.511,0,0,0,.567,2.119,1.83,1.83,0,0,0,1.56.771A1.823,1.823,0,0,0,34.875-1.5a3.492,3.492,0,0,0,.564-2.087ZM37.823-.521a.622.622,0,0,1,.153-.43.583.583,0,0,1,.459-.172.6.6,0,0,1,.465.172.61.61,0,0,1,.158.43.577.577,0,0,1-.158.414.612.612,0,0,1-.465.167.594.594,0,0,1-.459-.167A.588.588,0,0,1,37.823-.521Zm.005-4.743a.622.622,0,0,1,.153-.43.583.583,0,0,1,.459-.172.6.6,0,0,1,.465.172.61.61,0,0,1,.158.43.577.577,0,0,1-.158.414.612.612,0,0,1-.465.167.594.594,0,0,1-.459-.167A.588.588,0,0,1,37.829-5.264Z" transform="translate(98 -10756)" fill="#12263f"/>
      <path id="Trazado_121592" data-name="Trazado 121592" d="M5.226-2.046H1.95L1.214,0H.15L3.137-7.82h.9L7.031,0H5.973ZM2.261-2.89H4.92L3.588-6.547Zm6.854-.172V0H8.083V-7.82h2.884a2.9,2.9,0,0,1,2.011.655,2.222,2.222,0,0,1,.728,1.735A2.192,2.192,0,0,1,13-3.677a3.027,3.027,0,0,1-2.038.615Zm0-.843h1.853a1.853,1.853,0,0,0,1.268-.39,1.426,1.426,0,0,0,.44-1.127,1.474,1.474,0,0,0-.44-1.119,1.736,1.736,0,0,0-1.208-.436H9.115Zm8.776.741H16.054V0H15.018V-7.82h2.589a3.064,3.064,0,0,1,2.033.6,2.164,2.164,0,0,1,.712,1.751,2.105,2.105,0,0,1-.395,1.273,2.357,2.357,0,0,1-1.1.811L20.695-.064V0H19.588Zm-1.837-.843h1.584a1.787,1.787,0,0,0,1.222-.4,1.346,1.346,0,0,0,.454-1.065,1.418,1.418,0,0,0-.432-1.114,1.831,1.831,0,0,0-1.249-.393H16.054Zm11.757.349a4.838,4.838,0,0,1-.387,2.006,2.929,2.929,0,0,1-1.1,1.308,3.015,3.015,0,0,1-1.654.451,2.989,2.989,0,0,1-1.638-.454,3,3,0,0,1-1.109-1.294,4.642,4.642,0,0,1-.406-1.947v-.564a4.78,4.78,0,0,1,.392-1.993,2.989,2.989,0,0,1,1.109-1.324,2.976,2.976,0,0,1,1.641-.459,3.032,3.032,0,0,1,1.657.454,2.924,2.924,0,0,1,1.1,1.316,4.861,4.861,0,0,1,.387,2.006Zm-1.026-.5A3.506,3.506,0,0,0,26.227-6.3a1.842,1.842,0,0,0-1.563-.744,1.823,1.823,0,0,0-1.539.744,3.434,3.434,0,0,0-.577,2.065v.575a3.511,3.511,0,0,0,.567,2.119,1.83,1.83,0,0,0,1.56.771A1.823,1.823,0,0,0,26.222-1.5a3.492,3.492,0,0,0,.564-2.087ZM29.358,0V-7.82h2.557a2.968,2.968,0,0,1,1.915.526,1.9,1.9,0,0,1,.642,1.558,1.588,1.588,0,0,1-.312.969,2.02,2.02,0,0,1-.849.653,1.814,1.814,0,0,1,1,.674,1.935,1.935,0,0,1,.368,1.184A2.092,2.092,0,0,1,34-.6a2.821,2.821,0,0,1-1.928.6ZM30.39-3.658V-.843h1.7a1.639,1.639,0,0,0,1.136-.373,1.311,1.311,0,0,0,.416-1.029q0-1.413-1.536-1.413Zm0-.827h1.558a1.633,1.633,0,0,0,1.082-.339,1.137,1.137,0,0,0,.406-.92,1.118,1.118,0,0,0-.376-.939,1.846,1.846,0,0,0-1.144-.293H30.39Zm11.833.827a4.838,4.838,0,0,1-.387,2.006,2.929,2.929,0,0,1-1.1,1.308,3.015,3.015,0,0,1-1.654.451,2.989,2.989,0,0,1-1.638-.454,3,3,0,0,1-1.109-1.294,4.642,4.642,0,0,1-.406-1.947v-.564a4.78,4.78,0,0,1,.392-1.993,2.989,2.989,0,0,1,1.109-1.324,2.976,2.976,0,0,1,1.641-.459,3.032,3.032,0,0,1,1.657.454,2.924,2.924,0,0,1,1.1,1.316,4.861,4.861,0,0,1,.387,2.006Zm-1.026-.5A3.506,3.506,0,0,0,40.638-6.3a1.842,1.842,0,0,0-1.563-.744,1.823,1.823,0,0,0-1.539.744,3.434,3.434,0,0,0-.577,2.065v.575a3.511,3.511,0,0,0,.567,2.119,1.83,1.83,0,0,0,1.56.771A1.823,1.823,0,0,0,40.632-1.5,3.492,3.492,0,0,0,41.2-3.583ZM39.58-9.926h1.2L39.343-8.347l-.8,0Zm4,9.4a.622.622,0,0,1,.153-.43.583.583,0,0,1,.459-.172.6.6,0,0,1,.465.172.61.61,0,0,1,.158.43.577.577,0,0,1-.158.414.612.612,0,0,1-.465.167.594.594,0,0,1-.459-.167A.588.588,0,0,1,43.581-.521Zm.005-4.743a.622.622,0,0,1,.153-.43.583.583,0,0,1,.459-.172.6.6,0,0,1,.465.172.61.61,0,0,1,.158.43.577.577,0,0,1-.158.414.612.612,0,0,1-.465.167.594.594,0,0,1-.459-.167A.588.588,0,0,1,43.586-5.264Z" transform="translate(98 -10734)" fill="#12263f"/>
      <path id="Trazado_121591" data-name="Trazado 121591" d="M6.918,0H5.881L1.944-6.026V0H.908V-7.82H1.944L5.892-1.767V-7.82H6.918Zm7.337-7.82V-2.5a2.494,2.494,0,0,1-.7,1.81A2.8,2.8,0,0,1,11.688.1l-.274.011A2.927,2.927,0,0,1,9.367-.585a2.478,2.478,0,0,1-.773-1.907V-7.82H9.614v5.3a1.789,1.789,0,0,0,.467,1.319,1.8,1.8,0,0,0,1.332.47,1.808,1.808,0,0,0,1.34-.467,1.785,1.785,0,0,0,.465-1.316v-5.3ZM11.913-9.915h1.2L11.677-8.336l-.8,0Zm5.3,2.095,2.557,6.381L22.328-7.82h1.337V0H22.634V-3.045l.1-3.287L20.163,0h-.79L16.812-6.316l.1,3.271V0H15.882V-7.82ZM29.906-3.615H26.517V-.843h3.937V0H25.486V-7.82H30.4v.843H26.517v2.519h3.389Zm4.7.451H32.769V0H31.732V-7.82h2.589a3.064,3.064,0,0,1,2.033.6,2.164,2.164,0,0,1,.712,1.751,2.105,2.105,0,0,1-.395,1.273,2.357,2.357,0,0,1-1.1.811L37.41-.064V0H36.3Zm-1.837-.843h1.584a1.787,1.787,0,0,0,1.222-.4,1.346,1.346,0,0,0,.454-1.065A1.418,1.418,0,0,0,35.6-6.584a1.831,1.831,0,0,0-1.249-.393H32.769Zm11.757.349a4.838,4.838,0,0,1-.387,2.006,2.929,2.929,0,0,1-1.1,1.308A3.015,3.015,0,0,1,41.39.107a2.989,2.989,0,0,1-1.638-.454,3,3,0,0,1-1.109-1.294,4.642,4.642,0,0,1-.406-1.947v-.564a4.78,4.78,0,0,1,.392-1.993,2.989,2.989,0,0,1,1.109-1.324,2.976,2.976,0,0,1,1.641-.459,3.032,3.032,0,0,1,1.657.454,2.924,2.924,0,0,1,1.1,1.316,4.861,4.861,0,0,1,.387,2.006Zm-1.026-.5A3.506,3.506,0,0,0,42.942-6.3a1.842,1.842,0,0,0-1.563-.744A1.823,1.823,0,0,0,39.84-6.3a3.434,3.434,0,0,0-.577,2.065v.575a3.511,3.511,0,0,0,.567,2.119,1.83,1.83,0,0,0,1.56.771A1.823,1.823,0,0,0,42.937-1.5,3.492,3.492,0,0,0,43.5-3.583ZM45.885-.521a.622.622,0,0,1,.153-.43.583.583,0,0,1,.459-.172.6.6,0,0,1,.465.172.61.61,0,0,1,.158.43.577.577,0,0,1-.158.414A.612.612,0,0,1,46.5.059a.594.594,0,0,1-.459-.167A.588.588,0,0,1,45.885-.521Zm.005-4.743a.622.622,0,0,1,.153-.43.583.583,0,0,1,.459-.172.6.6,0,0,1,.465.172.61.61,0,0,1,.158.43.577.577,0,0,1-.158.414.612.612,0,0,1-.465.167.594.594,0,0,1-.459-.167A.588.588,0,0,1,45.891-5.264Z" transform="translate(98 -10702)" fill="#12263f"/>
      <path id="Trazado_120037" data-name="Trazado 120037" d="M247.625-10953.758H85v-1H247.625Z" transform="translate(0 161.516)" fill="#12263f"/>
      <path id="Trazado_120038" data-name="Trazado 120038" d="M358.031-10953.758H85v-1H358.031Z" transform="translate(0 183.258)" fill="#12263f"/>
      <path id="Trazado_120039" data-name="Trazado 120039" d="M247.625-10953.758H85v-1H247.625Z" transform="translate(0 205)" fill="#12263f"/>
      <path id="Trazado_120040" data-name="Trazado 120040" d="M358.031-10953.758H85v-1H358.031Z" transform="translate(0 226.516)" fill="#12263f"/>
      <path id="Trazado_120041" data-name="Trazado 120041" d="M248.125-10688.567h-1V-10814h1Z" fill="#12263f"/>
      <path id="Trazado_121602" data-name="Trazado 121602" d="M5.221-3.454H1.939V0H.908V-7.82H5.752v.843H1.939V-4.3H5.221ZM9.131.107A2.539,2.539,0,0,1,7.208-.669a2.881,2.881,0,0,1-.741-2.076v-.183A3.487,3.487,0,0,1,6.8-4.471a2.577,2.577,0,0,1,.924-1.063,2.323,2.323,0,0,1,1.286-.384,2.177,2.177,0,0,1,1.762.747A3.232,3.232,0,0,1,11.4-3.035v.414H7.46a2.066,2.066,0,0,0,.5,1.388A1.579,1.579,0,0,0,9.185-.7a1.731,1.731,0,0,0,.892-.215,2.24,2.24,0,0,0,.639-.569l.607.473A2.44,2.44,0,0,1,9.131.107ZM9.007-5.1A1.325,1.325,0,0,0,8-4.665a2.128,2.128,0,0,0-.5,1.227H10.4v-.075A1.893,1.893,0,0,0,10-4.686,1.248,1.248,0,0,0,9.007-5.1ZM14.878-.7a1.431,1.431,0,0,0,.929-.322,1.134,1.134,0,0,0,.44-.806h.94a1.8,1.8,0,0,1-.344.951A2.264,2.264,0,0,1,16-.161a2.441,2.441,0,0,1-1.12.269A2.394,2.394,0,0,1,12.99-.685a3.155,3.155,0,0,1-.7-2.167v-.167A3.5,3.5,0,0,1,12.6-4.528a2.373,2.373,0,0,1,.894-1.026,2.54,2.54,0,0,1,1.378-.365,2.331,2.331,0,0,1,1.625.585,2.092,2.092,0,0,1,.69,1.52h-.94a1.369,1.369,0,0,0-.427-.927,1.328,1.328,0,0,0-.948-.363,1.391,1.391,0,0,0-1.174.545,2.56,2.56,0,0,0-.416,1.576v.188A2.509,2.509,0,0,0,13.7-1.246,1.4,1.4,0,0,0,14.878-.7Zm4.42-4.4a2.113,2.113,0,0,1,1.719-.811q1.842,0,1.858,2.079V0h-.994V-3.846a1.338,1.338,0,0,0-.287-.929,1.152,1.152,0,0,0-.878-.3,1.434,1.434,0,0,0-.849.258,1.751,1.751,0,0,0-.569.677V0H18.3V-8.25H19.3ZM27.951,0a2.087,2.087,0,0,1-.14-.612,2.217,2.217,0,0,1-1.654.72,2.051,2.051,0,0,1-1.41-.486A1.573,1.573,0,0,1,24.2-1.611a1.643,1.643,0,0,1,.69-1.41,3.254,3.254,0,0,1,1.942-.5H27.8V-3.98a1.116,1.116,0,0,0-.312-.83,1.252,1.252,0,0,0-.918-.309,1.449,1.449,0,0,0-.892.269.791.791,0,0,0-.36.65h-1a1.371,1.371,0,0,1,.309-.841,2.108,2.108,0,0,1,.838-.642,2.819,2.819,0,0,1,1.163-.236,2.3,2.3,0,0,1,1.574.5,1.812,1.812,0,0,1,.591,1.383v2.675a3.27,3.27,0,0,0,.2,1.273V0ZM26.3-.757A1.746,1.746,0,0,0,27.188-1a1.462,1.462,0,0,0,.607-.628V-2.82h-.779q-1.826,0-1.826,1.069a.9.9,0,0,0,.312.73A1.2,1.2,0,0,0,26.3-.757Zm4.012.236a.622.622,0,0,1,.153-.43.583.583,0,0,1,.459-.172.6.6,0,0,1,.465.172.61.61,0,0,1,.158.43.577.577,0,0,1-.158.414.612.612,0,0,1-.465.167.594.594,0,0,1-.459-.167A.588.588,0,0,1,30.314-.521Zm.005-4.743a.622.622,0,0,1,.153-.43.583.583,0,0,1,.459-.172.6.6,0,0,1,.465.172.61.61,0,0,1,.158.43.577.577,0,0,1-.158.414.612.612,0,0,1-.465.167.594.594,0,0,1-.459-.167A.588.588,0,0,1,30.32-5.264Z" transform="translate(255 -10794)" fill="#12263f"/>
      <path id="Trazado_121603" data-name="Trazado 121603" d="M5.328-3.615H1.939V-.843H5.876V0H.908V-7.82H5.822v.843H1.939v2.519H5.328Zm5.06,2.073a.731.731,0,0,0-.3-.626,2.921,2.921,0,0,0-1.058-.384,5,5,0,0,1-1.2-.387,1.7,1.7,0,0,1-.655-.537,1.285,1.285,0,0,1-.212-.741,1.508,1.508,0,0,1,.6-1.208,2.36,2.36,0,0,1,1.544-.494,2.428,2.428,0,0,1,1.6.51A1.621,1.621,0,0,1,11.328-4.1h-1a.9.9,0,0,0-.346-.7,1.3,1.3,0,0,0-.873-.3,1.358,1.358,0,0,0-.849.236.744.744,0,0,0-.306.618.6.6,0,0,0,.285.542,3.5,3.5,0,0,0,1.029.349,5.359,5.359,0,0,1,1.206.4,1.759,1.759,0,0,1,.685.556,1.367,1.367,0,0,1,.223.792,1.487,1.487,0,0,1-.623,1.249,2.613,2.613,0,0,1-1.617.47A2.926,2.926,0,0,1,7.906-.14a2.009,2.009,0,0,1-.841-.69,1.664,1.664,0,0,1-.3-.959h.994a1.029,1.029,0,0,0,.4.792A1.552,1.552,0,0,0,9.142-.7a1.6,1.6,0,0,0,.905-.228A.7.7,0,0,0,10.388-1.542ZM15.007-.7a1.431,1.431,0,0,0,.929-.322,1.134,1.134,0,0,0,.44-.806h.94a1.8,1.8,0,0,1-.344.951,2.264,2.264,0,0,1-.846.72,2.441,2.441,0,0,1-1.12.269,2.394,2.394,0,0,1-1.888-.792,3.155,3.155,0,0,1-.7-2.167v-.167a3.5,3.5,0,0,1,.312-1.509,2.373,2.373,0,0,1,.894-1.026A2.54,2.54,0,0,1,15-5.919a2.331,2.331,0,0,1,1.625.585,2.092,2.092,0,0,1,.69,1.52h-.94a1.369,1.369,0,0,0-.427-.927A1.328,1.328,0,0,0,15-5.1a1.391,1.391,0,0,0-1.174.545,2.56,2.56,0,0,0-.416,1.576v.188a2.509,2.509,0,0,0,.414,1.547A1.4,1.4,0,0,0,15.007-.7Zm7.015.7a2.087,2.087,0,0,1-.14-.612,2.217,2.217,0,0,1-1.654.72,2.051,2.051,0,0,1-1.41-.486,1.573,1.573,0,0,1-.551-1.233,1.643,1.643,0,0,1,.69-1.41,3.254,3.254,0,0,1,1.942-.5h.967V-3.98a1.116,1.116,0,0,0-.312-.83,1.252,1.252,0,0,0-.918-.309,1.449,1.449,0,0,0-.892.269.791.791,0,0,0-.36.65h-1a1.371,1.371,0,0,1,.309-.841,2.108,2.108,0,0,1,.838-.642,2.819,2.819,0,0,1,1.163-.236,2.3,2.3,0,0,1,1.574.5,1.812,1.812,0,0,1,.591,1.383v2.675a3.27,3.27,0,0,0,.2,1.273V0ZM20.373-.757A1.746,1.746,0,0,0,21.259-1a1.462,1.462,0,0,0,.607-.628V-2.82h-.779q-1.826,0-1.826,1.069a.9.9,0,0,0,.312.73A1.2,1.2,0,0,0,20.373-.757ZM25.5,0H24.5V-8.25H25.5Zm5.178,0a2.087,2.087,0,0,1-.14-.612,2.217,2.217,0,0,1-1.654.72,2.051,2.051,0,0,1-1.41-.486,1.573,1.573,0,0,1-.551-1.233,1.643,1.643,0,0,1,.69-1.41,3.254,3.254,0,0,1,1.942-.5h.967V-3.98a1.116,1.116,0,0,0-.312-.83,1.252,1.252,0,0,0-.918-.309,1.449,1.449,0,0,0-.892.269.791.791,0,0,0-.36.65h-1a1.371,1.371,0,0,1,.309-.841,2.108,2.108,0,0,1,.838-.642,2.819,2.819,0,0,1,1.163-.236,2.3,2.3,0,0,1,1.574.5,1.812,1.812,0,0,1,.591,1.383v2.675a3.27,3.27,0,0,0,.2,1.273V0ZM29.025-.757A1.746,1.746,0,0,0,29.912-1a1.462,1.462,0,0,0,.607-.628V-2.82H29.74q-1.826,0-1.826,1.069a.9.9,0,0,0,.312.73A1.2,1.2,0,0,0,29.025-.757Zm4.012.236a.622.622,0,0,1,.153-.43.583.583,0,0,1,.459-.172.6.6,0,0,1,.465.172.61.61,0,0,1,.158.43.577.577,0,0,1-.158.414.612.612,0,0,1-.465.167.594.594,0,0,1-.459-.167A.588.588,0,0,1,33.038-.521Zm.005-4.743a.622.622,0,0,1,.153-.43.583.583,0,0,1,.459-.172.6.6,0,0,1,.465.172.61.61,0,0,1,.158.43.577.577,0,0,1-.158.414.612.612,0,0,1-.465.167A.594.594,0,0,1,33.2-4.85.588.588,0,0,1,33.043-5.264Z" transform="translate(255 -10756)" fill="#12263f"/>
      <path id="Trazado_120042" data-name="Trazado 120042" d="M248.125-10688.567h-1V-10814h1Z" transform="translate(110.406)" fill="#12263f"/>
      <path id="Trazado_121605" data-name="Trazado 121605" d="M1.939-3.062V0H.908V-7.82H3.792A2.9,2.9,0,0,1,5.8-7.165,2.222,2.222,0,0,1,6.531-5.43,2.192,2.192,0,0,1,5.82-3.677a3.027,3.027,0,0,1-2.038.615Zm0-.843H3.792a1.853,1.853,0,0,0,1.268-.39A1.426,1.426,0,0,0,5.5-5.422a1.474,1.474,0,0,0-.44-1.119,1.736,1.736,0,0,0-1.208-.436H1.939ZM8.771,0H7.777V-8.25h.994Zm5.178,0a2.087,2.087,0,0,1-.14-.612,2.217,2.217,0,0,1-1.654.72,2.051,2.051,0,0,1-1.41-.486,1.573,1.573,0,0,1-.551-1.233,1.643,1.643,0,0,1,.69-1.41,3.254,3.254,0,0,1,1.942-.5h.967V-3.98a1.116,1.116,0,0,0-.312-.83,1.252,1.252,0,0,0-.918-.309,1.449,1.449,0,0,0-.892.269.791.791,0,0,0-.36.65h-1a1.371,1.371,0,0,1,.309-.841,2.108,2.108,0,0,1,.838-.642,2.819,2.819,0,0,1,1.163-.236,2.3,2.3,0,0,1,1.574.5,1.812,1.812,0,0,1,.591,1.383v2.675a3.27,3.27,0,0,0,.2,1.273V0ZM12.3-.757A1.746,1.746,0,0,0,13.186-1a1.462,1.462,0,0,0,.607-.628V-2.82h-.779q-1.826,0-1.826,1.069a.9.9,0,0,0,.312.73A1.2,1.2,0,0,0,12.3-.757Zm4.984-5.054.032.73a2.118,2.118,0,0,1,1.74-.838q1.842,0,1.858,2.079V0h-.994V-3.846a1.338,1.338,0,0,0-.287-.929,1.152,1.152,0,0,0-.878-.3,1.434,1.434,0,0,0-.849.258,1.751,1.751,0,0,0-.569.677V0h-.994V-5.812ZM22.15-2.959A3.433,3.433,0,0,1,22.486-4.5a2.5,2.5,0,0,1,.935-1.053,2.544,2.544,0,0,1,1.367-.371,2.451,2.451,0,0,1,1.92.822,3.162,3.162,0,0,1,.733,2.186v.07a3.462,3.462,0,0,1-.325,1.523,2.467,2.467,0,0,1-.929,1.05A2.573,2.573,0,0,1,24.8.107a2.445,2.445,0,0,1-1.915-.822A3.146,3.146,0,0,1,22.15-2.89Zm1,.118A2.486,2.486,0,0,0,23.6-1.289,1.435,1.435,0,0,0,24.8-.7,1.427,1.427,0,0,0,26-1.3a2.719,2.719,0,0,0,.446-1.662,2.482,2.482,0,0,0-.454-1.55A1.443,1.443,0,0,0,24.788-5.1a1.427,1.427,0,0,0-1.187.585A2.7,2.7,0,0,0,23.149-2.841Zm8.019-.113A3.4,3.4,0,0,1,31.8-5.105a2,2,0,0,1,1.66-.814,2.016,2.016,0,0,1,1.617.7V-8.25h.994V0h-.913l-.048-.623a2.024,2.024,0,0,1-1.66.73A1.985,1.985,0,0,1,31.8-.72a3.443,3.443,0,0,1-.636-2.159Zm.994.113a2.578,2.578,0,0,0,.408,1.547A1.32,1.32,0,0,0,33.7-.736a1.45,1.45,0,0,0,1.38-.849V-4.254a1.461,1.461,0,0,0-1.37-.822,1.326,1.326,0,0,0-1.139.564A2.838,2.838,0,0,0,32.162-2.841ZM40.025.107A2.539,2.539,0,0,1,38.1-.669a2.881,2.881,0,0,1-.741-2.076v-.183a3.487,3.487,0,0,1,.33-1.544,2.577,2.577,0,0,1,.924-1.063A2.323,2.323,0,0,1,39.9-5.919a2.177,2.177,0,0,1,1.762.747,3.232,3.232,0,0,1,.628,2.138v.414H38.355a2.066,2.066,0,0,0,.5,1.388A1.579,1.579,0,0,0,40.079-.7a1.731,1.731,0,0,0,.892-.215,2.24,2.24,0,0,0,.639-.569l.607.473A2.44,2.44,0,0,1,40.025.107ZM39.9-5.1a1.325,1.325,0,0,0-1.01.438,2.128,2.128,0,0,0-.5,1.227H41.3v-.075a1.893,1.893,0,0,0-.408-1.174A1.248,1.248,0,0,0,39.9-5.1ZM43.409-.521a.622.622,0,0,1,.153-.43.583.583,0,0,1,.459-.172.6.6,0,0,1,.465.172.61.61,0,0,1,.158.43.577.577,0,0,1-.158.414.612.612,0,0,1-.465.167.594.594,0,0,1-.459-.167A.588.588,0,0,1,43.409-.521Zm.005-4.743a.622.622,0,0,1,.153-.43.583.583,0,0,1,.459-.172.6.6,0,0,1,.465.172.61.61,0,0,1,.158.43.577.577,0,0,1-.158.414.612.612,0,0,1-.465.167.594.594,0,0,1-.459-.167A.588.588,0,0,1,43.415-5.264Z" transform="translate(365 -10794)" fill="#12263f"/>
      <path id="Trazado_121606" data-name="Trazado 121606" d="M3.776-3.164H1.939V0H.9V-7.82H3.491a3.064,3.064,0,0,1,2.033.6,2.164,2.164,0,0,1,.712,1.751,2.105,2.105,0,0,1-.395,1.273,2.357,2.357,0,0,1-1.1.811L6.58-.064V0H5.473ZM1.939-4.007H3.523a1.787,1.787,0,0,0,1.222-.4A1.346,1.346,0,0,0,5.2-5.47a1.418,1.418,0,0,0-.432-1.114,1.831,1.831,0,0,0-1.249-.393H1.939Zm8,4.114A2.539,2.539,0,0,1,8.014-.669a2.881,2.881,0,0,1-.741-2.076v-.183A3.487,3.487,0,0,1,7.6-4.471a2.577,2.577,0,0,1,.924-1.063,2.323,2.323,0,0,1,1.286-.384,2.177,2.177,0,0,1,1.762.747A3.232,3.232,0,0,1,12.2-3.035v.414H8.266a2.066,2.066,0,0,0,.5,1.388A1.579,1.579,0,0,0,9.99-.7a1.731,1.731,0,0,0,.892-.215,2.24,2.24,0,0,0,.639-.569l.607.473A2.44,2.44,0,0,1,9.937.107ZM9.813-5.1a1.325,1.325,0,0,0-1.01.438,2.128,2.128,0,0,0-.5,1.227h2.911v-.075A1.893,1.893,0,0,0,10.8-4.686,1.248,1.248,0,0,0,9.813-5.1Zm3.3,2.148a3.416,3.416,0,0,1,.628-2.162,2.01,2.01,0,0,1,1.665-.8,2,2,0,0,1,1.66.752l.048-.645h.908V-.14a2.364,2.364,0,0,1-.669,1.778,2.468,2.468,0,0,1-1.8.65,2.989,2.989,0,0,1-1.23-.269,2.117,2.117,0,0,1-.918-.736l.516-.6a1.943,1.943,0,0,0,1.563.79,1.522,1.522,0,0,0,1.131-.408,1.56,1.56,0,0,0,.406-1.149v-.5A2.042,2.042,0,0,1,15.4.107a1.985,1.985,0,0,1-1.652-.822A3.591,3.591,0,0,1,13.116-2.954Zm1,.113a2.606,2.606,0,0,0,.4,1.544,1.309,1.309,0,0,0,1.128.561,1.456,1.456,0,0,0,1.38-.854V-4.243a1.473,1.473,0,0,0-1.37-.833,1.321,1.321,0,0,0-1.133.564A2.838,2.838,0,0,0,14.115-2.841ZM20.6,0H19.61V-5.812H20.6ZM19.529-7.353a.593.593,0,0,1,.148-.408.555.555,0,0,1,.438-.167.563.563,0,0,1,.44.167.587.587,0,0,1,.15.408.568.568,0,0,1-.15.4.573.573,0,0,1-.44.161.565.565,0,0,1-.438-.161A.573.573,0,0,1,19.529-7.353Zm6.048,5.812a.732.732,0,0,0-.3-.626,2.921,2.921,0,0,0-1.058-.384,5,5,0,0,1-1.2-.387,1.7,1.7,0,0,1-.655-.537,1.285,1.285,0,0,1-.212-.741,1.508,1.508,0,0,1,.6-1.208A2.36,2.36,0,0,1,24.3-5.919a2.428,2.428,0,0,1,1.6.51A1.621,1.621,0,0,1,26.517-4.1h-1a.9.9,0,0,0-.346-.7,1.3,1.3,0,0,0-.873-.3,1.358,1.358,0,0,0-.849.236.744.744,0,0,0-.306.618.6.6,0,0,0,.285.542,3.5,3.5,0,0,0,1.029.349,5.359,5.359,0,0,1,1.206.4,1.759,1.759,0,0,1,.685.556,1.367,1.367,0,0,1,.223.792,1.487,1.487,0,0,1-.623,1.249,2.613,2.613,0,0,1-1.617.47A2.926,2.926,0,0,1,23.1-.14a2.009,2.009,0,0,1-.841-.69,1.664,1.664,0,0,1-.3-.959h.994a1.029,1.029,0,0,0,.4.792,1.552,1.552,0,0,0,.986.293,1.6,1.6,0,0,0,.905-.228A.7.7,0,0,0,25.577-1.542Zm3.636-5.677v1.407H30.3v.768H29.213v3.609a.807.807,0,0,0,.145.524.61.61,0,0,0,.494.175A2.406,2.406,0,0,0,30.325-.8V0a2.9,2.9,0,0,1-.763.107,1.237,1.237,0,0,1-1-.4,1.731,1.731,0,0,1-.338-1.144v-3.6H27.162v-.768H28.22V-7.219Zm5.054,2.3a2.978,2.978,0,0,0-.489-.038,1.309,1.309,0,0,0-1.327.833V0h-.994V-5.812h.967l.016.671a1.547,1.547,0,0,1,1.386-.779,1.015,1.015,0,0,1,.44.075Zm.542,1.96A3.433,3.433,0,0,1,35.146-4.5a2.5,2.5,0,0,1,.935-1.053,2.544,2.544,0,0,1,1.367-.371,2.451,2.451,0,0,1,1.92.822A3.162,3.162,0,0,1,40.1-2.911v.07a3.463,3.463,0,0,1-.325,1.523,2.467,2.467,0,0,1-.929,1.05,2.573,2.573,0,0,1-1.388.376,2.445,2.445,0,0,1-1.915-.822A3.146,3.146,0,0,1,34.81-2.89Zm1,.118a2.486,2.486,0,0,0,.448,1.552,1.435,1.435,0,0,0,1.2.585,1.427,1.427,0,0,0,1.2-.594,2.719,2.719,0,0,0,.446-1.662,2.482,2.482,0,0,0-.454-1.55A1.443,1.443,0,0,0,37.447-5.1a1.427,1.427,0,0,0-1.187.585A2.7,2.7,0,0,0,35.809-2.841Z" transform="translate(517 -10794)" fill="#12263f"/>
      <path id="Trazado_121604" data-name="Trazado 121604" d="M5.226-2.046H1.95L1.214,0H.15L3.137-7.82h.9L7.031,0H5.973ZM2.261-2.89H4.92L3.588-6.547Zm10.576.048A3.48,3.48,0,0,1,12.23-.7a1.945,1.945,0,0,1-1.644.811A2.131,2.131,0,0,1,8.921-.564v2.8H7.928V-5.812h.908l.048.645a2.047,2.047,0,0,1,1.687-.752,1.982,1.982,0,0,1,1.657.79,3.518,3.518,0,0,1,.61,2.2Zm-.994-.113a2.568,2.568,0,0,0-.419-1.552,1.35,1.35,0,0,0-1.149-.569,1.461,1.461,0,0,0-1.354.8V-1.5A1.464,1.464,0,0,0,10.286-.7a1.343,1.343,0,0,0,1.136-.567A2.8,2.8,0,0,0,11.843-2.954ZM16.908-4.92a2.978,2.978,0,0,0-.489-.038,1.309,1.309,0,0,0-1.327.833V0H14.1V-5.812h.967l.016.671a1.547,1.547,0,0,1,1.386-.779,1.015,1.015,0,0,1,.44.075Zm.542,1.96A3.433,3.433,0,0,1,17.786-4.5a2.5,2.5,0,0,1,.935-1.053,2.544,2.544,0,0,1,1.367-.371,2.451,2.451,0,0,1,1.92.822,3.162,3.162,0,0,1,.733,2.186v.07a3.462,3.462,0,0,1-.325,1.523,2.467,2.467,0,0,1-.929,1.05A2.573,2.573,0,0,1,20.1.107a2.445,2.445,0,0,1-1.915-.822,3.146,3.146,0,0,1-.733-2.175Zm1,.118A2.486,2.486,0,0,0,18.9-1.289,1.435,1.435,0,0,0,20.1-.7,1.427,1.427,0,0,0,21.3-1.3a2.719,2.719,0,0,0,.446-1.662,2.482,2.482,0,0,0-.454-1.55A1.443,1.443,0,0,0,20.088-5.1a1.427,1.427,0,0,0-1.187.585A2.7,2.7,0,0,0,18.45-2.841Zm10.458,0A3.455,3.455,0,0,1,28.295-.7a1.956,1.956,0,0,1-1.644.808,2.026,2.026,0,0,1-1.7-.779L24.9,0h-.913V-8.25h.994v3.078a2.014,2.014,0,0,1,1.66-.747,1.968,1.968,0,0,1,1.662.8,3.559,3.559,0,0,1,.6,2.191Zm-.994-.113a2.685,2.685,0,0,0-.392-1.568,1.3,1.3,0,0,0-1.128-.553,1.459,1.459,0,0,0-1.413.913v2.514A1.5,1.5,0,0,0,26.4-.736a1.291,1.291,0,0,0,1.112-.553A2.855,2.855,0,0,0,27.914-2.954ZM33.747,0a2.087,2.087,0,0,1-.14-.612,2.217,2.217,0,0,1-1.654.72,2.051,2.051,0,0,1-1.41-.486,1.573,1.573,0,0,1-.551-1.233,1.643,1.643,0,0,1,.69-1.41,3.254,3.254,0,0,1,1.942-.5h.967V-3.98a1.116,1.116,0,0,0-.312-.83,1.252,1.252,0,0,0-.918-.309,1.449,1.449,0,0,0-.892.269.791.791,0,0,0-.36.65h-1a1.371,1.371,0,0,1,.309-.841,2.108,2.108,0,0,1,.838-.642,2.819,2.819,0,0,1,1.163-.236,2.3,2.3,0,0,1,1.574.5,1.812,1.812,0,0,1,.591,1.383v2.675a3.27,3.27,0,0,0,.2,1.273V0ZM32.1-.757A1.746,1.746,0,0,0,32.984-1a1.462,1.462,0,0,0,.607-.628V-2.82h-.779q-1.826,0-1.826,1.069a.9.9,0,0,0,.312.73A1.2,1.2,0,0,0,32.1-.757ZM38.473-.7a1.431,1.431,0,0,0,.929-.322,1.134,1.134,0,0,0,.44-.806h.94a1.8,1.8,0,0,1-.344.951,2.264,2.264,0,0,1-.846.72,2.441,2.441,0,0,1-1.12.269,2.394,2.394,0,0,1-1.888-.792,3.155,3.155,0,0,1-.7-2.167v-.167A3.5,3.5,0,0,1,36.2-4.528a2.373,2.373,0,0,1,.894-1.026,2.54,2.54,0,0,1,1.378-.365,2.331,2.331,0,0,1,1.625.585,2.092,2.092,0,0,1,.69,1.52h-.94a1.369,1.369,0,0,0-.427-.927,1.328,1.328,0,0,0-.948-.363,1.391,1.391,0,0,0-1.174.545,2.56,2.56,0,0,0-.416,1.576v.188a2.509,2.509,0,0,0,.414,1.547A1.4,1.4,0,0,0,38.473-.7Zm4.506.7h-.994V-5.812h.994ZM41.905-7.353a.593.593,0,0,1,.148-.408.555.555,0,0,1,.438-.167.563.563,0,0,1,.44.167.587.587,0,0,1,.15.408.568.568,0,0,1-.15.4.573.573,0,0,1-.44.161.565.565,0,0,1-.438-.161A.573.573,0,0,1,41.905-7.353Zm2.4,4.394A3.433,3.433,0,0,1,44.642-4.5a2.5,2.5,0,0,1,.935-1.053,2.544,2.544,0,0,1,1.367-.371,2.451,2.451,0,0,1,1.92.822A3.162,3.162,0,0,1,49.6-2.911v.07a3.463,3.463,0,0,1-.325,1.523,2.467,2.467,0,0,1-.929,1.05,2.573,2.573,0,0,1-1.388.376,2.445,2.445,0,0,1-1.915-.822,3.146,3.146,0,0,1-.733-2.175Zm1,.118a2.486,2.486,0,0,0,.448,1.552,1.435,1.435,0,0,0,1.2.585,1.427,1.427,0,0,0,1.2-.594A2.719,2.719,0,0,0,48.6-2.959a2.482,2.482,0,0,0-.454-1.55A1.443,1.443,0,0,0,46.943-5.1a1.427,1.427,0,0,0-1.187.585A2.7,2.7,0,0,0,45.305-2.841ZM47.395-8.25h1.2L47.158-6.671l-.8,0Zm4.388,2.438.032.73a2.118,2.118,0,0,1,1.74-.838q1.842,0,1.858,2.079V0H54.42V-3.846a1.338,1.338,0,0,0-.287-.929,1.152,1.152,0,0,0-.878-.3,1.434,1.434,0,0,0-.849.258,1.751,1.751,0,0,0-.569.677V0h-.994V-5.812Zm12.429,2.2H60.822V-.843h3.937V0H59.791V-7.82h4.915v.843H60.822v2.519h3.389Zm4.136.129a4.849,4.849,0,0,1-1.931-.937,1.791,1.791,0,0,1-.6-1.372,1.892,1.892,0,0,1,.739-1.528,2.935,2.935,0,0,1,1.92-.6,3.2,3.2,0,0,1,1.437.312,2.362,2.362,0,0,1,.978.859,2.2,2.2,0,0,1,.346,1.2H70.195a1.43,1.43,0,0,0-.451-1.118,1.835,1.835,0,0,0-1.273-.407,1.878,1.878,0,0,0-1.19.336,1.122,1.122,0,0,0-.427.934A1.009,1.009,0,0,0,67.26-5a3.978,3.978,0,0,0,1.38.605,6.4,6.4,0,0,1,1.525.6,2.315,2.315,0,0,1,.816.771,1.967,1.967,0,0,1,.266,1.037,1.827,1.827,0,0,1-.741,1.523,3.16,3.16,0,0,1-1.982.572,3.676,3.676,0,0,1-1.5-.309,2.531,2.531,0,0,1-1.077-.846,2.064,2.064,0,0,1-.379-1.219H66.6a1.347,1.347,0,0,0,.524,1.12,2.205,2.205,0,0,0,1.4.411,2.027,2.027,0,0,0,1.251-.333,1.082,1.082,0,0,0,.435-.908,1.062,1.062,0,0,0-.4-.889A4.644,4.644,0,0,0,68.347-3.486Zm6.526,0a4.849,4.849,0,0,1-1.931-.937,1.791,1.791,0,0,1-.6-1.372,1.892,1.892,0,0,1,.739-1.528,2.935,2.935,0,0,1,1.92-.6,3.2,3.2,0,0,1,1.437.312,2.362,2.362,0,0,1,.978.859,2.2,2.2,0,0,1,.346,1.2H76.721a1.43,1.43,0,0,0-.451-1.118A1.835,1.835,0,0,0,75-7.084a1.878,1.878,0,0,0-1.19.336,1.122,1.122,0,0,0-.427.934,1.009,1.009,0,0,0,.406.81,3.978,3.978,0,0,0,1.38.605,6.4,6.4,0,0,1,1.525.6,2.315,2.315,0,0,1,.816.771,1.967,1.967,0,0,1,.266,1.037,1.827,1.827,0,0,1-.741,1.523A3.16,3.16,0,0,1,75.05.107a3.676,3.676,0,0,1-1.5-.309,2.531,2.531,0,0,1-1.077-.846,2.064,2.064,0,0,1-.379-1.219h1.037a1.347,1.347,0,0,0,.524,1.12,2.205,2.205,0,0,0,1.4.411A2.027,2.027,0,0,0,76.3-1.069a1.082,1.082,0,0,0,.435-.908,1.062,1.062,0,0,0-.4-.889A4.644,4.644,0,0,0,74.873-3.486Zm8.54,1.439H80.137L79.4,0H78.337l2.986-7.82h.9L85.218,0H84.16ZM80.448-2.89h2.659L81.775-6.547Z" transform="translate(365 -10761)" fill="#12263f"/>
      <path id="Trazado_120043" data-name="Trazado 120043" d="M350.969-10953.758H85v-1H350.969Z" transform="translate(273.031 173.258)" fill="#12263f"/>
      <path id="Trazado_120044" data-name="Trazado 120044" d="M-863.215-11007h-539v-1h539Z" transform="translate(1487.215 -21.5)"/>
      <path id="Trazado_120046" data-name="Trazado 120046" d="M475.188-10780.773h-1V-10814h1Z" transform="translate(13)" fill="#12263f"/>
      <path id="Trazado_120051" data-name="Trazado 120051" d="M85.5-10664.242h-1v-16.086h1Z" transform="translate(539 -357.715)" fill="#12263f"/>
      <path id="Trazado_120052" data-name="Trazado 120052" d="M85.5-10664.242h-1v-16.086h1Z" transform="translate(0 -357.715)" fill="#12263f"/>
      <path id="Trazado_120053" data-name="Trazado 120053" d="M636.667-10922.984h-1V-11016h1Z" fill="#12263f"/>
      <path id="Trazado_120055" data-name="Trazado 120055" d="M636.667-10941h-1v-75h1Z" transform="translate(0 126.999)" fill="#12263f"/>
      <path id="Trazado_120056" data-name="Trazado 120056" d="M636.667-10983.483h-1V-11016h1Z" transform="translate(0 235.983)" fill="#12263f"/>
      <path id="Trazado_120057" data-name="Trazado 120057" d="M636.667-10993h-1v-23h1Z" transform="translate(-565)" fill="#12263f"/>
      <path id="Trazado_120058" data-name="Trazado 120058" d="M636.667-10998.715h-1V-11016h1Z" transform="translate(-565 44.457)" fill="#12263f"/>
      <path id="Trazado_120059" data-name="Trazado 120059" d="M636.667-10996.742h-1V-11016h1Z" transform="translate(-565 61.742)" fill="#12263f"/>
      <path id="Trazado_120060" data-name="Trazado 120060" d="M636.667-10993h-1v-23h1Z" transform="translate(-565 93.016)" fill="#12263f"/>
      <path id="Trazado_120061" data-name="Trazado 120061" d="M636.667-10988.826h-1V-11016h1Z" transform="translate(-565 115.5)" fill="#12263f"/>
      <path id="Trazado_120062" data-name="Trazado 120062" d="M636.667-10978.036h-1V-11016h1Z" transform="translate(-565 162.999)" fill="#12263f"/>
      <path id="Trazado_120063" data-name="Trazado 120063" d="M636.667-10866h-1v-150h1Z" transform="translate(-578.833)" fill="#12263f"/>
      <path id="Trazado_120064" data-name="Trazado 120064" d="M636.667-10866h-1v-150h1Z" transform="translate(-578.833 178)" fill="#12263f"/>
      <path id="Trazado_121601" data-name="Trazado 121601" d="M5.774,0H.65V-.714L3.357-3.722a6.431,6.431,0,0,0,.83-1.109,1.851,1.851,0,0,0,.228-.884,1.4,1.4,0,0,0-.371-1,1.3,1.3,0,0,0-.988-.392A1.535,1.535,0,0,0,1.9-6.69a1.611,1.611,0,0,0-.411,1.174H.5a2.307,2.307,0,0,1,.7-1.746,2.579,2.579,0,0,1,1.861-.666,2.478,2.478,0,0,1,1.724.572,1.951,1.951,0,0,1,.634,1.523,4.474,4.474,0,0,1-1.472,2.75L1.848-.811H5.774ZM11.73-3.335a4.545,4.545,0,0,1-.6,2.594A2.12,2.12,0,0,1,9.271.107a2.136,2.136,0,0,1-1.853-.83A4.313,4.313,0,0,1,6.794-3.2V-4.528a4.443,4.443,0,0,1,.6-2.562A2.137,2.137,0,0,1,9.26-7.928a2.156,2.156,0,0,1,1.858.808,4.288,4.288,0,0,1,.612,2.495Zm-.994-1.359a3.641,3.641,0,0,0-.354-1.84A1.22,1.22,0,0,0,9.26-7.111a1.2,1.2,0,0,0-1.112.575,3.555,3.555,0,0,0-.36,1.767v1.59a3.7,3.7,0,0,0,.368,1.872,1.218,1.218,0,0,0,1.115.6,1.2,1.2,0,0,0,1.093-.569,3.566,3.566,0,0,0,.373-1.794Zm7.17,1.359a4.545,4.545,0,0,1-.6,2.594,2.12,2.12,0,0,1-1.864.849,2.136,2.136,0,0,1-1.853-.83A4.313,4.313,0,0,1,12.971-3.2V-4.528a4.443,4.443,0,0,1,.6-2.562,2.137,2.137,0,0,1,1.869-.838,2.156,2.156,0,0,1,1.858.808,4.288,4.288,0,0,1,.612,2.495Zm-.994-1.359a3.641,3.641,0,0,0-.354-1.84,1.22,1.22,0,0,0-1.123-.577,1.2,1.2,0,0,0-1.112.575,3.555,3.555,0,0,0-.36,1.767v1.59a3.7,3.7,0,0,0,.368,1.872,1.218,1.218,0,0,0,1.115.6,1.2,1.2,0,0,0,1.093-.569,3.566,3.566,0,0,0,.373-1.794Z" transform="translate(354 -11035)" fill="#12263f"/>
      <path id="Trazado_121607" data-name="Trazado 121607" d="M4.549-7.826v.843H4.367a2.616,2.616,0,0,0-1.848.688A2.861,2.861,0,0,0,1.724-4.42a2.121,2.121,0,0,1,1.687-.709,2.028,2.028,0,0,1,1.63.72,2.776,2.776,0,0,1,.61,1.858A2.767,2.767,0,0,1,4.992-.618,2.266,2.266,0,0,1,3.228.107,2.232,2.232,0,0,1,1.407-.755a3.417,3.417,0,0,1-.7-2.221v-.381a5.148,5.148,0,0,1,.921-3.3A3.383,3.383,0,0,1,4.372-7.826ZM3.244-4.3A1.585,1.585,0,0,0,2.3-4a1.6,1.6,0,0,0-.6.768v.365a2.565,2.565,0,0,0,.435,1.558,1.3,1.3,0,0,0,1.085.591,1.263,1.263,0,0,0,1.055-.494A2.05,2.05,0,0,0,4.667-2.5a2.051,2.051,0,0,0-.389-1.3A1.248,1.248,0,0,0,3.244-4.3Zm4.039.381.4-3.9h4.007V-6.9H8.524L8.288-4.77a2.524,2.524,0,0,1,1.305-.338,2.158,2.158,0,0,1,1.7.706,2.768,2.768,0,0,1,.628,1.909,2.672,2.672,0,0,1-.653,1.9,2.379,2.379,0,0,1-1.823.7A2.472,2.472,0,0,1,7.75-.467,2.294,2.294,0,0,1,7-2.057h.94a1.578,1.578,0,0,0,.478,1.012A1.486,1.486,0,0,0,9.442-.7a1.341,1.341,0,0,0,1.088-.473,1.976,1.976,0,0,0,.395-1.305,1.814,1.814,0,0,0-.427-1.26,1.452,1.452,0,0,0-1.136-.475,1.638,1.638,0,0,0-1.021.285l-.263.215Z" transform="translate(630 -10904)" fill="#12263f"/>
      <path id="Trazado_121608" data-name="Trazado 121608" d="M3.916,0h-1V-6.623l-2,.736v-.9L3.76-7.858h.156ZM11.73-3.335a4.545,4.545,0,0,1-.6,2.594A2.12,2.12,0,0,1,9.271.107a2.136,2.136,0,0,1-1.853-.83A4.313,4.313,0,0,1,6.794-3.2V-4.528a4.443,4.443,0,0,1,.6-2.562A2.137,2.137,0,0,1,9.26-7.928a2.156,2.156,0,0,1,1.858.808,4.288,4.288,0,0,1,.612,2.495Zm-.994-1.359a3.641,3.641,0,0,0-.354-1.84A1.22,1.22,0,0,0,9.26-7.111a1.2,1.2,0,0,0-1.112.575,3.555,3.555,0,0,0-.36,1.767v1.59a3.7,3.7,0,0,0,.368,1.872,1.218,1.218,0,0,0,1.115.6,1.2,1.2,0,0,0,1.093-.569,3.566,3.566,0,0,0,.373-1.794Z" transform="translate(629 -10793)" fill="#12263f"/>
      <path id="Trazado_120065" data-name="Trazado 120065" d="M636.667-10982.127h-1V-11016h1Z" transform="translate(0 294.127)" fill="#12263f"/>
      <path id="Trazado_121609" data-name="Trazado 121609" d="M2.095-4.394h.747a1.641,1.641,0,0,0,1.106-.371,1.238,1.238,0,0,0,.4-.972,1.213,1.213,0,0,0-1.37-1.375,1.425,1.425,0,0,0-1.029.368,1.288,1.288,0,0,0-.384.975H.575a2,2,0,0,1,.679-1.544,2.475,2.475,0,0,1,1.727-.615,2.446,2.446,0,0,1,1.735.585,2.115,2.115,0,0,1,.628,1.627,1.717,1.717,0,0,1-.33.988,1.994,1.994,0,0,1-.9.714,1.922,1.922,0,0,1,1,.677,1.88,1.88,0,0,1,.352,1.155A2.133,2.133,0,0,1,4.775-.51,2.575,2.575,0,0,1,2.986.107,2.643,2.643,0,0,1,1.2-.489,1.978,1.978,0,0,1,.5-2.062h1a1.278,1.278,0,0,0,.4.988A1.532,1.532,0,0,0,2.986-.7a1.5,1.5,0,0,0,1.1-.376,1.449,1.449,0,0,0,.381-1.08A1.315,1.315,0,0,0,4.05-3.207a1.825,1.825,0,0,0-1.208-.376H2.095Zm5.188.473.4-3.9h4.007V-6.9H8.524L8.288-4.77a2.524,2.524,0,0,1,1.305-.338,2.158,2.158,0,0,1,1.7.706,2.768,2.768,0,0,1,.628,1.909,2.672,2.672,0,0,1-.653,1.9,2.379,2.379,0,0,1-1.823.7A2.472,2.472,0,0,1,7.75-.467,2.294,2.294,0,0,1,7-2.057h.94a1.578,1.578,0,0,0,.478,1.012A1.486,1.486,0,0,0,9.442-.7a1.341,1.341,0,0,0,1.088-.473,1.976,1.976,0,0,0,.395-1.305,1.814,1.814,0,0,0-.427-1.26,1.452,1.452,0,0,0-1.136-.475,1.638,1.638,0,0,0-1.021.285l-.263.215Z" transform="translate(630 -10731)" fill="#12263f"/>
      <path id="Trazado_121610" data-name="Trazado 121610" d="M1.106-3.921l.4-3.9H5.511V-6.9H2.347L2.111-4.77a2.524,2.524,0,0,1,1.305-.338,2.158,2.158,0,0,1,1.7.706,2.768,2.768,0,0,1,.628,1.909,2.672,2.672,0,0,1-.653,1.9,2.379,2.379,0,0,1-1.823.7A2.472,2.472,0,0,1,1.574-.467a2.294,2.294,0,0,1-.747-1.59h.94a1.578,1.578,0,0,0,.478,1.012A1.486,1.486,0,0,0,3.266-.7a1.341,1.341,0,0,0,1.088-.473,1.976,1.976,0,0,0,.395-1.305,1.814,1.814,0,0,0-.427-1.26,1.452,1.452,0,0,0-1.136-.475,1.638,1.638,0,0,0-1.021.285L1.9-3.717Zm10.624.585a4.545,4.545,0,0,1-.6,2.594A2.12,2.12,0,0,1,9.271.107a2.136,2.136,0,0,1-1.853-.83A4.313,4.313,0,0,1,6.794-3.2V-4.528a4.443,4.443,0,0,1,.6-2.562A2.137,2.137,0,0,1,9.26-7.928a2.156,2.156,0,0,1,1.858.808,4.288,4.288,0,0,1,.612,2.495Zm-.994-1.359a3.641,3.641,0,0,0-.354-1.84A1.22,1.22,0,0,0,9.26-7.111a1.2,1.2,0,0,0-1.112.575,3.555,3.555,0,0,0-.36,1.767v1.59a3.7,3.7,0,0,0,.368,1.872,1.218,1.218,0,0,0,1.115.6,1.2,1.2,0,0,0,1.093-.569,3.566,3.566,0,0,0,.373-1.794Z" transform="translate(531 -10675)" fill="#12263f"/>
      <path id="Trazado_121611" data-name="Trazado 121611" d="M1.106-3.921l.4-3.9H5.511V-6.9H2.347L2.111-4.77a2.524,2.524,0,0,1,1.305-.338,2.158,2.158,0,0,1,1.7.706,2.768,2.768,0,0,1,.628,1.909,2.672,2.672,0,0,1-.653,1.9,2.379,2.379,0,0,1-1.823.7A2.472,2.472,0,0,1,1.574-.467a2.294,2.294,0,0,1-.747-1.59h.94a1.578,1.578,0,0,0,.478,1.012A1.486,1.486,0,0,0,3.266-.7a1.341,1.341,0,0,0,1.088-.473,1.976,1.976,0,0,0,.395-1.305,1.814,1.814,0,0,0-.427-1.26,1.452,1.452,0,0,0-1.136-.475,1.638,1.638,0,0,0-1.021.285L1.9-3.717Zm10.624.585a4.545,4.545,0,0,1-.6,2.594A2.12,2.12,0,0,1,9.271.107a2.136,2.136,0,0,1-1.853-.83A4.313,4.313,0,0,1,6.794-3.2V-4.528a4.443,4.443,0,0,1,.6-2.562A2.137,2.137,0,0,1,9.26-7.928a2.156,2.156,0,0,1,1.858.808,4.288,4.288,0,0,1,.612,2.495Zm-.994-1.359a3.641,3.641,0,0,0-.354-1.84A1.22,1.22,0,0,0,9.26-7.111a1.2,1.2,0,0,0-1.112.575,3.555,3.555,0,0,0-.36,1.767v1.59a3.7,3.7,0,0,0,.368,1.872,1.218,1.218,0,0,0,1.115.6,1.2,1.2,0,0,0,1.093-.569,3.566,3.566,0,0,0,.373-1.794Z" transform="translate(413 -10675)" fill="#12263f"/>
      <path id="Trazado_121612" data-name="Trazado 121612" d="M4.845-2.626H5.93v.811H4.845V0h-1V-1.815H.285V-2.4l3.5-5.419H4.845Zm-3.432,0H3.846V-6.461l-.118.215ZM11.73-3.335a4.545,4.545,0,0,1-.6,2.594A2.12,2.12,0,0,1,9.271.107a2.136,2.136,0,0,1-1.853-.83A4.313,4.313,0,0,1,6.794-3.2V-4.528a4.443,4.443,0,0,1,.6-2.562A2.137,2.137,0,0,1,9.26-7.928a2.156,2.156,0,0,1,1.858.808,4.288,4.288,0,0,1,.612,2.495Zm-.994-1.359a3.641,3.641,0,0,0-.354-1.84A1.22,1.22,0,0,0,9.26-7.111a1.2,1.2,0,0,0-1.112.575,3.555,3.555,0,0,0-.36,1.767v1.59a3.7,3.7,0,0,0,.368,1.872,1.218,1.218,0,0,0,1.115.6,1.2,1.2,0,0,0,1.093-.569,3.566,3.566,0,0,0,.373-1.794Z" transform="translate(290 -10675)" fill="#12263f"/>
      <path id="Trazado_121613" data-name="Trazado 121613" d="M4.549-7.826v.843H4.367a2.616,2.616,0,0,0-1.848.688A2.861,2.861,0,0,0,1.724-4.42a2.121,2.121,0,0,1,1.687-.709,2.028,2.028,0,0,1,1.63.72,2.776,2.776,0,0,1,.61,1.858A2.767,2.767,0,0,1,4.992-.618,2.266,2.266,0,0,1,3.228.107,2.232,2.232,0,0,1,1.407-.755a3.417,3.417,0,0,1-.7-2.221v-.381a5.148,5.148,0,0,1,.921-3.3A3.383,3.383,0,0,1,4.372-7.826ZM3.244-4.3A1.585,1.585,0,0,0,2.3-4a1.6,1.6,0,0,0-.6.768v.365a2.565,2.565,0,0,0,.435,1.558,1.3,1.3,0,0,0,1.085.591,1.263,1.263,0,0,0,1.055-.494A2.05,2.05,0,0,0,4.667-2.5a2.051,2.051,0,0,0-.389-1.3A1.248,1.248,0,0,0,3.244-4.3Zm8.486.967a4.545,4.545,0,0,1-.6,2.594A2.12,2.12,0,0,1,9.271.107a2.136,2.136,0,0,1-1.853-.83A4.313,4.313,0,0,1,6.794-3.2V-4.528a4.443,4.443,0,0,1,.6-2.562A2.137,2.137,0,0,1,9.26-7.928a2.156,2.156,0,0,1,1.858.808,4.288,4.288,0,0,1,.612,2.495Zm-.994-1.359a3.641,3.641,0,0,0-.354-1.84A1.22,1.22,0,0,0,9.26-7.111a1.2,1.2,0,0,0-1.112.575,3.555,3.555,0,0,0-.36,1.767v1.59a3.7,3.7,0,0,0,.368,1.872,1.218,1.218,0,0,0,1.115.6,1.2,1.2,0,0,0,1.093-.569,3.566,3.566,0,0,0,.373-1.794Z" transform="translate(158 -10675)" fill="#12263f"/>
      <path id="Trazado_121584" data-name="Trazado 121584" d="M3.916,0h-1V-6.623l-2,.736v-.9L3.76-7.858h.156Zm6.177,0h-1V-6.623l-2,.736v-.9L9.937-7.858h.156Zm7.815-3.335a4.545,4.545,0,0,1-.6,2.594,2.12,2.12,0,0,1-1.864.849,2.136,2.136,0,0,1-1.853-.83A4.313,4.313,0,0,1,12.971-3.2V-4.528a4.443,4.443,0,0,1,.6-2.562,2.137,2.137,0,0,1,1.869-.838,2.156,2.156,0,0,1,1.858.808,4.288,4.288,0,0,1,.612,2.495Zm-.994-1.359a3.641,3.641,0,0,0-.354-1.84,1.22,1.22,0,0,0-1.123-.577,1.2,1.2,0,0,0-1.112.575,3.555,3.555,0,0,0-.36,1.767v1.59a3.7,3.7,0,0,0,.368,1.872,1.218,1.218,0,0,0,1.115.6,1.2,1.2,0,0,0,1.093-.569,3.566,3.566,0,0,0,.373-1.794Z" transform="translate(41 -10848)" fill="#12263f"/>
      <path id="Trazado_121582" data-name="Trazado 121582" d="M5.774,0H.65V-.714L3.357-3.722a6.431,6.431,0,0,0,.83-1.109,1.851,1.851,0,0,0,.228-.884,1.4,1.4,0,0,0-.371-1,1.3,1.3,0,0,0-.988-.392A1.535,1.535,0,0,0,1.9-6.69a1.611,1.611,0,0,0-.411,1.174H.5a2.307,2.307,0,0,1,.7-1.746,2.579,2.579,0,0,1,1.861-.666,2.478,2.478,0,0,1,1.724.572,1.951,1.951,0,0,1,.634,1.523,4.474,4.474,0,0,1-1.472,2.75L1.848-.811H5.774ZM11.73-3.335a4.545,4.545,0,0,1-.6,2.594A2.12,2.12,0,0,1,9.271.107a2.136,2.136,0,0,1-1.853-.83A4.313,4.313,0,0,1,6.794-3.2V-4.528a4.443,4.443,0,0,1,.6-2.562A2.137,2.137,0,0,1,9.26-7.928a2.156,2.156,0,0,1,1.858.808,4.288,4.288,0,0,1,.612,2.495Zm-.994-1.359a3.641,3.641,0,0,0-.354-1.84A1.22,1.22,0,0,0,9.26-7.111a1.2,1.2,0,0,0-1.112.575,3.555,3.555,0,0,0-.36,1.767v1.59a3.7,3.7,0,0,0,.368,1.872,1.218,1.218,0,0,0,1.115.6,1.2,1.2,0,0,0,1.093-.569,3.566,3.566,0,0,0,.373-1.794Z" transform="translate(66 -10978)" fill="#12263f"/>
      <path id="Trazado_121583" data-name="Trazado 121583" d="M3.916,0h-1V-6.623l-2,.736v-.9L3.76-7.858h.156ZM7.283-3.921l.4-3.9h4.007V-6.9H8.524L8.288-4.77a2.524,2.524,0,0,1,1.305-.338,2.158,2.158,0,0,1,1.7.706,2.768,2.768,0,0,1,.628,1.909,2.672,2.672,0,0,1-.653,1.9,2.379,2.379,0,0,1-1.823.7A2.472,2.472,0,0,1,7.75-.467,2.294,2.294,0,0,1,7-2.057h.94a1.578,1.578,0,0,0,.478,1.012A1.486,1.486,0,0,0,9.442-.7a1.341,1.341,0,0,0,1.088-.473,1.976,1.976,0,0,0,.395-1.305,1.814,1.814,0,0,0-.427-1.26,1.452,1.452,0,0,0-1.136-.475,1.638,1.638,0,0,0-1.021.285l-.263.215Z" transform="translate(66 -10925)" fill="#12263f"/>
      <path id="Trazado_121585" data-name="Trazado 121585" d="M2.095-4.394h.747a1.641,1.641,0,0,0,1.106-.371,1.238,1.238,0,0,0,.4-.972,1.213,1.213,0,0,0-1.37-1.375,1.425,1.425,0,0,0-1.029.368,1.288,1.288,0,0,0-.384.975H.575a2,2,0,0,1,.679-1.544,2.475,2.475,0,0,1,1.727-.615,2.446,2.446,0,0,1,1.735.585,2.115,2.115,0,0,1,.628,1.627,1.717,1.717,0,0,1-.33.988,1.994,1.994,0,0,1-.9.714,1.922,1.922,0,0,1,1,.677,1.88,1.88,0,0,1,.352,1.155A2.133,2.133,0,0,1,4.775-.51,2.575,2.575,0,0,1,2.986.107,2.643,2.643,0,0,1,1.2-.489,1.978,1.978,0,0,1,.5-2.062h1a1.278,1.278,0,0,0,.4.988A1.532,1.532,0,0,0,2.986-.7a1.5,1.5,0,0,0,1.1-.376,1.449,1.449,0,0,0,.381-1.08A1.315,1.315,0,0,0,4.05-3.207a1.825,1.825,0,0,0-1.208-.376H2.095ZM11.73-3.335a4.545,4.545,0,0,1-.6,2.594A2.12,2.12,0,0,1,9.271.107a2.136,2.136,0,0,1-1.853-.83A4.313,4.313,0,0,1,6.794-3.2V-4.528a4.443,4.443,0,0,1,.6-2.562A2.137,2.137,0,0,1,9.26-7.928a2.156,2.156,0,0,1,1.858.808,4.288,4.288,0,0,1,.612,2.495Zm-.994-1.359a3.641,3.641,0,0,0-.354-1.84A1.22,1.22,0,0,0,9.26-7.111a1.2,1.2,0,0,0-1.112.575,3.555,3.555,0,0,0-.36,1.767v1.59a3.7,3.7,0,0,0,.368,1.872,1.218,1.218,0,0,0,1.115.6,1.2,1.2,0,0,0,1.093-.569,3.566,3.566,0,0,0,.373-1.794Z" transform="translate(66 -10857)" fill="#12263f"/>
      <path id="Trazado_121586" data-name="Trazado 121586" d="M5.7-7.262,2.46,0H1.418L4.646-7H.414V-7.82H5.7Z" transform="translate(66 -10799)" fill="#12263f"/>
      <path id="Trazado_121587" data-name="Trazado 121587" d="M5.7-7.262,2.46,0H1.418L4.646-7H.414V-7.82H5.7Z" transform="translate(66 -10777)" fill="#12263f"/>
      <path id="Trazado_121588" data-name="Trazado 121588" d="M5.7-7.262,2.46,0H1.418L4.646-7H.414V-7.82H5.7Z" transform="translate(66 -10756)" fill="#12263f"/>
      <path id="Trazado_121590" data-name="Trazado 121590" d="M3.916,0h-1V-6.623l-2,.736v-.9L3.76-7.858h.156ZM7.283-3.921l.4-3.9h4.007V-6.9H8.524L8.288-4.77a2.524,2.524,0,0,1,1.305-.338,2.158,2.158,0,0,1,1.7.706,2.768,2.768,0,0,1,.628,1.909,2.672,2.672,0,0,1-.653,1.9,2.379,2.379,0,0,1-1.823.7A2.472,2.472,0,0,1,7.75-.467,2.294,2.294,0,0,1,7-2.057h.94a1.578,1.578,0,0,0,.478,1.012A1.486,1.486,0,0,0,9.442-.7a1.341,1.341,0,0,0,1.088-.473,1.976,1.976,0,0,0,.395-1.305,1.814,1.814,0,0,0-.427-1.26,1.452,1.452,0,0,0-1.136-.475,1.638,1.638,0,0,0-1.021.285l-.263.215Z" transform="translate(66 -10706)" fill="#12263f"/>
      <path id="Trazado_121589" data-name="Trazado 121589" d="M5.7-7.262,2.46,0H1.418L4.646-7H.414V-7.82H5.7Z" transform="translate(66 -10735)" fill="#12263f"/>
      <path id="Polígono_34" data-name="Polígono 34" d="M5,0l5,9H0Z" transform="translate(85 -11024) rotate(-90)" fill="#12263f"/>
      <path id="Polígono_35" data-name="Polígono 35" d="M5,0l5,9H0Z" transform="translate(624 -11034) rotate(90)" fill="#12263f"/>
      <path id="Trazado_120066" data-name="Trazado 120066" d="M85.5-10664.242h-1v-16.086h1Z" transform="translate(-10036.118 -11101) rotate(90)" fill="#12263f"/>
      <path id="Polígono_36" data-name="Polígono 36" d="M5,0l5,9H0Z" transform="translate(631.5 -11015.5)" fill="#12263f"/>
      <path id="Polígono_37" data-name="Polígono 37" d="M5,0l5,9H0Z" transform="translate(641.5 -10814) rotate(180)" fill="#12263f"/>
      <path id="Trazado_120067" data-name="Trazado 120067" d="M85.5-10664.242h-1v-16.086h1Z" transform="translate(-10036.118 -10899) rotate(90)" fill="#12263f"/>
      <path id="Trazado_120068" data-name="Trazado 120068" d="M85.5-10664.242h-1v-16.086h1Z" transform="translate(-10036.118 -10866.016) rotate(90)" fill="#12263f"/>
      <path id="Polígono_38" data-name="Polígono 38" d="M5,0l5,9H0Z" transform="translate(631.5 -10781)" fill="#12263f"/>
      <path id="Polígono_39" data-name="Polígono 39" d="M5,0l5,9H0Z" transform="translate(641.5 -10689) rotate(180)" fill="#12263f"/>
      <path id="Trazado_120069" data-name="Trazado 120069" d="M85.5-10664.242h-1v-16.086h1Z" transform="translate(-10036.118 -10774) rotate(90)" fill="#12263f"/>
      <path id="Polígono_44" data-name="Polígono 44" d="M5,0l5,9H0Z" transform="translate(62.333 -10689) rotate(180)" fill="#12263f"/>
      <path id="Trazado_120071" data-name="Trazado 120071" d="M85.5-10648.4h-1v-31.93h1Z" transform="translate(-10598.897 -10773.567) rotate(90)" fill="#12263f"/>
      <path id="Trazado_120072" data-name="Trazado 120072" d="M85.5-10664.242h-1v-16.086h1Z" transform="translate(-10614.742 -11101) rotate(90)" fill="#12263f"/>
      <path id="Polígono_45" data-name="Polígono 45" d="M5,0l5,9H0Z" transform="translate(52.333 -11015)" fill="#12263f"/>
      <path id="Polígono_46" data-name="Polígono 46" d="M5,0l5,9H0Z" transform="translate(76.167 -10936) rotate(180)" fill="#12263f"/>
      <path id="Trazado_120073" data-name="Trazado 120073" d="M85.5-10664.242h-1v-16.086h1Z" transform="translate(-10601.909 -11101) rotate(90)" fill="#12263f"/>
      <path id="Polígono_47" data-name="Polígono 47" d="M5,0l5,9H0Z" transform="translate(66.167 -11015.5)" fill="#12263f"/>
      <path id="Polígono_49" data-name="Polígono 49" d="M5,0l5,9H0Z" transform="translate(76.167 -10814) rotate(180)" fill="#12263f"/>
      <path id="Trazado_120074" data-name="Trazado 120074" d="M85.5-10664.242h-1v-16.086h1Z" transform="translate(-10601.909 -10991.825) rotate(90)" fill="#12263f"/>
      <path id="Polígono_50" data-name="Polígono 50" d="M5,0l5,9H0Z" transform="translate(66.167 -10907.258)" fill="#12263f"/>
      <path id="Trazado_120075" data-name="Trazado 120075" d="M85.5-10664.242h-1v-16.086h1Z" transform="translate(-10600.909 -10812.543) rotate(90)" fill="#12263f"/>
      <path id="Polígono_51" data-name="Polígono 51" d="M5,0l5,9H0Z" transform="translate(76.167 -10718.543) rotate(180)" fill="#12263f"/>
      <path id="Polígono_52" data-name="Polígono 52" d="M5,0l5,9H0Z" transform="translate(66.167 -10698)" fill="#12263f"/>
    </g>
  </g>
</svg>
