<svg xmlns="http://www.w3.org/2000/svg" width="525" height="363" viewBox="0 0 525 363">
  <g id="Grupo_152237" data-name="Grupo 152237" transform="translate(9915 -978)">
    <g id="Grupo_151843" data-name="Grupo 151843" transform="translate(0 -936)">
      <rect id="Rectángulo_34282" data-name="Rectángulo 34282" width="525" height="363" rx="14" transform="translate(-9915 1914)" fill="#fff"/>
      <g id="Grupo_151842" data-name="Grupo 151842">
        <path id="Trazado_120316" data-name="Trazado 120316" d="M222.427,234.85V373.025H.5v-88.66L49.82,234.85Z" transform="translate(-9898.348 1865.671)" fill="#ed6767"/>
        <path id="Trazado_120316_-_Contorno" data-name="Trazado 120316 - Contorno" d="M49.612,234.35H222.927V373.525H0V284.158l.146-.146Zm172.315,1H50.027L1,284.571v87.953H221.927Z" transform="translate(-9898.348 1865.671)" fill="#12263f"/>
        <path id="Trazado_120317" data-name="Trazado 120317" d="M518.223.5V104L441.2,181.016H325.669V143.192h-61.2V31.1L295.066.5Z" transform="translate(-10001.59 1957.329)" fill="#5894e5"/>
        <path id="Trazado_120317_-_Contorno" data-name="Trazado 120317 - Contorno" d="M294.859,0H518.723V104.206l-.146.146-77.171,77.164H325.169V143.692h-61.2V30.9l.146-.146ZM517.723,1H295.274l-30.3,30.31V142.692h61.2v37.824H440.992l76.731-76.725Z" transform="translate(-10001.59 1957.329)" fill="#12263f"/>
        <path id="Trazado_120323" data-name="Trazado 120323" d="M10.95,0H261.932a10.95,10.95,0,0,1,10.95,10.95v.417a10.95,10.95,0,0,1-10.95,10.95H10.95A10.95,10.95,0,0,1,0,11.367V10.95A10.95,10.95,0,0,1,10.95,0Z" transform="translate(-9770.691 2022.127)" fill="#ffc321"/>
        <path id="Trazado_120323_-_Contorno" data-name="Trazado 120323 - Contorno" d="M10.95-.5H261.932a11.45,11.45,0,0,1,11.45,11.45v.417a11.45,11.45,0,0,1-11.45,11.45H10.95A11.45,11.45,0,0,1-.5,11.367V10.95A11.45,11.45,0,0,1,10.95-.5ZM261.932,21.817a10.462,10.462,0,0,0,10.45-10.45V10.95A10.462,10.462,0,0,0,261.932.5H10.95A10.462,10.462,0,0,0,.5,10.95v.417a10.462,10.462,0,0,0,10.45,10.45Z" transform="translate(-9770.691 2022.127)"/>
        <path id="Trazado_120318" data-name="Trazado 120318" d="M-9532.117,2137.063h-1V1986.5h-175.851v-1h176.851Z" transform="translate(-28.152 3)" fill="#12263f"/>
        <path id="Trazado_120319" data-name="Trazado 120319" d="M-9532.238,1989.326l-.758-.652,26.206-30.461.758.652Z" transform="translate(-28.152)" fill="#12263f"/>
        <path id="Trazado_120326" data-name="Trazado 120326" d="M11.5,1A10.5,10.5,0,1,0,22,11.5,10.512,10.512,0,0,0,11.5,1m0-1A11.5,11.5,0,1,1,0,11.5,11.5,11.5,0,0,1,11.5,0Z" transform="translate(-9520.152 2022)" fill="#12263f"/>
        <g id="Grupo_151822" data-name="Grupo 151822" transform="translate(-23.152)">
          <circle id="Elipse_4834" data-name="Elipse 4834" cx="9" cy="9" r="9" transform="translate(-9709 2025)" fill="#fff"/>
          <path id="Elipse_4834_-_Contorno" data-name="Elipse 4834 - Contorno" d="M9,1a8,8,0,1,0,8,8A8.009,8.009,0,0,0,9,1M9,0A9,9,0,1,1,0,9,9,9,0,0,1,9,0Z" transform="translate(-9709 2025)" fill="#ff5c5c"/>
          <rect id="Rectángulo_34285" data-name="Rectángulo 34285" width="2" height="9" transform="translate(-9701 2029.5)" fill="#ff4848"/>
          <rect id="Rectángulo_34286" data-name="Rectángulo 34286" width="2" height="9" transform="translate(-9695.5 2033) rotate(90)" fill="#ff4848"/>
        </g>
        <g id="Grupo_151823" data-name="Grupo 151823" transform="translate(1.848)">
          <circle id="Elipse_4834-2" data-name="Elipse 4834" cx="9" cy="9" r="9" transform="translate(-9709 2025)" fill="#fff"/>
          <path id="Elipse_4834_-_Contorno-2" data-name="Elipse 4834 - Contorno" d="M9,1a8,8,0,1,0,8,8A8.009,8.009,0,0,0,9,1M9,0A9,9,0,1,1,0,9,9,9,0,0,1,9,0Z" transform="translate(-9709 2025)" fill="#ff5c5c"/>
          <rect id="Rectángulo_34285-2" data-name="Rectángulo 34285" width="2" height="9" transform="translate(-9701 2029.5)" fill="#ff4848"/>
          <rect id="Rectángulo_34286-2" data-name="Rectángulo 34286" width="2" height="9" transform="translate(-9695.5 2033) rotate(90)" fill="#ff4848"/>
        </g>
        <g id="Grupo_151824" data-name="Grupo 151824" transform="translate(25.848)">
          <circle id="Elipse_4834-3" data-name="Elipse 4834" cx="9" cy="9" r="9" transform="translate(-9709 2025)" fill="#fff"/>
          <path id="Elipse_4834_-_Contorno-3" data-name="Elipse 4834 - Contorno" d="M9,1a8,8,0,1,0,8,8A8.009,8.009,0,0,0,9,1M9,0A9,9,0,1,1,0,9,9,9,0,0,1,9,0Z" transform="translate(-9709 2025)" fill="#ff5c5c"/>
          <rect id="Rectángulo_34285-3" data-name="Rectángulo 34285" width="2" height="9" transform="translate(-9701 2029.5)" fill="#ff4848"/>
          <rect id="Rectángulo_34286-3" data-name="Rectángulo 34286" width="2" height="9" transform="translate(-9695.5 2033) rotate(90)" fill="#ff4848"/>
        </g>
        <g id="Grupo_151825" data-name="Grupo 151825" transform="translate(49.848)">
          <circle id="Elipse_4834-4" data-name="Elipse 4834" cx="9" cy="9" r="9" transform="translate(-9709 2025)" fill="#fff"/>
          <path id="Elipse_4834_-_Contorno-4" data-name="Elipse 4834 - Contorno" d="M9,1a8,8,0,1,0,8,8A8.009,8.009,0,0,0,9,1M9,0A9,9,0,1,1,0,9,9,9,0,0,1,9,0Z" transform="translate(-9709 2025)" fill="#ff5c5c"/>
          <rect id="Rectángulo_34285-4" data-name="Rectángulo 34285" width="2" height="9" transform="translate(-9701 2029.5)" fill="#ff4848"/>
          <rect id="Rectángulo_34286-4" data-name="Rectángulo 34286" width="2" height="9" transform="translate(-9695.5 2033) rotate(90)" fill="#ff4848"/>
        </g>
        <g id="Grupo_151826" data-name="Grupo 151826" transform="translate(73.848)">
          <circle id="Elipse_4834-5" data-name="Elipse 4834" cx="9" cy="9" r="9" transform="translate(-9709 2025)" fill="#fff"/>
          <path id="Elipse_4834_-_Contorno-5" data-name="Elipse 4834 - Contorno" d="M9,1a8,8,0,1,0,8,8A8.009,8.009,0,0,0,9,1M9,0A9,9,0,1,1,0,9,9,9,0,0,1,9,0Z" transform="translate(-9709 2025)" fill="#ff5c5c"/>
          <rect id="Rectángulo_34285-5" data-name="Rectángulo 34285" width="2" height="9" transform="translate(-9701 2029.5)" fill="#ff4848"/>
          <rect id="Rectángulo_34286-5" data-name="Rectángulo 34286" width="2" height="9" transform="translate(-9695.5 2033) rotate(90)" fill="#ff4848"/>
        </g>
        <g id="Grupo_151827" data-name="Grupo 151827" transform="translate(98.848)">
          <circle id="Elipse_4834-6" data-name="Elipse 4834" cx="9" cy="9" r="9" transform="translate(-9709 2025)" fill="#fff"/>
          <path id="Elipse_4834_-_Contorno-6" data-name="Elipse 4834 - Contorno" d="M9,1a8,8,0,1,0,8,8A8.009,8.009,0,0,0,9,1M9,0A9,9,0,1,1,0,9,9,9,0,0,1,9,0Z" transform="translate(-9709 2025)" fill="#ff5c5c"/>
          <rect id="Rectángulo_34285-6" data-name="Rectángulo 34285" width="2" height="9" transform="translate(-9701 2029.5)" fill="#ff4848"/>
          <rect id="Rectángulo_34286-6" data-name="Rectángulo 34286" width="2" height="9" transform="translate(-9695.5 2033) rotate(90)" fill="#ff4848"/>
        </g>
        <g id="Grupo_151828" data-name="Grupo 151828" transform="translate(-28.152)">
          <path id="Trazado_120320" data-name="Trazado 120320" d="M-9694.5,2027.649h-1v-31.8h1Z" transform="translate(0 -6.406)"/>
          <path id="Polígono_145" data-name="Polígono 145" d="M5,0l5,9H0Z" transform="translate(-9700 1982)"/>
        </g>
        <g id="Grupo_151829" data-name="Grupo 151829" transform="translate(-4.152)">
          <path id="Trazado_120320-2" data-name="Trazado 120320" d="M-9694.5,2027.649h-1v-31.8h1Z" transform="translate(0 -6.406)"/>
          <path id="Polígono_145-2" data-name="Polígono 145" d="M5,0l5,9H0Z" transform="translate(-9700 1982)"/>
        </g>
        <g id="Grupo_151830" data-name="Grupo 151830" transform="translate(19.848)">
          <path id="Trazado_120320-3" data-name="Trazado 120320" d="M-9694.5,2027.649h-1v-31.8h1Z" transform="translate(0 -6.406)"/>
          <path id="Polígono_145-3" data-name="Polígono 145" d="M5,0l5,9H0Z" transform="translate(-9700 1982)"/>
        </g>
        <g id="Grupo_151831" data-name="Grupo 151831" transform="translate(43.848)">
          <path id="Trazado_120320-4" data-name="Trazado 120320" d="M-9694.5,2027.649h-1v-31.8h1Z" transform="translate(0 -6.406)"/>
          <path id="Polígono_145-4" data-name="Polígono 145" d="M5,0l5,9H0Z" transform="translate(-9700 1982)"/>
        </g>
        <g id="Grupo_151832" data-name="Grupo 151832" transform="translate(67.848)">
          <path id="Trazado_120320-5" data-name="Trazado 120320" d="M-9694.5,2027.649h-1v-31.8h1Z" transform="translate(0 -6.406)"/>
          <path id="Polígono_145-5" data-name="Polígono 145" d="M5,0l5,9H0Z" transform="translate(-9700 1982)"/>
        </g>
        <g id="Grupo_151833" data-name="Grupo 151833" transform="translate(91.848)">
          <path id="Trazado_120320-6" data-name="Trazado 120320" d="M-9694.5,2027.649h-1v-31.8h1Z" transform="translate(0 -6.406)"/>
          <path id="Polígono_145-6" data-name="Polígono 145" d="M5,0l5,9H0Z" transform="translate(-9700 1982)"/>
        </g>
        <path id="Trazado_120325" data-name="Trazado 120325" d="M12.725,0H10.254L3.916-10.088V0H1.445V-14.219H3.916L10.273-4.092V-14.219h2.451Z" transform="translate(-9782.152 2128)" fill="#12263f"/>
        <path id="Trazado_120324" data-name="Trazado 120324" d="M8.877-3.662a1.717,1.717,0,0,0-.659-1.445A7.931,7.931,0,0,0,5.84-6.133,11.483,11.483,0,0,1,3.105-7.285a3.649,3.649,0,0,1-1.943-3.184,3.465,3.465,0,0,1,1.4-2.832A5.672,5.672,0,0,1,6.2-14.414a6.145,6.145,0,0,1,2.646.547,4.344,4.344,0,0,1,1.826,1.558,4,4,0,0,1,.664,2.241H8.877a2.228,2.228,0,0,0-.7-1.743,2.882,2.882,0,0,0-2-.63,3.01,3.01,0,0,0-1.88.518,1.723,1.723,0,0,0-.669,1.445,1.559,1.559,0,0,0,.723,1.3A8.325,8.325,0,0,0,6.738-8.159,10.961,10.961,0,0,1,9.4-7.036a4.241,4.241,0,0,1,1.475,1.445,3.764,3.764,0,0,1,.469,1.909A3.384,3.384,0,0,1,9.985-.854,5.909,5.909,0,0,1,6.289.2,6.946,6.946,0,0,1,3.452-.376,4.766,4.766,0,0,1,1.44-1.953,3.93,3.93,0,0,1,.723-4.3H3.193a2.3,2.3,0,0,0,.8,1.875,3.507,3.507,0,0,0,2.295.664A3.047,3.047,0,0,0,8.228-2.28,1.686,1.686,0,0,0,8.877-3.662Z" transform="translate(-9644.152 1977)" fill="#fff"/>
        <path id="Trazado_120327" data-name="Trazado 120327" d="M1.445,0V-14.219H6.318a5.949,5.949,0,0,1,3.672.967,3.405,3.405,0,0,1,1.26,2.881,3.07,3.07,0,0,1-.527,1.758A3.394,3.394,0,0,1,9.18-7.4a3.138,3.138,0,0,1,1.782,1.177,3.427,3.427,0,0,1,.63,2.075,3.785,3.785,0,0,1-1.284,3.076A5.584,5.584,0,0,1,6.631,0ZM3.916-6.416v4.443H6.66a2.656,2.656,0,0,0,1.816-.576,2.022,2.022,0,0,0,.654-1.6A2.029,2.029,0,0,0,6.865-6.416Zm0-1.816H6.338a2.8,2.8,0,0,0,1.8-.522,1.79,1.79,0,0,0,.649-1.479,1.815,1.815,0,0,0-.6-1.523,3.033,3.033,0,0,0-1.87-.469h-2.4Z" transform="translate(-9510.152 1977)" fill="#aaff21"/>
        <g id="Grupo_151834" data-name="Grupo 151834" transform="matrix(0.719, 0.695, -0.695, 0.719, -1414.71, 7372.779)">
          <path id="Trazado_120320-7" data-name="Trazado 120320" d="M-9694.5,2117.558h-1v-121.71h1Z" transform="translate(0 -96.315)" fill="#aaff21"/>
          <path id="Polígono_145-7" data-name="Polígono 145" d="M5,0l5,9H0Z" transform="translate(-9699.835 1891.479)" fill="#aaff21"/>
        </g>
        <g id="Grupo_151835" data-name="Grupo 151835" transform="matrix(0.719, 0.695, -0.695, 0.719, -1389.141, 7372.779)">
          <path id="Trazado_120320-8" data-name="Trazado 120320" d="M-9694.5,2117.558h-1v-121.71h1Z" transform="translate(0 -96.315)" fill="#aaff21"/>
          <path id="Polígono_145-8" data-name="Polígono 145" d="M5,0l5,9H0Z" transform="translate(-9699.835 1891.479)" fill="#aaff21"/>
        </g>
        <g id="Grupo_151836" data-name="Grupo 151836" transform="matrix(0.719, 0.695, -0.695, 0.719, -1373.266, 7417.227)">
          <path id="Trazado_120320-9" data-name="Trazado 120320" d="M-9694.5,2059.021h-1v-63.173h1Z" transform="translate(0 -96.315)" fill="#aaff21"/>
          <path id="Polígono_145-9" data-name="Polígono 145" d="M5,0l5,9H0Z" transform="translate(-9699.835 1891.479)" fill="#aaff21"/>
        </g>
        <g id="Grupo_151837" data-name="Grupo 151837" transform="matrix(0.719, 0.695, -0.695, 0.719, -1346.601, 7421.899)">
          <path id="Trazado_120320-10" data-name="Trazado 120320" d="M-9694.5,2059.021h-1v-63.173h1Z" transform="translate(0 -96.315)" fill="#aaff21"/>
          <path id="Polígono_145-10" data-name="Polígono 145" d="M5,0l5,9H0Z" transform="translate(-9699.835 1891.479)" fill="#aaff21"/>
        </g>
        <g id="Grupo_151838" data-name="Grupo 151838" transform="matrix(0.719, 0.695, -0.695, 0.719, -1332.937, 7441.986)">
          <path id="Trazado_120320-11" data-name="Trazado 120320" d="M-9694.5,2116.143h-1v-120.3h1Z" transform="translate(9.894 -136.454)" fill="#aaff21"/>
          <path id="Polígono_145-11" data-name="Polígono 145" d="M5,0l5,9H0Z" transform="translate(-9689.94 1851.341)" fill="#aaff21"/>
        </g>
        <g id="Grupo_151839" data-name="Grupo 151839" transform="matrix(0.719, 0.695, -0.695, 0.719, -1323.937, 7484.899)">
          <path id="Trazado_120320-12" data-name="Trazado 120320" d="M-9694.5,2059.021h-1v-63.173h1Z" transform="translate(0 -96.315)" fill="#aaff21"/>
          <path id="Polígono_145-12" data-name="Polígono 145" d="M5,0l5,9H0Z" transform="translate(-9699.835 1891.479)" fill="#aaff21"/>
        </g>
        <g id="Grupo_151840" data-name="Grupo 151840" transform="translate(-7547.531 11728.285) rotate(90)">
          <path id="Trazado_120320-13" data-name="Trazado 120320" d="M-9694.5,2045.777h-1v-49.929h1Z" transform="translate(0 -6.406)" fill="#ff1919"/>
          <path id="Polígono_145-13" data-name="Polígono 145" d="M5,0l5,9H0Z" transform="translate(-9700 1982)" fill="#ff2727"/>
        </g>
        <path id="Trazado_120330" data-name="Trazado 120330" d="M8.477-3.158A3.662,3.662,0,0,1,7.311-.721,3.82,3.82,0,0,1,4.7.137,3.507,3.507,0,0,1,1.876-1.128,5.088,5.088,0,0,1,.813-4.512v-.957a5.671,5.671,0,0,1,.5-2.44,3.7,3.7,0,0,1,1.4-1.617,3.911,3.911,0,0,1,2.105-.564A3.6,3.6,0,0,1,7.362-9.2,3.706,3.706,0,0,1,8.477-6.754H7.157a2.847,2.847,0,0,0-.742-1.723,2.248,2.248,0,0,0-1.6-.533,2.349,2.349,0,0,0-1.972.93,4.265,4.265,0,0,0-.714,2.646v.964A4.384,4.384,0,0,0,2.81-1.894,2.187,2.187,0,0,0,4.7-.937a2.526,2.526,0,0,0,1.678-.5,2.75,2.75,0,0,0,.776-1.726ZM14.636,0a2.657,2.657,0,0,1-.178-.779,2.822,2.822,0,0,1-2.105.916,2.611,2.611,0,0,1-1.794-.619,2,2,0,0,1-.7-1.569,2.091,2.091,0,0,1,.878-1.794,4.142,4.142,0,0,1,2.471-.639h1.23v-.581a1.42,1.42,0,0,0-.4-1.056,1.593,1.593,0,0,0-1.169-.393,1.844,1.844,0,0,0-1.135.342,1.007,1.007,0,0,0-.458.827H10.008a1.745,1.745,0,0,1,.393-1.07,2.683,2.683,0,0,1,1.066-.817,3.588,3.588,0,0,1,1.48-.3,2.924,2.924,0,0,1,2,.639,2.306,2.306,0,0,1,.752,1.76v3.4a4.162,4.162,0,0,0,.26,1.62V0Zm-2.1-.964a2.223,2.223,0,0,0,1.128-.308,1.861,1.861,0,0,0,.772-.8V-3.589h-.991q-2.324,0-2.324,1.36a1.151,1.151,0,0,0,.4.93A1.524,1.524,0,0,0,12.537-.964ZM18.874-7.4l.034.82A2.732,2.732,0,0,1,21.1-7.533a2.115,2.115,0,0,1,2.112,1.189,2.8,2.8,0,0,1,.96-.861,2.837,2.837,0,0,1,1.4-.328q2.434,0,2.475,2.577V0H26.783V-4.881a1.7,1.7,0,0,0-.362-1.186A1.6,1.6,0,0,0,25.2-6.46a1.677,1.677,0,0,0-1.169.42,1.706,1.706,0,0,0-.54,1.131V0H22.224V-4.847A1.411,1.411,0,0,0,20.645-6.46a1.692,1.692,0,0,0-1.7,1.06V0H17.678V-7.4ZM36.2-3.616A4.429,4.429,0,0,1,35.431-.9,2.476,2.476,0,0,1,33.339.137,2.713,2.713,0,0,1,31.22-.718V2.844H29.955V-7.4H31.11l.062.82a2.605,2.605,0,0,1,2.146-.957,2.522,2.522,0,0,1,2.109,1,4.477,4.477,0,0,1,.776,2.8ZM34.938-3.76a3.268,3.268,0,0,0-.533-1.976,1.718,1.718,0,0,0-1.463-.725A1.859,1.859,0,0,0,31.22-5.441v3.534A1.863,1.863,0,0,0,32.956-.9,1.71,1.71,0,0,0,34.4-1.617,3.567,3.567,0,0,0,34.938-3.76Zm2.536-.007A4.369,4.369,0,0,1,37.9-5.722a3.187,3.187,0,0,1,1.189-1.34,3.238,3.238,0,0,1,1.74-.472,3.119,3.119,0,0,1,2.444,1.046,4.024,4.024,0,0,1,.933,2.782v.089a4.407,4.407,0,0,1-.414,1.938A3.14,3.14,0,0,1,42.612-.342a3.275,3.275,0,0,1-1.767.479A3.111,3.111,0,0,1,38.408-.909a4,4,0,0,1-.933-2.769Zm1.271.15a3.164,3.164,0,0,0,.571,1.976A1.827,1.827,0,0,0,40.845-.9a1.816,1.816,0,0,0,1.531-.755,3.46,3.46,0,0,0,.567-2.116,3.159,3.159,0,0,0-.578-1.972,1.836,1.836,0,0,0-1.535-.755,1.816,1.816,0,0,0-1.511.745A3.434,3.434,0,0,0,38.746-3.616ZM2.851,7.047,6.1,15.168,9.358,7.047h1.7V17H9.748V13.124L9.871,8.94,6.6,17h-1L2.338,8.961l.13,4.163V17H1.155V7.047ZM17.746,17a2.657,2.657,0,0,1-.178-.779,2.822,2.822,0,0,1-2.105.916,2.611,2.611,0,0,1-1.794-.619,2,2,0,0,1-.7-1.569,2.091,2.091,0,0,1,.878-1.794,4.142,4.142,0,0,1,2.471-.639h1.23v-.581a1.42,1.42,0,0,0-.4-1.056,1.593,1.593,0,0,0-1.169-.393,1.844,1.844,0,0,0-1.135.342,1.007,1.007,0,0,0-.458.827H13.118a1.745,1.745,0,0,1,.393-1.07,2.683,2.683,0,0,1,1.066-.817,3.588,3.588,0,0,1,1.48-.3,2.924,2.924,0,0,1,2,.639,2.306,2.306,0,0,1,.752,1.76v3.4a4.162,4.162,0,0,0,.26,1.62V17Zm-2.1-.964a2.223,2.223,0,0,0,1.128-.308,1.861,1.861,0,0,0,.772-.8V13.411h-.991q-2.324,0-2.324,1.36a1.151,1.151,0,0,0,.4.93A1.524,1.524,0,0,0,15.647,16.036Zm4.847-2.8a4.347,4.347,0,0,1,.8-2.751,2.757,2.757,0,0,1,4.231-.065l.062-.82h1.155v7.219a3.009,3.009,0,0,1-.851,2.263,3.141,3.141,0,0,1-2.287.827,3.8,3.8,0,0,1-1.565-.342,2.7,2.7,0,0,1-1.169-.937l.656-.759a2.473,2.473,0,0,0,1.989,1,1.938,1.938,0,0,0,1.439-.52,1.986,1.986,0,0,0,.516-1.463v-.636a2.6,2.6,0,0,1-2.071.875,2.527,2.527,0,0,1-2.1-1.046A4.571,4.571,0,0,1,20.494,13.24Zm1.271.144a3.316,3.316,0,0,0,.513,1.965,1.666,1.666,0,0,0,1.436.714,1.852,1.852,0,0,0,1.757-1.087V11.6a1.874,1.874,0,0,0-1.743-1.06,1.681,1.681,0,0,0-1.442.718A3.612,3.612,0,0,0,21.766,13.384Zm8.08-3.78.041.93A2.7,2.7,0,0,1,32.1,9.467q2.345,0,2.365,2.646V17H33.2V12.105a1.7,1.7,0,0,0-.366-1.183,1.466,1.466,0,0,0-1.118-.383,1.825,1.825,0,0,0-1.08.328,2.228,2.228,0,0,0-.725.861V17H28.649V9.6Zm9.6,7.533A3.232,3.232,0,0,1,37,16.149a3.666,3.666,0,0,1-.943-2.642v-.232a4.438,4.438,0,0,1,.42-1.965,3.28,3.28,0,0,1,1.176-1.354,2.956,2.956,0,0,1,1.637-.489,2.77,2.77,0,0,1,2.242.95,4.114,4.114,0,0,1,.8,2.721v.526H37.317a2.629,2.629,0,0,0,.639,1.767,2.009,2.009,0,0,0,1.555.673,2.2,2.2,0,0,0,1.135-.273,2.851,2.851,0,0,0,.813-.725l.772.6A3.106,3.106,0,0,1,39.443,17.137Zm-.157-6.631A1.687,1.687,0,0,0,38,11.063a2.708,2.708,0,0,0-.643,1.562h3.705v-.1a2.409,2.409,0,0,0-.52-1.494A1.588,1.588,0,0,0,39.286,10.506ZM39.9,6.5h1.531L39.6,8.51H38.582Zm5.605,1.313V9.6h1.381v.978H45.507v4.587a1.024,1.024,0,0,0,.185.667.777.777,0,0,0,.629.222,3.062,3.062,0,0,0,.6-.082V17a3.666,3.666,0,0,1-.971.137,1.575,1.575,0,0,1-1.278-.513,2.2,2.2,0,0,1-.431-1.456V10.581H42.9V9.6h1.347V7.813ZM49.738,17H48.474V9.6h1.265ZM48.371,7.642a.755.755,0,0,1,.188-.52.706.706,0,0,1,.557-.212.717.717,0,0,1,.561.212.747.747,0,0,1,.191.52.722.722,0,0,1-.191.513.73.73,0,0,1-.561.205.718.718,0,0,1-.557-.205A.73.73,0,0,1,48.371,7.642ZM54.729,16.1a1.822,1.822,0,0,0,1.183-.41,1.443,1.443,0,0,0,.561-1.025h1.2a2.293,2.293,0,0,1-.437,1.21,2.881,2.881,0,0,1-1.077.916,3.107,3.107,0,0,1-1.425.342,3.047,3.047,0,0,1-2.4-1.008,4.016,4.016,0,0,1-.892-2.758v-.212a4.453,4.453,0,0,1,.4-1.921,3.02,3.02,0,0,1,1.138-1.306,3.233,3.233,0,0,1,1.753-.465,2.966,2.966,0,0,1,2.068.745,2.663,2.663,0,0,1,.878,1.935h-1.2a1.743,1.743,0,0,0-.543-1.179,1.691,1.691,0,0,0-1.207-.461,1.77,1.77,0,0,0-1.494.694,3.259,3.259,0,0,0-.53,2.006v.239a3.194,3.194,0,0,0,.526,1.969A1.779,1.779,0,0,0,54.729,16.1Zm4.026-2.871a4.369,4.369,0,0,1,.427-1.955,3.187,3.187,0,0,1,1.189-1.34,3.238,3.238,0,0,1,1.74-.472,3.119,3.119,0,0,1,2.444,1.046,4.024,4.024,0,0,1,.933,2.782v.089a4.407,4.407,0,0,1-.414,1.938,3.14,3.14,0,0,1-1.183,1.336,3.275,3.275,0,0,1-1.767.479,3.111,3.111,0,0,1-2.437-1.046,4,4,0,0,1-.933-2.769Zm1.271.15a3.164,3.164,0,0,0,.571,1.976,1.934,1.934,0,0,0,3.059-.01,3.46,3.46,0,0,0,.567-2.116,3.159,3.159,0,0,0-.578-1.972,1.836,1.836,0,0,0-1.535-.755,1.816,1.816,0,0,0-1.511.745A3.435,3.435,0,0,0,60.026,13.384Z" transform="translate(-9473.152 1995)"/>
        <g id="Grupo_151841" data-name="Grupo 151841" transform="matrix(0.719, 0.695, -0.695, 0.719, -1250.348, 7352.558)">
          <path id="Trazado_120320-14" data-name="Trazado 120320" d="M-9694.5,2059.021h-1v-63.173h1Z" transform="translate(0 -96.315)" fill="#aaff21"/>
          <path id="Polígono_145-14" data-name="Polígono 145" d="M5,0l5,9H0Z" transform="translate(-9699.835 1891.479)" fill="#aaff21"/>
        </g>
        <path id="Trazado_120329" data-name="Trazado 120329" d="M8.477-3.158A3.662,3.662,0,0,1,7.311-.721,3.82,3.82,0,0,1,4.7.137,3.507,3.507,0,0,1,1.876-1.128,5.088,5.088,0,0,1,.813-4.512v-.957a5.671,5.671,0,0,1,.5-2.44,3.7,3.7,0,0,1,1.4-1.617,3.911,3.911,0,0,1,2.105-.564A3.6,3.6,0,0,1,7.362-9.2,3.706,3.706,0,0,1,8.477-6.754H7.157a2.847,2.847,0,0,0-.742-1.723,2.248,2.248,0,0,0-1.6-.533,2.349,2.349,0,0,0-1.972.93,4.265,4.265,0,0,0-.714,2.646v.964A4.384,4.384,0,0,0,2.81-1.894,2.187,2.187,0,0,0,4.7-.937a2.526,2.526,0,0,0,1.678-.5,2.75,2.75,0,0,0,.776-1.726Zm1.258-.608a4.369,4.369,0,0,1,.427-1.955,3.187,3.187,0,0,1,1.189-1.34,3.238,3.238,0,0,1,1.74-.472,3.119,3.119,0,0,1,2.444,1.046,4.024,4.024,0,0,1,.933,2.782v.089a4.407,4.407,0,0,1-.414,1.938A3.14,3.14,0,0,1,14.872-.342,3.275,3.275,0,0,1,13.1.137,3.111,3.111,0,0,1,10.667-.909a4,4,0,0,1-.933-2.769Zm1.271.15a3.164,3.164,0,0,0,.571,1.976A1.827,1.827,0,0,0,13.1-.9a1.816,1.816,0,0,0,1.531-.755A3.46,3.46,0,0,0,15.2-3.767a3.159,3.159,0,0,0-.578-1.972,1.836,1.836,0,0,0-1.535-.755,1.816,1.816,0,0,0-1.511.745A3.434,3.434,0,0,0,11.006-3.616ZM21.629-6.262a3.79,3.79,0,0,0-.622-.048,1.667,1.667,0,0,0-1.688,1.06V0H18.054V-7.4h1.23l.021.854a1.969,1.969,0,0,1,1.764-.991,1.292,1.292,0,0,1,.561.1Zm4.737,0a3.79,3.79,0,0,0-.622-.048,1.667,1.667,0,0,0-1.688,1.06V0H22.791V-7.4h1.23l.021.854a1.969,1.969,0,0,1,1.764-.991,1.292,1.292,0,0,1,.561.1ZM28.9,0H27.638V-7.4H28.9ZM27.535-9.358a.755.755,0,0,1,.188-.52.706.706,0,0,1,.557-.212.717.717,0,0,1,.561.212.747.747,0,0,1,.191.52.722.722,0,0,1-.191.513.73.73,0,0,1-.561.205.718.718,0,0,1-.557-.205A.73.73,0,0,1,27.535-9.358ZM34,.137a3.232,3.232,0,0,1-2.447-.988A3.666,3.666,0,0,1,30.6-3.493v-.232a4.438,4.438,0,0,1,.42-1.965A3.28,3.28,0,0,1,32.2-7.044a2.956,2.956,0,0,1,1.637-.489,2.77,2.77,0,0,1,2.242.95,4.114,4.114,0,0,1,.8,2.721v.526H31.869a2.629,2.629,0,0,0,.639,1.767A2.009,2.009,0,0,0,34.063-.9,2.2,2.2,0,0,0,35.2-1.169a2.851,2.851,0,0,0,.813-.725l.772.6A3.106,3.106,0,0,1,34,.137Zm-.157-6.631a1.687,1.687,0,0,0-1.285.557,2.708,2.708,0,0,0-.643,1.562h3.705v-.1a2.409,2.409,0,0,0-.52-1.494A1.588,1.588,0,0,0,33.838-6.494Zm5.7-.9.041.93a2.7,2.7,0,0,1,2.215-1.066q2.345,0,2.365,2.646V0H42.9V-4.895a1.7,1.7,0,0,0-.366-1.183,1.466,1.466,0,0,0-1.118-.383,1.825,1.825,0,0,0-1.08.328,2.228,2.228,0,0,0-.725.861V0H38.343V-7.4Zm8.244-1.791V-7.4h1.381v.978H47.783v4.587a1.024,1.024,0,0,0,.185.667.777.777,0,0,0,.629.222,3.062,3.062,0,0,0,.6-.082V0a3.666,3.666,0,0,1-.971.137,1.575,1.575,0,0,1-1.278-.513,2.2,2.2,0,0,1-.431-1.456V-6.419H45.172V-7.4h1.347V-9.187ZM53.71.137a3.232,3.232,0,0,1-2.447-.988,3.666,3.666,0,0,1-.943-2.642v-.232a4.438,4.438,0,0,1,.42-1.965,3.28,3.28,0,0,1,1.176-1.354,2.956,2.956,0,0,1,1.637-.489,2.77,2.77,0,0,1,2.242.95,4.114,4.114,0,0,1,.8,2.721v.526H51.584a2.629,2.629,0,0,0,.639,1.767A2.009,2.009,0,0,0,53.778-.9a2.2,2.2,0,0,0,1.135-.273,2.851,2.851,0,0,0,.813-.725l.772.6A3.106,3.106,0,0,1,53.71.137Zm-.157-6.631a1.687,1.687,0,0,0-1.285.557,2.708,2.708,0,0,0-.643,1.562H55.33v-.1a2.409,2.409,0,0,0-.52-1.494A1.588,1.588,0,0,0,53.553-6.494ZM6.781,12.4H2.468v3.527H7.479V17H1.155V7.047H7.41v1.08H2.468v3.2H6.781ZM10.288,17H9.023V6.5h1.265Zm5.093.137a3.232,3.232,0,0,1-2.447-.988,3.666,3.666,0,0,1-.943-2.642v-.232a4.438,4.438,0,0,1,.42-1.965,3.28,3.28,0,0,1,1.176-1.354,2.956,2.956,0,0,1,1.637-.489,2.77,2.77,0,0,1,2.242.95,4.114,4.114,0,0,1,.8,2.721v.526H13.255a2.629,2.629,0,0,0,.639,1.767,2.009,2.009,0,0,0,1.555.673,2.2,2.2,0,0,0,1.135-.273,2.851,2.851,0,0,0,.813-.725l.772.6A3.106,3.106,0,0,1,15.381,17.137Zm-.157-6.631a1.687,1.687,0,0,0-1.285.557,2.708,2.708,0,0,0-.643,1.562H17v-.1a2.409,2.409,0,0,0-.52-1.494A1.588,1.588,0,0,0,15.224,10.506ZM15.839,6.5H17.37L15.538,8.51H14.52ZM22.7,16.1a1.822,1.822,0,0,0,1.183-.41,1.443,1.443,0,0,0,.561-1.025h1.2a2.293,2.293,0,0,1-.437,1.21,2.881,2.881,0,0,1-1.077.916,3.107,3.107,0,0,1-1.425.342,3.047,3.047,0,0,1-2.4-1.008A4.016,4.016,0,0,1,19.4,13.37v-.212a4.453,4.453,0,0,1,.4-1.921,3.02,3.02,0,0,1,1.138-1.306,3.233,3.233,0,0,1,1.753-.465,2.966,2.966,0,0,1,2.068.745,2.663,2.663,0,0,1,.878,1.935h-1.2a1.743,1.743,0,0,0-.543-1.179,1.691,1.691,0,0,0-1.207-.461,1.77,1.77,0,0,0-1.494.694,3.259,3.259,0,0,0-.53,2.006v.239a3.194,3.194,0,0,0,.526,1.969A1.779,1.779,0,0,0,22.7,16.1Zm6.077-8.292V9.6h1.381v.978H28.772v4.587a1.024,1.024,0,0,0,.185.667.777.777,0,0,0,.629.222,3.062,3.062,0,0,0,.6-.082V17a3.666,3.666,0,0,1-.971.137,1.575,1.575,0,0,1-1.278-.513,2.2,2.2,0,0,1-.431-1.456V10.581H26.161V9.6h1.347V7.813Zm6.433,2.926a3.79,3.79,0,0,0-.622-.048,1.667,1.667,0,0,0-1.688,1.06V17H31.63V9.6h1.23l.021.854a1.969,1.969,0,0,1,1.764-.991,1.292,1.292,0,0,1,.561.1ZM37.741,17H36.477V9.6h1.265ZM36.374,7.642a.755.755,0,0,1,.188-.52.706.706,0,0,1,.557-.212.717.717,0,0,1,.561.212.747.747,0,0,1,.191.52.722.722,0,0,1-.191.513.73.73,0,0,1-.561.205.718.718,0,0,1-.557-.205A.73.73,0,0,1,36.374,7.642ZM42.731,16.1a1.822,1.822,0,0,0,1.183-.41,1.443,1.443,0,0,0,.561-1.025h1.2a2.293,2.293,0,0,1-.437,1.21,2.881,2.881,0,0,1-1.077.916,3.107,3.107,0,0,1-1.425.342,3.047,3.047,0,0,1-2.4-1.008,4.016,4.016,0,0,1-.892-2.758v-.212a4.453,4.453,0,0,1,.4-1.921,3.02,3.02,0,0,1,1.138-1.306,3.233,3.233,0,0,1,1.753-.465,2.966,2.966,0,0,1,2.068.745,2.663,2.663,0,0,1,.878,1.935h-1.2a1.743,1.743,0,0,0-.543-1.179,1.691,1.691,0,0,0-1.207-.461,1.77,1.77,0,0,0-1.494.694,3.259,3.259,0,0,0-.53,2.006v.239a3.194,3.194,0,0,0,.526,1.969A1.779,1.779,0,0,0,42.731,16.1Zm8.928.9a2.657,2.657,0,0,1-.178-.779,2.822,2.822,0,0,1-2.105.916,2.611,2.611,0,0,1-1.794-.619,2,2,0,0,1-.7-1.569,2.091,2.091,0,0,1,.878-1.794,4.142,4.142,0,0,1,2.471-.639h1.23v-.581a1.42,1.42,0,0,0-.4-1.056,1.593,1.593,0,0,0-1.169-.393,1.844,1.844,0,0,0-1.135.342,1.007,1.007,0,0,0-.458.827H47.031a1.745,1.745,0,0,1,.393-1.07,2.683,2.683,0,0,1,1.066-.817,3.588,3.588,0,0,1,1.48-.3,2.924,2.924,0,0,1,2,.639,2.306,2.306,0,0,1,.752,1.76v3.4a4.162,4.162,0,0,0,.26,1.62V17Zm-2.1-.964a2.223,2.223,0,0,0,1.128-.308,1.861,1.861,0,0,0,.772-.8V13.411H50.47q-2.324,0-2.324,1.36a1.151,1.151,0,0,0,.4.93A1.524,1.524,0,0,0,49.561,16.036Z" transform="translate(-9494.152 2097.021)" fill="#12263f"/>
        <path id="Trazado_120328" data-name="Trazado 120328" d="M0,0H3V21H0Z" transform="translate(-9508.152 2048)" fill="#ff3b3b"/>
        <path id="Trazado_120321" data-name="Trazado 120321" d="M-9768.669,2239.916l-.75-.661,121.033-137.529.75.661Z" transform="translate(-28.152)" fill="#12263f"/>
        <path id="Trazado_120322" data-name="Trazado 120322" d="M9.639-6.025H3.916V0H1.445V-14.219h9.033v1.992H3.916V-8H9.639Z" transform="translate(-9762.152 1994)" fill="#12263f"/>
      </g>
    </g>
  </g>
</svg>
