<svg xmlns="http://www.w3.org/2000/svg" width="70" height="70" viewBox="0 0 70 70">
  <g id="Grupo_152217" data-name="Grupo 152217" transform="translate(-425 -1204)">
    <g id="Grupo_151775" data-name="Grupo 151775" transform="translate(13 40)">
      <circle id="Elipse_4817" data-name="Elipse 4817" cx="35" cy="35" r="35" transform="translate(412 1164)" fill="#fff"/>
      <g id="noun-pdf-291879" transform="translate(349.996 1177.62)">
        <path id="Trazado_120301" data-name="Trazado 120301" d="M110.987,5.434,105.665,0V.028L105.637,0H79.964V5.368H70V16.5h9.96V42.76h36.8V11.279ZM99.53,15.712H70.771V6.126H99.539v9.586Zm6.9-5.172V1.861l8.52,8.679Z" fill="#ad84ff"/>
        <path id="Trazado_120302" data-name="Trazado 120302" d="M157.307,91.907h.252a2.311,2.311,0,0,0,1.627-.636,2.217,2.217,0,0,0,.552-1.6,1.932,1.932,0,0,0-.571-1.469,2.542,2.542,0,0,0-1.8-.5,7.1,7.1,0,0,0-1.356.131v6.556H157.3V91.907Zm0-3.105a1.1,1.1,0,0,1,.327-.047c.589,0,.832.458.832,1.038,0,.627-.3,1.085-.954,1.085a1.5,1.5,0,0,1-.206-.009Z" transform="translate(-78.83 -80.375)" fill="#ad84ff"/>
        <path id="Trazado_120303" data-name="Trazado 120303" d="M213.1,93.794a3.649,3.649,0,0,0,.935-2.815,3.459,3.459,0,0,0-.87-2.684,2.608,2.608,0,0,0-1.852-.6,6.261,6.261,0,0,0-1.319.131v6.537a7.907,7.907,0,0,0,1.075.075,2.8,2.8,0,0,0,2.03-.646ZM211.3,88.762a.805.805,0,0,1,.262-.028c.776,0,1.132.832,1.132,2.188,0,1.833-.542,2.45-1.16,2.45a.843.843,0,0,1-.224-.019V88.762Z" transform="translate(-128.302 -80.373)" fill="#ad84ff"/>
        <path id="Trazado_120304" data-name="Trazado 120304" d="M269.424,92.053h1.506V90.978h-1.506V89.266h1.6V88.144h-2.89v6.65h1.291Z" transform="translate(-181.584 -80.784)" fill="#ad84ff"/>
      </g>
    </g>
  </g>
</svg>
