<svg xmlns="http://www.w3.org/2000/svg" width="525" height="496" viewBox="0 0 525 496">
  <g id="Grupo_152219" data-name="Grupo 152219" transform="translate(5166 9626)">
    <g id="Grupo_152218" data-name="Grupo 152218">
      <g id="Grupo_152216" data-name="Grupo 152216">
        <g id="Grupo_151882" data-name="Grupo 151882" transform="translate(0 695)">
          <g id="Grupo_151877" data-name="Grupo 151877" transform="translate(4749 -12234.555)">
            <rect id="Rectángulo_34282" data-name="Rectángulo 34282" width="525" height="496" rx="14" transform="translate(-9915 1913.555)" fill="#fff"/>
          </g>
        </g>
      </g>
      <text id="F_683" data-name="F = 683" transform="translate(-5021.115 -9437)" fill="#12263f" font-size="30" font-family="Roboto-Regular, Roboto"><tspan x="0" y="0">F = 683</tspan></text>
      <path id="Trazado_120387" data-name="Trazado 120387" d="M-4984.276-9551.873l-3.1-3.1h-11.269l8.155,16.63-8.155,15.51h11.269l2.039-3.15" transform="translate(84.885 91.402)" fill="none" stroke="#000" stroke-width="2"/>
      <text id="_800" data-name="800" transform="translate(-4921.115 -9470)" fill="#12263f" font-size="15" font-family="Roboto-Regular, Roboto"><tspan x="0" y="0">800</tspan></text>
      <text id="_360" data-name="360" transform="translate(-4921.115 -9415)" fill="#12263f" font-size="15" font-family="Roboto-Regular, Roboto"><tspan x="0" y="0">360</tspan></text>
      <text id="P_V" data-name="P V" transform="translate(-4892.115 -9437)" fill="#12263f" font-size="30" font-family="Roboto-Regular, Roboto"><tspan x="0" y="0">P V</tspan></text>
      <path id="Trazado_120388" data-name="Trazado 120388" d="M-4927.965-9522.892l7.969-22.091,6.042,22.091Z" transform="translate(91.885 86)" fill="none" stroke="#12263f" stroke-linecap="round" stroke-width="2"/>
      <g id="Grupo_151883" data-name="Grupo 151883" transform="translate(91.885 86)">
        <path id="Trazado_120389" data-name="Trazado 120389" d="M-4911.1-9548.379l8.131,26.473" transform="translate(3.178)" fill="none" stroke="#12263f" stroke-linecap="round" stroke-width="2"/>
        <path id="Trazado_120390" data-name="Trazado 120390" d="M-4909.042-9521.906l6.724-13.065" transform="translate(-1.535)" fill="none" stroke="#12263f" stroke-linecap="round" stroke-width="2"/>
      </g>
      <g id="Grupo_151884" data-name="Grupo 151884" transform="translate(35.567 103.712)">
        <path id="Trazado_120389-2" data-name="Trazado 120389" d="M-4911.1-9548.379l4.065,13.236" transform="translate(1.848)" fill="none" stroke="#12263f" stroke-linecap="round" stroke-width="1.3"/>
        <path id="Trazado_120390-2" data-name="Trazado 120390" d="M-4909.042-9528.439l3.362-6.532" transform="translate(-1.535 -6.704)" fill="none" stroke="#12263f" stroke-linecap="round" stroke-width="1.3"/>
      </g>
      <g id="Grupo_151885" data-name="Grupo 151885" transform="translate(60.765 103.712)">
        <path id="Trazado_120389-3" data-name="Trazado 120389" d="M-4911.1-9548.379l4.065,13.236" transform="translate(1.848)" fill="none" stroke="#12263f" stroke-linecap="round" stroke-width="1.3"/>
        <path id="Trazado_120390-3" data-name="Trazado 120390" d="M-4909.042-9528.439l3.362-6.532" transform="translate(-1.535 -6.704)" fill="none" stroke="#12263f" stroke-linecap="round" stroke-width="1.3"/>
      </g>
      <g id="Grupo_151889" data-name="Grupo 151889" transform="translate(-129.019 212)">
        <text id="F_1700" data-name="F= 1700" transform="translate(-4891.115 -9523)" fill="#12263f" font-size="30" font-family="Roboto-Regular, Roboto"><tspan x="0" y="0">F= 1700</tspan></text>
        <path id="Trazado_120391" data-name="Trazado 120391" d="M-4984.276-9551.873l-3.1-3.1h-11.269l8.155,16.63-8.155,15.51h11.269l2.039-3.15" transform="translate(220.885 5.402)" fill="none" stroke="#000" stroke-width="2"/>
        <text id="_780" data-name="780" transform="translate(-4785.115 -9556)" fill="#12263f" font-size="15" font-family="Roboto-Regular, Roboto"><tspan x="0" y="0">780</tspan></text>
        <text id="_380" data-name="380" transform="translate(-4785.115 -9500)" fill="#12263f" font-size="15" font-family="Roboto-Regular, Roboto"><tspan x="0" y="0">380</tspan></text>
        <text id="P_V-2" data-name="P V" transform="translate(-4761.115 -9523)" fill="#12263f" font-size="30" font-family="Roboto-Regular, Roboto"><tspan x="0" y="0">P V</tspan></text>
        <g id="Grupo_151886" data-name="Grupo 151886" transform="translate(166.567 17.712)">
          <path id="Trazado_120389-4" data-name="Trazado 120389" d="M-4911.1-9548.379l4.065,13.236" transform="translate(1.848)" fill="none" stroke="#12263f" stroke-linecap="round" stroke-width="1.3"/>
          <path id="Trazado_120390-4" data-name="Trazado 120390" d="M-4909.042-9528.439l3.362-6.532" transform="translate(-1.535 -6.704)" fill="none" stroke="#12263f" stroke-linecap="round" stroke-width="1.3"/>
        </g>
        <g id="Grupo_151887" data-name="Grupo 151887" transform="translate(191.765 17.712)">
          <path id="Trazado_120389-5" data-name="Trazado 120389" d="M-4911.1-9548.379l4.065,13.236" transform="translate(1.848)" fill="none" stroke="#12263f" stroke-linecap="round" stroke-width="1.3"/>
          <path id="Trazado_120390-5" data-name="Trazado 120390" d="M-4909.042-9528.439l3.362-6.532" transform="translate(-1.535 -6.704)" fill="none" stroke="#12263f" stroke-linecap="round" stroke-width="1.3"/>
        </g>
        <path id="Trazado_120392" data-name="Trazado 120392" d="M-4927.965-9522.892l7.969-22.091,6.042,22.091Z" transform="translate(223.904)" fill="none" stroke="#12263f" stroke-linecap="round" stroke-width="2"/>
        <g id="Grupo_151888" data-name="Grupo 151888" transform="translate(223.904)">
          <path id="Trazado_120389-6" data-name="Trazado 120389" d="M-4911.1-9548.379l8.131,26.473" transform="translate(3.178)" fill="none" stroke="#12263f" stroke-linecap="round" stroke-width="2"/>
          <path id="Trazado_120390-6" data-name="Trazado 120390" d="M-4909.042-9521.906l6.724-13.065" transform="translate(-1.535)" fill="none" stroke="#12263f" stroke-linecap="round" stroke-width="2"/>
        </g>
        <path id="Trazado_120393" data-name="Trazado 120393" d="M-4873.105-9542.933l1.5-5.481" transform="translate(2.199)" fill="none" stroke="#12263f" stroke-linecap="round" stroke-width="2"/>
      </g>
      <g id="Rectángulo_34302" data-name="Rectángulo 34302" transform="translate(-5053 -9501)" fill="none" stroke="#0f58b9" stroke-width="1">
        <rect width="290" height="102" rx="12" stroke="none"/>
        <rect x="0.5" y="0.5" width="289" height="101" rx="11.5" fill="none"/>
      </g>
      <g id="Rectángulo_34303" data-name="Rectángulo 34303" transform="translate(-5053 -9376)" fill="none" stroke="#0f58b9" stroke-width="1">
        <rect width="290" height="102" rx="12" stroke="none"/>
        <rect x="0.5" y="0.5" width="289" height="101" rx="11.5" fill="none"/>
      </g>
    </g>
  </g>
</svg>
