<svg xmlns="http://www.w3.org/2000/svg" width="92" height="92" viewBox="0 0 92 92">
  <g id="Grupo_152216" data-name="Grupo 152216" transform="translate(-540.295 -2749)">
    <g id="Grupo_151966" data-name="Grupo 151966">
      <circle id="Elipse_4869" data-name="Elipse 4869" cx="46" cy="46" r="46" transform="translate(540.295 2749)" fill="#2e0877"/>
      <path id="Trazado_120668" data-name="Trazado 120668" d="M-8.947,0V-24.883H-.231q4.529,0,6.87,1.735a5.931,5.931,0,0,1,2.341,5.084,5.622,5.622,0,0,1-.94,3.221A5.429,5.429,0,0,1,5.426-12.8a5.253,5.253,0,0,1,3.016,1.931,5.709,5.709,0,0,1,1.1,3.555A6.567,6.567,0,0,1,7.255-1.88,10.309,10.309,0,0,1,.726,0ZM-3.82-10.835v6.716H.573A4.238,4.238,0,0,0,3.4-4.982,2.96,2.96,0,0,0,4.418-7.366q0-3.418-3.538-3.469Zm0-3.623H-.026q3.879-.068,3.879-3.093a2.859,2.859,0,0,0-.983-2.435,5.169,5.169,0,0,0-3.1-.743H-3.82Z" transform="translate(586.295 2804)" fill="#fff"/>
    </g>
  </g>
</svg>
