<svg xmlns="http://www.w3.org/2000/svg" width="340" height="154" viewBox="0 0 340 154">
  <g id="Grupo_152220" data-name="Grupo 152220" transform="translate(9711 10064)">
    <g id="Grupo_80199" data-name="Grupo 80199" transform="translate(-2245 -479)">
      <g id="Grupo_80189" data-name="Grupo 80189" transform="translate(-217 -406)">
        <g id="Elipse_4718" data-name="Elipse 4718" transform="translate(-7249 -9155)" fill="#fff" stroke="#0f58b9" stroke-width="1">
          <circle cx="62.5" cy="62.5" r="62.5" stroke="none"/>
          <circle cx="62.5" cy="62.5" r="62" fill="none"/>
        </g>
        <circle id="Elipse_4719" data-name="Elipse 4719" cx="2.5" cy="2.5" r="2.5" transform="translate(-7189 -9095)" fill="#0f58b9"/>
        <circle id="Elipse_4720" data-name="Elipse 4720" cx="2.5" cy="2.5" r="2.5" transform="translate(-7189 -9110)" fill="#0f58b9"/>
        <circle id="Elipse_4721" data-name="Elipse 4721" cx="2.5" cy="2.5" r="2.5" transform="translate(-7189 -9124)" fill="#0f58b9"/>
        <circle id="Elipse_4724" data-name="Elipse 4724" cx="2.5" cy="2.5" r="2.5" transform="translate(-7205 -9095)" fill="#0f58b9"/>
        <circle id="Elipse_4725" data-name="Elipse 4725" cx="2.5" cy="2.5" r="2.5" transform="translate(-7220 -9095)" fill="#0f58b9"/>
        <circle id="Elipse_4726" data-name="Elipse 4726" cx="2.5" cy="2.5" r="2.5" transform="translate(-7235 -9095)" fill="#0f58b9"/>
        <circle id="Elipse_4727" data-name="Elipse 4727" cx="2.5" cy="2.5" r="2.5" transform="translate(-7143 -9095)" fill="#0f58b9"/>
        <circle id="Elipse_4728" data-name="Elipse 4728" cx="2.5" cy="2.5" r="2.5" transform="translate(-7158 -9095)" fill="#0f58b9"/>
        <circle id="Elipse_4729" data-name="Elipse 4729" cx="2.5" cy="2.5" r="2.5" transform="translate(-7173 -9095)" fill="#0f58b9"/>
        <circle id="Elipse_4730" data-name="Elipse 4730" cx="2.5" cy="2.5" r="2.5" transform="translate(-7189 -9138)" fill="#0f58b9"/>
        <circle id="Elipse_4731" data-name="Elipse 4731" cx="2.5" cy="2.5" r="2.5" transform="translate(-7189 -9052)" fill="#0f58b9"/>
        <circle id="Elipse_4732" data-name="Elipse 4732" cx="2.5" cy="2.5" r="2.5" transform="translate(-7189 -9066)" fill="#0f58b9"/>
        <circle id="Elipse_4733" data-name="Elipse 4733" cx="2.5" cy="2.5" r="2.5" transform="translate(-7189 -9080)" fill="#0f58b9"/>
        <g id="Grupo_80178" data-name="Grupo 80178" transform="translate(-8269 -12212)">
          <circle id="Elipse_4734" data-name="Elipse 4734" cx="2.5" cy="2.5" r="2.5" transform="translate(1068 3105)" fill="#0f58b9"/>
          <circle id="Elipse_4735" data-name="Elipse 4735" cx="2.5" cy="2.5" r="2.5" transform="translate(1058 3094)" fill="#0f58b9"/>
          <circle id="Elipse_4736" data-name="Elipse 4736" cx="2.5" cy="2.5" r="2.5" transform="translate(1046 3083)" fill="#0f58b9"/>
        </g>
        <g id="Grupo_80179" data-name="Grupo 80179" transform="translate(-7176 -9129)">
          <circle id="Elipse_4734-2" data-name="Elipse 4734" cx="2.5" cy="2.5" r="2.5" transform="translate(0 22)" fill="#0f58b9"/>
          <circle id="Elipse_4735-2" data-name="Elipse 4735" cx="2.5" cy="2.5" r="2.5" transform="translate(10 11)" fill="#0f58b9"/>
          <circle id="Elipse_4736-2" data-name="Elipse 4736" cx="2.5" cy="2.5" r="2.5" transform="translate(22)" fill="#0f58b9"/>
        </g>
        <g id="Grupo_80180" data-name="Grupo 80180" transform="translate(-7223 -9085)">
          <circle id="Elipse_4734-3" data-name="Elipse 4734" cx="2.5" cy="2.5" r="2.5" transform="translate(22)" fill="#0f58b9"/>
          <circle id="Elipse_4735-3" data-name="Elipse 4735" cx="2.5" cy="2.5" r="2.5" transform="translate(12 11)" fill="#0f58b9"/>
          <circle id="Elipse_4736-3" data-name="Elipse 4736" cx="2.5" cy="2.5" r="2.5" transform="translate(0 22)" fill="#0f58b9"/>
        </g>
        <g id="Grupo_80181" data-name="Grupo 80181" transform="translate(-8223 -12168)">
          <circle id="Elipse_4734-4" data-name="Elipse 4734" cx="2.5" cy="2.5" r="2.5" transform="translate(1068 3105)" fill="#0f58b9"/>
          <circle id="Elipse_4735-4" data-name="Elipse 4735" cx="2.5" cy="2.5" r="2.5" transform="translate(1058 3094)" fill="#0f58b9"/>
          <circle id="Elipse_4736-4" data-name="Elipse 4736" cx="2.5" cy="2.5" r="2.5" transform="translate(1046 3083)" fill="#0f58b9"/>
        </g>
      </g>
      <g id="Grupo_80198" data-name="Grupo 80198" transform="translate(0 5.742)">
        <g id="Grupo_80190" data-name="Grupo 80190" transform="translate(-7261 -9577)">
          <g id="Elipse_4768" data-name="Elipse 4768" transform="translate(0 0.258)" fill="#fff" stroke="#0f58b9" stroke-width="1">
            <circle cx="67.5" cy="67.5" r="67.5" stroke="none"/>
            <circle cx="67.5" cy="67.5" r="67" fill="none"/>
          </g>
        </g>
        <g id="Grupo_80191" data-name="Grupo 80191" transform="translate(-7240.441 -9569.425)">
          <g id="Elipse_4768-2" data-name="Elipse 4768" transform="translate(0.441 -0.317)" fill="#fff" stroke="#0f58b9" stroke-width="1">
            <ellipse cx="22" cy="22.5" rx="22" ry="22.5" stroke="none"/>
            <ellipse cx="22" cy="22.5" rx="21.5" ry="22" fill="none"/>
          </g>
          <ellipse id="Elipse_4769" data-name="Elipse 4769" cx="0.5" cy="1" rx="0.5" ry="1" transform="translate(21.441 4.683)" fill="#0f58b9"/>
          <circle id="Elipse_4770" data-name="Elipse 4770" cx="1" cy="1" r="1" transform="translate(14.441 6.683)" fill="#0f58b9"/>
          <circle id="Elipse_4771" data-name="Elipse 4771" cx="0.5" cy="0.5" r="0.5" transform="translate(9.441 9.683)" fill="#0f58b9"/>
          <ellipse id="Elipse_4772" data-name="Elipse 4772" cx="1" cy="1.5" rx="1" ry="1.5" transform="translate(6.441 13.683)" fill="#0f58b9"/>
          <circle id="Elipse_4773" data-name="Elipse 4773" cx="1" cy="1" r="1" transform="translate(4.441 20.683)" fill="#0f58b9"/>
          <ellipse id="Elipse_4774" data-name="Elipse 4774" cx="1" cy="0.5" rx="1" ry="0.5" transform="translate(5.441 26.683)" fill="#0f58b9"/>
          <ellipse id="Elipse_4775" data-name="Elipse 4775" cx="0.5" cy="1" rx="0.5" ry="1" transform="translate(9.441 32.683)" fill="#0f58b9"/>
          <circle id="Elipse_4776" data-name="Elipse 4776" cx="1" cy="1" r="1" transform="translate(14.441 35.683)" fill="#0f58b9"/>
          <ellipse id="Elipse_4777" data-name="Elipse 4777" cx="0.5" cy="1" rx="0.5" ry="1" transform="translate(21.441 37.683)" fill="#0f58b9"/>
          <ellipse id="Elipse_4778" data-name="Elipse 4778" cx="1.5" cy="1" rx="1.5" ry="1" transform="translate(37.441 20.683)" fill="#0f58b9"/>
          <circle id="Elipse_4779" data-name="Elipse 4779" cx="1" cy="1" r="1" transform="translate(28.441 6.683)" fill="#0f58b9"/>
          <circle id="Elipse_4780" data-name="Elipse 4780" cx="0.5" cy="0.5" r="0.5" transform="translate(33.441 9.683)" fill="#0f58b9"/>
          <circle id="Elipse_4781" data-name="Elipse 4781" cx="1.5" cy="1.5" r="1.5" transform="translate(36.441 13.683)" fill="#0f58b9"/>
          <circle id="Elipse_4782" data-name="Elipse 4782" cx="1" cy="1" r="1" transform="translate(28.441 35.683)" fill="#0f58b9"/>
          <circle id="Elipse_4783" data-name="Elipse 4783" cx="0.5" cy="0.5" r="0.5" transform="translate(33.441 33.683)" fill="#0f58b9"/>
          <ellipse id="Elipse_4784" data-name="Elipse 4784" cx="1" cy="1.5" rx="1" ry="1.5" transform="translate(35.441 27.683)" fill="#0f58b9"/>
          <circle id="Elipse_4785" data-name="Elipse 4785" cx="0.5" cy="0.5" r="0.5" transform="translate(21.441 8.683)" fill="#0f58b9"/>
          <ellipse id="Elipse_4786" data-name="Elipse 4786" cx="0.5" cy="1" rx="0.5" ry="1" transform="translate(16.441 9.683)" fill="#0f58b9"/>
          <circle id="Elipse_4787" data-name="Elipse 4787" cx="1.5" cy="1.5" r="1.5" transform="translate(11.441 13.683)" fill="#0f58b9"/>
          <ellipse id="Elipse_4788" data-name="Elipse 4788" cx="0.5" cy="1" rx="0.5" ry="1" transform="translate(9.441 18.683)" fill="#0f58b9"/>
          <ellipse id="Elipse_4789" data-name="Elipse 4789" cx="0.5" cy="1" rx="0.5" ry="1" transform="translate(9.441 23.683)" fill="#0f58b9"/>
          <circle id="Elipse_4790" data-name="Elipse 4790" cx="1.5" cy="1.5" r="1.5" transform="translate(11.441 27.683)" fill="#0f58b9"/>
          <ellipse id="Elipse_4791" data-name="Elipse 4791" cx="0.5" cy="1" rx="0.5" ry="1" transform="translate(16.441 32.683)" fill="#0f58b9"/>
          <circle id="Elipse_4792" data-name="Elipse 4792" cx="0.5" cy="0.5" r="0.5" transform="translate(21.441 33.683)" fill="#0f58b9"/>
          <ellipse id="Elipse_4793" data-name="Elipse 4793" cx="0.5" cy="1" rx="0.5" ry="1" transform="translate(27.441 32.683)" fill="#0f58b9"/>
          <ellipse id="Elipse_4794" data-name="Elipse 4794" cx="1" cy="1.5" rx="1" ry="1.5" transform="translate(31.441 27.683)" fill="#0f58b9"/>
          <ellipse id="Elipse_4795" data-name="Elipse 4795" cx="0.5" cy="1" rx="0.5" ry="1" transform="translate(34.441 22.683)" fill="#0f58b9"/>
          <ellipse id="Elipse_4796" data-name="Elipse 4796" cx="0.5" cy="1" rx="0.5" ry="1" transform="translate(33.441 18.683)" fill="#0f58b9"/>
          <ellipse id="Elipse_4797" data-name="Elipse 4797" cx="1" cy="1.5" rx="1" ry="1.5" transform="translate(31.441 13.683)" fill="#0f58b9"/>
          <ellipse id="Elipse_4798" data-name="Elipse 4798" cx="0.5" cy="1" rx="0.5" ry="1" transform="translate(27.441 9.683)" fill="#0f58b9"/>
          <g id="Elipse_4799" data-name="Elipse 4799" transform="translate(14.441 13.683)" fill="#fff" stroke="#0f58b9" stroke-width="1">
            <ellipse cx="8" cy="8.5" rx="8" ry="8.5" stroke="none"/>
            <ellipse cx="8" cy="8.5" rx="7.5" ry="8" fill="none"/>
          </g>
        </g>
        <g id="Grupo_80192" data-name="Grupo 80192" transform="translate(-7191.748 -9569.425)">
          <g id="Elipse_4768-3" data-name="Elipse 4768" transform="translate(-0.252 -0.317)" fill="#fff" stroke="#0f58b9" stroke-width="1">
            <circle cx="22.5" cy="22.5" r="22.5" stroke="none"/>
            <circle cx="22.5" cy="22.5" r="22" fill="none"/>
          </g>
          <ellipse id="Elipse_4769-2" data-name="Elipse 4769" cx="0.5" cy="1" rx="0.5" ry="1" transform="translate(21.748 4.683)" fill="#0f58b9"/>
          <circle id="Elipse_4770-2" data-name="Elipse 4770" cx="1" cy="1" r="1" transform="translate(13.748 6.683)" fill="#0f58b9"/>
          <circle id="Elipse_4771-2" data-name="Elipse 4771" cx="0.5" cy="0.5" r="0.5" transform="translate(9.748 9.683)" fill="#0f58b9"/>
          <ellipse id="Elipse_4772-2" data-name="Elipse 4772" cx="1" cy="1.5" rx="1" ry="1.5" transform="translate(6.748 13.683)" fill="#0f58b9"/>
          <circle id="Elipse_4773-2" data-name="Elipse 4773" cx="1" cy="1" r="1" transform="translate(4.748 20.683)" fill="#0f58b9"/>
          <ellipse id="Elipse_4774-2" data-name="Elipse 4774" cx="1" cy="0.5" rx="1" ry="0.5" transform="translate(5.748 26.683)" fill="#0f58b9"/>
          <ellipse id="Elipse_4775-2" data-name="Elipse 4775" cx="0.5" cy="1" rx="0.5" ry="1" transform="translate(9.748 32.683)" fill="#0f58b9"/>
          <circle id="Elipse_4776-2" data-name="Elipse 4776" cx="1" cy="1" r="1" transform="translate(13.748 35.683)" fill="#0f58b9"/>
          <ellipse id="Elipse_4777-2" data-name="Elipse 4777" cx="0.5" cy="1" rx="0.5" ry="1" transform="translate(21.748 37.683)" fill="#0f58b9"/>
          <circle id="Elipse_4778-2" data-name="Elipse 4778" cx="1" cy="1" r="1" transform="translate(37.748 20.683)" fill="#0f58b9"/>
          <ellipse id="Elipse_4779-2" data-name="Elipse 4779" cx="1.5" cy="1" rx="1.5" ry="1" transform="translate(27.748 6.683)" fill="#0f58b9"/>
          <circle id="Elipse_4780-2" data-name="Elipse 4780" cx="0.5" cy="0.5" r="0.5" transform="translate(33.748 9.683)" fill="#0f58b9"/>
          <ellipse id="Elipse_4781-2" data-name="Elipse 4781" cx="1" cy="1.5" rx="1" ry="1.5" transform="translate(36.748 13.683)" fill="#0f58b9"/>
          <ellipse id="Elipse_4782-2" data-name="Elipse 4782" cx="1.5" cy="1" rx="1.5" ry="1" transform="translate(27.748 35.683)" fill="#0f58b9"/>
          <circle id="Elipse_4783-2" data-name="Elipse 4783" cx="0.5" cy="0.5" r="0.5" transform="translate(33.748 33.683)" fill="#0f58b9"/>
          <ellipse id="Elipse_4784-2" data-name="Elipse 4784" cx="1" cy="1.5" rx="1" ry="1.5" transform="translate(35.748 27.683)" fill="#0f58b9"/>
          <circle id="Elipse_4785-2" data-name="Elipse 4785" cx="0.5" cy="0.5" r="0.5" transform="translate(21.748 8.683)" fill="#0f58b9"/>
          <circle id="Elipse_4786-2" data-name="Elipse 4786" cx="1" cy="1" r="1" transform="translate(15.748 9.683)" fill="#0f58b9"/>
          <ellipse id="Elipse_4787-2" data-name="Elipse 4787" cx="1" cy="1.5" rx="1" ry="1.5" transform="translate(11.748 13.683)" fill="#0f58b9"/>
          <ellipse id="Elipse_4788-2" data-name="Elipse 4788" cx="0.5" cy="1" rx="0.5" ry="1" transform="translate(9.748 18.683)" fill="#0f58b9"/>
          <ellipse id="Elipse_4789-2" data-name="Elipse 4789" cx="0.5" cy="1" rx="0.5" ry="1" transform="translate(9.748 23.683)" fill="#0f58b9"/>
          <ellipse id="Elipse_4790-2" data-name="Elipse 4790" cx="1" cy="1.5" rx="1" ry="1.5" transform="translate(11.748 27.683)" fill="#0f58b9"/>
          <circle id="Elipse_4791-2" data-name="Elipse 4791" cx="1" cy="1" r="1" transform="translate(15.748 32.683)" fill="#0f58b9"/>
          <circle id="Elipse_4792-2" data-name="Elipse 4792" cx="0.5" cy="0.5" r="0.5" transform="translate(21.748 33.683)" fill="#0f58b9"/>
          <ellipse id="Elipse_4793-2" data-name="Elipse 4793" cx="0.5" cy="1" rx="0.5" ry="1" transform="translate(26.748 32.683)" fill="#0f58b9"/>
          <ellipse id="Elipse_4794-2" data-name="Elipse 4794" cx="1" cy="1.5" rx="1" ry="1.5" transform="translate(31.748 27.683)" fill="#0f58b9"/>
          <ellipse id="Elipse_4795-2" data-name="Elipse 4795" cx="0.5" cy="1" rx="0.5" ry="1" transform="translate(34.748 22.683)" fill="#0f58b9"/>
          <ellipse id="Elipse_4796-2" data-name="Elipse 4796" cx="0.5" cy="1" rx="0.5" ry="1" transform="translate(33.748 18.683)" fill="#0f58b9"/>
          <ellipse id="Elipse_4797-2" data-name="Elipse 4797" cx="1" cy="1.5" rx="1" ry="1.5" transform="translate(31.748 13.683)" fill="#0f58b9"/>
          <ellipse id="Elipse_4798-2" data-name="Elipse 4798" cx="0.5" cy="1" rx="0.5" ry="1" transform="translate(26.748 9.683)" fill="#0f58b9"/>
          <g id="Elipse_4799-2" data-name="Elipse 4799" transform="translate(13.748 13.683)" fill="#fff" stroke="#0f58b9" stroke-width="1">
            <circle cx="8.5" cy="8.5" r="8.5" stroke="none"/>
            <circle cx="8.5" cy="8.5" r="8" fill="none"/>
          </g>
        </g>
        <g id="Grupo_80193" data-name="Grupo 80193" transform="translate(-7240.441 -9493.681)">
          <g id="Elipse_4768-4" data-name="Elipse 4768" transform="translate(0.441 -0.062)" fill="#fff" stroke="#0f58b9" stroke-width="1">
            <circle cx="22" cy="22" r="22" stroke="none"/>
            <circle cx="22" cy="22" r="21.5" fill="none"/>
          </g>
          <ellipse id="Elipse_4769-3" data-name="Elipse 4769" cx="0.5" cy="1.5" rx="0.5" ry="1.5" transform="translate(21.441 3.938)" fill="#0f58b9"/>
          <circle id="Elipse_4770-3" data-name="Elipse 4770" cx="1" cy="1" r="1" transform="translate(14.441 6.938)" fill="#0f58b9"/>
          <circle id="Elipse_4771-3" data-name="Elipse 4771" cx="0.5" cy="0.5" r="0.5" transform="translate(9.441 9.938)" fill="#0f58b9"/>
          <circle id="Elipse_4772-3" data-name="Elipse 4772" cx="1" cy="1" r="1" transform="translate(6.441 13.938)" fill="#0f58b9"/>
          <circle id="Elipse_4773-3" data-name="Elipse 4773" cx="1" cy="1" r="1" transform="translate(4.441 20.938)" fill="#0f58b9"/>
          <ellipse id="Elipse_4774-3" data-name="Elipse 4774" cx="1" cy="0.5" rx="1" ry="0.5" transform="translate(5.441 26.938)" fill="#0f58b9"/>
          <ellipse id="Elipse_4775-3" data-name="Elipse 4775" cx="0.5" cy="1" rx="0.5" ry="1" transform="translate(9.441 32.938)" fill="#0f58b9"/>
          <circle id="Elipse_4776-3" data-name="Elipse 4776" cx="1" cy="1" r="1" transform="translate(14.441 35.938)" fill="#0f58b9"/>
          <ellipse id="Elipse_4777-3" data-name="Elipse 4777" cx="0.5" cy="1" rx="0.5" ry="1" transform="translate(21.441 37.938)" fill="#0f58b9"/>
          <ellipse id="Elipse_4778-3" data-name="Elipse 4778" cx="1.5" cy="1" rx="1.5" ry="1" transform="translate(37.441 20.938)" fill="#0f58b9"/>
          <circle id="Elipse_4779-3" data-name="Elipse 4779" cx="1" cy="1" r="1" transform="translate(28.441 6.938)" fill="#0f58b9"/>
          <circle id="Elipse_4780-3" data-name="Elipse 4780" cx="0.5" cy="0.5" r="0.5" transform="translate(33.441 9.938)" fill="#0f58b9"/>
          <ellipse id="Elipse_4781-3" data-name="Elipse 4781" cx="1.5" cy="1" rx="1.5" ry="1" transform="translate(36.441 13.938)" fill="#0f58b9"/>
          <circle id="Elipse_4782-3" data-name="Elipse 4782" cx="1" cy="1" r="1" transform="translate(28.441 35.938)" fill="#0f58b9"/>
          <circle id="Elipse_4783-3" data-name="Elipse 4783" cx="0.5" cy="0.5" r="0.5" transform="translate(33.441 33.938)" fill="#0f58b9"/>
          <circle id="Elipse_4784-3" data-name="Elipse 4784" cx="1" cy="1" r="1" transform="translate(35.441 27.938)" fill="#0f58b9"/>
          <circle id="Elipse_4785-3" data-name="Elipse 4785" cx="0.5" cy="0.5" r="0.5" transform="translate(21.441 8.938)" fill="#0f58b9"/>
          <ellipse id="Elipse_4786-3" data-name="Elipse 4786" cx="0.5" cy="1" rx="0.5" ry="1" transform="translate(16.441 9.938)" fill="#0f58b9"/>
          <ellipse id="Elipse_4787-3" data-name="Elipse 4787" cx="1.5" cy="1" rx="1.5" ry="1" transform="translate(11.441 13.938)" fill="#0f58b9"/>
          <ellipse id="Elipse_4788-3" data-name="Elipse 4788" cx="0.5" cy="1.5" rx="0.5" ry="1.5" transform="translate(9.441 17.938)" fill="#0f58b9"/>
          <ellipse id="Elipse_4789-3" data-name="Elipse 4789" cx="0.5" cy="1" rx="0.5" ry="1" transform="translate(9.441 23.938)" fill="#0f58b9"/>
          <ellipse id="Elipse_4790-3" data-name="Elipse 4790" cx="1.5" cy="1" rx="1.5" ry="1" transform="translate(11.441 27.938)" fill="#0f58b9"/>
          <ellipse id="Elipse_4791-3" data-name="Elipse 4791" cx="0.5" cy="1" rx="0.5" ry="1" transform="translate(16.441 32.938)" fill="#0f58b9"/>
          <circle id="Elipse_4792-3" data-name="Elipse 4792" cx="0.5" cy="0.5" r="0.5" transform="translate(21.441 33.938)" fill="#0f58b9"/>
          <ellipse id="Elipse_4793-3" data-name="Elipse 4793" cx="0.5" cy="1" rx="0.5" ry="1" transform="translate(27.441 32.938)" fill="#0f58b9"/>
          <circle id="Elipse_4794-3" data-name="Elipse 4794" cx="1" cy="1" r="1" transform="translate(31.441 27.938)" fill="#0f58b9"/>
          <ellipse id="Elipse_4795-3" data-name="Elipse 4795" cx="0.5" cy="1" rx="0.5" ry="1" transform="translate(34.441 22.938)" fill="#0f58b9"/>
          <ellipse id="Elipse_4796-3" data-name="Elipse 4796" cx="0.5" cy="1.5" rx="0.5" ry="1.5" transform="translate(33.441 17.938)" fill="#0f58b9"/>
          <circle id="Elipse_4797-3" data-name="Elipse 4797" cx="1" cy="1" r="1" transform="translate(31.441 13.938)" fill="#0f58b9"/>
          <ellipse id="Elipse_4798-3" data-name="Elipse 4798" cx="0.5" cy="1" rx="0.5" ry="1" transform="translate(27.441 9.938)" fill="#0f58b9"/>
          <g id="Elipse_4799-3" data-name="Elipse 4799" transform="translate(14.441 13.938)" fill="#fff" stroke="#0f58b9" stroke-width="1">
            <circle cx="8" cy="8" r="8" stroke="none"/>
            <circle cx="8" cy="8" r="7.5" fill="none"/>
          </g>
        </g>
        <g id="Grupo_80194" data-name="Grupo 80194" transform="translate(-7191.748 -9493.681)">
          <g id="Elipse_4768-5" data-name="Elipse 4768" transform="translate(-0.252 -0.062)" fill="#fff" stroke="#0f58b9" stroke-width="1">
            <ellipse cx="22.5" cy="22" rx="22.5" ry="22" stroke="none"/>
            <ellipse cx="22.5" cy="22" rx="22" ry="21.5" fill="none"/>
          </g>
          <ellipse id="Elipse_4769-4" data-name="Elipse 4769" cx="0.5" cy="1.5" rx="0.5" ry="1.5" transform="translate(21.748 3.938)" fill="#0f58b9"/>
          <circle id="Elipse_4770-4" data-name="Elipse 4770" cx="1" cy="1" r="1" transform="translate(13.748 6.938)" fill="#0f58b9"/>
          <circle id="Elipse_4771-4" data-name="Elipse 4771" cx="0.5" cy="0.5" r="0.5" transform="translate(9.748 9.938)" fill="#0f58b9"/>
          <circle id="Elipse_4772-4" data-name="Elipse 4772" cx="1" cy="1" r="1" transform="translate(6.748 13.938)" fill="#0f58b9"/>
          <circle id="Elipse_4773-4" data-name="Elipse 4773" cx="1" cy="1" r="1" transform="translate(4.748 20.938)" fill="#0f58b9"/>
          <ellipse id="Elipse_4774-4" data-name="Elipse 4774" cx="1" cy="0.5" rx="1" ry="0.5" transform="translate(5.748 26.938)" fill="#0f58b9"/>
          <ellipse id="Elipse_4775-4" data-name="Elipse 4775" cx="0.5" cy="1" rx="0.5" ry="1" transform="translate(9.748 32.938)" fill="#0f58b9"/>
          <circle id="Elipse_4776-4" data-name="Elipse 4776" cx="1" cy="1" r="1" transform="translate(13.748 35.938)" fill="#0f58b9"/>
          <ellipse id="Elipse_4777-4" data-name="Elipse 4777" cx="0.5" cy="1" rx="0.5" ry="1" transform="translate(21.748 37.938)" fill="#0f58b9"/>
          <circle id="Elipse_4778-4" data-name="Elipse 4778" cx="1" cy="1" r="1" transform="translate(37.748 20.938)" fill="#0f58b9"/>
          <ellipse id="Elipse_4779-4" data-name="Elipse 4779" cx="1.5" cy="1" rx="1.5" ry="1" transform="translate(27.748 6.938)" fill="#0f58b9"/>
          <circle id="Elipse_4780-4" data-name="Elipse 4780" cx="0.5" cy="0.5" r="0.5" transform="translate(33.748 9.938)" fill="#0f58b9"/>
          <circle id="Elipse_4781-4" data-name="Elipse 4781" cx="1" cy="1" r="1" transform="translate(36.748 13.938)" fill="#0f58b9"/>
          <ellipse id="Elipse_4782-4" data-name="Elipse 4782" cx="1.5" cy="1" rx="1.5" ry="1" transform="translate(27.748 35.938)" fill="#0f58b9"/>
          <circle id="Elipse_4783-4" data-name="Elipse 4783" cx="0.5" cy="0.5" r="0.5" transform="translate(33.748 33.938)" fill="#0f58b9"/>
          <circle id="Elipse_4784-4" data-name="Elipse 4784" cx="1" cy="1" r="1" transform="translate(35.748 27.938)" fill="#0f58b9"/>
          <circle id="Elipse_4785-4" data-name="Elipse 4785" cx="0.5" cy="0.5" r="0.5" transform="translate(21.748 8.938)" fill="#0f58b9"/>
          <circle id="Elipse_4786-4" data-name="Elipse 4786" cx="1" cy="1" r="1" transform="translate(15.748 9.938)" fill="#0f58b9"/>
          <circle id="Elipse_4787-4" data-name="Elipse 4787" cx="1" cy="1" r="1" transform="translate(11.748 13.938)" fill="#0f58b9"/>
          <ellipse id="Elipse_4788-4" data-name="Elipse 4788" cx="0.5" cy="1.5" rx="0.5" ry="1.5" transform="translate(9.748 17.938)" fill="#0f58b9"/>
          <ellipse id="Elipse_4789-4" data-name="Elipse 4789" cx="0.5" cy="1" rx="0.5" ry="1" transform="translate(9.748 23.938)" fill="#0f58b9"/>
          <circle id="Elipse_4790-4" data-name="Elipse 4790" cx="1" cy="1" r="1" transform="translate(11.748 27.938)" fill="#0f58b9"/>
          <circle id="Elipse_4791-4" data-name="Elipse 4791" cx="1" cy="1" r="1" transform="translate(15.748 32.938)" fill="#0f58b9"/>
          <circle id="Elipse_4792-4" data-name="Elipse 4792" cx="0.5" cy="0.5" r="0.5" transform="translate(21.748 33.938)" fill="#0f58b9"/>
          <ellipse id="Elipse_4793-4" data-name="Elipse 4793" cx="0.5" cy="1" rx="0.5" ry="1" transform="translate(26.748 32.938)" fill="#0f58b9"/>
          <circle id="Elipse_4794-4" data-name="Elipse 4794" cx="1" cy="1" r="1" transform="translate(31.748 27.938)" fill="#0f58b9"/>
          <ellipse id="Elipse_4795-4" data-name="Elipse 4795" cx="0.5" cy="1" rx="0.5" ry="1" transform="translate(34.748 22.938)" fill="#0f58b9"/>
          <ellipse id="Elipse_4796-4" data-name="Elipse 4796" cx="0.5" cy="1.5" rx="0.5" ry="1.5" transform="translate(33.748 17.938)" fill="#0f58b9"/>
          <circle id="Elipse_4797-4" data-name="Elipse 4797" cx="1" cy="1" r="1" transform="translate(31.748 13.938)" fill="#0f58b9"/>
          <ellipse id="Elipse_4798-4" data-name="Elipse 4798" cx="0.5" cy="1" rx="0.5" ry="1" transform="translate(26.748 9.938)" fill="#0f58b9"/>
          <g id="Elipse_4799-4" data-name="Elipse 4799" transform="translate(13.748 13.938)" fill="#fff" stroke="#0f58b9" stroke-width="1">
            <ellipse cx="8.5" cy="8" rx="8.5" ry="8" stroke="none"/>
            <ellipse cx="8.5" cy="8" rx="8" ry="7.5" fill="none"/>
          </g>
        </g>
        <g id="Grupo_80195" data-name="Grupo 80195" transform="translate(-7215.553 -9531.553)">
          <g id="Elipse_4768-6" data-name="Elipse 4768" transform="translate(-0.447 -0.189)" fill="#fff" stroke="#0f58b9" stroke-width="1">
            <circle cx="22.5" cy="22.5" r="22.5" stroke="none"/>
            <circle cx="22.5" cy="22.5" r="22" fill="none"/>
          </g>
          <ellipse id="Elipse_4769-5" data-name="Elipse 4769" cx="0.5" cy="1" rx="0.5" ry="1" transform="translate(21.553 4.811)" fill="#0f58b9"/>
          <circle id="Elipse_4770-5" data-name="Elipse 4770" cx="1" cy="1" r="1" transform="translate(14.553 6.811)" fill="#0f58b9"/>
          <circle id="Elipse_4771-5" data-name="Elipse 4771" cx="0.5" cy="0.5" r="0.5" transform="translate(9.553 9.811)" fill="#0f58b9"/>
          <circle id="Elipse_4772-5" data-name="Elipse 4772" cx="1" cy="1" r="1" transform="translate(6.553 13.811)" fill="#0f58b9"/>
          <circle id="Elipse_4773-5" data-name="Elipse 4773" cx="1" cy="1" r="1" transform="translate(4.553 20.811)" fill="#0f58b9"/>
          <ellipse id="Elipse_4774-5" data-name="Elipse 4774" cx="1" cy="0.5" rx="1" ry="0.5" transform="translate(5.553 26.811)" fill="#0f58b9"/>
          <ellipse id="Elipse_4775-5" data-name="Elipse 4775" cx="0.5" cy="1" rx="0.5" ry="1" transform="translate(9.553 32.811)" fill="#0f58b9"/>
          <circle id="Elipse_4776-5" data-name="Elipse 4776" cx="1" cy="1" r="1" transform="translate(14.553 35.811)" fill="#0f58b9"/>
          <ellipse id="Elipse_4777-5" data-name="Elipse 4777" cx="0.5" cy="1" rx="0.5" ry="1" transform="translate(21.553 37.811)" fill="#0f58b9"/>
          <circle id="Elipse_4778-5" data-name="Elipse 4778" cx="1" cy="1" r="1" transform="translate(37.553 20.811)" fill="#0f58b9"/>
          <circle id="Elipse_4779-5" data-name="Elipse 4779" cx="1" cy="1" r="1" transform="translate(28.553 6.811)" fill="#0f58b9"/>
          <circle id="Elipse_4780-5" data-name="Elipse 4780" cx="0.5" cy="0.5" r="0.5" transform="translate(33.553 9.811)" fill="#0f58b9"/>
          <circle id="Elipse_4781-5" data-name="Elipse 4781" cx="1" cy="1" r="1" transform="translate(36.553 13.811)" fill="#0f58b9"/>
          <circle id="Elipse_4782-5" data-name="Elipse 4782" cx="1" cy="1" r="1" transform="translate(28.553 35.811)" fill="#0f58b9"/>
          <circle id="Elipse_4783-5" data-name="Elipse 4783" cx="0.5" cy="0.5" r="0.5" transform="translate(33.553 33.811)" fill="#0f58b9"/>
          <circle id="Elipse_4784-5" data-name="Elipse 4784" cx="1" cy="1" r="1" transform="translate(35.553 27.811)" fill="#0f58b9"/>
          <circle id="Elipse_4785-5" data-name="Elipse 4785" cx="0.5" cy="0.5" r="0.5" transform="translate(21.553 8.811)" fill="#0f58b9"/>
          <ellipse id="Elipse_4786-5" data-name="Elipse 4786" cx="0.5" cy="1" rx="0.5" ry="1" transform="translate(16.553 9.811)" fill="#0f58b9"/>
          <ellipse id="Elipse_4787-5" data-name="Elipse 4787" cx="1.5" cy="1" rx="1.5" ry="1" transform="translate(11.553 13.811)" fill="#0f58b9"/>
          <ellipse id="Elipse_4788-5" data-name="Elipse 4788" cx="0.5" cy="1" rx="0.5" ry="1" transform="translate(9.553 18.811)" fill="#0f58b9"/>
          <ellipse id="Elipse_4789-5" data-name="Elipse 4789" cx="0.5" cy="1" rx="0.5" ry="1" transform="translate(9.553 23.811)" fill="#0f58b9"/>
          <ellipse id="Elipse_4790-5" data-name="Elipse 4790" cx="1.5" cy="1" rx="1.5" ry="1" transform="translate(11.553 27.811)" fill="#0f58b9"/>
          <ellipse id="Elipse_4791-5" data-name="Elipse 4791" cx="0.5" cy="1" rx="0.5" ry="1" transform="translate(16.553 32.811)" fill="#0f58b9"/>
          <circle id="Elipse_4792-5" data-name="Elipse 4792" cx="0.5" cy="0.5" r="0.5" transform="translate(21.553 33.811)" fill="#0f58b9"/>
          <circle id="Elipse_4793-5" data-name="Elipse 4793" cx="1" cy="1" r="1" transform="translate(26.553 32.811)" fill="#0f58b9"/>
          <circle id="Elipse_4794-5" data-name="Elipse 4794" cx="1" cy="1" r="1" transform="translate(31.553 27.811)" fill="#0f58b9"/>
          <ellipse id="Elipse_4795-5" data-name="Elipse 4795" cx="0.5" cy="1" rx="0.5" ry="1" transform="translate(34.553 22.811)" fill="#0f58b9"/>
          <ellipse id="Elipse_4796-5" data-name="Elipse 4796" cx="0.5" cy="1" rx="0.5" ry="1" transform="translate(33.553 18.811)" fill="#0f58b9"/>
          <circle id="Elipse_4797-5" data-name="Elipse 4797" cx="1" cy="1" r="1" transform="translate(31.553 13.811)" fill="#0f58b9"/>
          <circle id="Elipse_4798-5" data-name="Elipse 4798" cx="1" cy="1" r="1" transform="translate(26.553 9.811)" fill="#0f58b9"/>
          <g id="Elipse_4799-5" data-name="Elipse 4799" transform="translate(14.553 13.811)" fill="#fff" stroke="#0f58b9" stroke-width="1">
            <circle cx="8" cy="8" r="8" stroke="none"/>
            <circle cx="8" cy="8" r="7.5" fill="none"/>
          </g>
        </g>
        <g id="Grupo_80196" data-name="Grupo 80196" transform="translate(-7261 -9531.553)">
          <g id="Elipse_4768-7" data-name="Elipse 4768" transform="translate(0 -0.189)" fill="#fff" stroke="#0f58b9" stroke-width="1">
            <ellipse cx="22" cy="22.5" rx="22" ry="22.5" stroke="none"/>
            <ellipse cx="22" cy="22.5" rx="21.5" ry="22" fill="none"/>
          </g>
          <ellipse id="Elipse_4769-6" data-name="Elipse 4769" cx="0.5" cy="1" rx="0.5" ry="1" transform="translate(22 4.811)" fill="#0f58b9"/>
          <circle id="Elipse_4770-6" data-name="Elipse 4770" cx="1" cy="1" r="1" transform="translate(14 6.811)" fill="#0f58b9"/>
          <circle id="Elipse_4771-6" data-name="Elipse 4771" cx="0.5" cy="0.5" r="0.5" transform="translate(10 9.811)" fill="#0f58b9"/>
          <ellipse id="Elipse_4772-6" data-name="Elipse 4772" cx="1.5" cy="1" rx="1.5" ry="1" transform="translate(6 13.811)" fill="#0f58b9"/>
          <circle id="Elipse_4773-6" data-name="Elipse 4773" cx="1" cy="1" r="1" transform="translate(4 20.811)" fill="#0f58b9"/>
          <ellipse id="Elipse_4774-6" data-name="Elipse 4774" cx="1.5" cy="0.5" rx="1.5" ry="0.5" transform="translate(5 26.811)" fill="#0f58b9"/>
          <ellipse id="Elipse_4775-6" data-name="Elipse 4775" cx="0.5" cy="1" rx="0.5" ry="1" transform="translate(10 32.811)" fill="#0f58b9"/>
          <circle id="Elipse_4776-6" data-name="Elipse 4776" cx="1" cy="1" r="1" transform="translate(14 35.811)" fill="#0f58b9"/>
          <ellipse id="Elipse_4777-6" data-name="Elipse 4777" cx="0.5" cy="1" rx="0.5" ry="1" transform="translate(22 37.811)" fill="#0f58b9"/>
          <circle id="Elipse_4778-6" data-name="Elipse 4778" cx="1" cy="1" r="1" transform="translate(38 20.811)" fill="#0f58b9"/>
          <circle id="Elipse_4779-6" data-name="Elipse 4779" cx="1" cy="1" r="1" transform="translate(28 6.811)" fill="#0f58b9"/>
          <circle id="Elipse_4780-6" data-name="Elipse 4780" cx="0.5" cy="0.5" r="0.5" transform="translate(34 9.811)" fill="#0f58b9"/>
          <circle id="Elipse_4781-6" data-name="Elipse 4781" cx="1" cy="1" r="1" transform="translate(37 13.811)" fill="#0f58b9"/>
          <circle id="Elipse_4782-6" data-name="Elipse 4782" cx="1" cy="1" r="1" transform="translate(28 35.811)" fill="#0f58b9"/>
          <circle id="Elipse_4783-6" data-name="Elipse 4783" cx="0.5" cy="0.5" r="0.5" transform="translate(34 33.811)" fill="#0f58b9"/>
          <circle id="Elipse_4784-6" data-name="Elipse 4784" cx="1" cy="1" r="1" transform="translate(36 27.811)" fill="#0f58b9"/>
          <circle id="Elipse_4785-6" data-name="Elipse 4785" cx="0.5" cy="0.5" r="0.5" transform="translate(22 8.811)" fill="#0f58b9"/>
          <ellipse id="Elipse_4786-6" data-name="Elipse 4786" cx="0.5" cy="1" rx="0.5" ry="1" transform="translate(16 9.811)" fill="#0f58b9"/>
          <circle id="Elipse_4787-6" data-name="Elipse 4787" cx="1" cy="1" r="1" transform="translate(12 13.811)" fill="#0f58b9"/>
          <ellipse id="Elipse_4788-6" data-name="Elipse 4788" cx="0.5" cy="1" rx="0.5" ry="1" transform="translate(10 18.811)" fill="#0f58b9"/>
          <ellipse id="Elipse_4789-6" data-name="Elipse 4789" cx="0.5" cy="1" rx="0.5" ry="1" transform="translate(10 23.811)" fill="#0f58b9"/>
          <circle id="Elipse_4790-6" data-name="Elipse 4790" cx="1" cy="1" r="1" transform="translate(12 27.811)" fill="#0f58b9"/>
          <ellipse id="Elipse_4791-6" data-name="Elipse 4791" cx="0.5" cy="1" rx="0.5" ry="1" transform="translate(16 32.811)" fill="#0f58b9"/>
          <circle id="Elipse_4792-6" data-name="Elipse 4792" cx="0.5" cy="0.5" r="0.5" transform="translate(22 33.811)" fill="#0f58b9"/>
          <ellipse id="Elipse_4793-6" data-name="Elipse 4793" cx="0.5" cy="1" rx="0.5" ry="1" transform="translate(27 32.811)" fill="#0f58b9"/>
          <ellipse id="Elipse_4794-6" data-name="Elipse 4794" cx="1.5" cy="1" rx="1.5" ry="1" transform="translate(31 27.811)" fill="#0f58b9"/>
          <ellipse id="Elipse_4795-6" data-name="Elipse 4795" cx="0.5" cy="1" rx="0.5" ry="1" transform="translate(35 22.811)" fill="#0f58b9"/>
          <ellipse id="Elipse_4796-6" data-name="Elipse 4796" cx="0.5" cy="1" rx="0.5" ry="1" transform="translate(34 18.811)" fill="#0f58b9"/>
          <ellipse id="Elipse_4797-6" data-name="Elipse 4797" cx="1.5" cy="1" rx="1.5" ry="1" transform="translate(31 13.811)" fill="#0f58b9"/>
          <ellipse id="Elipse_4798-6" data-name="Elipse 4798" cx="0.5" cy="1" rx="0.5" ry="1" transform="translate(27 9.811)" fill="#0f58b9"/>
          <g id="Elipse_4799-6" data-name="Elipse 4799" transform="translate(14 13.811)" fill="#fff" stroke="#0f58b9" stroke-width="1">
            <circle cx="8" cy="8" r="8" stroke="none"/>
            <circle cx="8" cy="8" r="7.5" fill="none"/>
          </g>
        </g>
        <g id="Grupo_80197" data-name="Grupo 80197" transform="translate(-7170.107 -9531.553)">
          <g id="Elipse_4768-8" data-name="Elipse 4768" transform="translate(0.107 -0.189)" fill="#fff" stroke="#0f58b9" stroke-width="1">
            <ellipse cx="22" cy="22.5" rx="22" ry="22.5" stroke="none"/>
            <ellipse cx="22" cy="22.5" rx="21.5" ry="22" fill="none"/>
          </g>
          <ellipse id="Elipse_4769-7" data-name="Elipse 4769" cx="0.5" cy="1" rx="0.5" ry="1" transform="translate(22.107 4.811)" fill="#0f58b9"/>
          <circle id="Elipse_4770-7" data-name="Elipse 4770" cx="1" cy="1" r="1" transform="translate(14.107 6.811)" fill="#0f58b9"/>
          <circle id="Elipse_4771-7" data-name="Elipse 4771" cx="0.5" cy="0.5" r="0.5" transform="translate(10.107 9.811)" fill="#0f58b9"/>
          <ellipse id="Elipse_4772-7" data-name="Elipse 4772" cx="1.5" cy="1" rx="1.5" ry="1" transform="translate(6.107 13.811)" fill="#0f58b9"/>
          <circle id="Elipse_4773-7" data-name="Elipse 4773" cx="1" cy="1" r="1" transform="translate(4.107 20.811)" fill="#0f58b9"/>
          <ellipse id="Elipse_4774-7" data-name="Elipse 4774" cx="1" cy="0.5" rx="1" ry="0.5" transform="translate(5.107 26.811)" fill="#0f58b9"/>
          <ellipse id="Elipse_4775-7" data-name="Elipse 4775" cx="0.5" cy="1" rx="0.5" ry="1" transform="translate(10.107 32.811)" fill="#0f58b9"/>
          <circle id="Elipse_4776-7" data-name="Elipse 4776" cx="1" cy="1" r="1" transform="translate(14.107 35.811)" fill="#0f58b9"/>
          <ellipse id="Elipse_4777-7" data-name="Elipse 4777" cx="0.5" cy="1" rx="0.5" ry="1" transform="translate(22.107 37.811)" fill="#0f58b9"/>
          <circle id="Elipse_4778-7" data-name="Elipse 4778" cx="1" cy="1" r="1" transform="translate(38.107 20.811)" fill="#0f58b9"/>
          <circle id="Elipse_4779-7" data-name="Elipse 4779" cx="1" cy="1" r="1" transform="translate(28.107 6.811)" fill="#0f58b9"/>
          <ellipse id="Elipse_4780-7" data-name="Elipse 4780" cx="1" cy="0.5" rx="1" ry="0.5" transform="translate(33.107 9.811)" fill="#0f58b9"/>
          <circle id="Elipse_4781-7" data-name="Elipse 4781" cx="1" cy="1" r="1" transform="translate(37.107 13.811)" fill="#0f58b9"/>
          <circle id="Elipse_4782-7" data-name="Elipse 4782" cx="1" cy="1" r="1" transform="translate(28.107 35.811)" fill="#0f58b9"/>
          <ellipse id="Elipse_4783-7" data-name="Elipse 4783" cx="1" cy="0.5" rx="1" ry="0.5" transform="translate(33.107 33.811)" fill="#0f58b9"/>
          <circle id="Elipse_4784-7" data-name="Elipse 4784" cx="1" cy="1" r="1" transform="translate(36.107 27.811)" fill="#0f58b9"/>
          <circle id="Elipse_4785-7" data-name="Elipse 4785" cx="0.5" cy="0.5" r="0.5" transform="translate(22.107 8.811)" fill="#0f58b9"/>
          <ellipse id="Elipse_4786-7" data-name="Elipse 4786" cx="0.5" cy="1" rx="0.5" ry="1" transform="translate(16.107 9.811)" fill="#0f58b9"/>
          <circle id="Elipse_4787-7" data-name="Elipse 4787" cx="1" cy="1" r="1" transform="translate(12.107 13.811)" fill="#0f58b9"/>
          <ellipse id="Elipse_4788-7" data-name="Elipse 4788" cx="0.5" cy="1" rx="0.5" ry="1" transform="translate(10.107 18.811)" fill="#0f58b9"/>
          <ellipse id="Elipse_4789-7" data-name="Elipse 4789" cx="0.5" cy="1" rx="0.5" ry="1" transform="translate(10.107 23.811)" fill="#0f58b9"/>
          <circle id="Elipse_4790-7" data-name="Elipse 4790" cx="1" cy="1" r="1" transform="translate(12.107 27.811)" fill="#0f58b9"/>
          <ellipse id="Elipse_4791-7" data-name="Elipse 4791" cx="0.5" cy="1" rx="0.5" ry="1" transform="translate(16.107 32.811)" fill="#0f58b9"/>
          <circle id="Elipse_4792-7" data-name="Elipse 4792" cx="0.5" cy="0.5" r="0.5" transform="translate(22.107 33.811)" fill="#0f58b9"/>
          <ellipse id="Elipse_4793-7" data-name="Elipse 4793" cx="0.5" cy="1" rx="0.5" ry="1" transform="translate(27.107 32.811)" fill="#0f58b9"/>
          <circle id="Elipse_4794-7" data-name="Elipse 4794" cx="1" cy="1" r="1" transform="translate(31.107 27.811)" fill="#0f58b9"/>
          <ellipse id="Elipse_4795-7" data-name="Elipse 4795" cx="0.5" cy="1" rx="0.5" ry="1" transform="translate(35.107 22.811)" fill="#0f58b9"/>
          <circle id="Elipse_4796-7" data-name="Elipse 4796" cx="1" cy="1" r="1" transform="translate(33.107 18.811)" fill="#0f58b9"/>
          <circle id="Elipse_4797-7" data-name="Elipse 4797" cx="1" cy="1" r="1" transform="translate(31.107 13.811)" fill="#0f58b9"/>
          <ellipse id="Elipse_4798-7" data-name="Elipse 4798" cx="0.5" cy="1" rx="0.5" ry="1" transform="translate(27.107 9.811)" fill="#0f58b9"/>
          <g id="Elipse_4799-7" data-name="Elipse 4799" transform="translate(14.107 13.811)" fill="#fff" stroke="#0f58b9" stroke-width="1">
            <circle cx="8" cy="8" r="8" stroke="none"/>
            <circle cx="8" cy="8" r="7.5" fill="none"/>
          </g>
        </g>
      </g>
      <text id="_" data-name="…………………………………………………" transform="translate(-7404 -9570)" fill="red" font-size="16" font-family="Roboto-Regular, Roboto"><tspan x="0" y="0">…………………………………………………</tspan></text>
      <text id="_2" data-name="…………………………………………………" transform="translate(-7404 -9435)" fill="red" font-size="16" font-family="Roboto-Regular, Roboto"><tspan x="0" y="0">…………………………………………………</tspan></text>
    </g>
  </g>
</svg>
