<svg xmlns="http://www.w3.org/2000/svg" width="92" height="92" viewBox="0 0 92 92">
  <g id="Grupo_152217" data-name="Grupo 152217" transform="translate(-791.295 -2749)">
    <g id="Grupo_151967" data-name="Grupo 151967">
      <circle id="Elipse_4870" data-name="Elipse 4870" cx="46" cy="46" r="46" transform="translate(791.295 2749)" fill="#2e0877"/>
      <path id="Trazado_120669" data-name="Trazado 120669" d="M10.305-8.289A8.805,8.805,0,0,1,7.34-1.965,10.413,10.413,0,0,1,.291.342,9.364,9.364,0,0,1-7.238-2.88Q-9.98-6.1-9.98-11.724v-1.521a14.916,14.916,0,0,1,1.265-6.323,9.477,9.477,0,0,1,3.615-4.2,10.125,10.125,0,0,1,5.46-1.461A10.144,10.144,0,0,1,7.3-22.917a9.462,9.462,0,0,1,3.042,6.477H5.212a5.2,5.2,0,0,0-1.342-3.495A4.968,4.968,0,0,0,.359-21.021a4.356,4.356,0,0,0-3.837,1.837q-1.273,1.837-1.307,5.7v1.88q0,4.033,1.222,5.9A4.275,4.275,0,0,0,.291-3.845,5.062,5.062,0,0,0,3.837-4.93,4.9,4.9,0,0,0,5.178-8.289Z" transform="translate(837.295 2804)" fill="#fff"/>
    </g>
  </g>
</svg>
