<svg xmlns="http://www.w3.org/2000/svg" width="739.388" height="352.476" viewBox="0 0 739.388 352.476">
  <g id="Grupo_152220" data-name="Grupo 152220" transform="translate(-411.793 -3991)">
    <path id="Trazado_119790" data-name="Trazado 119790" d="M-5201-7619h650" transform="translate(5676 11649)" fill="none" stroke="#12263f" stroke-width="1"/>
    <g id="Elipse_4809" data-name="Elipse 4809" transform="translate(856 3991)" fill="#dccbff" stroke="#2e0877" stroke-width="1">
      <circle cx="13.5" cy="13.5" r="13.5" stroke="none"/>
      <circle cx="13.5" cy="13.5" r="13" fill="none"/>
    </g>
    <path id="Trazado_121587" data-name="Trazado 121587" d="M.516-4.289A5.094,5.094,0,0,1,1.4-7.437,2.877,2.877,0,0,1,3.828-8.609a2.589,2.589,0,0,1,2.039.922V-12H8.133V0H6.094L5.984-.9A2.657,2.657,0,0,1,3.813.156,2.869,2.869,0,0,1,1.418-1.02,5.258,5.258,0,0,1,.516-4.289Zm2.258.168A3.337,3.337,0,0,0,3.188-2.3a1.349,1.349,0,0,0,1.2.634,1.511,1.511,0,0,0,1.477-.884V-5.889a1.489,1.489,0,0,0-1.461-.884Q2.773-6.773,2.773-4.121Z" transform="translate(864 4009)" fill="#12263f"/>
    <path id="Trazado_119791" data-name="Trazado 119791" d="M-5201-7619h440" transform="translate(5676 11705)" fill="none" stroke="#12263f" stroke-width="1"/>
    <g id="Elipse_4810" data-name="Elipse 4810" transform="translate(705 4051)" fill="#dccbff" stroke="#2e0877" stroke-width="1">
      <circle cx="13.5" cy="13.5" r="13.5" stroke="none"/>
      <circle cx="13.5" cy="13.5" r="13" fill="none"/>
    </g>
    <path id="Trazado_121588" data-name="Trazado 121588" d="M4.086-5.93,5.508-8.453H7.922L5.516-4.312,8.023,0H5.6L4.094-2.656,2.594,0H.164L2.672-4.312.273-8.453H2.7Z" transform="translate(715 4069)" fill="#12263f"/>
    <path id="Trazado_119792" data-name="Trazado 119792" d="M-5201-7619h650" transform="translate(5676 11752.004)" fill="none" stroke="#12263f" stroke-width="1"/>
    <g id="Elipse_4811" data-name="Elipse 4811" transform="translate(868 4120)" fill="#fff" stroke="#2e0877" stroke-width="1">
      <circle cx="13.5" cy="13.5" r="13.5" stroke="none"/>
      <circle cx="13.5" cy="13.5" r="13" fill="none"/>
    </g>
    <path id="Trazado_121589" data-name="Trazado 121589" d="M3.25,0H.984V-8.453H3.25ZM.852-10.641a1.112,1.112,0,0,1,.34-.836,1.277,1.277,0,0,1,.926-.328,1.28,1.28,0,0,1,.922.328,1.105,1.105,0,0,1,.344.836,1.108,1.108,0,0,1-.348.844,1.283,1.283,0,0,1-.918.328A1.283,1.283,0,0,1,1.2-9.8,1.108,1.108,0,0,1,.852-10.641Z" transform="translate(879 4138)" fill="#12263f"/>
    <path id="Trazado_119793" data-name="Trazado 119793" d="M-5201-7502v172.6" transform="translate(5676 11635.5)" fill="none" stroke="#12263f" stroke-width="1"/>
    <path id="Trazado_119794" data-name="Trazado 119794" d="M-5201-7502v94.526" transform="translate(6326 11635.237)" fill="none" stroke="#12263f" stroke-width="1"/>
    <path id="Trazado_119795" data-name="Trazado 119795" d="M-5201-7619h440" transform="translate(5676 11800.004)" fill="none" stroke="#12263f" stroke-width="1"/>
    <g id="Elipse_4812" data-name="Elipse 4812" transform="translate(629 4167)" fill="#fff" stroke="#2e0877" stroke-width="1">
      <circle cx="13.5" cy="13.5" r="13.5" stroke="none"/>
      <circle cx="13.5" cy="13.5" r="13" fill="none"/>
    </g>
    <path id="Trazado_121590" data-name="Trazado 121590" d="M4.031-2.758l1.57-5.7H7.961L5.109,0H2.953L.1-8.453H2.461Z" transform="translate(639 4185)" fill="#12263f"/>
    <path id="Trazado_119796" data-name="Trazado 119796" d="M-5201-7502v60.526" transform="translate(6116 11683)" fill="none" stroke="#12263f" stroke-width="1"/>
    <path id="Polígono_14" data-name="Polígono 14" d="M9,0l9,15H0Z" transform="translate(475 4038.992) rotate(-90)" fill="#12263f"/>
    <path id="Polígono_15" data-name="Polígono 15" d="M9,0l9,15H0Z" transform="translate(1125 4020.992) rotate(90)" fill="#12263f"/>
    <path id="Polígono_16" data-name="Polígono 16" d="M9,0l9,15H0Z" transform="translate(475 4095) rotate(-90)" fill="#12263f"/>
    <path id="Polígono_17" data-name="Polígono 17" d="M9,0l9,15H0Z" transform="translate(922.5 4076.996) rotate(90)" fill="#12263f"/>
    <path id="Polígono_18" data-name="Polígono 18" d="M9,0l9,15H0Z" transform="translate(475 4190) rotate(-90)" fill="#12263f"/>
    <path id="Trazado_119797" data-name="Trazado 119797" d="M-5201-7619h694.736" transform="translate(5657.445 11861.004)" fill="none" stroke="#12263f" stroke-width="1"/>
    <path id="Polígono_19" data-name="Polígono 19" d="M9,0l9,15H0Z" transform="translate(925 4243) rotate(180)" fill="#12263f"/>
    <path id="Polígono_20" data-name="Polígono 20" d="M9,0l9,15H0Z" transform="translate(1134 4235) rotate(180)" fill="#12263f"/>
    <path id="Polígono_21" data-name="Polígono 21" d="M9,0l9,15H0Z" transform="translate(475 4141) rotate(-90)" fill="#12263f"/>
    <g id="Grupo_151738" data-name="Grupo 151738" transform="translate(-15.495 -101.942)">
      <path id="Trazado_119798" data-name="Trazado 119798" d="M-5178.009-7301.346h-69.5l55.32-55.32h67.995l-53.818,55.32" transform="translate(5676 11727.499)" fill="none" stroke="#12263f" stroke-width="1"/>
      <path id="Trazado_119799" data-name="Trazado 119799" d="M-5224.869-7301.429l55.488-55.488" transform="translate(5675.164 11727.583)" fill="none" stroke="#12263f" stroke-width="1"/>
      <path id="Trazado_119800" data-name="Trazado 119800" d="M-5224.869-7301.429l55.488-55.488" transform="translate(5699.075 11727.583)" fill="none" stroke="#12263f" stroke-width="1"/>
      <path id="Trazado_119801" data-name="Trazado 119801" d="M-5225.553-7296.152h69.062" transform="translate(5672.717 11704.066)" fill="none" stroke="#12263f" stroke-width="1"/>
      <path id="Trazado_119802" data-name="Trazado 119802" d="M-5225.553-7296.152h69.062" transform="translate(5690.121 11685.364)" fill="none" stroke="#12263f" stroke-width="1"/>
      <path id="Trazado_119803" data-name="Trazado 119803" d="M-5247.505-7273.846v19.264" transform="translate(5676 11700)" fill="none" stroke="#12263f" stroke-width="2"/>
      <path id="Trazado_119804" data-name="Trazado 119804" d="M-5247.505-7273.846v19.264" transform="translate(5745 11700)" fill="none" stroke="#12263f" stroke-width="2"/>
      <path id="Trazado_119805" data-name="Trazado 119805" d="M-5247.505-7273.846v19.264" transform="translate(5800 11644.512)" fill="none" stroke="#12263f" stroke-width="2"/>
      <path id="Trazado_119806" data-name="Trazado 119806" d="M-5247.505-7273.846v19.264" transform="translate(6104.988 11359.923) rotate(-3)" fill="none" stroke="#12263f" stroke-width="2"/>
    </g>
    <rect id="Rectángulo_34087" data-name="Rectángulo 34087" width="3" height="22" transform="translate(914 4242)" fill="#12263f"/>
    <rect id="Rectángulo_34088" data-name="Rectángulo 34088" width="3" height="22" transform="translate(1124 4242)" fill="#12263f"/>
    <text id="x_x_x_x_x_x_x_x_x_x_x_x_x_x_x_x_x_x_x_x_x_x_x_x_x_x_x_x_x_x_x_x_x_x_x_x_x_x" data-name="x x x x x x x x x x x x x x x x x x x x x x x x x x x x x x x x x x x x x x" transform="translate(551 4260)" fill="#12263f" font-size="16" font-family="Roboto-Light, Roboto" font-weight="300"><tspan x="0" y="0">x x x x x x x x x x x x x x x x x x x x x x x x x x x x x x x x x x x x x x</tspan></text>
    <text id="x_x_x_x_x_x_x_x_x_x_x_x_x_x_x_x_x_x_x_x_x_x_x_x_x_x_x_x_x_x_x_x_x_x_x_x_x_x-2" data-name="x x x x x x x x x x x x x x x x x x x x x x x x x x x x x x x x x x x x x x" transform="translate(551 4274)" fill="#12263f" font-size="16" font-family="Roboto-Light, Roboto" font-weight="300"><tspan x="0" y="0">x x x x x x x x x x x x x x x x x x x x x x x x x x x x x x x x x x x x x x</tspan></text>
  </g>
</svg>
