<svg xmlns="http://www.w3.org/2000/svg" width="400" height="65" viewBox="0 0 400 65">
  <g id="Grupo_152223" data-name="Grupo 152223" transform="translate(-600 -3157)">
    <g id="Grupo_152211" data-name="Grupo 152211">
      <g id="Rectángulo_33947" data-name="Rectángulo 33947" transform="translate(600 3157)" fill="#c9affd" stroke="#2e0877" stroke-width="2">
        <rect width="400" height="65" rx="32.5" stroke="none"/>
        <rect x="1" y="1" width="398" height="63" rx="31.5" fill="none"/>
      </g>
      <path id="Trazado_121572" data-name="Trazado 121572" d="M6.475-8.945a5.414,5.414,0,0,0-.889-.068A2.381,2.381,0,0,0,3.174-7.5V0H1.367V-10.566H3.125l.029,1.221a2.813,2.813,0,0,1,2.52-1.416,1.846,1.846,0,0,1,.8.137ZM14.268,0a3.8,3.8,0,0,1-.254-1.113A4.031,4.031,0,0,1,11.006.2,3.73,3.73,0,0,1,8.442-.688a2.859,2.859,0,0,1-1-2.241A2.987,2.987,0,0,1,8.7-5.493a5.916,5.916,0,0,1,3.53-.913h1.758v-.83a2.029,2.029,0,0,0-.566-1.509,2.276,2.276,0,0,0-1.67-.562,2.634,2.634,0,0,0-1.621.488,1.439,1.439,0,0,0-.654,1.182H7.656a2.493,2.493,0,0,1,.562-1.528,3.832,3.832,0,0,1,1.523-1.167,5.125,5.125,0,0,1,2.114-.43,4.177,4.177,0,0,1,2.861.913,3.294,3.294,0,0,1,1.074,2.515v4.863a5.946,5.946,0,0,0,.371,2.314V0Zm-3-1.377a3.175,3.175,0,0,0,1.611-.439,2.658,2.658,0,0,0,1.1-1.143V-5.127H12.568q-3.32,0-3.32,1.943a1.645,1.645,0,0,0,.566,1.328A2.177,2.177,0,0,0,11.27-1.377Zm9.053-.1H26.5V0H18.115V-1.328l5.83-7.744H18.2v-1.494h8.008v1.279ZM27.9-5.381a6.241,6.241,0,0,1,.61-2.793,4.553,4.553,0,0,1,1.7-1.914,4.626,4.626,0,0,1,2.485-.674,4.456,4.456,0,0,1,3.491,1.494A5.748,5.748,0,0,1,37.52-5.293v.127A6.3,6.3,0,0,1,36.929-2.4,4.486,4.486,0,0,1,35.239-.488,4.679,4.679,0,0,1,32.715.2,4.445,4.445,0,0,1,29.233-1.3,5.719,5.719,0,0,1,27.9-5.254Zm1.816.215a4.52,4.52,0,0,0,.815,2.822,2.61,2.61,0,0,0,2.183,1.064A2.594,2.594,0,0,0,34.9-2.358a4.943,4.943,0,0,0,.811-3.022A4.513,4.513,0,0,0,34.888-8.2,2.623,2.623,0,0,0,32.7-9.277a2.594,2.594,0,0,0-2.158,1.064A4.906,4.906,0,0,0,29.717-5.166ZM33.516-15H35.7l-2.617,2.871-1.455,0Zm7.979,4.434.059,1.328a3.851,3.851,0,0,1,3.164-1.523q3.35,0,3.379,3.779V0H46.289V-6.992a2.432,2.432,0,0,0-.522-1.689,2.094,2.094,0,0,0-1.6-.547,2.607,2.607,0,0,0-1.543.469,3.183,3.183,0,0,0-1.035,1.23V0H39.785V-10.566ZM64.033-7.949H55.889V-9.521h8.145Zm0,4.053H55.889V-5.459h8.145ZM75.8-2.773l4.17-11.445h1.846L76.523,0H75.146L72.754-6.133H70.947v-1.5h3.076Z" transform="translate(660 3195)" fill="#12263f"/>
      <path id="Trazado_121574" data-name="Trazado 121574" d="M7.573-4.548A6.2,6.2,0,0,1,6.76-1.011,2.891,2.891,0,0,1,4.219.146,2.912,2.912,0,0,1,1.692-.985a5.882,5.882,0,0,1-.85-3.38V-6.174a6.059,6.059,0,0,1,.813-3.494A2.914,2.914,0,0,1,4.2-10.811a2.94,2.94,0,0,1,2.534,1.1,5.847,5.847,0,0,1,.835,3.4ZM6.218-6.4A4.965,4.965,0,0,0,5.735-8.91,1.664,1.664,0,0,0,4.2-9.7a1.642,1.642,0,0,0-1.516.784A4.848,4.848,0,0,0,2.2-6.5v2.168a5.045,5.045,0,0,0,.5,2.552,1.661,1.661,0,0,0,1.52.824,1.638,1.638,0,0,0,1.49-.776,4.862,4.862,0,0,0,.509-2.446ZM9.4,2.124,8.635,1.6A3.534,3.534,0,0,0,9.353-.381V-1.6h1.326V-.542A3.336,3.336,0,0,1,10.316.938,3.464,3.464,0,0,1,9.4,2.124Zm8.569-5.706h1.479v1.106H17.974V0H16.611V-2.476H11.755v-.8l4.775-7.39h1.443Zm-4.68,0h3.318V-8.811l-.161.293Zm12.7-7.09v1.15h-.249a3.568,3.568,0,0,0-2.52.938,3.9,3.9,0,0,0-1.084,2.556,2.892,2.892,0,0,1,2.3-.967,2.765,2.765,0,0,1,2.223.981A3.786,3.786,0,0,1,27.5-3.479a3.774,3.774,0,0,1-.9,2.637,3.089,3.089,0,0,1-2.406.989,3.044,3.044,0,0,1-2.483-1.176,4.659,4.659,0,0,1-.952-3.029v-.52a7.02,7.02,0,0,1,1.256-4.5,4.613,4.613,0,0,1,3.739-1.593Zm-1.78,4.8a2.162,2.162,0,0,0-1.282.417A2.175,2.175,0,0,0,22.119-4.4v.5a3.5,3.5,0,0,0,.593,2.124,1.778,1.778,0,0,0,1.479.806,1.723,1.723,0,0,0,1.439-.674,2.8,2.8,0,0,0,.524-1.765,2.8,2.8,0,0,0-.531-1.776A1.7,1.7,0,0,0,24.214-5.867Z" transform="translate(748 3187)" fill="#12263f"/>
      <path id="Trazado_121573" data-name="Trazado 121573" d="M7.573-4.548A6.2,6.2,0,0,1,6.76-1.011,2.891,2.891,0,0,1,4.219.146,2.912,2.912,0,0,1,1.692-.985a5.882,5.882,0,0,1-.85-3.38V-6.174a6.059,6.059,0,0,1,.813-3.494A2.914,2.914,0,0,1,4.2-10.811a2.94,2.94,0,0,1,2.534,1.1,5.847,5.847,0,0,1,.835,3.4ZM6.218-6.4A4.965,4.965,0,0,0,5.735-8.91,1.664,1.664,0,0,0,4.2-9.7a1.642,1.642,0,0,0-1.516.784A4.848,4.848,0,0,0,2.2-6.5v2.168a5.045,5.045,0,0,0,.5,2.552,1.661,1.661,0,0,0,1.52.824,1.638,1.638,0,0,0,1.49-.776,4.862,4.862,0,0,0,.509-2.446ZM9.4,2.124,8.635,1.6A3.534,3.534,0,0,0,9.353-.381V-1.6h1.326V-.542A3.336,3.336,0,0,1,10.316.938,3.464,3.464,0,0,1,9.4,2.124Zm8.569-5.706h1.479v1.106H17.974V0H16.611V-2.476H11.755v-.8l4.775-7.39h1.443Zm-4.68,0h3.318V-8.811l-.161.293Zm12.7-7.09v1.15h-.249a3.568,3.568,0,0,0-2.52.938,3.9,3.9,0,0,0-1.084,2.556,2.892,2.892,0,0,1,2.3-.967,2.765,2.765,0,0,1,2.223.981A3.786,3.786,0,0,1,27.5-3.479a3.774,3.774,0,0,1-.9,2.637,3.089,3.089,0,0,1-2.406.989,3.044,3.044,0,0,1-2.483-1.176,4.659,4.659,0,0,1-.952-3.029v-.52a7.02,7.02,0,0,1,1.256-4.5,4.613,4.613,0,0,1,3.739-1.593Zm-1.78,4.8a2.162,2.162,0,0,0-1.282.417A2.175,2.175,0,0,0,22.119-4.4v.5a3.5,3.5,0,0,0,.593,2.124,1.778,1.778,0,0,0,1.479.806,1.723,1.723,0,0,0,1.439-.674,2.8,2.8,0,0,0,.524-1.765,2.8,2.8,0,0,0-.531-1.776A1.7,1.7,0,0,0,24.214-5.867Z" transform="translate(748 3205)" fill="#12263f"/>
      <path id="Trazado_119564" data-name="Trazado 119564" d="M-8511.527-8064h34.451" transform="translate(9257 11255)" fill="#12263f"/>
      <path id="Trazado_119564_-_Contorno" data-name="Trazado 119564 - Contorno" d="M-8477.076-8063.5h-34.451v-1h34.451Z" transform="translate(9257 11255)" fill="#12263f"/>
      <path id="Trazado_121576" data-name="Trazado 121576" d="M9.629-7.949H1.484V-9.521H9.629Zm0,4.053H1.484V-5.459H9.629Z" transform="translate(784 3195)" fill="#12263f"/>
      <path id="Trazado_121575" data-name="Trazado 121575" d="M5.469-2.773l4.17-11.445h1.846L6.191,0H4.814L2.422-6.133H.615v-1.5H3.691Z" transform="translate(804 3195)" fill="#12263f"/>
      <path id="Trazado_121578" data-name="Trazado 121578" d="M8.105-6.25A4.42,4.42,0,0,1,6.753-5.166a3.67,3.67,0,0,1-1.724.41,3.788,3.788,0,0,1-2.144-.605,3.936,3.936,0,0,1-1.411-1.7,5.809,5.809,0,0,1-.5-2.427,5.919,5.919,0,0,1,.542-2.568,3.981,3.981,0,0,1,1.538-1.748,4.386,4.386,0,0,1,2.324-.605,3.971,3.971,0,0,1,3.325,1.577,6.879,6.879,0,0,1,1.216,4.3v.527q0,4.15-1.641,6.06A6.3,6.3,0,0,1,3.33.01H2.979V-1.523h.381A4.974,4.974,0,0,0,6.8-2.688,5,5,0,0,0,8.105-6.25Zm-2.783,0A2.79,2.79,0,0,0,7-6.807,3.281,3.281,0,0,0,8.115-8.184v-.723A4.972,4.972,0,0,0,7.344-11.8,2.3,2.3,0,0,0,5.391-12.91,2.32,2.32,0,0,0,3.477-12,3.767,3.767,0,0,0,2.754-9.59a3.92,3.92,0,0,0,.7,2.4A2.211,2.211,0,0,0,5.322-6.25ZM21.729,0H12.412V-1.3l4.922-5.469a11.693,11.693,0,0,0,1.509-2.017,3.366,3.366,0,0,0,.415-1.606,2.551,2.551,0,0,0-.674-1.826,2.356,2.356,0,0,0-1.8-.713,2.79,2.79,0,0,0-2.095.767,2.928,2.928,0,0,0-.747,2.134H12.139A4.194,4.194,0,0,1,13.4-13.2a4.688,4.688,0,0,1,3.384-1.211,4.5,4.5,0,0,1,3.135,1.04,3.548,3.548,0,0,1,1.152,2.769q0,2.1-2.676,5L14.59-1.475h7.139Z" transform="translate(819 3195)" fill="#12263f"/>
      <path id="Trazado_121580" data-name="Trazado 121580" d="M7.119,0H5.3V-12.041L1.66-10.7v-1.641l5.176-1.943h.283Zm5.518-.947a1.131,1.131,0,0,1,.278-.781,1.061,1.061,0,0,1,.835-.312,1.092,1.092,0,0,1,.845.313,1.109,1.109,0,0,1,.288.781,1.048,1.048,0,0,1-.288.752,1.112,1.112,0,0,1-.845.3,1.079,1.079,0,0,1-.835-.3A1.069,1.069,0,0,1,12.637-.947ZM26.992,0H17.676V-1.3L22.6-6.768a11.693,11.693,0,0,0,1.509-2.017,3.366,3.366,0,0,0,.415-1.606,2.551,2.551,0,0,0-.674-1.826,2.356,2.356,0,0,0-1.8-.713,2.79,2.79,0,0,0-2.095.767,2.928,2.928,0,0,0-.747,2.134H17.4A4.194,4.194,0,0,1,18.667-13.2a4.688,4.688,0,0,1,3.384-1.211,4.5,4.5,0,0,1,3.135,1.04,3.548,3.548,0,0,1,1.152,2.769q0,2.1-2.676,5L19.854-1.475h7.139Zm11.23,0H28.906V-1.3l4.922-5.469a11.693,11.693,0,0,0,1.509-2.017,3.366,3.366,0,0,0,.415-1.606,2.551,2.551,0,0,0-.674-1.826,2.356,2.356,0,0,0-1.8-.713,2.79,2.79,0,0,0-2.095.767,2.928,2.928,0,0,0-.747,2.134H28.633A4.194,4.194,0,0,1,29.9-13.2a4.688,4.688,0,0,1,3.384-1.211,4.5,4.5,0,0,1,3.135,1.04,3.548,3.548,0,0,1,1.152,2.769q0,2.1-2.676,5L31.084-1.475h7.139Zm11.23,0H40.137V-1.3l4.922-5.469a11.693,11.693,0,0,0,1.509-2.017,3.366,3.366,0,0,0,.415-1.606,2.551,2.551,0,0,0-.674-1.826,2.356,2.356,0,0,0-1.8-.713,2.79,2.79,0,0,0-2.095.767,2.928,2.928,0,0,0-.747,2.134H39.863A4.194,4.194,0,0,1,41.128-13.2a4.688,4.688,0,0,1,3.384-1.211,4.5,4.5,0,0,1,3.135,1.04A3.548,3.548,0,0,1,48.8-10.605q0,2.1-2.676,5L42.314-1.475h7.139Zm8.838-6.25a4.42,4.42,0,0,1-1.353,1.084,3.67,3.67,0,0,1-1.724.41,3.788,3.788,0,0,1-2.144-.605,3.936,3.936,0,0,1-1.411-1.7,5.809,5.809,0,0,1-.5-2.427,5.919,5.919,0,0,1,.542-2.568,3.981,3.981,0,0,1,1.538-1.748,4.386,4.386,0,0,1,2.324-.605,3.971,3.971,0,0,1,3.325,1.577,6.879,6.879,0,0,1,1.216,4.3v.527q0,4.15-1.641,6.06A6.3,6.3,0,0,1,53.516.01h-.352V-1.523h.381a4.974,4.974,0,0,0,3.438-1.165A5,5,0,0,0,58.291-6.25Zm-2.783,0a2.79,2.79,0,0,0,1.675-.557A3.281,3.281,0,0,0,58.3-8.184v-.723a4.972,4.972,0,0,0-.771-2.891,2.3,2.3,0,0,0-1.953-1.113A2.32,2.32,0,0,0,53.662-12a3.767,3.767,0,0,0-.723,2.407,3.92,3.92,0,0,0,.7,2.4A2.211,2.211,0,0,0,55.508-6.25Zm9.717-1.738h1.357a2.983,2.983,0,0,0,2.012-.674,2.251,2.251,0,0,0,.732-1.768,2.205,2.205,0,0,0-2.49-2.5,2.59,2.59,0,0,0-1.87.669,2.341,2.341,0,0,0-.7,1.772H62.461A3.627,3.627,0,0,1,63.7-13.3a4.5,4.5,0,0,1,3.14-1.118A4.447,4.447,0,0,1,69.99-13.35a3.845,3.845,0,0,1,1.143,2.959,3.121,3.121,0,0,1-.6,1.8,3.626,3.626,0,0,1-1.636,1.3,3.494,3.494,0,0,1,1.812,1.23,3.417,3.417,0,0,1,.64,2.1A3.879,3.879,0,0,1,70.1-.928,4.681,4.681,0,0,1,66.846.2,4.8,4.8,0,0,1,63.589-.889,3.6,3.6,0,0,1,62.334-3.75H64.15a2.324,2.324,0,0,0,.732,1.8,2.786,2.786,0,0,0,1.963.674,2.734,2.734,0,0,0,2-.684,2.634,2.634,0,0,0,.693-1.963,2.391,2.391,0,0,0-.762-1.9,3.319,3.319,0,0,0-2.2-.684H65.225Z" transform="translate(868 3195)" fill="#12263f"/>
      <path id="Trazado_121579" data-name="Trazado 121579" d="M9.629-7.949H1.484V-9.521H9.629Zm0,4.053H1.484V-5.459H9.629Z" transform="translate(850 3195)" fill="#12263f"/>
      <path id="Trazado_119565" data-name="Trazado 119565" d="M-8500.163-8080.462s2.119-3.04,4.746,0,5.361,0,5.361,0" transform="translate(9351.056 11262.462)" fill="#12263f"/>
      <path id="Trazado_119565_-_Contorno" data-name="Trazado 119565 - Contorno" d="M-8492.859-8078.46h-.033a4.012,4.012,0,0,1-3.017-1.577,2.667,2.667,0,0,0-1.907-1.126l-.072,0a2.676,2.676,0,0,0-1.743,1.073.648.648,0,0,1-.9.16.651.651,0,0,1-.161-.906,3.959,3.959,0,0,1,2.733-1.625c.051,0,.1,0,.151,0a3.87,3.87,0,0,1,2.887,1.577,2.78,2.78,0,0,0,2.045,1.126h.021a3.673,3.673,0,0,0,2.32-1.136.652.652,0,0,1,.918-.049.65.65,0,0,1,.049.918A4.927,4.927,0,0,1-8492.859-8078.46Z" transform="translate(9351.056 11262.462)" fill="#12263f"/>
      <circle id="Elipse_4800" data-name="Elipse 4800" cx="1" cy="1" r="1" transform="translate(854 3176)" fill="#12263f"/>
      <path id="Trazado_121577" data-name="Trazado 121577" d="M2.222,2.34h.792a1.74,1.74,0,0,0,1.173-.393A1.313,1.313,0,0,0,4.614.916,1.286,1.286,0,0,0,3.161-.542a1.511,1.511,0,0,0-1.091.39A1.366,1.366,0,0,0,1.663.882H.61A2.116,2.116,0,0,1,1.33-.755a2.625,2.625,0,0,1,1.831-.652A2.594,2.594,0,0,1,5-.787,2.243,2.243,0,0,1,5.668.939a1.821,1.821,0,0,1-.35,1.048,2.115,2.115,0,0,1-.954.758,2.038,2.038,0,0,1,1.057.718,1.993,1.993,0,0,1,.373,1.225,2.262,2.262,0,0,1-.729,1.772,2.73,2.73,0,0,1-1.9.655,2.8,2.8,0,0,1-1.9-.632A2.1,2.1,0,0,1,.535,4.813h1.06a1.356,1.356,0,0,0,.427,1.048,1.625,1.625,0,0,0,1.145.393,1.6,1.6,0,0,0,1.168-.4,1.537,1.537,0,0,0,.4-1.145A1.394,1.394,0,0,0,4.3,3.6a1.936,1.936,0,0,0-1.282-.4H2.222Zm9.057,1.014a2.578,2.578,0,0,1-.789.632,2.14,2.14,0,0,1-1.005.239,2.21,2.21,0,0,1-1.25-.353,2.3,2.3,0,0,1-.823-.994A3.389,3.389,0,0,1,7.12,1.463a3.453,3.453,0,0,1,.316-1.5,2.322,2.322,0,0,1,.9-1.02,2.558,2.558,0,0,1,1.356-.353,2.316,2.316,0,0,1,1.94.92,4.013,4.013,0,0,1,.709,2.509v.308a5.361,5.361,0,0,1-.957,3.535A3.677,3.677,0,0,1,8.493,7.006H8.288V6.111H8.51a2.9,2.9,0,0,0,2.005-.679A2.915,2.915,0,0,0,11.279,3.354Zm-1.623,0a1.627,1.627,0,0,0,.977-.325,1.914,1.914,0,0,0,.652-.8V1.8a2.9,2.9,0,0,0-.45-1.686A1.343,1.343,0,0,0,9.7-.53,1.353,1.353,0,0,0,8.579,0a2.2,2.2,0,0,0-.422,1.4,2.287,2.287,0,0,0,.407,1.4A1.29,1.29,0,0,0,9.655,3.354Z" transform="translate(798 3176)" fill="#12263f"/>
      <text id="_39" data-name="39" transform="translate(723 3176)" fill="#12263f" font-size="11.666" font-family="Roboto-Regular, Roboto" baseline-shift="-6.666000209254424"><tspan x="0" y="0">39</tspan></text>
    </g>
  </g>
</svg>
