<svg xmlns="http://www.w3.org/2000/svg" xmlns:xlink="http://www.w3.org/1999/xlink" width="550.587" height="445" viewBox="0 0 550.587 445">
  <defs>
    <clipPath id="clip-path">
      <rect id="Rectángulo_34417" data-name="Rectángulo 34417" width="98.667" height="85.617" fill="none"/>
    </clipPath>
    <linearGradient id="linear-gradient" x1="0.5" x2="0.5" y2="1" gradientUnits="objectBoundingBox">
      <stop offset="0" stop-color="#48cdd2"/>
      <stop offset="1" stop-color="#25ffff"/>
    </linearGradient>
    <linearGradient id="linear-gradient-2" x1="0.83" y1="0.224" x2="0.22" y2="0.848" gradientUnits="objectBoundingBox">
      <stop offset="0" stop-color="#2e0877"/>
      <stop offset="1" stop-color="#ad84ff"/>
    </linearGradient>
    <clipPath id="clip-path-2">
      <rect id="Rectángulo_34416" data-name="Rectángulo 34416" width="198.331" height="400.21" fill="none"/>
    </clipPath>
    <linearGradient id="linear-gradient-3" x1="0.5" y1="0" x2="0.5" y2="1" xlink:href="#linear-gradient-2"/>
    <linearGradient id="linear-gradient-4" x1="0.063" y1="0.093" x2="0.938" y2="1" gradientUnits="objectBoundingBox">
      <stop offset="0" stop-color="#eaf7ff"/>
      <stop offset="1" stop-color="#ededed"/>
    </linearGradient>
    <clipPath id="clip-path-3">
      <rect id="Rectángulo_34415" data-name="Rectángulo 34415" width="198.33" height="400.21" fill="none"/>
    </clipPath>
    <linearGradient id="linear-gradient-5" x1="0.5" x2="0.5" y2="1" gradientUnits="objectBoundingBox">
      <stop offset="0" stop-color="#25ffff"/>
      <stop offset="1" stop-color="#c1ffff"/>
    </linearGradient>
    <linearGradient id="linear-gradient-6" x1="0.153" y1="0.253" x2="0.79" y2="0.922" xlink:href="#linear-gradient"/>
    <clipPath id="clip-path-4">
      <rect id="Rectángulo_34411" data-name="Rectángulo 34411" width="30.275" height="18.321" fill="none"/>
    </clipPath>
    <clipPath id="clip-path-5">
      <rect id="Rectángulo_34412" data-name="Rectángulo 34412" width="0.825" height="14.576" fill="none"/>
    </clipPath>
  </defs>
  <g id="Grupo_152212" data-name="Grupo 152212" transform="translate(-863.746 -112)">
    <g id="Grupo_152202" data-name="Grupo 152202">
      <path id="Trazado_121569" data-name="Trazado 121569" d="M-11727.664-11259.177l360.092,208.73" transform="translate(12591.664 11593.677)" fill="none" stroke="#25ffff" stroke-width="1"/>
      <path id="Trazado_121570" data-name="Trazado 121570" d="M-11727.664-11259.176l439.092,258.375" transform="translate(12591.664 11489.66)" fill="none" stroke="#25ffff" stroke-width="1"/>
      <g id="Grupo_152200" data-name="Grupo 152200" transform="translate(901.333 334.78)">
        <g id="Grupo_152199" data-name="Grupo 152199" transform="translate(0 0)" clip-path="url(#clip-path)">
          <path id="Trazado_121545" data-name="Trazado 121545" d="M.527,23.526,4.161,49.679A4.17,4.17,0,0,0,6.51,53.184L36.669,70.6a8.624,8.624,0,0,0,4.244,1.074,6.968,6.968,0,0,0,3.466-.83L91.851,43.433a3.545,3.545,0,0,0,1.928-3.058L95.6,11.889Z" transform="translate(0.618 13.947)" fill="url(#linear-gradient)"/>
          <path id="Trazado_121546" data-name="Trazado 121546" d="M98.652,22.182H96.4c-.113-.074-.2-.161-.317-.23L62.875,2.78A9.478,9.478,0,0,0,58.2,1.6a7.651,7.651,0,0,0-3.816.913L2.123,32.687c-.1.061-.18.139-.276.2H0v3.169a4.592,4.592,0,0,0,2.588,3.86L35.795,59.089a9.484,9.484,0,0,0,4.67,1.18,7.651,7.651,0,0,0,3.816-.913L96.544,29.182a3.9,3.9,0,0,0,2.123-3.368c0-.159-.015-3.631-.015-3.631" transform="translate(0 1.876)" fill="#2e0877"/>
          <path id="Trazado_121547" data-name="Trazado 121547" d="M40.465,58.67a9.456,9.456,0,0,1-4.67-1.182L2.586,38.318A4.6,4.6,0,0,1,0,34.456a3.906,3.906,0,0,1,2.123-3.368L54.388.913A7.651,7.651,0,0,1,58.2,0a9.478,9.478,0,0,1,4.67,1.18L96.081,20.352a4.594,4.594,0,0,1,2.586,3.862,3.91,3.91,0,0,1-2.121,3.368L44.281,57.757a7.645,7.645,0,0,1-3.816.913" transform="translate(0 -0.001)" fill="#ad84ff"/>
          <path id="Trazado_121548" data-name="Trazado 121548" d="M2.037,33.361,54.3,3.186a7.224,7.224,0,0,1,6.472.267l33.2,19.172a3.417,3.417,0,0,1,1.35,1.3c.556-.928.085-2.084-1.35-2.914L60.772,1.839A7.224,7.224,0,0,0,54.3,1.571L2.037,31.746a1.739,1.739,0,0,0-.887,2.436,2.441,2.441,0,0,1,.887-.821" transform="translate(1.095 1.088)" fill="#c6b6e6"/>
          <path id="Trazado_121549" data-name="Trazado 121549" d="M2.383,34.61,35.589,53.782a7.213,7.213,0,0,0,6.47.267L94.324,23.874a2.381,2.381,0,0,0,.884-.821,3.417,3.417,0,0,0-1.35-1.3L60.652,2.584a7.213,7.213,0,0,0-6.47-.269L1.917,32.489a2.433,2.433,0,0,0-.884.821,3.389,3.389,0,0,0,1.35,1.3" transform="translate(1.212 1.96)" fill="url(#linear-gradient-2)"/>
          <path id="Trazado_121550" data-name="Trazado 121550" d="M35.84,15.326l.763.441a7.916,7.916,0,0,0,7.093.293c1.81-1.045,1.58-2.888-.511-4.094l-.763-.441Z" transform="translate(42.047 13.52)" fill="#332723"/>
          <path id="Trazado_121551" data-name="Trazado 121551" d="M64.841,17.818h-.554a4.839,4.839,0,0,0-1.41-1.182L40.253,3.575c-2.375-1.371-5.97-1.519-8.026-.332L21.812,9.256a3.555,3.555,0,0,0-.687.513h-.7V11.3h.024a3.277,3.277,0,0,0,1.941,2.595L45.008,26.952c2.377,1.371,5.97,1.519,8.028.332l10.416-6.013a2.39,2.39,0,0,0,1.36-1.928h.028Z" transform="translate(23.96 2.863)" fill="#ad84ff"/>
          <path id="Trazado_121552" data-name="Trazado 121552" d="M63.452,20.675,53.036,26.688c-2.058,1.189-5.65,1.039-8.026-.332L22.388,13.3c-2.375-1.371-2.634-3.447-.576-4.633L32.228,2.647c2.058-1.187,5.65-1.039,8.026.335L62.877,16.04c2.375,1.371,2.634,3.447.576,4.635" transform="translate(23.96 2.164)" fill="#2e0877"/>
          <path id="Trazado_121553" data-name="Trazado 121553" d="M22.588,9.3l8.851-5.111a7.577,7.577,0,0,1,6.819.285L59.5,16.736a3.3,3.3,0,0,1,1.552,1.658c.337-.917-.183-1.978-1.552-2.766L38.259,3.367a7.57,7.57,0,0,0-6.819-.283L22.588,8.194a1.853,1.853,0,0,0-1.061,2.28A2.275,2.275,0,0,1,22.588,9.3" transform="translate(25.135 2.817)" fill="#ece3ff"/>
          <path id="Trazado_121554" data-name="Trazado 121554" d="M23.023,11.532,44.268,23.793a7.584,7.584,0,0,0,6.819.283l8.851-5.109A2.283,2.283,0,0,0,61,17.8a3.3,3.3,0,0,0-1.552-1.658L38.2,3.878a7.582,7.582,0,0,0-6.822-.285L22.534,8.7a2.28,2.28,0,0,0-1.063,1.169,3.3,3.3,0,0,0,1.552,1.658" transform="translate(25.189 3.417)" fill="#fff"/>
          <path id="Trazado_121555" data-name="Trazado 121555" d="M24.579,14.763H23.038v.372l-2.3-1.332a1.349,1.349,0,0,0-1.2.05l-.63.365V13.9H17.362v1.384h.007a.338.338,0,0,0,.2.348l3.638,2.1a1.35,1.35,0,0,0,1.2-.05L24.286,16.6c.222-.13.3-.3.272-.452h.022Z" transform="translate(20.369 16.052)" fill="#332723"/>
          <path id="Trazado_121556" data-name="Trazado 121556" d="M21.206,17.071l-3.638-2.1c-.306-.178-.267-.491.087-.7l1.875-1.082a1.343,1.343,0,0,1,1.2-.05l3.638,2.1c.306.178.267.491-.087.7L22.41,17.021a1.343,1.343,0,0,1-1.2.05" transform="translate(20.369 15.279)" fill="#493b36"/>
          <path id="Trazado_121557" data-name="Trazado 121557" d="M30.193,11.537H28.655v.372l-2.306-1.33a1.336,1.336,0,0,0-1.2.05l-.63.363v-.319H22.976v1.384h.007a.346.346,0,0,0,.2.35l3.638,2.1a1.343,1.343,0,0,0,1.2-.05L29.9,13.374c.222-.13.3-.3.272-.452h.022Z" transform="translate(26.955 12.269)" fill="#332723"/>
          <path id="Trazado_121558" data-name="Trazado 121558" d="M26.82,13.846l-3.638-2.1c-.306-.178-.267-.491.087-.7l1.875-1.082a1.336,1.336,0,0,1,1.2-.05l3.638,2.1c.306.176.267.489-.087.7L28.024,13.8a1.343,1.343,0,0,1-1.2.05" transform="translate(26.955 11.495)" fill="#493b36"/>
          <path id="Trazado_121559" data-name="Trazado 121559" d="M33.489,7.586,31.051,6.232l-.007,0a1.269,1.269,0,0,0-1.334.083l-9.566,5.524a4.825,4.825,0,0,0-2.012,3.849v7.491l2.48,1.432V18.7A34.06,34.06,0,0,1,22.653,14l7.719-4.168c.026,1.645.017,6.359.017,6.359l1.334-.769L34.206,16.8V10.068Z" transform="translate(21.271 7.134)" fill="#25ffff"/>
          <path id="Trazado_121560" data-name="Trazado 121560" d="M26.264,15.933l-2.482-1.376L23.765,8.2l2.5-.724.559,3.008Z" transform="translate(27.88 8.768)" fill="#a7ffff"/>
          <path id="Trazado_121561" data-name="Trazado 121561" d="M19.272,16.327v7.55l1.334-.771s-.011-5.211.017-6.485a3.031,3.031,0,0,1,.613-2.036c.691-.928,1.482-.785,2.9-1.28a8.467,8.467,0,0,0,1.93-.813A12.093,12.093,0,0,0,28,11.076c1.423-1.147,2.212-2.2,2.9-2.071.406.076.589.322.613,1.326.028,1.243.017,6.5.017,6.5l1.334-.771V8.477c0-1.484-.9-2.167-2.015-1.523l-9.566,5.524a4.82,4.82,0,0,0-2.015,3.849" transform="translate(22.61 7.873)" fill="#a7ffff"/>
          <path id="Trazado_121562" data-name="Trazado 121562" d="M18.9,25.2l.763.441a7.916,7.916,0,0,0,7.093.293c1.81-1.045,1.58-2.888-.511-4.094l-.763-.441Z" transform="translate(22.171 25.107)" fill="#332723"/>
          <path id="Trazado_121563" data-name="Trazado 121563" d="M47.9,27.694h-.554a4.839,4.839,0,0,0-1.41-1.182L23.311,13.451c-2.375-1.371-5.97-1.519-8.026-.332L4.87,19.132a3.555,3.555,0,0,0-.687.513h-.7v1.528H3.5a3.285,3.285,0,0,0,1.943,2.595L28.066,36.828c2.377,1.371,5.97,1.519,8.028.332L46.51,31.147a2.39,2.39,0,0,0,1.36-1.928H47.9Z" transform="translate(4.084 14.45)" fill="#ad84ff"/>
          <path id="Trazado_121564" data-name="Trazado 121564" d="M46.51,30.551,36.094,36.564c-2.058,1.189-5.65,1.039-8.026-.332L5.446,23.171C3.071,21.8,2.812,19.724,4.87,18.538l10.416-6.015c2.056-1.187,5.65-1.037,8.026.335L45.935,25.918c2.375,1.371,2.634,3.447.576,4.633" transform="translate(4.084 13.751)" fill="#2e0877"/>
          <path id="Trazado_121565" data-name="Trazado 121565" d="M5.646,19.18,14.5,14.071a7.57,7.57,0,0,1,6.819.283L42.562,26.614a3.279,3.279,0,0,1,1.552,1.658c.337-.919-.183-1.98-1.552-2.769L21.317,13.243A7.577,7.577,0,0,0,14.5,12.96L5.646,18.069a1.853,1.853,0,0,0-1.061,2.28A2.275,2.275,0,0,1,5.646,19.18" transform="translate(5.259 14.404)" fill="#ece3ff"/>
          <path id="Trazado_121566" data-name="Trazado 121566" d="M6.082,21.408,27.327,33.669a7.579,7.579,0,0,0,6.817.283L43,28.843a2.274,2.274,0,0,0,1.063-1.171,3.3,3.3,0,0,0-1.552-1.658L21.261,13.754a7.581,7.581,0,0,0-6.822-.285L5.593,18.581A2.272,2.272,0,0,0,4.53,19.75a3.3,3.3,0,0,0,1.552,1.658" transform="translate(5.315 15.003)" fill="#fff"/>
          <path id="Trazado_121567" data-name="Trazado 121567" d="M57.407,18.374a2.593,2.593,0,0,1,.276,1.239V30.646a5.329,5.329,0,0,1-2.217,4.236L25.346,52.274a1.827,1.827,0,0,1-.75.246,1.279,1.279,0,0,0,1.941.437l30.12-17.39a5.329,5.329,0,0,0,2.217-4.236V20.3c0-1.273-.615-2-1.467-1.921" transform="translate(28.856 21.549)" fill="#2e0877"/>
          <path id="Trazado_121568" data-name="Trazado 121568" d="M55.616,34.879a5.329,5.329,0,0,0,2.217-4.236V19.608a2.616,2.616,0,0,0-.276-1.237,1.807,1.807,0,0,0-.75.246L26.685,36.006a5.333,5.333,0,0,0-2.217,4.238V51.277a2.589,2.589,0,0,0,.278,1.237,1.808,1.808,0,0,0,.748-.246Z" transform="translate(28.706 21.552)" fill="#fff"/>
        </g>
      </g>
      <path id="Trazado_121571" data-name="Trazado 121571" d="M-11461.029-11251.336l82.217-77.025-373.357-208.244-69.7,70.359" transform="translate(12759.333 11671.605)" fill="none" stroke="#ffc321" stroke-width="1" stroke-dasharray="6"/>
      <g id="Grupo_152198" data-name="Grupo 152198" transform="translate(1031.669 115.871)">
        <g id="Grupo_152197" data-name="Grupo 152197" transform="translate(0)" clip-path="url(#clip-path-2)">
          <path id="Trazado_121428" data-name="Trazado 121428" d="M17.916,333.592,0,343.436V56.971l17.916-9.844Z" transform="translate(180.414 54.382)" fill="#2e0877"/>
          <path id="Trazado_121429" data-name="Trazado 121429" d="M8.318,291.036,184.135,392.544V106.079L8.318,4.571Z" transform="translate(-3.72 5.274)" fill="url(#linear-gradient-3)"/>
          <path id="Trazado_121430" data-name="Trazado 121430" d="M17.917,0,193.734,101.511l-17.914,9.843L0,9.846Z" transform="translate(4.596 0)" fill="url(#linear-gradient-4)"/>
          <g id="Grupo_152196" data-name="Grupo 152196" transform="translate(0.001)">
            <g id="Grupo_152195" data-name="Grupo 152195" clip-path="url(#clip-path-3)">
              <path id="Trazado_121432" data-name="Trazado 121432" d="M75.3,110.537,97.369,123.28c1.452.838,2.626-.052,2.626-1.986V115.02A6.28,6.28,0,0,0,97.369,110L75.3,97.258c-1.45-.836-2.626.052-2.626,1.986v6.274a6.293,6.293,0,0,0,2.626,5.019" transform="translate(-58.195 111.867)" fill="#2e0877"/>
              <path id="Trazado_121433" data-name="Trazado 121433" d="M35.423,50.467,57.494,63.21c1.45.838,2.626-.052,2.626-1.986V54.949a6.293,6.293,0,0,0-2.626-5.019L35.423,37.188c-1.45-.838-2.626.052-2.626,1.986v6.274a6.293,6.293,0,0,0,2.626,5.019" transform="translate(67.568 42.549)" fill="#b2603d"/>
              <path id="Trazado_121434" data-name="Trazado 121434" d="M40.055,55.807,62.126,68.55c1.45.838,2.626-.052,2.626-1.986V60.29a6.293,6.293,0,0,0-2.626-5.019L40.055,42.528c-1.45-.836-2.626.052-2.626,1.986v6.274a6.293,6.293,0,0,0,2.626,5.019" transform="translate(52.959 48.712)" fill="#b2603d"/>
              <path id="Trazado_121435" data-name="Trazado 121435" d="M65.814,100.06,87.885,112.8c1.452.838,2.626-.052,2.626-1.986v-6.274a6.287,6.287,0,0,0-2.626-5.019L65.814,86.781c-1.45-.836-2.626.052-2.626,1.986v6.274a6.293,6.293,0,0,0,2.626,5.019" transform="translate(-28.284 99.777)" fill="#b2603d"/>
              <path id="Trazado_121436" data-name="Trazado 121436" d="M65.759,84.184,87.83,96.927c1.452.838,2.626-.052,2.626-1.986V88.667a6.287,6.287,0,0,0-2.626-5.019L65.759,70.905c-1.45-.836-2.626.052-2.626,1.986v6.274a6.293,6.293,0,0,0,2.626,5.019" transform="translate(-28.11 81.458)" fill="#b2603d"/>
              <path id="Trazado_121438" data-name="Trazado 121438" d="M70.721,121.073l22.071,12.743c1.452.838,2.626-.052,2.626-1.986v-6.274a6.287,6.287,0,0,0-2.626-5.019L70.721,107.794c-1.45-.836-2.626.052-2.626,1.986v6.274a6.293,6.293,0,0,0,2.626,5.019" transform="translate(-43.76 124.025)" fill="#2e0877"/>
              <path id="Trazado_121445" data-name="Trazado 121445" d="M23.6,104.35,45.67,117.093c1.45.838,2.626-.052,2.626-1.986v-6.274a6.286,6.286,0,0,0-2.626-5.017L23.6,91.071c-1.45-.836-2.626.052-2.626,1.986v6.274A6.293,6.293,0,0,0,23.6,104.35" transform="translate(104.86 104.728)" fill="#2e0877"/>
              <path id="Trazado_121446" data-name="Trazado 121446" d="M27.369,78.985,49.44,91.728c1.45.838,2.626-.052,2.626-1.986V83.468a6.293,6.293,0,0,0-2.626-5.019L27.369,65.706c-1.45-.836-2.626.052-2.626,1.986v6.274a6.293,6.293,0,0,0,2.626,5.019" transform="translate(92.969 75.458)" fill="#2e0877"/>
              <path id="Trazado_121448" data-name="Trazado 121448" d="M27.369,94.177,49.44,106.92c1.45.838,2.626-.052,2.626-1.986V98.66a6.293,6.293,0,0,0-2.626-5.019L27.369,80.9c-1.45-.836-2.626.052-2.626,1.986v6.274a6.293,6.293,0,0,0,2.626,5.019" transform="translate(92.969 92.989)" fill="#2e0877"/>
              <path id="Trazado_121449" data-name="Trazado 121449" d="M34.439,121.922,56.51,134.665c1.45.838,2.626-.052,2.626-1.986V126.4a6.286,6.286,0,0,0-2.626-5.017L34.439,108.643c-1.45-.836-2.626.052-2.626,1.986V116.9a6.293,6.293,0,0,0,2.626,5.019" transform="translate(70.671 125.005)" fill="rgba(46,8,119,0.21)"/>
              <path id="Trazado_121450" data-name="Trazado 121450" d="M38.208,96.557,60.279,109.3c1.45.838,2.626-.052,2.626-1.986V101.04a6.293,6.293,0,0,0-2.626-5.019L38.208,83.278c-1.45-.836-2.626.052-2.626,1.986v6.274a6.293,6.293,0,0,0,2.626,5.019" transform="translate(58.784 95.735)" fill="#2e0877"/>
              <path id="Trazado_121451" data-name="Trazado 121451" d="M74.925,52.157,97,64.9c1.452.836,2.626-.052,2.626-1.986V56.637A6.279,6.279,0,0,0,97,51.622L74.925,38.878c-1.45-.836-2.626.05-2.626,1.986v6.274a6.3,6.3,0,0,0,2.626,5.019" transform="translate(-57.019 44.499)" fill="#2e0877"/>
              <path id="Trazado_121452" data-name="Trazado 121452" d="M38.208,111.749l22.071,12.743c1.45.838,2.626-.052,2.626-1.986v-6.274a6.286,6.286,0,0,0-2.626-5.016L38.208,98.47c-1.45-.836-2.626.052-2.626,1.986v6.274a6.293,6.293,0,0,0,2.626,5.019" transform="translate(58.784 113.266)" fill="rgba(46,8,119,0.21)"/>
              <path id="Trazado_121453" data-name="Trazado 121453" d="M16.916,177.1l22.071,12.743c1.45.838,2.626-.052,2.626-1.986v-6.274a6.293,6.293,0,0,0-2.626-5.019L16.916,163.825c-1.45-.836-2.626.052-2.626,1.986v6.274a6.293,6.293,0,0,0,2.626,5.019" transform="translate(125.938 188.681)" fill="#2e0877"/>
              <path id="Trazado_121454" data-name="Trazado 121454" d="M21.753,166.13l22.071,12.743c1.45.838,2.626-.052,2.626-1.986v-6.274a6.293,6.293,0,0,0-2.626-5.019L21.753,152.851c-1.452-.836-2.626.052-2.626,1.986v6.274a6.287,6.287,0,0,0,2.626,5.019" transform="translate(110.682 176.018)" fill="#2e0877"/>
              <path id="Trazado_121455" data-name="Trazado 121455" d="M16.916,159.984l22.071,12.743c1.45.838,2.626-.052,2.626-1.986v-6.274a6.286,6.286,0,0,0-2.626-5.017L16.916,146.705c-1.45-.836-2.626.052-2.626,1.986v6.274a6.293,6.293,0,0,0,2.626,5.019" transform="translate(125.938 168.926)" fill="#2e0877"/>
              <path id="Trazado_121456" data-name="Trazado 121456" d="M21.753,149.012l22.071,12.743c1.45.838,2.626-.054,2.626-1.988v-6.272a6.287,6.287,0,0,0-2.626-5.019L21.753,135.731c-1.452-.836-2.626.054-2.626,1.988v6.272a6.288,6.288,0,0,0,2.626,5.021" transform="translate(110.682 156.263)" fill="#2e0877"/>
              <path id="Trazado_121457" data-name="Trazado 121457" d="M70.325,47.4,92.4,60.145c1.452.838,2.626-.052,2.626-1.986V51.885A6.287,6.287,0,0,0,92.4,46.866L70.325,34.123c-1.45-.836-2.626.052-2.626,1.986v6.274A6.293,6.293,0,0,0,70.325,47.4" transform="translate(-42.511 39.013)" fill="#2e0877"/>
              <path id="Trazado_121458" data-name="Trazado 121458" d="M75.162,36.428,97.233,49.171c1.452.838,2.626-.052,2.626-1.986V40.911a6.28,6.28,0,0,0-2.626-5.017L75.162,23.149c-1.45-.836-2.626.052-2.626,1.986V31.41a6.293,6.293,0,0,0,2.626,5.019" transform="translate(-57.766 26.35)" fill="#2e0877"/>
              <path id="Trazado_121459" data-name="Trazado 121459" d="M35.478,66.342,57.549,79.085c1.454.838,2.626-.052,2.626-1.986V70.825a6.281,6.281,0,0,0-2.626-5.019L35.478,53.063c-1.45-.836-2.626.052-2.626,1.986v6.274a6.293,6.293,0,0,0,2.626,5.019" transform="translate(67.394 60.869)" fill="#b2603d"/>
              <path id="Trazado_121460" data-name="Trazado 121460" d="M20.852,74.748,42.923,87.491c1.452.838,2.626-.052,2.626-1.986V79.231a6.287,6.287,0,0,0-2.626-5.019L20.852,61.469c-1.45-.836-2.626.052-2.626,1.986V69.73a6.293,6.293,0,0,0,2.626,5.019" transform="translate(113.524 70.569)" fill="#2e0877"/>
              <path id="Trazado_121461" data-name="Trazado 121461" d="M147.779,256.94c.351,0,.7-.015,1.04-.047a9.842,9.842,0,0,0,7.5-4.685c7.849-11.8-.418-58.477-2.156-67.713-3.733-19.844-5.872-45.213-5.872-69.6,0-22.853-2.1-53.719-2.124-54.027a.53.53,0,0,0-.575-.5.54.54,0,0,0-.5.575c.022.306,2.124,31.137,2.124,53.952,0,24.456,2.147,49.9,5.891,69.8,4.762,25.322,8.224,58.038,2.318,66.916a8.807,8.807,0,0,1-6.7,4.211c-6.432.607-14.444-5.045-19.788-10.531-7.763-7.961-17.8-11.823-38.859-18.735-14.522-4.769-23.222-14-30.211-21.417a70.5,70.5,0,0,0-9.148-8.7A89.4,89.4,0,0,0,30.78,185.819a.538.538,0,1,0-.36,1.015,88.35,88.35,0,0,1,19.661,10.477,69.634,69.634,0,0,1,9,8.566c7.074,7.5,15.877,16.846,30.659,21.7,20.885,6.856,30.829,10.675,38.424,18.468,5.238,5.374,13.01,10.9,19.618,10.9" transform="translate(-26.063 69.65)" fill="#25ffff"/>
              <path id="Trazado_121462" data-name="Trazado 121462" d="M144.2,258.275a8.987,8.987,0,0,0,3.8-.79c3.593-1.661,5.945-5.917,6.99-12.657,1.357-8.762.463-27.585-.19-41.33-.252-5.316-.47-9.91-.48-12.5-.011-2.382.192-6.72.446-12.213.719-15.532,1.923-41.53.368-65.111-2.081-31.536.506-53.067.532-53.282a.538.538,0,0,0-1.068-.131c-.026.215-2.626,21.847-.538,53.484,1.551,23.521.349,49.48-.37,64.989-.254,5.51-.457,9.859-.446,12.269.011,2.619.228,7.22.482,12.553.65,13.7,1.542,32.458.2,41.112-.986,6.358-3.132,10.343-6.378,11.842-3.356,1.553-8.041.5-13.914-3.112-3.937-2.423-7.246-4.23-10.447-5.977a112.159,112.159,0,0,1-23.5-16.118c-15.056-13.148-22.631-18.739-35.154-23.924-12.6-5.213-30.222-16.715-30.4-16.829a.538.538,0,0,0-.588.9c.177.114,17.878,11.672,30.573,16.926,12.385,5.126,19.9,10.675,34.859,23.739a112.915,112.915,0,0,0,23.7,16.251c3.188,1.74,6.483,3.541,10.4,5.949,4.286,2.641,8.01,3.963,11.127,3.963" transform="translate(-29.307 68.989)" fill="#25ffff"/>
              <path id="Trazado_121463" data-name="Trazado 121463" d="M147.832,269.184a10.1,10.1,0,0,0,5.008-1.193c3.367-1.9,5.07-5.893,5.07-11.877,0-8.446-2.563-23.206-5.04-37.481-2.044-11.76-3.974-22.866-3.98-28.1-.009-3.864-.584-12.725-1.254-22.987-1.316-20.178-3.115-47.809-1.827-57.045,1.936-13.839,3.963-52.821,3.98-53.215a.538.538,0,0,0-.508-.566.524.524,0,0,0-.566.513c-.019.39-2.04,39.329-3.97,53.123-1.31,9.344.5,37.039,1.816,57.262.67,10.242,1.243,19.088,1.251,22.916.006,5.331,1.945,16.482,4,28.285,2.354,13.568,5.025,28.947,5.025,37.3,0,5.568-1.521,9.247-4.523,10.94-3.763,2.119-10.065.939-16.844-3.166-3.263-1.975-8.062-5.665-13.619-9.936-12.109-9.309-28.695-22.056-45.032-29.328-23.549-10.481-44.181-26.117-44.386-26.274a.539.539,0,1,0-.65.859c.2.155,20.936,15.868,44.6,26.4,16.221,7.218,32.744,19.922,44.813,29.2,5.581,4.291,10.4,8,13.718,10,4.767,2.888,9.238,4.375,12.921,4.375" transform="translate(-27.565 65.447)" fill="#25ffff"/>
              <path id="Trazado_121464" data-name="Trazado 121464" d="M33.183,73.971l10.335,5.966v-5.65L33.183,68.321Z" transform="translate(83.338 78.839)" fill="#2e0877"/>
              <path id="Trazado_121465" data-name="Trazado 121465" d="M32.8,115.255l10.335,5.966v-5.65L32.8,109.606Z" transform="translate(84.558 126.478)" fill="#2e0877"/>
              <path id="Trazado_121466" data-name="Trazado 121466" d="M30.4,151.174l10.335,5.966v-5.65L30.4,145.524Z" transform="translate(92.124 167.926)" fill="#2e0877"/>
              <path id="Trazado_121467" data-name="Trazado 121467" d="M53.552,153l4.183,2.415V140.968l-4.183-2.415Z" transform="translate(25.247 159.882)" fill="#2e0877"/>
              <path id="Trazado_121468" data-name="Trazado 121468" d="M85.808,133.2l4.183,2.415V121.172l-4.183-2.415Z" transform="translate(-76.485 137.038)" fill="#2e0877"/>
              <path id="Trazado_121469" data-name="Trazado 121469" d="M74.363,163.844v2.641a2.566,2.566,0,1,0,5.133,0v-2.641Z" transform="translate(-41.339 189.066)" fill="#493b36"/>
              <path id="Trazado_121470" data-name="Trazado 121470" d="M79.5,164.625c0,.8-1.148,1.456-2.565,1.456s-2.568-.655-2.568-1.456,1.15-1.458,2.568-1.458,2.565.655,2.565,1.458" transform="translate(-41.339 188.284)" fill="#544640"/>
              <path id="Trazado_121471" data-name="Trazado 121471" d="M78,164.223c0,.5-.715.9-1.6.9s-1.594-.4-1.594-.9.713-.9,1.594-.9,1.6.4,1.6.9" transform="translate(-40.818 188.459)" fill="#e2d5da"/>
              <path id="Trazado_121472" data-name="Trazado 121472" d="M78,208.911V126.187a1.595,1.595,0,1,0-3.19,0v82.724Z" transform="translate(-40.818 143.77)" fill="#c4bab1"/>
              <path id="Trazado_121473" data-name="Trazado 121473" d="M90.15,173.9l-.64,2.565a2.566,2.566,0,0,0,4.98,1.241l.64-2.565Z" transform="translate(-89.437 200.669)" fill="#25ffff"/>
              <path id="Trazado_121474" data-name="Trazado 121474" d="M94.428,175.635c-.194.78-1.467,1.135-2.841.793s-2.333-1.254-2.139-2.033,1.467-1.135,2.841-.793,2.333,1.254,2.139,2.033" transform="translate(-88.735 200.175)" fill="#544640"/>
              <path id="Trazado_121475" data-name="Trazado 121475" d="M92.62,174.948c-.1.416-.782.605-1.514.422s-1.245-.668-1.139-1.083.78-.605,1.514-.422,1.243.668,1.139,1.083" transform="translate(-88.056 200.548)" fill="#dbd6d1"/>
              <path id="Trazado_121476" data-name="Trazado 121476" d="M104.342,112.948c2.757-1.081,6.1-.56,9.678,1.506l8.3,4.515c7.53,4.344,9.958,12.142,7.03,22.507l-.252.793q1.551-.394,3.115-.741c2.94-11.246-.052-20.1-8.5-24.979l-8.3-4.512c-4.334-2.5-8.515-3.084-12.088-1.684-3.916,1.534-6.94,5.424-8.745,11.244L54.685,248.357c.851.37,1.458-.026,2.654.661l39.9-126.593c1.547-4.986,4-8.265,7.1-9.477" transform="translate(-52.775 126.478)" fill="#2e0877"/>
              <path id="Trazado_121477" data-name="Trazado 121477" d="M102.122,185.125l-34.6-19.976,13.753-7.942,34.6,19.978Z" transform="translate(-62.986 181.408)" fill="#dbd6d1"/>
              <path id="Trazado_121478" data-name="Trazado 121478" d="M73.909,160.895V164l34.6,19.976V180.87Z" transform="translate(-69.371 185.662)" fill="#c6bdb5"/>
              <path id="Trazado_121479" data-name="Trazado 121479" d="M81.276,166.482v3.106L67.523,177.53v-3.108Z" transform="translate(-28.386 192.11)" fill="#a09287"/>
              <path id="Trazado_121480" data-name="Trazado 121480" d="M98.929,174.992l-34.6-19.976,13.753-7.942,34.6,19.976Z" transform="translate(-52.916 169.715)" fill="#dbd6d1"/>
              <path id="Trazado_121481" data-name="Trazado 121481" d="M70.716,150.762v3.106l34.6,19.976v-3.106Z" transform="translate(-59.302 173.969)" fill="#c6bdb5"/>
              <path id="Trazado_121482" data-name="Trazado 121482" d="M78.083,156.349v3.106L64.33,167.4v-3.106Z" transform="translate(-18.317 180.417)" fill="#a09287"/>
              <path id="Trazado_121483" data-name="Trazado 121483" d="M95.737,164.3l-34.6-19.976,13.753-7.942,34.6,19.976Z" transform="translate(-42.847 157.376)" fill="#dbd6d1"/>
              <path id="Trazado_121484" data-name="Trazado 121484" d="M67.523,140.069v3.106l34.6,19.976v-3.106Z" transform="translate(-49.232 161.63)" fill="#c6bdb5"/>
              <path id="Trazado_121485" data-name="Trazado 121485" d="M74.891,145.656v3.106L61.138,156.7V153.6Z" transform="translate(-8.247 168.078)" fill="#a09287"/>
              <path id="Trazado_121486" data-name="Trazado 121486" d="M88.205,158.494l-34.6-19.976,25.668-14.7,34.6,19.976Z" transform="translate(-31.008 142.878)" fill="#dbd6d1"/>
              <path id="Trazado_121487" data-name="Trazado 121487" d="M65.524,130.643v3.106l34.6,19.976v-3.106Z" transform="translate(-42.926 150.754)" fill="#c6bdb5"/>
              <path id="Trazado_121488" data-name="Trazado 121488" d="M79.275,133.092V136.2L53.606,150.9v-3.106Z" transform="translate(3.59 153.579)" fill="#a09287"/>
              <path id="Trazado_121489" data-name="Trazado 121489" d="M74.139,183.134,73.5,185.7a2.566,2.566,0,0,0,4.98,1.241l.64-2.565Z" transform="translate(-38.94 211.325)" fill="#25ffff"/>
              <path id="Trazado_121490" data-name="Trazado 121490" d="M78.417,184.869c-.194.78-1.467,1.135-2.841.793s-2.333-1.254-2.139-2.033,1.467-1.135,2.841-.793,2.333,1.254,2.139,2.033" transform="translate(-38.238 210.83)" fill="#544640"/>
              <path id="Trazado_121491" data-name="Trazado 121491" d="M76.61,184.182c-.1.416-.782.605-1.514.422s-1.243-.668-1.139-1.083.782-.605,1.514-.422,1.243.668,1.139,1.083" transform="translate(-37.561 211.203)" fill="#dbd6d1"/>
              <path id="Trazado_121492" data-name="Trazado 121492" d="M90.543,113.235q-.9,1.079-1.794,2.165c6.746,4.446,8.842,11.991,6.048,21.886L54.68,263.944a19.321,19.321,0,0,1,2.567.84l40.225-126.7c3.093-10.955.629-19.706-6.929-24.848" transform="translate(-18.22 130.666)" fill="#2e0877"/>
              <path id="Trazado_121493" data-name="Trazado 121493" d="M57.633,174.024v2.643a2.566,2.566,0,1,0,5.133,0v-2.643Z" transform="translate(11.426 200.813)" fill="#25ffff"/>
              <path id="Trazado_121494" data-name="Trazado 121494" d="M62.766,174.8c0,.8-1.148,1.456-2.565,1.456s-2.567-.653-2.567-1.456,1.15-1.456,2.567-1.456,2.565.653,2.565,1.456" transform="translate(11.426 200.033)" fill="#544640"/>
              <path id="Trazado_121495" data-name="Trazado 121495" d="M61.274,174.4c0,.5-.715.9-1.6.9s-1.594-.4-1.594-.9.713-.9,1.594-.9,1.6.4,1.6.9" transform="translate(11.947 200.206)" fill="#c4bab1"/>
              <path id="Trazado_121496" data-name="Trazado 121496" d="M61.274,219.091V136.367a1.595,1.595,0,1,0-3.19,0v82.724Z" transform="translate(11.947 155.517)" fill="#2e0877"/>
              <path id="Trazado_121497" data-name="Trazado 121497" d="M59.877,137.37a1.947,1.947,0,0,1-.812,1.553c-.45.258-.814-.015-.814-.614a1.943,1.943,0,0,1,.814-1.553c.448-.258.812.015.812.614" transform="translate(12.984 157.695)" fill="#4b4b7f"/>
              <path id="Trazado_121498" data-name="Trazado 121498" d="M77.308,44.976a28.23,28.23,0,0,0-8.82,10.78,17.857,17.857,0,0,0-.657,10.582,14.854,14.854,0,0,0,5.034,7.082L87.89,56.855l3.132-5.29Z" transform="translate(-37.663 51.899)" fill="#dbd6d1"/>
              <path id="Trazado_121499" data-name="Trazado 121499" d="M68.037,79.467c1.062-2.089-5.85-3.817-5.85-3.817l-1.8,4.879s5.622,2.925,7.646-1.062" transform="translate(0.105 87.295)" fill="#3c89ce"/>
              <path id="Trazado_121500" data-name="Trazado 121500" d="M54.779,63.22C56.75,65.212,73.51,75.3,75.2,76.357c.8,2.684.215,9.74.09,9.74-3.834,0-11.392-.939-16.583-5.241A90.819,90.819,0,0,0,46.982,72.9s3.149-14.38,7.8-9.678" transform="translate(21.522 71.862)" fill="#ffc9b6"/>
              <path id="Trazado_121501" data-name="Trazado 121501" d="M70.93,123.514a53.091,53.091,0,0,1-3.67,8.767c-2.182,3.694.25,6.466,3.128,7.42,3.091,1.025,7.412.355,14.617-3.483s10.363-7.638,10.619-10.111-3.373-6.063-9.6-4.118a84.3,84.3,0,0,0-9.385,3.414Z" transform="translate(-40.368 140.126)" fill="#3d322c"/>
              <path id="Trazado_121502" data-name="Trazado 121502" d="M63.657,131.555a53.091,53.091,0,0,1-3.67,8.767c-2.182,3.7.25,6.466,3.128,7.42,3.091,1.025,7.412.355,14.617-3.483s10.363-7.638,10.619-10.111-3.373-6.063-9.6-4.118a84.3,84.3,0,0,0-9.385,3.414Z" transform="translate(-17.429 149.405)" fill="#3d322c"/>
              <path id="Trazado_121503" data-name="Trazado 121503" d="M87.994,177.068c-2.154,2.27-11.36,4.732-13.634,2.294-1.824-1.958-2.533-7.282,1.452-11.306.75-6.361-1-9.163,1.107-17.122,1.585-5.988,6.457-15.342,6.457-15.342-3.851-6-18.252-21.41-13.445-32.947-5.245-11.1-4.118-19.235,4.745-25.524.605-.431,3.591.715,3.2,1.2-.08.1-.168.2-.248.3a63.127,63.127,0,0,1,10.959,4.3c2.585,1.17,6.259,2.1,8.415,3.983,4.278,3.744,1.327,13.79.788,18.571-1.064,9.451,4.928,26.717.573,35.15.877,1.753-5.012,22.046-10.438,31.723,2.361,1.152.788,3.961.071,4.717" transform="translate(-45.484 88.883)" fill="#3c89ce"/>
              <path id="Trazado_121504" data-name="Trazado 121504" d="M99.328,137.808c-.263-5.426-2.972-26.642-3.849-32.26-.73-4.663-2.322-15.89-4.284-20.165,1.075-.592-10.287,3.352-14.222,2.561-3.347-.67-13.044-11-13.081-10.621-8.751,10.421-9.286,24.807,0,31.361.073.052,5.189,23.609,19.752,37.132-1.73,4.5-5.426,6.69-7.8,14.726-2.688,9.109-5.665,22.922-3.95,29.509a10.291,10.291,0,0,0-1.715,4.478c-.909,5.3,9.3,4.743,12.911,4.041,1.913-.373,4.217-3.386,2.535-6.063,4.069-8.827,8.39-18.125,11.3-27.213,1.781-5.555,4.7-14.58,2.4-20.387a4.65,4.65,0,0,0,0-7.1" transform="translate(-25.689 89.214)" fill="#45a0d8"/>
              <path id="Trazado_121505" data-name="Trazado 121505" d="M77.818,39.843C74.356,37,69.719,36.895,65.6,38.9c-3.914,1.908-5.71,4.6-6.147,7.608a29.452,29.452,0,0,0,.054,6.608c1.058,3.817,4.594,8.282,6.2,10.731a8.221,8.221,0,0,0,9.568,3.61c5.471-1.648,5.7-8.816,6.524-13.628.941-5.514.564-10.246-3.987-13.988" transform="translate(-11.612 43.309)" fill="#ffc9b6"/>
              <path id="Trazado_121506" data-name="Trazado 121506" d="M89.178,56C78.518,50.8,75.2,45.358,67.826,51.843c-4.577,4.026-5.353,20.458-4.732,27.288s-.476,19.217-1.919,22.306c-1.648,3.53-3.825,5.241-2.408,7.791-2.348.967,37.569,12.745,37.929,4.136.144-3.408,7.73-27.213,8.31-37.787S101.587,62.051,89.178,56" transform="translate(-32.323 56.407)" fill="#f2ede9"/>
              <path id="Trazado_121507" data-name="Trazado 121507" d="M70.36,43.364a61.6,61.6,0,0,1-1.491,8.855,16.293,16.293,0,0,1-4.53,6.746S60.758,64.354,66.7,66.9s13.021-2.682,13.021-2.682.043-3.276,2.307-8.887C83.675,51.25,70.36,43.364,70.36,43.364" transform="translate(-20.117 50.039)" fill="#ffc9b6"/>
              <path id="Trazado_121508" data-name="Trazado 121508" d="M85.048,41.1c-.276-4.939-6.425-6.205-8.754-2.947C73.975,32.887,63.92,35.62,61.2,39.8c-8.4,12.924,1.732,21.261,2.382,27.172,2.408-.551,7.386-.228,10.5-1.682,3.638-1.7,8.866-6.94,9.415-10.425,2.826-.009,3.728-2.307,3.414-4.424,3.875-1.413,3.649-8-1.867-9.337" transform="translate(-15.902 40.681)" fill="#220757"/>
              <path id="Trazado_121509" data-name="Trazado 121509" d="M62.071,47.237c-1.783,4.538,2.895,6.322,2.895,6.322l3.184-4.805s-4.058-6.656-6.078-1.516" transform="translate(-2.644 52.26)" fill="#ffc9b6"/>
              <path id="Trazado_121510" data-name="Trazado 121510" d="M62.437,77.318S69.56,84.6,76.274,85.143s9.271-.032,9.271-.032a25.576,25.576,0,0,0-9.445-4.3c-5.055-.943-13.662-3.492-13.662-3.492" transform="translate(-21.7 89.22)" fill="#45a0d8"/>
              <path id="Trazado_121511" data-name="Trazado 121511" d="M61.149,82.3s3.733,6.091,16.118,7.593,19.676-3.009,19.676-3.009l-.506-4.092s-14.948,3.515-23.338.121A111.867,111.867,0,0,0,62,78.818Z" transform="translate(-30.324 90.951)" fill="#3c89ce"/>
              <path id="Trazado_121512" data-name="Trazado 121512" d="M65.285,60.956l-3.263,11.03s-.112,12,.528,16.038c-.64,1.54-1.7,1.867-.528,3.677-2.434.088-1.62,2.488-.452,4.424,2.387,3.952,5.839,6,9.753,8.073s16.755,5.215,21.684,3.985,10.979-2.647,10.548-5.014a14.7,14.7,0,0,1-.366-3.143l1.5-3.6a15.279,15.279,0,0,1-11.685-.892c-3.89-1.861-10.989-10.74-9.081-25.343-7.526-2.137-18.64-9.232-18.64-9.232" transform="translate(-36.55 70.339)" fill="#45a0d8"/>
              <path id="Trazado_121513" data-name="Trazado 121513" d="M62.191,80.879c.4-.258,2.626-10.826,6.447-18.24,3.091-5.994,8.693-9.966,10.858-9.6,3,.5,3.879,2.055,3.879,2.055S77.7,56.3,74.24,60.6s-8.071,18.7-8.12,21.507-3.929-1.23-3.929-1.23" transform="translate(-19 61.173)" fill="#45a0d8"/>
              <path id="Trazado_121514" data-name="Trazado 121514" d="M85.086,51.811c-.941.8-3.074,2.044-5.874,8.59-1.8,4.2-5.544,17.264-5.544,17.264l-2.7-1.883a130.386,130.386,0,0,1,5.109-15.89c2.714-6.335,5.014-8.5,6.806-9.624a3.931,3.931,0,0,1,5.234.414c-.237.638-3.028,1.129-3.028,1.129" transform="translate(-42.639 57.077)" fill="#45a0d8"/>
              <path id="Trazado_121515" data-name="Trazado 121515" d="M64.2,80.641s4.114,2.227,7.853,2.091a19.933,19.933,0,0,0,7.3-1.977,33.429,33.429,0,0,0-6.8-.317,77.826,77.826,0,0,1-8.355.2" transform="translate(-19.314 92.71)" fill="#3c89ce"/>
              <path id="Trazado_121516" data-name="Trazado 121516" d="M71.279,91.3c3.171-2.953,6.205-5.6,7.672-9.96a18.58,18.58,0,0,0,.831-6.552c-4.954-6.819-11.62-16.363-13.064-17.333-8.088-5.441-9.91-1.219-12.071,3.324-1.936,4.075-2.384,12.107-.162,18.369,2.462,6.929,8.512,7.33,13.589,9.464.687,2.938,2.809,3.427,3.2,2.688" transform="translate(4.378 63.344)" fill="#dbd6d1"/>
              <path id="Trazado_121517" data-name="Trazado 121517" d="M66.1,49.943c-2.257.821-5.152,5.4.23,9.607s11.065.676,13.245-.4a19.158,19.158,0,0,1,5.049-1.478s-1.006-3.285-6.317-3.25c-3.207.019-8.028-.915-9.439-2.882-1.478-2.061-1.478-2.061-2.768-1.592" transform="translate(-22.575 57.338)" fill="#dbd6d1"/>
              <path id="Trazado_121518" data-name="Trazado 121518" d="M80.851,97.9,38.361,73.363V38.042L80.851,62.576Z" transform="translate(34.852 43.899)" fill="#b2a89e"/>
              <path id="Trazado_121519" data-name="Trazado 121519" d="M77.315,91.731,39.386,69.623V40L77.315,62.106Z" transform="translate(36.18 46.155)" fill="#a09285"/>
              <path id="Trazado_121520" data-name="Trazado 121520" d="M65.956,49.728l-.218,9.79L49.229,69.624V40Z" transform="translate(26.337 46.156)" fill="#fff"/>
              <path id="Trazado_121521" data-name="Trazado 121521" d="M29.455,90.961V55.641L48.638,44.052v35.32Z" transform="translate(86.249 50.834)" fill="url(#linear-gradient-5)"/>
              <path id="Trazado_121522" data-name="Trazado 121522" d="M29.455,44.25,48.638,32.662,91.129,57.2,71.946,68.784Z" transform="translate(43.757 37.69)" fill="url(#linear-gradient-6)"/>
              <path id="Trazado_121523" data-name="Trazado 121523" d="M39.386,59.165l16.51-10.1L77.315,61.427V81.273Z" transform="translate(36.18 56.613)" fill="#fff"/>
              <path id="Trazado_121524" data-name="Trazado 121524" d="M39.387,45.5l5.064-3.059L73.344,59.283V65.1Z" transform="translate(40.15 48.977)" fill="#6b5f56"/>
              <g id="Grupo_152185" data-name="Grupo 152185" transform="translate(83.22 91.42)" opacity="0.5">
                <g id="Grupo_152184" data-name="Grupo 152184" transform="translate(0)">
                  <g id="Grupo_152183" data-name="Grupo 152183" clip-path="url(#clip-path-4)">
                    <path id="Trazado_121525" data-name="Trazado 121525" d="M39.387,43.277l1.381-.834L69.66,59.283v1.482Z" transform="translate(-39.387 -42.443)" fill="#564941"/>
                  </g>
                </g>
              </g>
              <path id="Trazado_121526" data-name="Trazado 121526" d="M73.248,63.467l.2,14.216L39.291,57.959v-14.1Z" transform="translate(40.246 50.611)" fill="#776c64"/>
              <path id="Trazado_121527" data-name="Trazado 121527" d="M57.655,48.474v5.232L51.81,50.332V45.1Z" transform="translate(29.08 52.041)" fill="#eae2da"/>
              <path id="Trazado_121528" data-name="Trazado 121528" d="M57.655,51.562v1.083L51.81,49.27V48.186Z" transform="translate(29.08 55.604)" fill="#3d322c"/>
              <path id="Trazado_121529" data-name="Trazado 121529" d="M57.655,52.525v1.083L51.81,50.233V49.15Z" transform="translate(29.08 56.716)" fill="#3d322c"/>
              <path id="Trazado_121530" data-name="Trazado 121530" d="M52.84,51.2v5.234l-5.846-3.375V47.829Z" transform="translate(44.268 55.191)" fill="#eae2da"/>
              <path id="Trazado_121531" data-name="Trazado 121531" d="M52.84,54.292v1.083L46.994,52V50.917Z" transform="translate(44.268 58.755)" fill="#3d322c"/>
              <path id="Trazado_121532" data-name="Trazado 121532" d="M52.84,55.255v1.081l-5.846-3.373V51.88Z" transform="translate(44.268 59.866)" fill="#3d322c"/>
              <path id="Trazado_121533" data-name="Trazado 121533" d="M47.957,54.163V59.4l-5.846-3.373V50.788Z" transform="translate(59.667 58.606)" fill="#eae2da"/>
              <path id="Trazado_121534" data-name="Trazado 121534" d="M47.957,57.251v1.083l-5.846-3.375V53.876Z" transform="translate(59.667 62.169)" fill="#3d322c"/>
              <path id="Trazado_121535" data-name="Trazado 121535" d="M47.957,58.215V59.3l-5.846-3.375V54.839Z" transform="translate(59.667 63.281)" fill="#3d322c"/>
              <g id="Grupo_152188" data-name="Grupo 152188" transform="translate(88.719 99.772)" opacity="0.5">
                <g id="Grupo_152187" data-name="Grupo 152187" transform="translate(0)">
                  <g id="Grupo_152186" data-name="Grupo 152186" clip-path="url(#clip-path-5)">
                    <path id="Trazado_121536" data-name="Trazado 121536" d="M51.331,46.8v14.1l-.825-.476v-14.1Z" transform="translate(-50.506 -46.321)" fill="#3d322c"/>
                  </g>
                </g>
              </g>
              <g id="Grupo_152191" data-name="Grupo 152191" transform="translate(99.168 105.732)" opacity="0.5">
                <g id="Grupo_152190" data-name="Grupo 152190" transform="translate(0)">
                  <g id="Grupo_152189" data-name="Grupo 152189" clip-path="url(#clip-path-5)">
                    <path id="Trazado_121537" data-name="Trazado 121537" d="M46.48,49.564v14.1l-.825-.476v-14.1Z" transform="translate(-45.655 -49.088)" fill="#3d322c"/>
                  </g>
                </g>
              </g>
              <g id="Grupo_152194" data-name="Grupo 152194" transform="translate(109.7 111.919)" opacity="0.5">
                <g id="Grupo_152193" data-name="Grupo 152193" transform="translate(0)">
                  <g id="Grupo_152192" data-name="Grupo 152192" clip-path="url(#clip-path-5)">
                    <path id="Trazado_121538" data-name="Trazado 121538" d="M41.59,52.437v14.1l-.825-.476v-14.1Z" transform="translate(-40.765 -51.959)" fill="#3d322c"/>
                  </g>
                </g>
              </g>
              <path id="Trazado_121539" data-name="Trazado 121539" d="M38.327,109.377,80.818,84.843V49.523L38.327,74.056Z" transform="translate(34.957 57.146)" fill="#2e0877"/>
              <path id="Trazado_121540" data-name="Trazado 121540" d="M38.327,73.754l1.1.65L81.918,49.871l-1.1-.65Z" transform="translate(33.857 56.798)" fill="#cec6be"/>
              <path id="Trazado_121541" data-name="Trazado 121541" d="M58.054,95.932l1.1.65V61.26l-1.1-.648Z" transform="translate(14.13 69.942)" fill="#b2a89e"/>
              <path id="Trazado_121542" data-name="Trazado 121542" d="M45.434,85.022l12.977-7.532v-21.1L45.434,63.924Z" transform="translate(42.058 65.072)" fill="#ffd140"/>
              <path id="Trazado_121543" data-name="Trazado 121543" d="M45.278,85.914l13.649-7.92V56.121l-13.649,7.92Zm12.977-8.308L45.95,84.751V64.429l12.305-7.145Z" transform="translate(41.877 64.76)" fill="#fff"/>
              <path id="Trazado_121544" data-name="Trazado 121544" d="M50.488,59.48l2.128,6.811-2.671,1.542,1.712,6.188-4.517-6.744,2.654-1.534L48.02,60.9Z" transform="translate(44.176 68.636)" fill="#3d322c"/>
            </g>
          </g>
        </g>
      </g>
      <rect id="Rectángulo_34418" data-name="Rectángulo 34418" width="550" height="445" transform="translate(864.333 112)" fill="none"/>
    </g>
  </g>
</svg>
